<svg width="21" height="20" viewBox="0 0 21 20" fill="none" xmlns="http://www.w3.org/2000/svg">
<g clip-path="url(#clip0)">
<path d="M0.912819 10.8659C1.18667 10.8659 1.36921 11.0471 1.36921 11.3187V17.2044C1.36921 17.476 1.55178 17.6571 1.82559 17.6571H18.2561C18.5299 17.6571 18.7124 17.476 18.7124 17.2044V11.3187C18.7124 11.047 18.895 10.8659 19.1688 10.8659C19.4426 10.8659 19.6252 11.0471 19.6252 11.3187V17.2044C19.6252 17.9741 19.0319 18.5626 18.256 18.5626H1.82559C1.0497 18.5626 0.456392 17.9741 0.456392 17.2044V11.3187C0.456392 11.047 0.638971 10.8659 0.912819 10.8659Z" fill="#C4C4C4"/>
<path d="M1.3692 4.52747H18.7124C19.4883 4.52747 20.0816 5.11603 20.0816 5.8857V8.78329C20.0816 9.4171 19.6252 9.96041 19.0319 10.0962L11.8664 11.6808V13.1296C11.8664 13.4013 11.6838 13.5824 11.41 13.5824H8.67162C8.39777 13.5824 8.21523 13.4012 8.21523 13.1296V11.6808L1.04974 10.0962C0.456388 9.96041 1.90735e-06 9.4171 1.90735e-06 8.78325V5.88566C1.90735e-06 5.11603 0.593311 4.52747 1.3692 4.52747ZM9.12801 12.6769H10.9536V10.8659H9.12801V12.6769ZM0.912815 8.78325C0.912815 9.00962 1.04974 9.19074 1.27793 9.23599L8.21523 10.7753V10.4131C8.21523 10.1415 8.39781 9.96041 8.67162 9.96041H11.41C11.6839 9.96041 11.8664 10.1415 11.8664 10.4131V10.7753L18.8037 9.23603C19.0319 9.19074 19.1688 9.00966 19.1688 8.78329V5.8857C19.1688 5.61405 18.9862 5.43297 18.7124 5.43297H1.3692C1.09535 5.43297 0.912815 5.61409 0.912815 5.8857V8.78325Z" fill="#C4C4C4"/>
<path d="M7.75879 1.35822H12.3228C13.0987 1.35822 13.692 1.94678 13.692 2.71645V3.16919C13.692 3.44084 13.5094 3.62192 13.2356 3.62192C12.9618 3.62192 12.7792 3.4408 12.7792 3.16919V2.71645C12.7792 2.4448 12.5967 2.26372 12.3229 2.26372H7.75883C7.48499 2.26372 7.30245 2.44484 7.30245 2.71645V3.16919C7.30245 3.44084 7.11987 3.62192 6.84606 3.62192C6.57221 3.62192 6.38967 3.4408 6.38967 3.16919V2.71645C6.3896 1.94678 6.98291 1.35822 7.75879 1.35822Z" fill="#C4C4C4"/>
</g>
<defs>
<clipPath id="clip0">
<rect width="20.0816" height="19.9209" fill="white" transform="matrix(-1 0 0 1 20.0816 0)"/>
</clipPath>
</defs>
</svg>
