<svg width="25" height="22" viewBox="0 0 25 22" fill="none" xmlns="http://www.w3.org/2000/svg">
<path d="M24.6089 3.38721C24.2739 2.97217 23.7754 2.73438 23.2417 2.73438H4.18638L4.01621 1.51484C3.8957 0.65127 3.14727 0 2.27524 0H0.78125C0.349805 0 0 0.349756 0 0.78125C0 1.21274 0.349805 1.5625 0.78125 1.5625H2.27524C2.37212 1.5625 2.45532 1.63486 2.46865 1.73081L2.73184 3.61699C2.73213 3.61919 2.73208 3.62134 2.73237 3.62354L4.25874 14.561C4.25889 14.562 4.25913 14.5629 4.25928 14.5638L4.57749 16.8445C4.69805 17.7081 5.44648 18.3594 6.31851 18.3594H7.16563C7.07891 18.6039 7.03125 18.8667 7.03125 19.1406C7.03125 20.433 8.08267 21.4844 9.375 21.4844C10.6673 21.4844 11.7188 20.433 11.7188 19.1406C11.7188 18.8667 11.6711 18.6039 11.5844 18.3594H15.7594C15.6727 18.6039 15.625 18.8667 15.625 19.1406C15.625 20.433 16.6764 21.4844 17.9688 21.4844C19.2611 21.4844 20.3125 20.433 20.3125 19.1406C20.3125 18.8667 20.2648 18.6039 20.1781 18.3594H21.875C22.3064 18.3594 22.6562 18.0096 22.6562 17.5781C22.6562 17.1467 22.3064 16.7969 21.875 16.7969H6.31851C6.22163 16.7969 6.13843 16.7245 6.1251 16.6286L5.93052 15.2344H21.3164C22.1396 15.2344 22.8623 14.6499 23.0356 13.8447L24.9604 4.86084C25.0723 4.33887 24.9443 3.80225 24.6089 3.38721ZM23.4223 5.2313L21.8598 13.0438C21.7855 13.4152 21.4593 13.672 21.0946 13.672C21.0438 13.672 20.9922 13.667 20.9405 13.6567C20.5174 13.5721 20.243 13.1605 20.3276 12.7374L21.8901 4.9249C21.9748 4.50176 22.3864 4.22729 22.8094 4.31201C23.2326 4.39668 23.5069 4.8082 23.4223 5.2313Z" fill="#246B92"/>
</svg>
