<svg width="21" height="21" viewBox="0 0 21 21" fill="none" xmlns="http://www.w3.org/2000/svg">
<path d="M15.4219 4.92188C14.7423 4.92188 14.1914 4.37099 14.1914 3.69141V1.23047C14.1914 0.550881 14.7423 0 15.4219 0C16.1015 0 16.6523 0.550881 16.6523 1.23047V3.69141C16.6523 4.37099 16.1015 4.92188 15.4219 4.92188Z" fill="#525252"/>
<path d="M18.7441 2.46094H17.8828V3.69141C17.8828 5.04837 16.7788 6.15234 15.4219 6.15234C14.0649 6.15234 12.9609 5.04837 12.9609 3.69141V2.46094H8.03906V3.69141C8.03906 5.04837 6.93509 6.15234 5.57812 6.15234C4.22116 6.15234 3.11719 5.04837 3.11719 3.69141V2.46094H2.25586C1.01198 2.46094 0 3.47292 0 4.7168V7.46484H21V4.7168C21 3.47292 19.988 2.46094 18.7441 2.46094Z" fill="#525252"/>
<path d="M5.57812 4.92188C4.89854 4.92188 4.34766 4.37099 4.34766 3.69141V1.23047C4.34766 0.550881 4.89854 0 5.57812 0C6.25771 0 6.80859 0.550881 6.80859 1.23047V3.69141C6.80859 4.37099 6.25771 4.92188 5.57812 4.92188Z" fill="#525252"/>
<path d="M0 8.69531V18.7441C0 19.988 1.01198 21 2.25586 21H18.7441C19.988 21 21 19.988 21 18.7441V8.69531H0ZM11.1466 16.6934C11.1466 18.0503 10.0426 19.1543 8.68563 19.1543C7.46468 19.1543 6.41694 18.2435 6.24836 17.0358C6.23265 16.9232 6.2247 16.808 6.2247 16.6934C6.2247 16.3536 6.50016 16.0781 6.83993 16.0781C7.1797 16.0781 7.45516 16.3536 7.45516 16.6934C7.45516 16.7513 7.45918 16.8093 7.46706 16.8658C7.55118 17.469 8.07507 17.9238 8.68563 17.9238C9.36411 17.9238 9.9161 17.3718 9.9161 16.6934C9.9161 16.0149 9.36411 15.4629 8.68563 15.4629C8.34586 15.4629 8.0704 15.1874 8.0704 14.8477C8.0704 14.5079 8.34586 14.2324 8.68563 14.2324C9.36411 14.2324 9.9161 13.6804 9.9161 13.002C9.9161 12.3235 9.36411 11.7715 8.68563 11.7715C8.09886 11.7715 7.59109 12.1884 7.47826 12.7628C7.41271 13.0962 7.08906 13.3133 6.75601 13.2479C6.4226 13.1824 6.20538 12.8591 6.27088 12.5256C6.49671 11.3757 7.51226 10.541 8.68563 10.541C10.0426 10.541 11.1466 11.645 11.1466 13.002C11.1466 13.7365 10.8227 14.3964 10.3108 14.8477C10.8227 15.299 11.1466 15.9589 11.1466 16.6934ZM14.7753 18.5391C14.7753 18.8788 14.4998 19.1543 14.1601 19.1543C13.8203 19.1543 13.5448 18.8788 13.5448 18.5391V11.7715H12.5821C12.2423 11.7715 11.9668 11.496 11.9668 11.1562C11.9668 10.8165 12.2423 10.541 12.5821 10.541H14.1601C14.4998 10.541 14.7753 10.8165 14.7753 11.1562V18.5391Z" fill="#525252"/>
</svg>
