<svg width="23" height="20" viewBox="0 0 23 20" fill="none" xmlns="http://www.w3.org/2000/svg">
<path d="M15.4806 11.7732L12.3698 9.74713V5.62003C12.3698 5.20506 11.9836 4.86963 11.5057 4.86963C11.0279 4.86963 10.6416 5.20506 10.6416 5.62003V10.1224C10.6416 10.3587 10.7695 10.5816 10.9872 10.7227L14.4436 12.9739C14.5991 13.0752 14.7806 13.1239 14.9612 13.1239C15.2247 13.1239 15.484 13.0211 15.6534 12.823C15.9403 12.4921 15.8625 12.0216 15.4806 11.7732Z" fill="#B7B7B7"/>
<path d="M11.505 0.375C5.35356 0.375 0.349609 4.72049 0.349609 10.0625C0.349609 15.4045 5.35356 19.75 11.505 19.75C17.6565 19.75 22.6604 15.4045 22.6604 10.0625C22.6604 4.72049 17.6565 0.375 11.505 0.375ZM11.505 18.2492C6.30752 18.2492 2.07778 14.5761 2.07778 10.0625C2.07778 5.54892 6.30752 1.87577 11.505 1.87577C16.7034 1.87577 20.9323 5.54892 20.9323 10.0625C20.9323 14.5761 16.7025 18.2492 11.505 18.2492Z" fill="#B7B7B7"/>
</svg>
