<?xml version="1.0" encoding="utf-8"?>
<!-- Generator: Adobe Illustrator 23.1.0, SVG Export Plug-In . SVG Version: 6.00 Build 0)  -->
<!DOCTYPE svg PUBLIC "-//W3C//DTD SVG 1.1//EN" "http://www.w3.org/Graphics/SVG/1.1/DTD/svg11.dtd" [
	<!ENTITY ns_extend "http://ns.adobe.com/Extensibility/1.0/">
	<!ENTITY ns_ai "http://ns.adobe.com/AdobeIllustrator/10.0/">
	<!ENTITY ns_graphs "http://ns.adobe.com/Graphs/1.0/">
	<!ENTITY ns_vars "http://ns.adobe.com/Variables/1.0/">
	<!ENTITY ns_imrep "http://ns.adobe.com/ImageReplacement/1.0/">
	<!ENTITY ns_sfw "http://ns.adobe.com/SaveForWeb/1.0/">
	<!ENTITY ns_custom "http://ns.adobe.com/GenericCustomNamespace/1.0/">
	<!ENTITY ns_adobe_xpath "http://ns.adobe.com/XPath/1.0/">
]>
<svg version="1.1" id="Слой_1" xmlns:x="&ns_extend;" xmlns:i="&ns_ai;" xmlns:graph="&ns_graphs;"
	 xmlns="http://www.w3.org/2000/svg" xmlns:xlink="http://www.w3.org/1999/xlink" x="0px" y="0px" viewBox="0 0 140 121.4"
	 style="enable-background:new 0 0 140 121.4;" xml:space="preserve">
<metadata>
	<sfw  xmlns="&ns_sfw;">
		<slices></slices>
		<sliceSourceBounds  bottomLeftOrigin="true" height="121.4" width="140" x="0" y="3.3"></sliceSourceBounds>
	</sfw>
</metadata>
<path style="fill:#AFB6BB;" d="M96,114.8H44c-0.5,0-0.8-0.7-0.3-1l4.4-2.8c4.7-3,6.9-8.6,5.6-13.9h32.8v0C85,102.4,87.3,108,92,111
	l4.4,2.8C96.8,114.1,96.5,114.8,96,114.8z"/>
<path style="fill:#E7ECED;" d="M131.6,97.1H8.4c-4.7,0-8.4-3.5-8.4-7.7V7.7C0,3.5,3.8,0,8.4,0h123.1c4.7,0,8.4,3.5,8.4,7.7v81.7
	C140,93.6,136.2,97.1,131.6,97.1z"/>
<path style="fill:#38454F;" d="M140,77.2H0V7.7C0,3.5,3.8,0,8.4,0h123.1c4.7,0,8.4,3.5,8.4,7.7V77.2z"/>
<path style="fill:#E7ECED;" d="M97.8,121.4H42.2c-2,0-3.6-1.5-3.6-3.3c0-1.8,1.6-3.3,3.6-3.3h55.5c2,0,3.6,1.5,3.6,3.3
	C101.4,119.9,99.8,121.4,97.8,121.4z"/>
<path style="fill:#DDEAFB;" d="M38,30.1H21.4c-1,0-1.9-2.3-1.9-5.1s0.8-5.1,1.9-5.1H38c1,0,1.9,2.3,1.9,5.1S39,30.1,38,30.1z"/>
<path style="fill:#DDEAFB;" d="M91.7,30.1H75.1c-1,0-1.9-2.3-1.9-5.1s0.8-5.1,1.9-5.1h16.6c1,0,1.9,2.3,1.9,5.1S92.8,30.1,91.7,30.1
	z"/>
<path style="fill:#DDEAFB;" d="M38,44H21.4c-1,0-1.9-2.3-1.9-5.1c0-2.8,0.8-5.1,1.9-5.1H38c1,0,1.9,2.3,1.9,5.1
	C39.9,41.7,39,44,38,44z"/>
<path style="fill:#DDEAFB;" d="M91.7,44H75.1c-1,0-1.9-2.3-1.9-5.1c0-2.8,0.8-5.1,1.9-5.1h16.6c1,0,1.9,2.3,1.9,5.1
	C93.6,41.7,92.8,44,91.7,44z"/>
<path style="fill:#DDEAFB;" d="M38,57.9H21.4c-1,0-1.9-2.3-1.9-5.1c0-2.8,0.8-5.1,1.9-5.1H38c1,0,1.9,2.3,1.9,5.1
	C39.9,55.6,39,57.9,38,57.9z"/>
<path style="fill:#DDEAFB;" d="M91.7,57.9H75.1c-1,0-1.9-2.3-1.9-5.1c0-2.8,0.8-5.1,1.9-5.1h16.6c1,0,1.9,2.3,1.9,5.1
	C93.6,55.6,92.8,57.9,91.7,57.9z"/>
<path style="fill:#DDEAFB;" d="M64.9,30.1H48.3c-1,0-1.9-2.3-1.9-5.1s0.8-5.1,1.9-5.1h16.6c1,0,1.9,2.3,1.9,5.1S65.9,30.1,64.9,30.1
	z"/>
<path style="fill:#DDEAFB;" d="M118.6,30.1H102c-1,0-1.9-2.3-1.9-5.1s0.8-5.1,1.9-5.1h16.6c1,0,1.9,2.3,1.9,5.1
	S119.7,30.1,118.6,30.1z"/>
<path style="fill:#DDEAFB;" d="M64.9,44H48.3c-1,0-1.9-2.3-1.9-5.1c0-2.8,0.8-5.1,1.9-5.1h16.6c1,0,1.9,2.3,1.9,5.1
	C66.8,41.7,65.9,44,64.9,44z"/>
<path style="fill:#DDEAFB;" d="M118.6,44H102c-1,0-1.9-2.3-1.9-5.1c0-2.8,0.8-5.1,1.9-5.1h16.6c1,0,1.9,2.3,1.9,5.1
	C120.5,41.7,119.7,44,118.6,44z"/>
<path style="fill:#DDEAFB;" d="M64.9,57.9H48.3c-1,0-1.9-2.3-1.9-5.1c0-2.8,0.8-5.1,1.9-5.1h16.6c1,0,1.9,2.3,1.9,5.1
	C66.8,55.6,65.9,57.9,64.9,57.9z"/>
<path style="fill:#DDEAFB;" d="M118.6,57.9H102c-1,0-1.9-2.3-1.9-5.1c0-2.8,0.8-5.1,1.9-5.1h16.6c1,0,1.9,2.3,1.9,5.1
	C120.5,55.6,119.7,57.9,118.6,57.9z"/>
<path style="fill:#EAB14D;" d="M97.7,75.3l5.8-5.8l14.7,14.7l-5.8,5.8L97.7,75.3z"/>
<path style="fill:#FF8A00;" d="M130.1,101.8c-2,2-5.3,2-7.4,0l-14.6-14.6c-0.9-0.9-0.9-2.3,0-3.2l4.2-4.2c0.9-0.9,2.3-0.9,3.2,0
	l14.6,14.6C132.2,96.5,132.2,99.8,130.1,101.8z"/>
<path style="fill:#818181;" d="M87.6,84.8c14.1,0,25.5-11.4,25.5-25.5s-11.4-25.5-25.5-25.5c-14.1,0-25.5,11.4-25.5,25.5
	S73.5,84.8,87.6,84.8z"/>
<path style="fill:#DDEAFB;" d="M87.6,77.4c10,0,18.1-8.1,18.1-18.1c0-10-8.1-18.1-18.1-18.1s-18.1,8.1-18.1,18.1
	C69.5,69.3,77.6,77.4,87.6,77.4z"/>
<path style="fill:#BED8FB;" d="M87.4,41.2c-2.7,0-5.3,0.6-7.6,1.6c6.3,2.9,10.7,9.1,10.7,16.5c0,7.3-4.4,13.6-10.7,16.5
	c2.3,1,4.9,1.6,7.6,1.6c10.1,0,18.3-8.1,18.3-18.1C105.7,49.3,97.5,41.2,87.4,41.2z"/>
</svg>
