<?xml version="1.0" encoding="utf-8"?>
<!-- Generator: Adobe Illustrator 23.1.0, SVG Export Plug-In . SVG Version: 6.00 Build 0)  -->
<!DOCTYPE svg PUBLIC "-//W3C//DTD SVG 1.1//EN" "http://www.w3.org/Graphics/SVG/1.1/DTD/svg11.dtd" [
	<!ENTITY ns_extend "http://ns.adobe.com/Extensibility/1.0/">
	<!ENTITY ns_ai "http://ns.adobe.com/AdobeIllustrator/10.0/">
	<!ENTITY ns_graphs "http://ns.adobe.com/Graphs/1.0/">
	<!ENTITY ns_vars "http://ns.adobe.com/Variables/1.0/">
	<!ENTITY ns_imrep "http://ns.adobe.com/ImageReplacement/1.0/">
	<!ENTITY ns_sfw "http://ns.adobe.com/SaveForWeb/1.0/">
	<!ENTITY ns_custom "http://ns.adobe.com/GenericCustomNamespace/1.0/">
	<!ENTITY ns_adobe_xpath "http://ns.adobe.com/XPath/1.0/">
]>
<svg version="1.1" id="Слой_1" xmlns:x="&ns_extend;" xmlns:i="&ns_ai;" xmlns:graph="&ns_graphs;"
	 xmlns="http://www.w3.org/2000/svg" xmlns:xlink="http://www.w3.org/1999/xlink" x="0px" y="0px" viewBox="0 0 140 121.3"
	 style="enable-background:new 0 0 140 121.3;" xml:space="preserve">
<metadata>
	<sfw  xmlns="&ns_sfw;">
		<slices></slices>
		<sliceSourceBounds  bottomLeftOrigin="true" height="154" width="140" x="0" y="0.3"></sliceSourceBounds>
	</sfw>
</metadata>
<g>
	<defs>
		<rect id="SVGID_1_" y="-3.3" width="140" height="128"/>
	</defs>
	<clipPath id="SVGID_2_">
		<use xlink:href="#SVGID_1_"  style="overflow:visible;"/>
	</clipPath>
	<g style="clip-path:url(#SVGID_2_);">
		<path style="fill:#AFB6BB;" d="M96,114.8H44c-0.5,0-0.8-0.7-0.3-1l4.4-2.8c4.7-3,6.9-8.6,5.6-13.9h32.8v0
			C85,102.4,87.3,108,92,111l4.4,2.8C96.8,114.1,96.5,114.8,96,114.8z"/>
		<path style="fill:#E7ECED;" d="M131.6,97.1H8.4c-4.7,0-8.4-3.5-8.4-7.7V7.7C0,3.5,3.8,0,8.4,0h123.1c4.7,0,8.4,3.5,8.4,7.7v81.7
			C140,93.6,136.2,97.1,131.6,97.1z"/>
		<path style="fill:#38454F;" d="M140,77.2H0V7.7C0,3.5,3.8,0,8.4,0h123.1c4.7,0,8.4,3.5,8.4,7.7V77.2z"/>
		<path style="fill:#E7ECED;" d="M97.8,121.4H42.2c-2,0-3.6-1.5-3.6-3.3c0-1.8,1.6-3.3,3.6-3.3h55.5c2,0,3.6,1.5,3.6,3.3
			C101.4,119.9,99.8,121.4,97.8,121.4z"/>
		<g>
			<defs>
				<rect id="SVGID_3_" x="13" y="-29.3" width="88.1" height="93.7"/>
			</defs>
			<clipPath id="SVGID_4_">
				<use xlink:href="#SVGID_3_"  style="overflow:visible;"/>
			</clipPath>
			<g style="clip-path:url(#SVGID_4_);">
				<path style="fill:#FFD064;" d="M43.8,64.4C43.8,64.4,43.8,64.4,43.8,64.4c-0.2,0,18.8,0,35.1,0C68.7,64.4,54,64.4,43.8,64.4z"/>
				<g>
					<defs>
						<rect id="SVGID_5_" x="48.2" y="16.2" width="45.4" height="45.4"/>
					</defs>
					<clipPath id="SVGID_6_">
						<use xlink:href="#SVGID_5_"  style="overflow:visible;"/>
					</clipPath>
					<g style="clip-path:url(#SVGID_6_);">
						<path style="fill:#F9EFAF;" d="M85.4,47.7c0.7,0,1.2-0.6,1.2-1.2V22.2c0-0.9-0.8-1.7-1.7-1.7H71.3h-0.2h-5.5
							c-1.1,0-2.1-0.5-2.7-1.5l-0.4-0.7c-0.6-0.9-1.6-1.4-2.7-1.5l-3.4,0c-1.4,0-2.5,1.1-2.5,2.5l0,26.4c0,1,0.8,1.8,1.8,1.8
							c0,0,0,0,0,0h0c0,0,0,0,0,0c0,0,0,0,0,0L85.4,47.7z"/>
						<path style="fill:#FBE77B;" d="M59.6,16.9c1.1,0,2.1,0.5,2.7,1.5l0.4,0.7c0.6,0.9,1.6,1.5,2.7,1.5h5.7c-1.1,0-2.1-0.5-2.7-1.5
							L68,18.4c-0.6-0.9-1.6-1.4-2.7-1.5H59.6z"/>
						<path style="fill:#FBE77B;" d="M90.4,20.5h-5.7c0.9,0,1.7,0.8,1.7,1.7v24.3c0,0.7-0.5,1.2-1.2,1.2l5.6,0
							c0.7,0,1.2-0.6,1.2-1.2V22.2C92.1,21.3,91.3,20.5,90.4,20.5z"/>
						<path style="fill:#F6E266;" d="M81.7,51.7c0.7,0,1.2-0.6,1.2-1.2V26.1c0-0.9-0.8-1.7-1.7-1.7H67.5c-1.1,0-2.1-0.5-2.7-1.5
							l-0.4-0.7c-0.6-0.9-1.6-1.4-2.7-1.4l-8.9,0c-1.4,0-2.5,1.1-2.5,2.5l0,26.4c0,1,0.8,1.8,1.8,1.8C51.8,51.6,84.5,51.7,81.7,51.7
							z"/>
						<path style="fill:#FFD064;" d="M56,20.9c1.1,0,2.1,0.5,2.7,1.4l0.4,0.7c0.6,0.9,1.6,1.5,2.7,1.5h5.6c-1.1,0-2.1-0.5-2.7-1.5
							l-0.4-0.7c-0.6-0.9-1.6-1.4-2.7-1.4l-8.9,0c0,0-0.1,0-0.1,0L56,20.9z"/>
						<path style="fill:#FFD064;" d="M86.7,24.4H81c0.9,0,1.7,0.8,1.7,1.7v24.3c0,0.7-0.5,1.2-1.2,1.2c3.1,0,5.2,0,5.6,0
							c0.7,0,1.2-0.6,1.2-1.2V26.1C88.4,25.2,87.6,24.4,86.7,24.4z"/>
						<path style="fill:#F6F9F9;" d="M62.9,32H54c-0.4,0-0.7-0.3-0.7-0.7c0-0.4,0.3-0.7,0.7-0.7h8.9c0.4,0,0.7,0.3,0.7,0.7
							C63.6,31.7,63.3,32,62.9,32z"/>
						<path style="fill:#F6F9F9;" d="M62.9,28.3H54c-0.4,0-0.7-0.3-0.7-0.7c0-0.4,0.3-0.7,0.7-0.7h8.9c0.4,0,0.7,0.3,0.7,0.7
							C63.6,28,63.3,28.3,62.9,28.3z"/>
						<path style="fill:#B78E8E;" d="M88.2,57.4V38.8c0-0.7-0.5-1.2-1.2-1.2h-4.3c-0.6,0-1,0.5-1,1v0.8c0,0.8-0.6,1.4-1.4,1.4H61.6
							c-0.8,0-1.4-0.6-1.4-1.4v-0.8c0-0.6-0.5-1-1-1h-9.8c-0.7,0-1.2,0.5-1.2,1.2v18.6c0,1.9,1.6,3.5,3.5,3.5h33
							C86.6,60.9,88.2,59.3,88.2,57.4z M78.7,48.7c0,1-0.8,1.8-1.8,1.8H65c-1,0-1.8-0.8-1.8-1.8c0-1,0.8-1.8,1.8-1.8h11.9
							C77.9,46.8,78.7,47.6,78.7,48.7z"/>
						<path style="fill:#AA8080;" d="M92.4,37.6h-5.6c0.7,0,1.2,0.5,1.2,1.2v18.6c0,1.9-1.6,3.5-3.5,3.5h5.6c1.9,0,3.5-1.6,3.5-3.5
							V38.8C93.6,38.1,93.1,37.6,92.4,37.6z"/>
						<path style="fill:#AA8080;" d="M54.6,38.6v0.8c0,0.8,0.6,1.4,1.4,1.4h5.6c-0.8,0-1.4-0.6-1.4-1.4v-0.8c0-0.6-0.5-1-1-1h-5.6
							C54.1,37.6,54.6,38,54.6,38.6z"/>
					</g>
				</g>
			</g>
		</g>
	</g>
</g>
<path style="fill:#EFADA3;" d="M124.4,62.4c-0.4,0-0.8,0.1-1.1,0.2c-0.3,0.2-0.7,0.4-0.9,0.7c-0.3,0.3-0.5,0.6-0.6,1
	c-0.1,0.4-0.2,0.8-0.2,1.2v-1.9c0-0.8-0.3-1.5-0.8-2.1c-0.5-0.6-1.1-0.9-1.9-1c-0.7-0.1-1.4,0.2-2,0.6c-0.6,0.5-1,1.2-1.1,1.9v-1.4
	c0-0.8-0.3-1.6-0.8-2.1c-0.5-0.6-1.2-0.9-1.9-0.9c-0.7,0-1.4,0.3-1.9,0.9c-0.5,0.6-0.8,1.3-0.8,2.1h0l-0.6-21.2
	c0-0.9-0.3-1.8-0.9-2.4c-0.6-0.6-1.4-1-2.2-1c-0.8,0-1.6,0.4-2.2,1c-0.6,0.6-0.9,1.5-0.9,2.4l0.6,33.2l-2.1-3.3
	c-0.8-1.2-1.8-2.2-3-2.9c-1.2-0.7-2.5-1-3.9-1c-0.3,0-0.6,0.1-0.8,0.4C94.1,67,94,67.3,94,67.7c0,0.2,0,0.3,0.1,0.5l0.2,0.5
	c0.9,2.2,1.6,4.4,2.1,6.7l2.3,10c0.4,1.5,1.3,2.9,2.4,3.8c1.2,1,2.6,1.5,4.1,1.5h15.3c0.9,0,1.8-0.2,2.6-0.6
	c0.8-0.4,1.6-0.9,2.2-1.6c0.6-0.7,1.1-1.5,1.5-2.4c0.3-0.9,0.5-1.9,0.5-2.8V65.6c0-0.8-0.3-1.6-0.8-2.2
	C125.9,62.7,125.2,62.4,124.4,62.4z"/>
</svg>
