<?xml version="1.0" encoding="utf-8"?>
<!-- Generator: Adobe Illustrator 23.1.0, SVG Export Plug-In . SVG Version: 6.00 Build 0)  -->
<!DOCTYPE svg PUBLIC "-//W3C//DTD SVG 1.1//EN" "http://www.w3.org/Graphics/SVG/1.1/DTD/svg11.dtd" [
	<!ENTITY ns_extend "http://ns.adobe.com/Extensibility/1.0/">
	<!ENTITY ns_ai "http://ns.adobe.com/AdobeIllustrator/10.0/">
	<!ENTITY ns_graphs "http://ns.adobe.com/Graphs/1.0/">
	<!ENTITY ns_vars "http://ns.adobe.com/Variables/1.0/">
	<!ENTITY ns_imrep "http://ns.adobe.com/ImageReplacement/1.0/">
	<!ENTITY ns_sfw "http://ns.adobe.com/SaveForWeb/1.0/">
	<!ENTITY ns_custom "http://ns.adobe.com/GenericCustomNamespace/1.0/">
	<!ENTITY ns_adobe_xpath "http://ns.adobe.com/XPath/1.0/">
]>
<svg version="1.1" id="Слой_1" xmlns:x="&ns_extend;" xmlns:i="&ns_ai;" xmlns:graph="&ns_graphs;"
	 xmlns="http://www.w3.org/2000/svg" xmlns:xlink="http://www.w3.org/1999/xlink" x="0px" y="0px" viewBox="0 0 141 121.3"
	 style="enable-background:new 0 0 141 121.3;" xml:space="preserve">
<metadata>
	<sfw  xmlns="&ns_sfw;">
		<slices></slices>
		<sliceSourceBounds  bottomLeftOrigin="true" height="128" width="140" x="0.2" y="0"></sliceSourceBounds>
	</sfw>
</metadata>
<g>
	<defs>
		<rect id="SVGID_1_" x="0.2" y="-3.3" width="140" height="128"/>
	</defs>
	<clipPath id="SVGID_2_">
		<use xlink:href="#SVGID_1_"  style="overflow:visible;"/>
	</clipPath>
	<g style="clip-path:url(#SVGID_2_);">
		<path style="fill:#AFB6BB;" d="M96.2,114.7h-52c-0.5,0-0.8-0.7-0.3-1l4.4-2.8c4.7-3,6.9-8.6,5.6-13.9h32.8v0
			c-1.4,5.3,0.9,10.8,5.6,13.9l4.4,2.8C97,114.1,96.8,114.7,96.2,114.7z"/>
		<path style="fill:#E7ECED;" d="M131.8,97.1H8.7c-4.7,0-8.4-3.5-8.4-7.7V7.7C0.2,3.5,4,0,8.7,0h123.1c4.7,0,8.4,3.5,8.4,7.7v81.6
			C140.2,93.6,136.5,97.1,131.8,97.1z"/>
		<path style="fill:#38454F;" d="M140.2,77.2H0.2V7.7C0.2,3.5,4,0,8.7,0h123.1c4.7,0,8.4,3.5,8.4,7.7V77.2z"/>
		<path style="fill:#E7ECED;" d="M98,121.3H42.5c-2,0-3.6-1.5-3.6-3.3c0-1.8,1.6-3.3,3.6-3.3H98c2,0,3.6,1.5,3.6,3.3
			C101.6,119.9,100,121.3,98,121.3z"/>
		<path style="fill:#B0B5CA;" d="M12.3,3.2H6.9c-0.5,0-1,0.1-1.5,0.3C4.9,3.7,4.5,4,4.1,4.4C3.8,4.8,3.5,5.2,3.3,5.7
			C3.1,6.2,3,6.7,3,7.3v12.6h5.4V7.3c0-0.5,0.1-1.1,0.3-1.6c0.2-0.5,0.5-0.9,0.8-1.3c0.4-0.4,0.8-0.7,1.3-0.9
			C11.3,3.3,11.8,3.2,12.3,3.2L12.3,3.2z"/>
		<g>
			<defs>
				<rect id="SVGID_3_" x="3" y="0.4" width="137.2" height="77"/>
			</defs>
			<clipPath id="SVGID_4_">
				<use xlink:href="#SVGID_3_"  style="overflow:visible;"/>
			</clipPath>
			<g style="clip-path:url(#SVGID_4_);">
				<path style="fill:#6D7486;" d="M136.5,7.3v12.6H5.8V7.3c0-0.5,0.2-1.1,0.5-1.6C6.5,5.2,7,4.8,7.5,4.4C8.1,4,8.7,3.7,9.5,3.5
					c0.7-0.2,1.5-0.3,2.3-0.3h118.9c0.8,0,1.6,0.1,2.3,0.3c0.7,0.2,1.4,0.5,1.9,0.9c0.6,0.4,1,0.8,1.3,1.3
					C136.4,6.2,136.5,6.7,136.5,7.3z"/>
				<path style="fill:#E2E4ED;" d="M8.4,78.6V19.9H3v58.7c0,1.2,0.4,2.3,1.1,3.1c0.7,0.8,1.7,1.3,2.7,1.3h5.4c-1,0-2-0.5-2.7-1.3
					C8.8,80.8,8.4,79.7,8.4,78.6L8.4,78.6z"/>
				<path style="fill:#38454F;" d="M5.8,19.9v57c0,1.1,0.6,2.2,1.7,3c1.1,0.8,2.6,1.2,4.2,1.2h118.9c1.6,0,3.1-0.4,4.2-1.2
					c1.1-0.8,1.7-1.9,1.7-3v-57H5.8z"/>
				<path style="fill:#50DD5A;" d="M38.5,8.2c0.6,0,1.2,0.2,1.7,0.5c0.5,0.3,0.9,0.8,1.1,1.4c0.2,0.6,0.3,1.2,0.2,1.8
					c-0.1,0.6-0.4,1.2-0.9,1.6c-0.4,0.4-1,0.7-1.6,0.9c-0.6,0.1-1.2,0.1-1.8-0.2c-0.6-0.2-1.1-0.6-1.4-1.1c-0.3-0.5-0.5-1.1-0.5-1.7
					c0-0.8,0.3-1.6,0.9-2.2C36.9,8.5,37.7,8.2,38.5,8.2L38.5,8.2z"/>
				<path style="fill:#FE8700;" d="M27.4,8.2c0.6,0,1.2,0.2,1.7,0.5c0.5,0.3,0.9,0.8,1.1,1.4c0.2,0.6,0.3,1.2,0.2,1.8
					c-0.1,0.6-0.4,1.2-0.9,1.6c-0.4,0.4-1,0.7-1.6,0.9c-0.6,0.1-1.2,0.1-1.8-0.2c-0.6-0.2-1.1-0.6-1.4-1.1c-0.3-0.5-0.5-1.1-0.5-1.7
					c0-0.8,0.3-1.6,0.9-2.2C25.8,8.5,26.6,8.2,27.4,8.2L27.4,8.2z"/>
				<path style="fill:#F43B3B;" d="M16.3,8.2c0.6,0,1.2,0.2,1.7,0.5s0.9,0.8,1.1,1.4c0.2,0.6,0.3,1.2,0.2,1.8
					c-0.1,0.6-0.4,1.2-0.9,1.6c-0.4,0.4-1,0.7-1.6,0.9c-0.6,0.1-1.2,0.1-1.8-0.2c-0.6-0.2-1.1-0.6-1.4-1.1c-0.3-0.5-0.5-1.1-0.5-1.7
					c0-0.8,0.3-1.6,0.9-2.2C14.7,8.5,15.5,8.2,16.3,8.2z"/>
				<path style="fill:#6D7486;" d="M25.3,43H14.8c-0.4,0-0.8-0.2-1.1-0.5c-0.3-0.3-0.5-0.7-0.5-1.1V31c0-0.4,0.2-0.8,0.5-1.1
					c0.3-0.3,0.7-0.5,1.1-0.5h5.3c0.3,0,0.6,0.1,0.8,0.3c0.2,0.2,0.3,0.5,0.3,0.8c0,0.3-0.1,0.6-0.3,0.8c-0.2,0.2-0.5,0.3-0.8,0.3
					h-4.7v9.3h9.3v-3c0-0.3,0.1-0.6,0.3-0.8c0.2-0.2,0.5-0.3,0.8-0.3c0.3,0,0.6,0.1,0.8,0.3c0.2,0.2,0.3,0.5,0.3,0.8v3.6
					c0,0.4-0.2,0.8-0.5,1.1C26.1,42.9,25.7,43,25.3,43z"/>
				<path style="fill:#FF8A00;" d="M21.1,37.6c-0.4,0-0.8-0.1-1.1-0.4l-2-1.6c-0.1-0.1-0.2-0.2-0.3-0.3c-0.1-0.1-0.1-0.3-0.1-0.4
					c0-0.1,0-0.3,0-0.4c0-0.1,0.1-0.3,0.2-0.4c0.1-0.1,0.2-0.2,0.3-0.3c0.1-0.1,0.3-0.1,0.4-0.1c0.1,0,0.3,0,0.4,0
					c0.1,0,0.3,0.1,0.4,0.2l1.7,1.4l5.2-6.3c0.1-0.1,0.2-0.2,0.3-0.3c0.1-0.1,0.3-0.1,0.4-0.1c0.1,0,0.3,0,0.4,0
					c0.1,0,0.3,0.1,0.4,0.2c0.1,0.1,0.2,0.2,0.3,0.3c0.1,0.1,0.1,0.3,0.1,0.4c0,0.1,0,0.3,0,0.4c0,0.1-0.1,0.3-0.2,0.4L22.4,37l0,0
					C22,37.4,21.5,37.5,21.1,37.6L21.1,37.6z"/>
				<path style="fill:#9FA9B7;" d="M127.4,32.3H84.6c-0.3,0-0.6-0.1-0.8-0.3c-0.2-0.2-0.3-0.5-0.3-0.8c0-0.3,0.1-0.6,0.3-0.8
					c0.2-0.2,0.5-0.3,0.8-0.3h42.8c0.3,0,0.6,0.1,0.8,0.3c0.2,0.2,0.3,0.5,0.3,0.8c0,0.3-0.1,0.6-0.3,0.8
					C128,32.2,127.7,32.3,127.4,32.3z"/>
				<path style="fill:#9FA9B7;" d="M85.9,32.3H43c-0.3,0-0.6-0.1-0.8-0.3c-0.2-0.2-0.3-0.5-0.3-0.8c0-0.3,0.1-0.6,0.3-0.8
					c0.2-0.2,0.5-0.3,0.8-0.3h42.8c0.3,0,0.6,0.1,0.8,0.3c0.2,0.2,0.3,0.5,0.3,0.8c0,0.3-0.1,0.6-0.3,0.8
					C86.4,32.2,86.2,32.3,85.9,32.3z"/>
				<path style="fill:#9FA9B7;" d="M82.2,32.3H39.3c-0.3,0-0.6-0.1-0.8-0.3c-0.2-0.2-0.3-0.5-0.3-0.8c0-0.3,0.1-0.6,0.3-0.8
					c0.2-0.2,0.5-0.3,0.8-0.3h42.8c0.3,0,0.6,0.1,0.8,0.3c0.2,0.2,0.3,0.5,0.3,0.8c0,0.3-0.1,0.6-0.3,0.8
					C82.7,32.2,82.5,32.3,82.2,32.3z"/>
				<path style="fill:#9FA9B7;" d="M82.2,55.4H39.3c-0.3,0-0.6-0.1-0.8-0.3c-0.2-0.2-0.3-0.5-0.3-0.8s0.1-0.6,0.3-0.8
					c0.2-0.2,0.5-0.3,0.8-0.3h42.8c0.3,0,0.6,0.1,0.8,0.3c0.2,0.2,0.3,0.5,0.3,0.8s-0.1,0.6-0.3,0.8C82.7,55.3,82.5,55.4,82.2,55.4z
					"/>
				<path style="fill:#9FA9B7;" d="M85.9,55.4H43c-0.3,0-0.6-0.1-0.8-0.3c-0.2-0.2-0.3-0.5-0.3-0.8s0.1-0.6,0.3-0.8
					c0.2-0.2,0.5-0.3,0.8-0.3h42.8c0.3,0,0.6,0.1,0.8,0.3c0.2,0.2,0.3,0.5,0.3,0.8s-0.1,0.6-0.3,0.8C86.4,55.3,86.2,55.4,85.9,55.4z
					"/>
				<path style="fill:#9FA9B7;" d="M127.4,41.4H84.6c-0.3,0-0.6-0.1-0.8-0.3c-0.2-0.2-0.3-0.5-0.3-0.8s0.1-0.6,0.3-0.8
					c0.2-0.2,0.5-0.3,0.8-0.3h42.8c0.3,0,0.6,0.1,0.8,0.3c0.2,0.2,0.3,0.5,0.3,0.8s-0.1,0.6-0.3,0.8C128,41.3,127.7,41.4,127.4,41.4
					L127.4,41.4z"/>
				<path style="fill:#9FA9B7;" d="M85.9,41.4H43c-0.3,0-0.6-0.1-0.8-0.3c-0.2-0.2-0.3-0.5-0.3-0.8s0.1-0.6,0.3-0.8
					c0.2-0.2,0.5-0.3,0.8-0.3h42.8c0.3,0,0.6,0.1,0.8,0.3c0.2,0.2,0.3,0.5,0.3,0.8s-0.1,0.6-0.3,0.8C86.4,41.3,86.2,41.4,85.9,41.4
					L85.9,41.4z"/>
				<path style="fill:#9FA9B7;" d="M82.2,41.4H39.3c-0.3,0-0.6-0.1-0.8-0.3c-0.2-0.2-0.3-0.5-0.3-0.8s0.1-0.6,0.3-0.8
					c0.2-0.2,0.5-0.3,0.8-0.3h42.8c0.3,0,0.6,0.1,0.8,0.3c0.2,0.2,0.3,0.5,0.3,0.8s-0.1,0.6-0.3,0.8C82.7,41.3,82.5,41.4,82.2,41.4
					L82.2,41.4z"/>
				<path style="fill:#9FA9B7;" d="M82.2,64.5H39.3c-0.3,0-0.6-0.1-0.8-0.3c-0.2-0.2-0.3-0.5-0.3-0.8s0.1-0.6,0.3-0.8
					c0.2-0.2,0.5-0.3,0.8-0.3h42.8c0.3,0,0.6,0.1,0.8,0.3c0.2,0.2,0.3,0.5,0.3,0.8s-0.1,0.6-0.3,0.8C82.7,64.4,82.5,64.5,82.2,64.5
					L82.2,64.5z"/>
				<path style="fill:#9FA9B7;" d="M85.9,64.5H43c-0.3,0-0.6-0.1-0.8-0.3c-0.2-0.2-0.3-0.5-0.3-0.8s0.1-0.6,0.3-0.8
					c0.2-0.2,0.5-0.3,0.8-0.3h42.8c0.3,0,0.6,0.1,0.8,0.3c0.2,0.2,0.3,0.5,0.3,0.8s-0.1,0.6-0.3,0.8C86.4,64.4,86.2,64.5,85.9,64.5
					L85.9,64.5z"/>
				<path style="fill:#6D7486;" d="M25.3,66.3H14.8c-0.4,0-0.8-0.2-1.1-0.5s-0.5-0.7-0.5-1.1V54.2c0-0.4,0.2-0.8,0.5-1.1
					c0.3-0.3,0.7-0.5,1.1-0.5h5.3c0.3,0,0.6,0.1,0.8,0.3c0.2,0.2,0.3,0.5,0.3,0.8c0,0.3-0.1,0.6-0.3,0.8c-0.2,0.2-0.5,0.3-0.8,0.3
					h-4.7v9.3h9.3v-3c0-0.3,0.1-0.6,0.3-0.8c0.2-0.2,0.5-0.3,0.8-0.3c0.3,0,0.6,0.1,0.8,0.3c0.2,0.2,0.3,0.5,0.3,0.8v3.6
					c0,0.4-0.2,0.8-0.5,1.1C26.1,66.1,25.7,66.3,25.3,66.3L25.3,66.3z"/>
				<path style="fill:#FF8A00;" d="M21.1,60.8c-0.4,0-0.8-0.1-1.1-0.4l-2-1.6c-0.1-0.1-0.2-0.2-0.3-0.3c-0.1-0.1-0.1-0.3-0.1-0.4
					c0-0.1,0-0.3,0-0.4c0-0.1,0.1-0.3,0.2-0.4c0.1-0.1,0.2-0.2,0.3-0.3c0.1-0.1,0.3-0.1,0.4-0.1c0.1,0,0.3,0,0.4,0
					c0.1,0,0.3,0.1,0.4,0.2l1.7,1.4l5.2-6.3c0.2-0.2,0.5-0.4,0.7-0.4c0.3,0,0.6,0.1,0.8,0.2c0.2,0.2,0.4,0.5,0.4,0.7
					c0,0.3-0.1,0.6-0.2,0.8l-5.6,6.7l0,0C22,60.6,21.5,60.8,21.1,60.8L21.1,60.8z"/>
				<path style="fill:#9FA9B7;" d="M127.4,55.6h-8.9c-0.3,0-0.6-0.1-0.8-0.3c-0.2-0.2-0.3-0.5-0.3-0.8c0-0.3,0.1-0.6,0.3-0.8
					c0.2-0.2,0.5-0.3,0.8-0.3h8.9c0.3,0,0.6,0.1,0.8,0.3c0.2,0.2,0.3,0.5,0.3,0.8c0,0.3-0.1,0.6-0.3,0.8
					C128,55.5,127.7,55.6,127.4,55.6z"/>
				<path style="fill:#9FA9B7;" d="M98.5,55.6H84.6c-0.3,0-0.6-0.1-0.8-0.3c-0.2-0.2-0.3-0.5-0.3-0.8c0-0.3,0.1-0.6,0.3-0.8
					c0.2-0.2,0.5-0.3,0.8-0.3h13.9c0.3,0,0.6,0.1,0.8,0.3c0.2,0.2,0.3,0.5,0.3,0.8c0,0.3-0.1,0.6-0.3,0.8
					C99.1,55.5,98.8,55.6,98.5,55.6z"/>
				<path style="fill:#9FA9B7;" d="M88.4,64.7h-3.7c-0.3,0-0.6-0.1-0.8-0.3c-0.2-0.2-0.3-0.5-0.3-0.8c0-0.3,0.1-0.6,0.3-0.8
					c0.2-0.2,0.5-0.3,0.8-0.3h3.7c0.3,0,0.6,0.1,0.8,0.3c0.2,0.2,0.3,0.5,0.3,0.8c0,0.3-0.1,0.6-0.3,0.8
					C88.9,64.6,88.7,64.7,88.4,64.7L88.4,64.7z"/>
				<path style="fill:#9FA9B7;" d="M132.2,12.2H96.5c-0.3,0-0.6-0.1-0.8-0.3c-0.2-0.2-0.3-0.5-0.3-0.8c0-0.3,0.1-0.6,0.3-0.8
					s0.5-0.3,0.8-0.3h35.7c0.3,0,0.6,0.1,0.8,0.3c0.2,0.2,0.3,0.5,0.3,0.8c0,0.3-0.1,0.6-0.3,0.8C132.7,12,132.5,12.2,132.2,12.2
					L132.2,12.2z"/>
			</g>
		</g>
	</g>
</g>
</svg>
