<?xml version="1.0" encoding="utf-8"?>
<!-- Generator: Adobe Illustrator 23.1.0, SVG Export Plug-In . SVG Version: 6.00 Build 0)  -->
<!DOCTYPE svg PUBLIC "-//W3C//DTD SVG 1.1//EN" "http://www.w3.org/Graphics/SVG/1.1/DTD/svg11.dtd" [
	<!ENTITY ns_extend "http://ns.adobe.com/Extensibility/1.0/">
	<!ENTITY ns_ai "http://ns.adobe.com/AdobeIllustrator/10.0/">
	<!ENTITY ns_graphs "http://ns.adobe.com/Graphs/1.0/">
	<!ENTITY ns_vars "http://ns.adobe.com/Variables/1.0/">
	<!ENTITY ns_imrep "http://ns.adobe.com/ImageReplacement/1.0/">
	<!ENTITY ns_sfw "http://ns.adobe.com/SaveForWeb/1.0/">
	<!ENTITY ns_custom "http://ns.adobe.com/GenericCustomNamespace/1.0/">
	<!ENTITY ns_adobe_xpath "http://ns.adobe.com/XPath/1.0/">
]>
<svg version="1.1" id="Слой_1" xmlns:x="&ns_extend;" xmlns:i="&ns_ai;" xmlns:graph="&ns_graphs;"
	 xmlns="http://www.w3.org/2000/svg" xmlns:xlink="http://www.w3.org/1999/xlink" x="0px" y="0px" viewBox="0 0 140 145.2"
	 style="enable-background:new 0 0 140 145.2;" xml:space="preserve">
<metadata>
	<sfw  xmlns="&ns_sfw;">
		<slices></slices>
		<sliceSourceBounds  bottomLeftOrigin="true" height="148.6" width="140" x="0" y="0"></sliceSourceBounds>
		<optimizationSettings>
			<targetSettings  fileFormat="GIFFormat" targetSettingsID="0">
				
					<GIFFormat  autoReduce="false" ditherAlgorithm="diffusion" ditherPercent="100" includeCaption="false" interlaced="false" lossy="0" matteColor="#FFFFFF" noMatteColor="false" numColors="256" reductionAlgorithm="selective" rolloverMasterPalette="false" transparency="true" webShiftPercent="0">
					<colorTable  isExact="false"></colorTable>
					<lockedColors></lockedColors>
					<colorShiftEntries></colorShiftEntries>
				</GIFFormat>
			</targetSettings>
		</optimizationSettings>
	</sfw>
</metadata>
<g>
	<defs>
		<rect id="SVGID_1_" y="20.6" width="140" height="128"/>
	</defs>
	<clipPath id="SVGID_2_">
		<use xlink:href="#SVGID_1_"  style="overflow:visible;"/>
	</clipPath>
	<g style="clip-path:url(#SVGID_2_);">
		<path style="fill:#AFB6BB;" d="M96,138.6H44c-0.5,0-0.8-0.7-0.3-1l4.4-2.8c4.7-3,6.9-8.6,5.6-13.9h32.8v0
			c-1.4,5.3,0.9,10.8,5.6,13.9l4.4,2.8C96.8,137.9,96.6,138.6,96,138.6z"/>
		<path style="fill:#E7ECED;" d="M131.6,121H8.4c-4.7,0-8.4-3.5-8.4-7.7V31.6c0-4.3,3.8-7.7,8.4-7.7h123.1c4.7,0,8.4,3.5,8.4,7.7
			v81.6C140,117.5,136.2,121,131.6,121z"/>
		<path style="fill:#38454F;" d="M140,101.1H0V31.6c0-4.3,3.8-7.7,8.4-7.7h123.1c4.7,0,8.4,3.5,8.4,7.7V101.1z"/>
		<path style="fill:#E7ECED;" d="M97.8,145.2H42.2c-2,0-3.6-1.5-3.6-3.3c0-1.8,1.6-3.3,3.6-3.3h55.5c2,0,3.6,1.5,3.6,3.3
			C101.4,143.8,99.8,145.2,97.8,145.2z"/>
	</g>
</g>
<path style="fill:#66B49D;" d="M13,55.9V41.4c0-1.6,1.2-2.9,2.7-2.9h13.2c1.5,0,2.7,1.3,2.7,2.9v14.5c0,1.6-1.2,2.9-2.7,2.9H15.6
	C14.2,58.8,13,57.5,13,55.9z"/>
<path style="fill:#66B49D;" d="M75.1,55.9V41.4c0-1.6,1.2-2.9,2.7-2.9H91c1.5,0,2.7,1.3,2.7,2.9v14.5c0,1.6-1.2,2.9-2.7,2.9H77.8
	C76.3,58.8,75.1,57.5,75.1,55.9z"/>
<path style="fill:#66B49D;" d="M13,85.3V70.8c0-1.6,1.2-2.9,2.7-2.9h13.2c1.5,0,2.7,1.3,2.7,2.9v14.5c0,1.6-1.2,2.9-2.7,2.9H15.6
	C14.2,88.2,13,86.9,13,85.3z"/>
<path style="fill:#66B49D;" d="M75.1,85.3V70.8c0-1.6,1.2-2.9,2.7-2.9H91c1.5,0,2.7,1.3,2.7,2.9v14.5c0,1.6-1.2,2.9-2.7,2.9H77.8
	C76.3,88.2,75.1,86.9,75.1,85.3z"/>
<path style="fill:#F6F9F9;" d="M21.1,53.7C21.1,53.7,21.1,53.7,21.1,53.7c-0.8,0-1.5-0.4-2-1L17,49.7c-0.6-0.8-0.4-2,0.4-2.6
	c0.8-0.6,1.9-0.4,2.5,0.4l1.2,1.7l3.5-4.9c0.6-0.8,1.7-1,2.5-0.4c0.8,0.6,1,1.8,0.4,2.6l-4.4,6.2C22.6,53.3,21.9,53.7,21.1,53.7z"/>
<path style="fill:#F6F9F9;" d="M83.2,53.7C83.2,53.7,83.2,53.7,83.2,53.7c-0.8,0-1.5-0.4-2-1l-2.1-2.9c-0.6-0.8-0.4-2,0.4-2.6
	c0.8-0.6,1.9-0.4,2.5,0.4l1.2,1.7l3.5-4.9c0.6-0.8,1.7-1,2.5-0.4c0.8,0.6,1,1.8,0.4,2.6l-4.4,6.2C84.7,53.3,84,53.7,83.2,53.7z"/>
<path style="fill:#F6F9F9;" d="M21.1,83.1C21.1,83.1,21.1,83.1,21.1,83.1c-0.8,0-1.5-0.4-2-1L17,79.1c-0.6-0.8-0.4-2,0.4-2.6
	c0.8-0.6,1.9-0.4,2.5,0.4l1.2,1.7l3.5-4.9c0.6-0.8,1.7-1,2.5-0.4c0.8,0.6,1,1.8,0.4,2.6l-4.4,6.2C22.6,82.7,21.9,83.1,21.1,83.1z"/>
<path style="fill:#F6F9F9;" d="M83.2,83.1C83.2,83.1,83.2,83.1,83.2,83.1c-0.8,0-1.5-0.4-2-1l-2.1-2.9c-0.6-0.8-0.4-2,0.4-2.6
	c0.8-0.6,1.9-0.4,2.5,0.4l1.2,1.7l3.5-4.9c0.6-0.8,1.7-1,2.5-0.4c0.8,0.6,1,1.8,0.4,2.6l-4.4,6.2C84.7,82.7,84,83.1,83.2,83.1z"/>
<path style="fill:#DDEAFB;" d="M62.2,46.6H40.7c-1,0-1.7-0.9-1.7-2c0-1.1,0.8-2,1.7-2h21.6c1,0,1.7,0.9,1.7,2
	C64,45.7,63.2,46.6,62.2,46.6z"/>
<path style="fill:#DDEAFB;" d="M124.3,46.6H102c-1,0-1.8-0.9-1.8-2c0-1.1,0.8-2,1.8-2h22.3c1,0,1.8,0.9,1.8,2
	C126.1,45.7,125.3,46.6,124.3,46.6z"/>
<path style="fill:#DDEAFB;" d="M62.2,76H40.7c-1,0-1.7-0.9-1.7-2c0-1.1,0.8-2,1.7-2h21.6c1,0,1.7,0.9,1.7,2C64,75.1,63.2,76,62.2,76
	z"/>
<path style="fill:#DDEAFB;" d="M124.3,76H102c-1,0-1.8-0.9-1.8-2c0-1.1,0.8-2,1.8-2h22.3c1,0,1.8,0.9,1.8,2
	C126.1,75.1,125.3,76,124.3,76z"/>
<path style="fill:#DDEAFB;" d="M51.2,54.7H40.6c-0.9,0-1.7-0.9-1.7-2s0.8-2,1.7-2h10.5c0.9,0,1.7,0.9,1.7,2S52.1,54.7,51.2,54.7z"/>
<path style="fill:#DDEAFB;" d="M113.2,54.7H102c-1,0-1.8-0.9-1.8-2s0.8-2,1.8-2h11.2c1,0,1.8,0.9,1.8,2S114.2,54.7,113.2,54.7z"/>
<path style="fill:#DDEAFB;" d="M51.2,84.1H40.6c-0.9,0-1.7-0.9-1.7-2c0-1.1,0.8-2,1.7-2h10.5c0.9,0,1.7,0.9,1.7,2
	C52.9,83.2,52.1,84.1,51.2,84.1z"/>
<path style="fill:#DDEAFB;" d="M113.2,84.1H102c-1,0-1.8-0.9-1.8-2c0-1.1,0.8-2,1.8-2h11.2c1,0,1.8,0.9,1.8,2
	C115,83.2,114.2,84.1,113.2,84.1z"/>
<path style="fill:#FF8A00;" d="M126.1,17.9l-1.5-2.3l-5.8-4.1l-2.2-0.4L86.9,63c-0.7,1.2-1.2,2.6-1.6,4.1c3.6,0,6.9,2.3,8.5,5.9
	c1-0.9,1.9-2,2.7-3.3L126.1,17.9z"/>
<path style="fill:#8C9BA6;" d="M130.6,2.5L128,0.7c-2-1.4-4.7-0.7-6,1.5l-2.4,4.1l0.8,1.7l7.2,5l1.9,0.2l2.4-4.1
	C133.2,6.9,132.6,3.9,130.6,2.5z"/>
<path style="fill:#C9E2E7;" d="M116.5,11.6l3.2-5.5l9.6,6.7l-3.2,5.5L116.5,11.6z"/>
<path style="fill:#7C8B96;" d="M93.7,73l-8.5,7.7c-1.2,1.1-2.9-0.2-2.6-1.8l2.6-11.9C88.8,67,92.1,69.3,93.7,73z"/>
<path style="fill:#FFC250;" d="M91.7,69.9L122.4,16l-2.6-1.9L89,68.1C90,68.5,90.9,69.2,91.7,69.9z"/>
</svg>
