<svg width="23" height="15" viewBox="0 0 23 15" fill="none" xmlns="http://www.w3.org/2000/svg">
<path d="M0.0899143 7.85381C-0.0299721 7.63305 -0.0299721 7.36604 0.0899143 7.14528C2.28709 3.09987 6.57276 0.353516 11.5 0.353516C16.4272 0.353516 20.7129 3.09991 22.9101 7.14528C23.03 7.36604 23.03 7.63305 22.9101 7.85381C20.7129 11.8992 16.4273 14.6456 11.5 14.6456C6.57276 14.6456 2.28713 11.8992 0.0899143 7.85381ZM11.5 12.981C14.5274 12.981 16.9815 10.5269 16.9815 7.49956C16.9815 4.47224 14.5274 2.01805 11.5 2.01805C8.47266 2.01805 6.0185 4.47221 6.0185 7.49956C6.0185 10.5269 8.47266 12.981 11.5 12.981Z" fill="#8F96AC"/>
<path d="M11.5 4.70605C11.7306 4.70605 11.9545 4.7342 12.1689 4.78686C11.9493 5.04091 11.8162 5.37174 11.8162 5.73384C11.8162 6.53433 12.4651 7.18329 13.2657 7.18329C13.6278 7.18329 13.9586 7.05021 14.2127 6.83066C14.2653 7.04499 14.2935 7.26894 14.2935 7.49954C14.2935 9.04235 13.0428 10.293 11.5 10.293C9.95724 10.293 8.70656 9.04231 8.70656 7.49954C8.70656 5.95677 9.95717 4.70605 11.5 4.70605Z" fill="#8F96AC"/>
</svg>
