<svg width="26" height="25" viewBox="0 0 26 25" fill="none" xmlns="http://www.w3.org/2000/svg">
<path d="M20.9063 11.7188V5.23438L17.7813 3.00195L14.6562 5.23438V11.7188H16.2188V7.8125H19.3438V11.7188H20.9063ZM18.9531 6.64063H16.6094V5.07813H18.9531V6.64063Z" fill="#6D6E6F"/>
<path d="M7.625 13.6719H9.96875V16.0156H7.625V13.6719Z" fill="#6D6E6F"/>
<path d="M3.71875 23.8281H4.5V19.1406H9.1875V23.8281H13.875V16.7969H3.71875V23.8281ZM10.3594 17.9687H12.7031V20.3125H10.3594V17.9687Z" fill="#6D6E6F"/>
<path d="M13.8754 8.98438H11L13.8754 11.5402V8.98438Z" fill="#6D6E6F"/>
<path d="M5.28125 19.9219H8.40625V23.8281H5.28125V19.9219Z" fill="#6D6E6F"/>
<path d="M15.5683 15.1359C15.7238 15.2742 15.9827 15.2586 16.1199 15.1039C16.1902 15.0246 16.2242 14.927 16.2179 14.8207C16.212 14.7164 16.166 14.6215 16.0882 14.5523L9.05697 8.30234C8.9847 8.23828 8.89251 8.20312 8.79681 8.20312C8.70111 8.20312 8.60931 8.23828 8.53744 8.30195L1.50619 14.552C1.42806 14.6215 1.38158 14.7168 1.37572 14.8207C1.36947 14.9254 1.40423 15.0254 1.47337 15.1031C1.61165 15.2586 1.86908 15.2746 2.02533 15.1359L8.79681 9.1168L15.5683 15.1359Z" fill="#6D6E6F"/>
<path d="M14.6562 23.8281H23.25V19.1406H14.6562V23.8281ZM19.7344 20.3125H22.0781V22.6562H19.7344V20.3125ZM15.8281 20.3125H18.1719V22.6562H15.8281V20.3125Z" fill="#6D6E6F"/>
<path d="M3.71875 14.6758V16.0156H6.84375V12.8906H10.75V16.0156H13.875V14.6758L8.79688 10.1621L3.71875 14.6758Z" fill="#6D6E6F"/>
<path d="M14.6562 17.5781H24.0313V18.3594H14.6562V17.5781Z" fill="#6D6E6F"/>
<path d="M22.5391 8.98438H21.6875V12.5H14.9547L16.607 13.9688C16.8406 14.1758 16.9797 14.4625 16.998 14.775C17.0164 15.0875 16.9121 15.3887 16.7043 15.6227C16.291 16.0867 15.5145 16.1332 15.0496 15.7195L14.6562 15.3703V16.7969H24.0313V16.4449L22.5391 8.98438Z" fill="#6D6E6F"/>
<path d="M17 8.59375H18.5625V11.7188H17V8.59375Z" fill="#6D6E6F"/>
<path d="M12.5394 5.78648L17.7812 2.04272L23.0222 5.78648C23.1933 5.90874 23.4472 5.86499 23.5679 5.69585C23.6285 5.61108 23.6523 5.50796 23.6351 5.40483C23.6179 5.30171 23.5617 5.21226 23.4773 5.15249L18.0082 1.24468C17.8754 1.15054 17.6882 1.14976 17.5547 1.24507L12.0859 5.15093C11.9992 5.21265 11.9449 5.30015 11.9273 5.40444C11.9101 5.50757 11.934 5.61108 11.9949 5.69624C12.1148 5.86421 12.3699 5.90718 12.5394 5.78648Z" fill="#6D6E6F"/>
</svg>
