<svg width="22" height="22" viewBox="0 0 22 22" fill="none" xmlns="http://www.w3.org/2000/svg">
<g clip-path="url(#clip0)">
<path d="M11.0003 10.6822C8.05552 10.6822 5.65922 8.28643 5.65922 5.34111C5.65922 2.39578 8.05552 0 11.0003 0C13.9451 0 16.3414 2.3963 16.3414 5.34111C16.3414 8.28591 13.9451 10.6822 11.0003 10.6822ZM20.4098 17.2783L20.3342 17.368C17.8451 20.3545 14.5296 22.0005 11.0003 22.0005C7.47052 22.0005 4.15553 20.355 1.66642 17.368L1.59082 17.2783L1.60803 17.1615C2.08927 14.0259 3.72643 11.5065 6.22127 10.0675L6.39907 9.96531L6.54036 10.1134C7.7187 11.3485 9.30268 12.0295 11.0008 12.0295C12.699 12.0295 14.283 11.3485 15.4618 10.1134L15.6031 9.96531L15.7809 10.0675C18.2747 11.5071 19.9129 14.0264 20.3942 17.1615L20.4098 17.2783ZM11.395 14.7668L12.2767 13.8851L10.9998 12.6072L9.72292 13.8851L10.6046 14.7663L9.72292 19.5854L10.9998 20.8634L12.2767 19.5854L11.395 14.7668Z" fill="#30A6EA"/>
</g>
<defs>
<clipPath id="clip0">
<rect width="22" height="22" fill="white"/>
</clipPath>
</defs>
</svg>
