<svg width="25" height="25" viewBox="0 0 25 25" fill="none" xmlns="http://www.w3.org/2000/svg">
<g clip-path="url(#clip0)">
<path d="M15.6897 4.07066C15.0641 2.44732 14.2777 1.08013 13.374 0.0318527C13.0772 0.0108719 12.7785 0 12.4783 0C12.1779 0 11.8792 0.0108719 11.5826 0.0318527C10.6787 1.08013 9.89233 2.44713 9.26691 4.07066C9.06492 4.5948 8.88334 5.13821 8.72217 5.69744H16.2345C16.0731 5.13821 15.8915 4.5948 15.6897 4.07066Z" fill="#2C98F0"/>
<path d="M8.35461 17.8377H16.6018C16.9171 16.3725 17.1002 14.8218 17.1433 13.2324H7.81311C7.85622 14.822 8.03932 16.3725 8.35461 17.8377Z" fill="#2C98F0"/>
<path d="M16.6018 7.16211H8.35461C8.03932 8.62733 7.85622 10.178 7.81311 11.7674H17.1433C17.1002 10.1778 16.9171 8.62733 16.6018 7.16211Z" fill="#2C98F0"/>
<path d="M9.26672 20.9295C9.89233 22.5529 10.6787 23.92 11.5824 24.9683C11.8792 24.9893 12.1779 25.0002 12.4783 25.0002C12.7785 25.0002 13.0772 24.9893 13.374 24.9683C14.2777 23.92 15.0641 22.553 15.6895 20.9295C15.8915 20.4054 16.0731 19.862 16.2343 19.3027H8.72217C8.88334 19.862 9.06492 20.4054 9.26672 20.9295Z" fill="#2C98F0"/>
<path d="M18.0955 7.16228C18.3909 8.62483 18.5671 10.1732 18.6085 11.7676H24.9564C24.8637 10.1519 24.4654 8.59374 23.7879 7.16113C23.7809 7.16132 23.774 7.16228 23.767 7.16228H18.0955Z" fill="#2C98F0"/>
<path d="M6.86111 17.8377C6.56548 16.3752 6.38924 14.8268 6.34785 13.2324H0C0.0926972 14.8481 0.490952 16.4062 1.16844 17.8389C1.1755 17.8387 1.18237 17.8377 1.18942 17.8377H6.86111Z" fill="#2C98F0"/>
<path d="M17.7517 19.3027C17.2064 21.3362 16.4198 23.159 15.4391 24.6487C17.6461 24.115 19.6707 22.9853 21.317 21.339C21.9443 20.7117 22.4959 20.0291 22.9689 19.3027H17.7517Z" fill="#2C98F0"/>
<path d="M7.2046 5.69748C7.7501 3.66405 8.5365 1.8412 9.51726 0.351562C7.31046 0.885239 5.28561 2.01496 3.63919 3.66119C3.01205 4.28852 2.46045 4.97116 1.98743 5.69748H7.2046Z" fill="#2C98F0"/>
<path d="M7.2046 19.3027H1.98743C2.46045 20.0291 3.01205 20.7117 3.63919 21.339C5.28561 22.9853 7.31026 24.115 9.51707 24.6487C8.5365 23.159 7.7501 21.3362 7.2046 19.3027Z" fill="#2C98F0"/>
<path d="M17.7517 5.69748H22.9689C22.4959 4.97116 21.9445 4.28852 21.3172 3.66119C19.6707 2.01496 17.6461 0.885239 15.4391 0.351562C16.4198 1.8412 17.2064 3.66405 17.7517 5.69748Z" fill="#2C98F0"/>
<path d="M18.6085 13.2324C18.5671 14.8268 18.3911 16.3752 18.0955 17.8377H23.767C23.774 17.8377 23.7809 17.8387 23.7879 17.8389C24.4654 16.4062 24.8637 14.8481 24.9564 13.2324H18.6085Z" fill="#2C98F0"/>
<path d="M6.34785 11.7676C6.38924 10.1732 6.56548 8.62483 6.86111 7.16228H1.18942C1.18237 7.16228 1.1755 7.16132 1.16844 7.16113C0.490952 8.59374 0.0926972 10.1519 0 11.7676H6.34785Z" fill="#2C98F0"/>
</g>
<defs>
<clipPath id="clip0">
<rect width="25" height="25" fill="white"/>
</clipPath>
</defs>
</svg>
