<svg width="21" height="21" viewBox="0 0 21 21" fill="none" xmlns="http://www.w3.org/2000/svg">
<path d="M0 1.64062V15.1758H16.8757L21 19.3363V1.64062H0ZM6.33307 10.8797L4.6572 10.2401L2.98132 10.8797L3.07169 9.08801L1.94552 7.69187L3.67731 7.2242L4.6572 5.72168L5.63725 7.2242L7.36903 7.69187L6.24287 9.08817L6.33307 10.8797ZM12.1759 10.8797L10.5 10.2401L8.82413 10.8797L8.91449 9.08801L7.78832 7.69187L9.52011 7.2242L10.5 5.72168L11.4799 7.2242L13.2117 7.69187L12.0857 9.08801L12.1759 10.8797ZM18.0187 10.8797L16.3428 10.2401L14.6669 10.8797L14.7573 9.08801L13.6311 7.69171L15.3629 7.2242L16.3428 5.72152L17.3229 7.2242L19.0546 7.69171L17.9285 9.08801L18.0187 10.8797Z" fill="#30A6EA"/>
</svg>
