<?xml version="1.0" encoding="utf-8"?>
<!-- Generator: Adobe Illustrator 23.1.0, SVG Export Plug-In . SVG Version: 6.00 Build 0)  -->
<!DOCTYPE svg PUBLIC "-//W3C//DTD SVG 1.1//EN" "http://www.w3.org/Graphics/SVG/1.1/DTD/svg11.dtd" [
	<!ENTITY ns_extend "http://ns.adobe.com/Extensibility/1.0/">
	<!ENTITY ns_ai "http://ns.adobe.com/AdobeIllustrator/10.0/">
	<!ENTITY ns_graphs "http://ns.adobe.com/Graphs/1.0/">
	<!ENTITY ns_vars "http://ns.adobe.com/Variables/1.0/">
	<!ENTITY ns_imrep "http://ns.adobe.com/ImageReplacement/1.0/">
	<!ENTITY ns_sfw "http://ns.adobe.com/SaveForWeb/1.0/">
	<!ENTITY ns_custom "http://ns.adobe.com/GenericCustomNamespace/1.0/">
	<!ENTITY ns_adobe_xpath "http://ns.adobe.com/XPath/1.0/">
]>
<svg version="1.1" id="Слой_1" xmlns:x="&ns_extend;" xmlns:i="&ns_ai;" xmlns:graph="&ns_graphs;"
	 xmlns="http://www.w3.org/2000/svg" xmlns:xlink="http://www.w3.org/1999/xlink" x="0px" y="0px" viewBox="0 0 128 89.1"
	 style="enable-background:new 0 0 128 89.1;" xml:space="preserve">
<metadata>
	<sfw  xmlns="&ns_sfw;">
		<slices></slices>
		<sliceSourceBounds  bottomLeftOrigin="true" height="89.1" width="128" x="0" y="19.5"></sliceSourceBounds>
	</sfw>
</metadata>
<path style="fill:#FFD15C;" d="M25.6,10.9c0,0,0.5,1.9,0.5,2.4c0,0.5,0,0.5,0.3,1.1c0.3,0.5,0.8,1.3,0.8,1.3s0.3,0.5,0,0.5
	c-0.3,0-0.8,0.3-0.8,0.3s0,0.3,0,0.5c0.3,0.3,0,0.5,0,0.5s0.3,0,0,0.8c-0.3,0.5-0.5,0.8-0.3,1.6c0,1.3-1.9,0.5-2.7,0.5
	c-0.5,0-2.4,1.1-3.5,2.7c-1.1,1.6-4-4-4-4l2.1-5.3l4-4L25.6,10.9z"/>
<path style="fill:#66C6B9;" d="M110.1,30.1h-0.3c-0.3-0.3-0.3-0.5,0-0.8c0.3-0.3,0.3-0.8,0-1.3c-4.3-3.7-7.5-5.6-8.5-5.6
	c-0.3,0-0.5-0.3-0.5-0.5c0-0.3,0.3-0.5,0.5-0.5c1.6-0.3,4.8,1.6,9.3,5.9c0.8,0.8,0.8,1.9,0.3,2.7C110.4,30.1,110.4,30.1,110.1,30.1z
	"/>
<path style="fill:#FFD15C;" d="M44,34.9c0,0,1.9,0,2.9,0c1.1,0,1.9-0.3,2.1-0.8c0.3-0.5,1.3,0,1.3-0.3c0-0.3,0.3-0.5,0-1.1
	c-0.3-0.5-0.3-0.8-0.8-1.1c-0.3,0-0.5,0-0.5,0l0.3,0.5c0,0-0.5-0.8-0.8-0.8c-0.3,0-0.8-0.3-0.8-0.3s-0.3-0.3-0.8,0
	c0,0-0.8,0.3-1.1,0.5c-0.3,0.3,0,0.3,0,0.3s0.5,0,0.8,0.3c0.3,0.3,0.5,0.5,0.5,0.8c0,0.3-0.8,0.3-1.1,0.3c-0.3,0-1.6,0.5-1.6,0.5
	v1.1L44,34.9L44,34.9z"/>
<path style="fill:#E8EAE9;" d="M44,33.3V36l2.1-0.5c0,0-0.3-0.3-0.8-1.1c-0.3-0.3-0.3-0.8-0.3-1.3H44V33.3z"/>
<path style="fill:#F3705A;" d="M128,0l-5.9,30.9l-8-6.9L62.4,84l-29.1-2.9l-30.7,8L0,79.2l32.5-8.8l25.6,2.7l48-55.7l-8-6.9L128,0z"
	/>
<path style="fill:#E8EAE9;" d="M23.7,73.3v-2.7l-1.1-1.6l-2.1,1.3L20,73.3H23.7z"/>
<path style="fill:#344A5E;" d="M23.7,70.7c0,0,0,1.3-0.5,1.9c-0.5,0.5-1.6,0.5-1.6,0.5s-0.3-0.8-1.9-1.3c0,0-0.8,0.8-1.3,1.3
	c-0.5,0.5-2.7,1.6-2.9,2.4c-0.3,0.8-0.3,0.8,0,1.1c0.3,0.3,3.5,0.5,4.3,0c0.8-0.5,1.9-1.6,1.9-1.6v0.3c0,0,1.6-0.3,2.1-0.5
	c0.5-0.3,0.5-0.8,0.5-1.6C24.5,72,24,70.7,23.7,70.7z"/>
<path style="fill:#E8EAE9;" d="M49.6,69.1c0,0,1.1,1.6,2.1,2.1c1.1,0.5,1.1,0.5,1.1,0.5l-4,0.5l-1.1-2.1L49.6,69.1z"/>
<path style="fill:#344A5E;" d="M46.9,70.9c0,0,0.8,0.5,2.1,0.5c1.6,0,1.9-1.1,2.1-1.1c0,0,0,0.3,1.3,1.1c1.6,0.8,2.1,1.6,3.5,1.6
	s1.1,0.8,0.8,0.8c-0.5,0.3-2.7,1.1-4.3,0.5c-1.6-0.5-2.9-1.3-2.9-1.3v0.8c0,0-2.4-0.3-2.7-0.5C46.7,73.1,46.7,71.7,46.9,70.9z"/>
<path style="fill:#415A6B;" d="M11.5,46.7c0,0-0.8,2.9-0.8,5.9c0,3.2,0.3,3.7,1.1,5.1c0.8,1.3,1.6,2.9,2.7,5.1
	c1.1,1.9,3.5,5.6,4,6.4c0.5,0.8,1.3,3.2,1.3,3.2s1.1,0.5,1.9-0.3c0.8-0.8,1.6-1.6,1.6-1.6s-0.5-2.4-1.6-4.8
	c-1.1-2.1-2.7-5.3-3.7-6.9c-1.1-1.6-0.3-2.1-0.5-3.2c-0.3-0.8-0.3,0-0.3-1.1c0-1.1,0.5-2.7,1.1-3.5c0.5-0.8,1.1-1.3,1.3-1.3
	c0.3,0,1.9-0.3,5.3,1.6c3.5,1.9,7.2,5.1,9.3,6.1c2.1,1.1,2.7,2.1,3.5,2.9c0.8,0.8,4.8,5.9,5.6,6.9c0.8,1.1,4,4.5,4,4.5
	s1.1,0.3,1.9-0.5c0.8-1.1,0.8-1.9,0.8-1.9s-1.9-2.7-3.2-4.8c-1.3-2.1-3.7-5.6-4.8-6.7c-0.8-1.3-1.1-1.9-2.1-2.9
	c-1.1-1.1-3.7-4.3-4.8-5.3c-1.1-1.1-5.6-4.3-5.6-4.3l-9.9-4L11.5,46.7z"/>
<path style="fill:#2C4151;" d="M43.7,32.3c0,0,2.4,4.8,0.5,4.8c-1.6,0-1.6,0-1.6,0S41.9,33.3,43.7,32.3z"/>
<path style="fill:#E8EAE9;" d="M42.4,32.8l2.4-0.3c0,0-0.3,1.6,0.3,2.1c0.5,0.5,0.8,1.1,0.8,1.1l-3.5,0.8V32.8z"/>
<path style="fill:#415A6B;" d="M26.1,30.9l1.6,0.5c0,0,0.5,1.6,1.3,3.2c0.8,1.6,2.1,2.9,2.9,3.5c0.8,0.5,0.5,0.8,1.6,0.8
	c1.1,0,10.7-1.9,10.7-1.9s-1.3-1.1-1.3-2.1c-0.3-1.1,0.8-2.7,0.8-2.7s-4.3,0.5-6.4,0.8c-1.9,0.3-2.1,0.8-2.9,0.3
	c-0.8-0.5-0.8-0.8-1.1-1.6c-0.3-0.8-1.9-4-2.1-4.8c-0.3-0.8-2.4-4.8-2.4-4.8L26.1,30.9z"/>
<path style="fill:#CED6E0;" d="M18.9,22.7H20h0.8l1.9-0.3l1.3,0.8c0.5,4.8-1.1,11.2-3.7,17.9L15.5,36l-2.7-15.2l3.5-1.3L18.9,22.7z"
	/>
<path style="fill:#F3705A;" d="M20.5,24v1.6l0.8,13.3l-4.3,0.3c0.5-6.1,1.3-10.9,2.4-13.3l0.3-1.3L20.5,24z"/>
<path style="fill:#F3705A;" d="M22.1,22.7c0,0-1.1,1.1-1.6,1.9c-0.5,0.8-0.3,1.3-0.3,1.3c-0.5-0.3-0.8-0.3-1.1,0
	c0,0-0.5-2.1-1.3-2.9c-0.8-0.8,2.1-0.3,2.1-0.3h0.8H22.1z"/>
<path style="fill:#F7B64C;" d="M24.5,20.8c-0.8-0.3-2.4-0.8-3.7-2.1c0,0,0.5,1.6,1.9,2.7c0.5-0.3,0.8-0.5,1.1-0.5
	C24,20.8,24.3,20.8,24.5,20.8z"/>
<path style="fill:#415A6B;" d="M17.1,18.1c0,0,1.3,0.8,2.1-1.3c0.8-2.1,1.6-1.9,2.1-1.6c0.5,0.3,0.8,1.1,0.8,1.1l0.8-0.3
	c0,0-0.3-0.8,0-1.6c0.3-0.8,1.1-1.3,1.9-1.6c0.8-0.3,1.6-0.3,1.9-1.1c0.3-0.8,0.5-2.1-1.3-2.7c-1.9-1.1-4-1.3-5.6-1.1
	c-1.6,0.5-2.9,2.1-3.5,3.2C15.5,12.3,15.2,16,17.1,18.1z"/>
<path style="fill:#344A5E;" d="M16.8,18.9c0,0-1.6,0.3-2.9,0.5c-1.3,0.3-4.5,0.8-4.5,0.8s1.1,6.4,0,9.1c0,0,2.9,8.5,1.1,18.9
	c0,0,1.3-1.3,2.9-0.8c1.3,0.5,5.1-0.8,5.9-2.9c0.8-2.1,0-7.7,0-7.7s0-2.9-1.9-4.3c-2.1-1.3-3.2-4.5-3.2-6.1
	C14.1,24.5,16.8,18.9,16.8,18.9z"/>
<path style="fill:#2C4151;" d="M9.9,36.5l0.3,0.8c0,0,1.6,0.8,1.3-5.1c0,0-0.8,0.3-1.3,0.8C9.9,33.3,9.9,36.5,9.9,36.5z"/>
<path style="fill:#344A5E;" d="M29.6,44.8c0,0-1.9,2.9-2.7,3.7c-0.5,0.8-1.6,0.5-2.1,0.3c-0.3-0.3-5.1-4.5-5.3-5.6
	c-0.3-1.1,0-5.6,0-5.6s0.3-0.8,1.3-1.9c1.3-1.3,3.2-6.1,3.2-7.5c0-1.1-0.5-5.3-0.8-7.2c0.3-0.3,0.5-0.3,0.8-0.3c0.5,0,1.3,0.3,2.1,0
	c1.3,0.3,2.4,0.8,2.9,1.3c0,0-1.3,6.9-1.1,9.6c0,0-1.9,3.5-2.1,5.1c-0.3,1.6,1.3,2.4,1.9,4C28.3,42.1,29.6,44.8,29.6,44.8z"/>
<path style="fill:#415A6B;" d="M23.5,32.3c-2.1,4.3-2.7,3.7-3.7,5.1c0-0.3,0.5-1.6,1.1-2.9c0.8-1.6,1.9-3.7,2.1-5.1
	c0.3-1.6,0-8.3,0-8.3c0.3-0.3,0.5-0.3,0.8-0.3l1.1,1.6L24,22.9l1.1,0.3C25.1,23.2,25.6,28,23.5,32.3z"/>
<path style="fill:#E8EAE9;" d="M16.8,18.4l3.2,4.3l-2.9,1.9l-0.8-3.5C16.3,20,16.3,19.2,16.8,18.4z"/>
<path style="fill:#E8EAE9;" d="M20.8,22.7c0,0,1.1-1.6,2.4-1.9c0,0,0.3,2.1,0,3.2c-0.3,1.1-0.5,1.1-0.5,1.1s0.3-1.6,0-1.9
	C22.4,22.7,20.8,22.7,20.8,22.7z"/>
<path style="fill:#415A6B;" d="M16.8,18.7c0,0-1.1,4.8-1.1,7.2c0,2.4,0,3.5,0.8,4.8c0.8,1.3,2.7,2.4,2.9,4.3
	c0.3,1.9,0.3,1.9,0.3,1.9s-0.3-2.4-1.1-3.2c-1.1-0.8-2.7-1.3-3.7-4c-1.1-2.4-0.8-7.2-0.8-7.2l1.1-0.5l-1.1-0.5
	C13.9,21.1,15.5,18.9,16.8,18.7z"/>
<path style="fill:#66C6B9;" d="M98.7,48.5h-0.3c-2.4-1.6-5.1-9.3-5.1-14.9c0-3.2,0.8-5.3,2.4-6.1c0.8-0.5,1.6-0.8,2.7-0.5
	c0-2.7,0.8-5.1,2.4-5.3c0.3,0,0.5,0.3,0.5,0.5c0,0.3-0.3,0.5-0.5,0.5c-0.8,0-1.3,1.9-1.6,4.5c0.3,0.3,0.8,0.3,1.1,0.5
	c4,3.2,4.3,4.5,4,5.1c-0.3,0.5-0.8,0.8-1.6,0.8c-2.1,0-4.3-1.6-4.5-4c0-0.5,0-1.3,0-2.1c-0.8,0-1.3,0-2.1,0.3
	c-1.6,1.1-2.1,3.5-2.1,5.3c0,5.3,2.7,12.5,4.5,13.9c0.3,0.3,0.3,0.5,0.3,0.8C98.9,48.3,98.7,48.5,98.7,48.5z M99.5,28.3
	c0,0.5,0,1.1,0,1.6c0.3,1.6,1.6,2.9,3.2,2.9c0.5,0,0.5,0,0.5-0.3c0,0,0.3-0.8-3.7-4C99.7,28.5,99.7,28.3,99.5,28.3z"/>
<path style="fill:#66C6B9;" d="M6.4,52c-0.5-0.3-0.5-0.5-0.5-0.8c0.5-1.1,0.5-1.9,0.5-3.5c0-1.3-0.3-3.2,0-6.1v-0.3
	c0.5-4.5,4.3-8,8.8-8.3l93.6-3.5c0.3,0,0.5-0.3,0.5-0.3c0.3-0.3,0.5-0.3,0.8,0c0.3,0.3,0.3,0.5,0,0.8c-0.3,0.5-0.8,0.5-1.3,0.8
	l-93.3,3.2c-4,0.3-7.5,3.2-8,7.2v0.3c-0.3,2.9,0,4.8,0,5.9c0,1.6,0.3,2.7-0.5,4C6.9,52,6.7,52,6.4,52z"/>
<path style="fill:#FFD15C;" d="M11.7,35.5c0,0,2.9,0.3,3.5,0.3s0.8-0.8,0.8-0.8s2.4,0,2.9-0.3c0.5-0.3,0.8-0.3,0.3-0.5
	c-0.5-0.3-1.3,0-1.9-0.3c-0.5-0.3-1.3-0.3-2.1-0.5c-0.8-0.3,1.1-0.3,1.6-0.3c0.5,0,0.3-0.5,0.3-0.5H16c0,0-0.8-0.3-1.6-0.3
	c-0.8,0-0.5,0-1.3,0s-1.6,0.5-1.6,0.5L11.7,35.5z"/>
<path style="fill:#E8EAE9;" d="M10.9,32.5l1.9-0.5c0,0-0.5,3.2,0.3,4l-3.2-0.3C9.6,36,9.9,33.1,10.9,32.5z"/>
<path style="fill:#415A6B;" d="M11.7,32c-0.5,0.3-1.1,0.8-1.1,1.6c-0.5,1.6-0.3,3.7-0.3,3.7s-7.5-3.5-8.5-4.3
	c-1.1-0.8-1.9-1.6-1.6-2.4c0.3-0.8,3.5-3.7,4.3-4.3c0.8-0.8,1.6-1.9,2.4-2.7c0.8-0.8,1.1-1.6,1.3-2.4c0.5-0.8,1.1-1.1,1.1-1.1
	c0,0.3,1.1,6.7,0,9.1l-1.9,1.9c0,0,0.5,0.5,0.8,0.8c0.3,0,0.8,0,1.3,0.3c0.3,0,0.5,0.3,0.8,0.3C10.9,32.3,11.7,32,11.7,32z"/>
<path style="fill:#FFD15C;" d="M50.4,33.9c-0.3,0.3-1.3,0-1.3,0.3l-2.7-1.1h-0.5c0.3,0,1.1,0,1.1-0.3c0-0.3,0-0.5-0.3-0.8
	c-0.3-0.3-0.8,0-0.8,0s-0.3,0,0-0.3c0.3-0.3,1.1-0.5,1.1-0.5c0.8-0.3,0.8,0,0.8,0s0.5,0,0.8,0.3c0.3,0.3,0.8,0.8,0.8,0.8
	s0-0.3,0-0.5c0-0.3,0.3-0.3,0.5,0c0.3,0.3,0.5,0.5,0.8,1.1C50.7,33.3,50.7,33.6,50.4,33.9z"/>
</svg>
