<svg width="128" height="128" viewBox="0 0 128 128" fill="none" xmlns="http://www.w3.org/2000/svg">
<g clip-path="url(#clip0)">
<path d="M64 128C99.3462 128 128 99.3462 128 64C128 28.6538 99.3462 0 64 0C28.6538 0 0 28.6538 0 64C0 99.3462 28.6538 128 64 128Z" fill="#55C0EB"/>
<path d="M8.26675 32.5333C8.5335 33.0666 8.8 33.0666 9.3335 33.3333C9.60025 33.6001 9.86675 33.6001 10.1335 33.8666C10.1335 33.8666 10.4002 33.8666 10.6667 34.1333C10.6667 33.8666 10.4 33.6001 10.4 33.6001C9.86675 32.8001 9.33325 32.2668 8.8 31.7333C10.1333 29.6001 11.4668 27.4666 12.8 25.6001C12.8 25.8668 12.8 25.8668 12.8 26.1333C12.8 26.3998 12.5332 26.6666 12.5332 26.9333C13.0665 27.2001 13.6 26.9333 14.1333 26.9333C14.1333 27.7333 14.1333 27.7333 14.6665 28.0001C14.6665 27.7333 14.6665 27.4668 14.6665 27.4668C14.6665 27.4668 15.1997 27.4668 15.4665 27.4668C15.1997 27.2001 15.7332 26.9336 15.9998 26.6668C15.733 26.9336 15.4665 26.9336 15.4665 26.9336C15.1997 26.9336 15.1998 27.2003 14.9333 26.9336C14.9333 26.6668 14.9332 26.1336 15.2 25.6003C15.2 25.8671 15.4668 26.1336 15.4668 26.4003C15.7335 26.4003 15.7335 26.6671 16 26.6671V27.2003C16 27.4671 16 27.4671 16 27.7336C16 28.2668 16 28.5336 16.8 28.5336C17.0667 28.5336 17.6 28.5336 17.8668 28.8003C18.1335 28.8003 18.1335 28.8003 18.4 29.0671C18.9333 29.6003 19.4667 30.1338 20 30.6671C20.2668 30.9338 20.2668 31.2003 20 31.4671C19.7332 31.7338 19.7332 32.0003 19.4667 32.2671C19.4667 32.5338 19.4667 32.8003 19.4667 32.8003C19.7335 33.0671 20 32.8003 20 32.8003C20.2668 32.5336 20.5332 32.5336 20.8 32.8003C21.3333 32.8003 21.8667 33.0671 22.1332 33.0671H22.4C22.4 33.6003 22.4 33.8671 22.4 34.1338C22.4 34.4006 22.4 34.6671 22.1332 34.9338C21.8665 35.2006 21.6 35.4671 21.3333 35.7338C21.6 36.0006 21.8665 35.7338 22.1332 35.4671C23.2 35.2003 24 34.6671 24.5333 34.1338C24.8 34.4006 25.0665 34.6671 25.0665 34.9338C25.0665 35.2006 25.0665 35.4671 25.5998 35.7338C25.5998 35.4671 25.5998 35.2006 25.333 34.9338C25.0662 34.4006 25.333 34.1338 25.5998 33.6006C25.5998 33.8673 25.8665 34.1338 25.8665 34.4006C25.8665 34.6673 25.8665 34.9338 26.1332 35.2006C26.6665 36.0006 26.9332 36.8006 26.1332 37.6006C26.1332 37.8673 26.4 38.1338 26.4 38.1338C26.4 38.6671 26.4 38.9338 26.1332 39.4671C25.8665 39.4671 25.6 39.7338 25.3333 39.7338C25.6 39.7338 25.8665 40.0006 26.1332 40.0006C25.8665 40.2673 25.6 40.5338 25.6 40.8006C25.8668 41.0673 25.8667 41.3338 26.1332 41.6006C26.1332 42.1338 26.1332 42.4006 26.6665 42.4006L26.9333 42.6673C27.2 42.9341 28 43.2006 28.5333 42.6673L28.8 42.4006C28.2667 42.4006 28 42.4006 27.4667 42.1338C27.2 42.1338 27.2 41.8671 26.9335 41.8671C26.6667 41.3338 26.4002 40.5338 26.6667 40.0003C26.6667 39.7336 26.6667 39.4671 26.6667 39.2003C26.9335 38.9336 26.9335 38.4003 26.9335 38.1336C26.6667 37.6003 26.9335 37.0668 26.9335 36.5336C26.9335 36.2668 26.9335 35.7336 26.9335 35.4668C26.6667 34.9336 26.6667 34.4001 26.9335 33.8668C27.2003 33.8668 27.2002 33.8668 27.4667 33.8668C27.2 33.3336 27.4667 33.0668 27.7335 33.0668C28.0002 33.3336 28.2668 33.6001 28.5335 33.8668C28.5335 33.8668 28.8002 34.1336 28.8002 34.4001C28.8002 34.9333 29.067 35.2001 29.067 35.7333C29.067 36.0001 29.3337 36.5333 29.6003 36.8001C29.867 37.0668 30.1335 37.3333 30.1335 37.3333C30.1335 37.8666 29.8668 38.1333 29.8668 38.4001C29.8668 38.6668 29.6 38.9333 29.3335 39.2001C29.0667 39.2001 29.0667 39.4668 29.0667 39.4668C28.8 39.7336 28.5335 40.0001 28.8 40.5336C29.3333 40.2668 29.6 40.0003 30.1332 40.0003C30.4 39.7336 30.6665 39.7336 30.6665 39.4671C30.9333 38.9338 31.4665 38.6671 31.7332 38.6671C32 38.6671 32.2665 38.6671 32.5332 38.4003C33.0665 38.4003 33.3332 38.1336 33.6 37.8671C33.6 37.8671 33.6 37.8671 33.8667 37.6003C34.1335 38.1336 34.1335 38.1336 33.8667 38.4003C33.6 38.6671 33.3335 38.9336 33.3335 39.2003C33.0667 39.4671 33.0667 39.7336 33.0667 40.2671C33.6 40.2671 33.6 40.0003 33.8667 39.4671C33.8667 39.7338 34.1335 39.7338 34.1335 40.0003C34.6667 40.0003 34.9335 40.0003 35.4668 39.7336C35.7335 39.4668 35.7335 39.7336 36 40.0003C36 40.0003 36 40.2671 35.7332 40.2671C36.2665 40.5338 36.2665 41.0671 37.0665 40.8003C36.5333 40.5336 36.2665 40.2671 36.5332 39.7336C37.0665 39.7336 37.3332 39.7336 37.6 40.0003C37.8667 40.2671 38.4 40.5336 38.6668 41.0671C38.9335 41.3338 39.2 41.6003 39.4668 41.8671C39.7335 42.4003 40.2668 42.4003 40.5335 42.1338C40.5335 42.1338 40.5335 41.8671 40.8003 41.8671C40.5335 41.8671 40.5335 41.6003 40.267 41.6003C40.0002 41.3336 39.7337 41.0671 40.267 40.8003C40.5337 40.5336 41.067 40.2671 41.6003 40.2671C41.6003 40.5338 41.3335 40.8003 41.3335 41.3338C41.3335 41.6006 41.6003 41.8671 41.6003 42.1338C41.067 42.9338 41.067 43.2006 41.3335 43.4671C41.8667 43.2003 41.6003 42.6671 41.8667 42.4003C42.1335 42.6671 42.4 43.2003 42.6668 43.4671C42.9335 43.7338 43.2 44.0003 43.7335 44.2671C43.2003 45.0671 43.2003 45.0671 43.7335 45.6003C44.0003 45.0671 44.5335 44.8003 45.0667 44.5336C45.0667 44.8003 45.3335 45.0668 45.0667 45.0668C44.8 45.3336 44.5335 45.3336 44.2668 45.6001C44.2668 45.8668 44.5335 45.8668 44.5335 46.1333C44.8003 45.8666 44.8003 45.6001 45.0667 45.6001C45.3335 45.3333 45.6 45.3333 45.6 44.8001C45.6 44.5333 45.8667 44.0001 45.6 43.7333V43.4666C46.1332 43.4666 46.4 43.1998 46.6668 42.6666C46.4 42.6666 46.4 42.6666 46.1335 42.6666C45.6003 42.9333 45.0667 42.9333 44.5335 43.1998C44.2668 43.1998 44.0003 43.1998 43.7335 43.1998C43.2003 42.9331 42.9335 42.6666 42.9335 42.1331C42.9335 41.8663 42.9335 41.5998 43.2002 41.3331C43.467 41.3331 43.7335 41.0663 43.7335 40.7998C44.2668 39.9998 44.8002 39.4666 45.8667 38.9331C46.6667 38.6663 47.2 38.1331 48.2668 38.3998H48.5335V38.1331C48.5335 37.8663 48.2668 37.8663 48.0003 37.5998C48.5335 37.0666 49.067 36.7998 49.6003 36.7998C49.867 36.7998 50.1335 36.7998 50.1335 36.7998C50.9335 36.7998 51.7335 36.7998 52.5335 37.5998C52.8003 37.8666 52.8003 37.8666 53.0667 37.8666C53.6 37.8666 53.8667 37.8666 54.1335 38.3998C54.4002 38.6666 54.6667 39.1998 55.2002 39.1998C55.7335 39.4666 56.0002 39.7331 56.267 40.2666C56.267 40.5333 56.5338 40.7998 56.8003 40.7998C56.8003 41.0666 57.067 41.0666 57.067 41.0666C57.3338 41.3333 57.067 41.5998 56.8003 41.5998C56.8003 41.0666 56.267 41.0666 56.0003 40.7998C55.7335 41.0666 55.7335 41.0666 56.0003 41.3331C56.267 41.5996 56.5335 42.1331 56.8003 42.3998C57.067 42.9331 57.3335 43.1998 57.6003 43.7331C57.6003 44.2663 57.6003 44.7998 58.1335 44.7998V45.0666L58.4002 45.3333C59.7335 46.1333 60.5335 47.2001 61.067 48.5333C61.3338 48.8001 61.3338 49.3333 61.067 49.6001V49.8668C61.067 50.1336 61.067 50.4001 61.067 50.4001C60.8003 50.6668 60.5337 50.9333 60.267 51.4668C60.0002 51.7336 59.467 52.0001 59.2002 51.7336C58.9335 51.4668 58.667 51.4668 58.667 51.2003C58.4002 51.2003 58.4002 50.9336 58.1338 50.9336V51.2003C57.867 51.7336 57.867 52.2671 57.6005 52.8003C57.6005 53.0671 57.6005 53.0671 57.8672 53.0671C58.4005 52.8003 58.4005 52.2671 58.6673 52.0003C59.734 52.5336 59.734 52.8003 59.734 54.1336C59.734 54.6668 60.0008 55.2003 60.534 55.4668C60.534 55.2001 60.534 54.9336 60.534 54.6668C60.8008 54.9336 61.0672 55.4668 61.334 55.7336C61.6007 56.0003 61.8672 56.5336 62.134 56.8003C62.4007 57.0671 62.6672 57.3336 62.934 57.8671C63.2007 58.4003 63.734 58.6671 64.2673 58.6671C64.534 58.6671 64.534 58.6671 64.8005 58.6671C64.8005 58.9338 64.8005 59.2003 64.8005 59.2003C65.3337 59.2003 65.6005 58.6671 66.1338 59.2003C65.867 59.4671 65.3337 60.0003 65.067 60.2671C64.5338 60.5338 64.5337 61.0671 64.267 61.6003C64.267 61.8671 64.267 62.4003 64.5338 62.6671C64.8005 62.9338 65.067 62.9338 65.3337 62.9338C66.1338 62.9338 66.667 62.9338 67.467 62.9338C68.0003 62.9338 68.5337 63.2006 68.267 63.7338C68.267 64.0006 68.267 64.5338 68.267 64.8006C68.5337 65.3338 68.5337 65.8673 68.267 66.4006C68.267 66.9338 68.0003 66.9338 67.467 67.2006C67.2003 67.2006 66.9337 67.4673 66.667 67.4673C66.4003 67.4673 66.4003 67.7341 66.4003 67.7341C65.867 67.4674 65.6003 67.4673 65.067 67.4673C64.267 67.4673 63.7337 66.9341 63.7337 66.1341C63.7337 65.6009 63.467 65.3341 63.2005 65.0674C62.9338 64.8006 62.4005 64.5341 62.1338 64.2673C62.1338 64.2673 62.1338 64.0006 62.4005 64.0006C62.4005 63.7339 62.1337 63.4673 61.8672 63.4673H61.6C61.0667 63.7341 60.8 63.7341 60.2668 63.2006C60 62.9338 59.7335 62.6674 59.4668 62.6674C59.4668 62.9341 59.2 62.9341 59.2 63.2006C58.6668 64.0006 57.8667 64.5339 57.0667 65.0674C57.0667 65.0674 57.0667 65.0674 56.8 65.0674C56 65.6006 56 65.6006 56.2668 66.4006C56.8 66.1338 57.0667 66.4006 57.6 66.6674C57.0667 66.9341 56.8 67.2006 56.2668 67.2006C56.2668 66.9338 56.2668 66.9338 56 66.6674C55.4668 66.6674 55.2 66.1341 54.9333 65.8673C54.9333 65.6006 55.2 65.3341 55.2 65.0674C54.9333 65.3341 54.6668 65.3341 54.4 65.3341C54.1333 65.0673 54.4 64.8008 54.6668 64.5341C54.9335 64.2673 55.4668 64.0009 55.7335 63.7341C56.2668 63.4674 56.8003 62.9341 57.0667 62.4008C57.3335 61.8676 57.3335 61.8676 56.8 61.6008C56.8 61.6008 56.8 61.6008 56.5332 61.8676C56 62.6676 55.2 63.2008 54.4 63.7343C54.4 63.7343 54.1333 63.7343 54.1333 64.0011C53.8665 64.2678 53.6 64.5344 53.6 64.8011C53.3332 65.3344 53.3332 65.6011 53.0667 66.1343C53.0667 66.6676 52.5335 66.9343 52.2668 66.9343C52 66.6676 51.7335 66.4011 52 66.1343C52 65.8676 52 65.6011 52 65.3344C51.4668 65.6011 51.2 65.6011 50.9333 65.8676C50.9333 65.0676 50.4 65.0676 49.8665 65.0676C49.8665 65.3343 49.8665 65.3344 50.1333 65.3344C50.4 65.6011 50.4 66.1343 50.1333 66.4011C50.1333 66.4011 50.1333 66.6679 50.1333 66.9343C50.4 67.4676 50.1333 67.7343 49.8665 68.0011C49.0665 67.7343 48.5332 67.7343 47.7332 67.4678C47.4665 67.4678 47.2 67.4678 46.9333 67.4678C46.6665 67.7346 46.4 67.7346 46.1333 67.4678C45.8665 67.4678 45.6 67.2011 45.6 67.4678C45.6 67.7346 45.6 68.0011 45.6 68.0011V68.2679C45.3332 69.3346 45.3332 69.8679 45.3332 70.4011V70.6678C45.8665 71.2011 46.1333 71.2011 46.6665 70.9346C46.9333 70.6679 47.1997 70.6679 47.4665 70.9346H47.7332C48.8 70.9346 49.6 70.9346 50.4 70.4014L50.6668 70.1346C50.9335 69.8678 51.2 70.1346 51.4668 70.1346C51.7335 70.4013 51.7335 70.6679 52 70.9346C52.2668 71.2014 52.5332 71.4678 52.8 71.2013C53.3332 70.9346 53.8668 70.9346 54.4 70.6681C54.9333 70.4013 55.2 70.1348 55.7332 70.1348C56.2665 70.1348 56.2665 70.1348 56.5332 69.6016C56.5332 69.3349 56.5332 69.0683 56.8 68.8016C57.0667 68.5348 57.0667 68.0016 56.8 67.7348C57.3332 67.2016 57.3333 67.2016 58.1333 67.2016C59.2 67.2016 60.2665 67.4683 61.0665 67.4683C61.3333 67.4683 61.8665 67.7351 62.1333 67.7351C62.6665 68.0019 62.9333 68.2683 63.4665 68.2683C63.9997 68.2683 64.5332 68.2684 65.0665 68.0016C65.3332 68.5349 65.8665 69.0683 66.1332 69.3348C66.9333 69.8681 67.2 70.6681 67.4665 71.4681C67.4665 71.7349 67.7332 72.0013 67.9997 72.2681C68.7998 72.8013 69.5998 73.6014 69.8665 74.4014C69.8665 74.6681 70.1332 74.9346 70.3997 75.2013C70.6665 75.4681 70.6665 75.7346 70.6665 76.0014C70.3997 76.5346 70.3997 77.0681 70.6665 77.6013C70.9332 78.4013 70.9333 79.2014 71.1998 80.0014C71.1998 80.5346 71.1997 80.5346 70.933 80.8013C70.3997 81.0681 70.133 81.6013 69.8662 81.8681C69.5995 82.4013 69.0662 82.9349 68.533 83.4681C68.2663 83.7349 67.9997 84.0014 67.733 84.0014C66.3997 84.8013 66.6663 84.8013 65.0663 84.5346C64.533 84.5346 64.2663 84.2678 63.733 84.5346C63.1998 84.8013 62.6662 84.5346 62.133 84.2679C61.8662 84.0011 61.333 83.7346 60.7998 84.0011C60.2665 84.0011 59.9998 84.2678 59.733 84.5343C59.4663 84.8011 59.1997 85.0676 58.933 84.8011C58.3997 84.8011 58.133 84.8011 57.8662 85.0678C57.8662 85.0678 57.5995 85.3346 57.5995 85.6011C57.5995 86.1343 57.8662 86.6678 57.8662 87.2011C58.133 88.0011 58.133 88.0011 57.333 88.5343C57.333 88.5343 57.0662 88.5344 57.0662 88.8011C56.7995 89.0679 56.533 89.3343 56.2663 89.6011C55.9995 90.1343 55.9995 90.4011 55.733 90.9343V91.2011C55.733 91.4678 55.733 91.7344 55.4663 92.0011C55.1995 92.8011 55.1995 92.8011 55.733 93.3344C56 93.6001 56 93.6001 56 93.8669C56.2668 94.4001 56.2668 94.9336 56.2668 95.4669C56.2668 95.7336 56.2668 96.0001 56 96.0001C55.4668 96.2668 55.2 96.8001 55.2 97.6001C55.2 97.6001 55.2 97.8669 54.9333 97.8669C54.6665 98.1336 54.6665 98.4001 54.6665 98.6668C54.6665 99.4669 54.6665 100 54.3997 100.8C54.133 101.333 53.8665 102.133 53.333 102.667C53.0662 103.2 52.7998 103.467 53.0662 104C53.0662 104.8 52.2663 105.333 51.733 105.067C50.933 104.8 50.133 104.534 49.333 104.534C48.2663 104.267 47.1997 103.734 46.6662 102.667C46.3995 102.134 45.8662 101.6 45.5995 100.8C45.5995 100.533 45.3327 100.267 45.3327 100C45.3327 99.7334 45.066 99.4669 44.7995 99.4669C44.5327 99.4669 44.5327 99.2001 44.2663 98.9336C43.9995 98.6669 43.9995 98.1336 43.9995 97.8669C43.9995 97.6001 43.9995 97.6001 43.9995 97.3336C44.2663 96.8004 44.2663 96.8003 43.9995 96.5336C43.4663 96.0004 42.9328 95.7336 42.3995 95.2003C42.1328 94.9336 41.8662 94.6671 41.8662 94.4004C41.8662 93.8671 41.5995 93.3336 41.5995 92.8003C41.5995 92.5336 41.5995 92.0003 41.8662 91.7336C42.133 91.2003 42.3995 90.6668 42.133 90.1336C42.133 89.8669 42.133 89.8669 42.133 89.6003C42.3997 89.0671 42.133 88.5336 41.5998 88.0004C40.533 86.9336 39.4665 85.6003 38.133 84.5336C37.8662 84.2668 37.5998 84.0003 37.333 83.7336C36.7998 82.9336 36.533 81.8668 36.2663 80.8003C36.7995 80.5336 36.7995 80.5336 37.5995 80.8003C38.3995 80.8003 38.9328 81.0671 39.7327 81.0671C40.5327 81.0671 40.5327 81.0671 40.7995 80.5339C41.0662 80.0006 41.3327 79.4671 41.5995 78.9338V78.6671C41.5995 78.1339 41.8663 78.1338 42.1328 77.8671C42.9328 77.6003 43.1995 77.0671 43.466 76.5339C43.466 76.2671 43.7327 76.0006 43.7327 75.7338C44.266 74.4006 44.7995 73.0671 45.5995 71.7338C45.5995 71.7338 45.5995 71.7339 45.5995 71.4671C45.3327 71.7339 45.3327 71.7339 45.0662 72.0004C45.0662 71.7336 45.0662 71.4671 44.7995 71.2003C44.5327 71.4671 44.5327 71.4671 44.5327 71.7336C44.266 72.8003 43.7327 73.8668 42.9328 74.6668C42.666 75.2001 42.3995 75.4669 42.3995 76.0001C42.3995 76.2668 42.3995 76.5334 42.1328 76.8001C41.866 77.0669 41.866 77.0669 41.5995 77.3334C41.0662 77.8666 40.5327 78.4001 40.2663 79.2001C40.2663 79.2001 40.2663 79.4669 39.9995 79.4669C39.7332 80.0001 39.7332 80.0001 39.2 80.0001C38.6668 80.0001 38.1332 79.7333 37.8667 79.4669C36.5335 78.9336 35.4668 78.1336 34.4 77.6001C33.8668 77.3333 33.6 77.0669 33.0667 76.8001C33.0667 76.5334 33.0667 76.5333 33.3335 76.2668C33.0667 76.2668 32.8003 76.2668 32.5335 76.2668C32.2668 75.7336 32.2668 75.4669 32.0003 74.9336C32.5335 74.6669 32.8003 74.4003 33.067 74.1336C33.3338 74.1336 33.6003 73.8668 33.6003 73.6003C33.6003 73.3336 33.867 73.0671 34.1335 73.0671C34.4002 73.6003 34.9335 73.8671 35.7335 73.8671C36.0003 73.8671 36.2668 73.8671 36.2668 73.3338C36.2668 73.0671 36.2668 72.8006 36.2668 72.5339C36.8 72.5339 37.0667 72.2671 37.3335 72.0006C37.6003 71.7339 37.8667 71.2006 37.8667 70.9338C37.8667 70.6671 37.8667 70.6671 38.1335 70.4006C37.8667 70.1338 37.6003 70.4006 37.3335 70.6674C36.5335 71.2006 36.0002 71.4674 35.2002 72.0006C34.667 72.2674 34.4002 72.5339 33.867 72.0006C33.6003 72.2674 33.3338 72.5338 33.3338 72.8006C33.067 73.0673 33.067 73.0674 32.8005 73.0674C32.0005 73.0674 31.2005 73.3341 30.4005 73.0674C29.8672 73.0674 29.3338 73.0674 28.8005 73.6006C28.5338 73.8674 28.0005 74.4006 27.7337 74.6674C27.467 75.2006 27.2005 75.2006 26.667 75.2006C26.4002 75.2006 26.4003 75.2006 26.1338 75.2006V75.4673C26.1338 76.2673 26.1338 77.0673 25.867 77.8673C25.867 78.1341 25.6003 78.4006 25.6003 78.4006C25.3335 78.6673 25.067 78.9338 25.067 79.2006C24.8002 80.0006 24.5338 80.5338 24.267 81.3338C24.267 81.6006 24.0002 81.8671 24.0002 81.8671C23.467 81.6003 22.9335 81.3338 22.9335 80.8003C22.9335 80.2671 22.6667 79.4671 22.6667 78.9336C22.6667 78.6669 22.6667 78.4003 22.1335 78.1336C21.8667 78.1336 21.8668 77.8669 21.8668 77.8669C21.3335 78.1336 20.2668 77.3336 19.2 76.2668C18.9333 76.2668 18.9333 76.0001 18.6667 76.0001C18.1335 76.0001 17.6 76.0001 17.0667 76.0001C17.0667 76.2668 16.8 76.5334 16.8 76.8001C16.8 77.0669 16.5333 77.3333 16.2668 77.6001C16 77.8668 15.7335 78.4001 16 78.9333C16 79.2001 16 79.4666 15.7332 79.7334C15.4665 80.0001 15.2 79.4666 15.2 79.4666C14.9332 79.1998 14.6667 78.9333 14.4 78.9333C14.4 79.2001 14.4 79.2001 14.4 79.2001C14.6667 79.7333 14.4 80.0001 14.4 80.5333C14.4 80.8001 14.4 81.0666 14.4 81.3334C14.4 81.3334 14.4 81.6001 14.4 81.8666C14.1332 82.1334 14.1332 82.3998 14.4 82.6666C14.4 82.9333 14.4 83.1999 14.4 83.1999C13.8667 83.7331 13.3333 84.5331 12.8 85.3331C12.8 85.5998 12.5332 85.5998 12.5332 85.8663C13.0665 85.3331 13.6 85.0663 13.8665 84.7996C14.3997 84.5328 14.9333 84.2663 15.4665 84.2663C15.1997 84.5331 14.9333 84.7996 14.9333 85.3331C14.9333 85.5998 14.9332 85.8663 14.4 85.8663C13.8667 85.8663 13.8668 86.1331 14.1333 86.3996C14.4 86.9328 14.1333 87.1996 13.8665 87.4663C13.5997 87.7331 13.3333 87.7331 13.0665 87.9996C13.0665 87.4663 13.5997 87.1996 13.5997 86.6664C13.333 86.9331 13.333 86.9331 13.0665 87.1996C12.5332 87.7328 11.9998 88.2664 11.4665 89.0664C10.3997 90.3996 9.33325 90.1331 9.8665 89.0664V88.8001C9.33325 88.5334 9.0665 88.8001 8.79975 89.0668C9.0665 88.5336 9.59975 88.2668 10.133 88.2668C10.3998 88.2668 10.6663 88.2668 10.6663 88.0001C10.933 87.7333 11.4662 87.4669 11.733 86.9333C11.9998 86.6666 12.2663 86.4001 11.9998 86.1333C11.733 86.1333 11.4665 86.1334 11.1997 86.4001C11.1997 85.8669 11.1997 85.6001 11.1997 85.0668C11.1997 84.8001 11.1997 84.5336 11.4665 84.5336C11.7333 84.5336 11.7332 84.2668 11.9998 84.2668C12.533 84.0001 13.0665 83.4669 13.333 82.9336C13.333 82.6669 13.333 82.6669 13.0662 82.4004L12.7995 82.1336C13.5995 81.6003 13.5995 81.6003 13.3328 81.0668C12.5328 80.8001 11.9995 81.0668 11.7327 81.6001L11.466 81.8669C11.1992 82.1336 10.9328 82.4001 11.1993 82.9336C9.866 82.4004 9.066 81.6003 8.266 80.5336C8.79925 79.4669 9.59925 78.4004 10.666 77.8669C10.1328 77.3336 9.866 77.0668 9.59925 76.5336C9.3325 76.2668 9.066 76.0003 8.5325 76.2668H8.26575C7.999 76.2668 7.7325 76.0001 7.46575 76.0001C6.66575 76.0001 6.1325 75.7333 5.3325 75.2001C4.5325 74.9333 3.99925 74.1333 3.46575 73.6001C3.199 73.0668 2.9325 72.5333 2.66575 72.2668C2.399 72.0003 2.4 71.4668 2.4 71.2001C2.4 71.2001 2.4 70.9333 2.66675 70.9333L2.9335 70.6666C3.20025 70.1333 3.46675 69.5998 3.7335 68.7999C3.7335 68.7999 3.7335 68.7998 3.7335 68.5331C3.46675 68.2663 3.20025 68.2663 2.9335 67.9998C2.66675 67.7331 2.66675 67.7331 2.66675 67.4666C2.66675 67.1998 2.9335 67.1999 3.2 67.1999C3.4665 67.1999 3.73325 67.4666 4 67.4666C3.73325 66.9333 4 66.6666 4.26675 66.6666C4.26675 66.6666 4.5335 66.6666 4.5335 66.3998C3.46675 66.1331 2.9335 65.3331 2.1335 65.0666C2.1335 65.5998 2.66675 65.5998 2.66675 66.1333C2.1335 66.1333 1.6 65.6001 1.06675 65.8666C1.06675 66.6666 1.06675 66.6666 0.5335 67.4666C0.5335 67.7333 0.26675 67.9999 0.26675 68.2666C0.26675 68.5334 0.26675 68.5334 0.26675 68.7999C0 66.9333 0 65.6001 0 64.0001C0 52.5333 2.93325 41.8668 8.26675 32.5333Z" fill="#F3F3F3"/>
<path d="M125.333 50.1333C125.333 50.1333 125.066 50.1333 124.8 50.4001C124.533 50.6668 124 50.6668 123.733 50.9333C123.466 51.2001 122.933 51.4666 122.666 51.4666C122.4 51.4666 122.133 51.7333 122.133 51.9998C122.133 52.2666 122.133 52.2666 122.133 52.5331C122.133 53.0663 121.866 53.3331 121.6 53.5998C121.067 53.8666 120.8 54.3998 120.267 54.9331C120 55.1998 119.733 55.4663 119.467 55.4663C119.2 55.4663 118.933 55.7331 118.933 55.9996C118.667 56.5328 118.4 57.0663 118.133 57.3328C117.867 57.5996 117.867 57.8661 117.867 58.1328C118.133 58.6661 117.867 58.9328 117.333 59.1996C116.8 59.4663 116.533 59.7328 116.533 60.2663C116.533 60.5331 116.267 60.7996 116.267 60.7996C116 61.5996 116 62.1328 116.267 62.9328C116.267 63.1996 116.533 63.4661 116.533 63.7328C116.8 64.2661 116.8 65.0661 116.533 65.5996C116 66.3996 115.733 67.4664 115.2 68.2663C114.933 68.7996 114.4 69.3331 113.867 69.5996C113.6 69.5996 113.334 69.8663 113.334 69.8663C113.067 70.3996 112.8 70.6663 112.534 71.4663C112.534 71.7331 112.267 72.2663 112 72.2663C111.734 72.2663 111.734 72.5331 111.734 73.0664C111.734 73.0664 111.734 73.3331 112 73.3331C112 73.3331 112 73.3331 111.734 73.5998C111.2 73.8666 110.667 74.1331 110.667 74.9331L110.4 75.2001C109.867 75.2001 109.6 75.4669 109.6 76.0001C109.067 75.7333 109.067 75.7333 109.333 75.4669C109.6 75.2001 109.866 74.9336 109.866 74.6668C110.133 73.8668 110.933 73.3336 111.2 72.5336C111.466 72.2668 111.466 72.0003 111.733 71.7336C112 71.4668 112 71.4668 111.466 71.2003L111.199 71.4671C110.933 72.2671 110.399 72.8004 109.866 73.6003C109.866 73.6003 109.866 73.6003 109.866 73.8671C109.599 74.1338 109.599 74.4004 109.333 74.4004C108.533 74.9336 108 75.4671 107.466 76.2671C107.199 76.5338 107.199 76.5338 107.466 76.8003C107.466 76.8003 107.466 77.0671 107.733 77.0671C107.2 77.6003 106.666 78.1339 106.133 78.4004C105.333 78.6671 104.266 78.9336 103.466 79.4671H103.2C102.933 79.2004 102.667 78.9338 102.4 78.6671C102.133 78.9338 102.133 78.9338 101.867 79.2003C101.333 79.2003 101.067 79.7336 100.8 79.7336C100.533 80.0003 100 80.2668 99.4667 80.2668C98.9335 80.0001 98.9335 80.5336 98.6667 80.8001C98.4 81.3334 98.1335 81.6001 97.8668 82.1333C97.3335 82.6666 97.0667 82.9333 96.5335 83.2001C96.0002 83.4668 95.7335 83.4668 95.2002 83.2001C94.9335 82.9333 94.667 82.9333 94.4003 83.2001C94.1335 83.2001 93.867 83.4669 93.6002 83.7334C93.3335 84.2666 93.3335 84.5333 93.867 85.0666C94.1337 85.3333 94.4002 85.8666 94.9337 86.1333C95.467 86.6666 95.467 87.2001 95.467 88.0001C95.467 88.2668 95.467 88.5334 95.7337 88.8001C96.267 89.3334 96.267 89.6001 95.7337 90.1333C94.9337 90.9333 94.667 91.7333 94.4005 92.5333C94.4005 93.0666 94.1337 93.6001 93.8672 93.8666C93.6005 94.3998 93.0672 94.6666 92.534 94.9333C92.0007 95.2001 91.734 95.4666 91.2008 95.4666C90.934 95.4666 90.934 95.7333 90.934 95.9998C91.2007 96.7999 90.934 97.8666 90.934 98.6666C91.2007 99.4666 91.2008 99.9998 91.2008 100.8C91.4675 100.8 91.4675 100.8 91.734 101.067C91.4673 101.067 91.4672 101.333 91.4672 101.333C91.2005 101.333 91.2005 101.6 91.2005 101.867C91.4673 102.667 91.4672 103.2 91.4672 104C91.4672 104.8 91.734 105.333 92.2673 105.867C92.2673 106.133 92.534 106.133 92.534 106.4C92.534 106.933 92.534 107.2 92.2673 107.733C92.534 108 92.534 108.266 92.534 108.8C92.534 109.067 92.534 109.333 92.534 109.6C92.534 109.867 92.534 110.4 92.8008 110.4L93.0675 110.667C93.0675 110.933 92.8007 111.467 93.0675 111.733C92.8007 112 93.0675 112.267 93.3343 112.533C93.601 112.8 93.601 113.067 93.3343 113.333C93.0675 113.067 93.3343 112.8 92.801 112.8C92.801 113.067 92.801 113.067 92.801 113.067C93.0678 113.334 93.0677 113.867 93.0677 114.4C93.0677 114.667 93.0677 114.667 93.0677 114.933C93.0677 115.467 93.0677 116 93.0677 116.533C93.0677 116.533 93.0677 116.533 93.0677 116.8C92.5345 117.6 92.001 118.133 91.7345 118.933L91.4678 119.2C91.4678 119.467 91.201 119.467 90.9345 119.733C90.4013 120 89.6012 120 89.0677 120.533C88.801 120.267 88.5345 120 88.5345 119.733C88.2678 119.467 88.0012 119.2 87.7345 119.467C87.4677 119.467 87.4677 119.467 87.2013 119.2C87.468 119.2 87.7345 119.2 88.0013 118.933C88.5345 118.933 89.068 118.666 89.3345 118.133C89.6013 117.866 89.6012 117.866 89.6012 117.6C89.6012 117.067 89.6012 116.8 89.868 116.267C89.868 116.267 90.1348 116 90.1348 115.733C89.868 115.467 89.6015 115.467 89.6015 115.2C89.6015 114.933 89.3347 114.933 89.3347 114.667C89.3347 114.134 89.068 114.134 88.8015 113.867C88.2682 113.6 88.2682 113.067 88.8015 112.534C88.8015 112.534 89.0683 112.534 89.0683 112.267C89.335 112 89.335 111.734 89.335 111.467C89.0682 111.2 88.8018 111.2 88.535 111.2C88.535 110.4 88.535 110.4 88.0017 109.867C87.735 109.6 87.735 109.6 88.0017 109.334C88.2685 109.067 88.2685 109.067 88.535 108.8C88.2683 108.8 88.2682 108.534 88.0017 108.534C87.2017 108.534 86.935 108.267 86.935 107.467C86.935 107.2 86.6683 107.2 86.4018 106.934C86.135 106.934 85.6018 106.934 85.335 106.934C84.8018 106.934 84.535 106.667 84.2683 106.134C84.2683 105.867 84.0015 105.6 84.0015 105.6C84.2683 105.334 84.2683 105.067 84.5348 104.8C84.268 104.8 83.7348 104.534 83.468 104.534C82.9348 104.534 82.668 104.267 82.4013 104C81.868 103.2 81.068 102.4 80.8012 101.6C80.8012 101.6 80.8013 101.334 80.5345 101.334C80 101.067 80 100.8 80 100.267C80 100 80 99.7336 80 99.7336C80 99.4669 80 99.2003 79.7333 99.2003C79.2 98.9336 78.9333 98.4004 78.1333 98.4004C77.8665 98.4004 77.8665 98.4003 77.6 98.1336C77.3333 98.1336 77.3333 97.8669 77.0668 97.8669C76.8003 97.8669 76.5335 97.8668 76.5335 97.6001C76.5335 97.3334 76.2668 97.0668 76.2668 96.8001C76.2668 96.5334 76 96.2668 76 96.2668C75.7333 96.2668 75.7333 96.0001 75.7333 95.7336C75.7333 95.2003 75.7333 94.4004 75.4665 93.8669C75.4665 93.3336 75.4665 92.8001 75.4665 92.5336C75.1998 92.2668 74.9333 92.2668 74.9333 92.0004C74.6665 91.4671 74.1333 91.2004 73.8665 90.9336C73.3333 90.4004 73.3333 89.3336 74.1333 88.8003C74.4 88.5336 74.9333 88.2671 75.2 88.0004C75.4668 87.7336 76 87.4671 76.2668 87.4671C76.5335 87.4671 76.8 87.4671 77.0668 87.4671C77.3335 87.4671 77.3335 87.4671 77.6 87.2003C77.8665 86.9336 77.8668 86.9336 78.4 87.2003C78.4 86.6671 78.9333 86.4003 79.4668 86.1336C79.7335 86.4003 80.2668 86.9336 80.5335 87.2003C80.5335 86.9336 80.2667 86.6671 80.2667 86.4004C80.8 86.1336 81.3335 86.9336 81.8668 86.6671C81.6 86.4003 81.6 86.4003 81.6 86.1339L81.3333 85.8671C81.0665 85.6003 81.0665 85.6003 81.3333 85.3338C80 86.1338 80 85.8671 80 85.3338C80 85.0671 80.2667 85.0671 80.2667 84.8006C80.5335 85.3338 80.8 85.8674 81.0668 86.1339C81.3335 85.8671 81.6 85.8671 81.8668 85.6006C82.1335 85.8674 82.1335 85.8674 82.4 86.1339C82.9333 85.6006 83.2 85.0671 82.9333 84.2671C82.9333 83.7338 82.9333 83.4671 83.4665 83.2003C83.7333 83.2003 83.7333 82.9336 83.9998 82.6671C84.2663 82.4006 84.533 82.1338 84.7998 81.8671C84.533 81.6003 84.2665 81.3339 84.533 81.0671C84.533 81.0671 84.533 81.0671 84.7998 81.0671C85.333 81.3339 85.5998 81.3339 86.133 81.0671C86.3998 80.8004 86.3998 81.0671 86.6663 81.0671C86.933 81.0671 87.1995 81.3338 87.4662 80.8003C87.4662 80.8003 87.733 80.5336 87.9995 80.5336C88.2662 80.5336 88.7995 80.5336 89.0663 80.5336C89.333 80.5336 89.5995 80.5336 89.8662 80.8003C90.133 80.5336 90.133 80.5336 90.133 80.2671C90.3998 80.5338 90.3998 80.5339 90.6663 80.5339C90.933 80.5339 90.933 80.8006 91.1995 80.8006C91.7327 80.8006 91.9995 81.0674 92.2663 81.6006C92.533 82.4006 92.7995 82.4006 93.5995 82.1339C93.8663 82.1339 94.1327 81.8671 94.3995 82.1339H94.6663C94.933 82.1339 95.1995 81.8671 95.4662 81.8671C96 81.6001 96 81.6001 96 80.8001C96 80.2669 96 80.0001 95.7333 79.4669C96.2665 79.2001 96.8 78.9336 97.3333 78.9336C97.8665 78.6669 98.1332 78.4004 98.4 77.8669C98.1332 77.0669 97.8667 76.5336 97.6 76.0001C97.6 75.7333 97.6 75.4669 97.8668 75.4669C98.4 75.4669 98.6667 75.4669 99.2 75.4669C99.4667 75.4669 99.4667 75.7336 99.4667 75.7336C99.4667 76.0003 99.7335 76.2668 99.7335 76.5336C99.7335 76.8004 100 77.0668 100.267 77.0668C100.533 77.0668 101.067 77.0668 101.334 77.0668C102.134 76.8001 102.4 76.2668 102.4 75.7336C102.4 75.4668 102.4 75.2004 102.4 74.9336C102.4 74.4004 102.4 73.8669 102.133 73.3336C102.133 73.0669 102.4 72.8004 102.4 72.5336C102.4 72.2668 102.4 72.0004 102.133 72.0004C101.6 71.7336 101.067 71.2003 100.267 71.2003C100 71.2003 99.7335 71.2004 99.2 71.4671C98.9332 71.4671 98.4 71.4671 98.1332 71.2003C97.6 70.6671 97.3333 70.6671 96.8 71.2003C96.5333 71.2003 96.5332 71.4671 96.2667 71.4671C96 71.4671 95.7335 71.4671 95.7335 71.4671C95.2002 71.4671 94.9335 72.0003 94.9335 72.2671C94.9335 72.8003 94.6668 73.3339 94.4003 73.6003C94.4003 73.6003 94.1335 73.8671 93.867 73.8671C93.867 73.6003 93.867 73.3339 93.867 73.0671C93.867 72.5339 93.867 72.0004 94.4003 71.4671C94.667 70.9339 94.667 70.1339 94.4003 69.6003C93.867 69.0671 93.3335 68.5336 92.5335 68.2671C92.2668 68.0003 92.0002 68.0003 91.7335 67.7338C92.0002 67.4671 92.0002 66.9338 91.7335 66.6671C91.4667 66.4003 91.4667 66.1339 91.2002 65.6003C90.9335 65.0671 90.667 64.8003 90.4003 64.8003C90.1335 64.8003 89.867 64.5336 89.867 64.5336C89.6002 64.5336 89.3338 64.2668 89.067 64.2668C89.3333 64.0001 89.6 64.0001 89.6 64.0001C89.3332 63.2001 88 62.1333 86.9333 61.8668C87.2 62.1336 87.4665 62.6668 87.2 63.2001C87.2 63.2001 86.9333 63.2001 86.9333 62.9333C86.1333 62.4001 85.3333 61.8666 84.5333 61.6001C84.5333 61.6001 84.2665 61.6001 84.2665 61.3333C84.2665 61.0666 84.5333 60.5333 84.7998 60.2666C85.0665 60.5333 85.333 60.7998 85.333 61.0666C85.8663 60.7998 86.3998 60.7998 86.6663 60.5333C86.6663 60.2666 86.6663 60.0001 86.133 60.0001V59.2001C86.6663 59.2001 87.1998 59.2001 87.733 58.9333C87.4663 58.9333 87.4663 58.6666 87.1998 58.6666C86.6665 58.3998 86.133 58.3998 85.8665 58.9333C85.5998 59.2001 85.5997 59.2001 85.0665 59.2001C85.3333 58.9333 85.5997 58.6668 85.5997 58.4001C85.5997 58.4001 85.5998 58.4001 85.333 58.4001C84.7998 58.6668 84.2663 58.4001 83.733 57.8668C83.4663 57.6001 83.1998 57.6001 82.933 57.3336C82.933 58.1336 83.733 58.9336 83.733 59.7336C83.1998 59.7336 82.6663 60.0003 82.133 60.0003C82.3998 60.0003 82.3998 60.2671 82.6663 60.2671C82.133 61.0671 82.133 61.0671 81.333 60.2671C81.333 60.2671 81.333 60.2671 81.0663 60.2671C80.533 60.5338 80.2663 60.5338 80.2663 60.0003C80.2663 59.4671 80.2663 59.2003 80.533 58.9336C80.7998 58.6668 81.333 58.4003 81.5997 58.1336C82.6665 58.6668 82.6665 58.6668 82.3998 58.1336C82.133 57.8668 82.133 57.6003 82.3998 57.3336C82.6665 57.0668 82.3998 56.8003 82.3998 56.5336C82.3998 56.5336 82.3998 56.2668 82.3998 56.0003C82.3998 55.7336 83.1998 55.2003 83.733 55.4671C83.4663 55.2003 83.733 54.9338 83.9998 54.9338L84.2665 54.6671C84.7998 54.4003 85.0665 53.8671 85.3333 53.3338C85.6 53.0671 85.3333 52.8006 85.3333 52.8006V52.5338C85.6 51.7338 86.1333 50.9338 86.4 50.1338C86.4 49.8671 86.6667 49.8671 86.6667 49.6006C87.2 50.4006 87.4668 51.2006 88 51.7338C88.5333 51.4671 89.0668 50.9338 88.8 50.4006C88.8 49.6006 88.8 49.3338 89.6 49.0673C89.8667 48.8006 90.1333 48.8006 90.4 48.2673C90.4 48.0006 90.6667 47.7341 90.9333 47.4673C91.2 47.4673 91.2 47.2006 91.4665 47.2006L91.7333 47.4673C92 47.4673 92 47.2006 92.2665 47.2006C93.0665 46.9338 93.3333 47.2006 93.3333 48.0006C93.3333 48.2673 93.3333 48.5338 93.3333 48.8006C93.3333 49.0673 93.3333 49.3338 93.3333 49.6006C93.0665 49.8673 93.3332 50.1338 93.6 50.4006C93.8667 50.6673 93.8667 50.6673 93.6 50.9338C93.3332 51.2006 93.3332 51.2006 93.0667 51.4671C92.5335 52.0003 92.5335 52.8003 92.8 53.3338C93.0668 53.6006 93.3332 54.1338 93.6 54.4006C93.8667 54.6673 93.8668 54.6673 93.8668 55.2006C93.8668 55.7338 93.8667 56.0006 93.6 56.5338C93.6 56.8006 93.6 57.0671 93.6 57.0671C93.6 57.3338 93.8667 57.6003 94.1332 57.3338L94.4 57.0671C94.6667 56.8003 94.9332 56.5338 95.2 56.2671C95.2 56.2671 94.9332 56.0003 95.2 56.0003C95.4667 55.7336 95.2 55.4671 94.9332 55.2003C95.2 54.9336 95.4665 54.6671 95.7333 54.4003C96 54.1336 96.2665 54.1336 96.2665 53.8671C96.5333 53.3338 97.0665 52.5338 97.3333 52.0003C97.6 51.4671 98.1332 51.2003 98.9332 50.9336C99.4665 50.9336 99.7333 50.9336 99.7333 51.4668C100 52.0001 100.533 52.5336 100.8 53.0668C100.8 53.0668 100.8 53.0668 101.067 53.0668C101.6 52.5336 101.6 52.0001 101.867 51.4668C102.133 50.4001 101.867 49.3336 101.067 48.2668C100.8 48.0001 100.267 47.4668 100 46.9336L99.7333 46.6669C99.7333 46.1336 99.2 45.8668 98.9332 45.6001C98.6665 45.6001 98.4 45.3333 98.4 45.0668C98.4 44.8001 98.1333 44.8001 97.8668 44.8001C98.1335 45.3333 98.1335 45.6001 98.4 46.1333C97.8667 46.1333 97.6 46.1333 97.3333 46.6666C96.8 46.3998 96.8 45.8666 96.5332 45.3333C96 45.6001 95.7332 45.8666 94.9332 45.8666C95.2 44.7998 96.2665 44.5333 97.0665 43.7333C97.0665 43.7333 96.7997 43.7333 96.7997 43.4666C96.2665 43.1998 96.2665 42.9333 96.2665 42.6666C96.2665 42.3998 96.2665 42.3998 95.9997 42.1333C95.733 41.8668 95.733 41.6001 95.733 41.3333C95.733 40.8001 95.733 40.2666 95.733 39.7333C95.4662 39.2001 95.733 39.2001 95.9997 38.9333C96.2665 38.6666 96.7997 38.4001 97.333 38.1333C96.7997 37.8666 96.2663 37.8666 95.733 37.6001C95.4662 37.6001 95.1998 37.6001 95.1998 37.8668C95.1998 38.1336 94.933 38.4001 94.6665 38.1336V37.8668C94.6665 37.6001 94.3997 37.6001 94.1332 37.3336C94.1332 37.3336 93.8665 37.6003 93.6 37.6003C93.0667 38.6671 92.2668 39.4671 91.7333 40.5336C91.4665 40.8003 91.4665 41.3336 91.4665 41.6003C91.4665 41.8671 91.1998 42.1336 90.9333 42.1336C90.6665 42.1336 90.6665 42.1336 90.4 42.1336C90.1333 42.1336 89.8667 42.4003 89.6 42.4003C89.8667 42.6671 90.1332 42.9336 90.1332 43.2003C90.4 42.9336 90.4 42.9336 90.6665 42.6671C90.9332 42.4003 90.9333 42.4003 91.1998 42.4003C91.733 42.1336 91.9997 42.4003 91.9997 42.9336C91.9997 43.2003 91.9998 43.4668 91.733 43.7336H92C92.2667 43.7336 92.5333 43.7336 92.8 43.7336C93.3333 43.7336 93.3332 43.7336 93.6 44.2668C93.6 44.5336 93.8668 44.8001 93.8668 45.0668C93.8668 45.0668 93.8668 45.3336 93.8668 45.6001C93.6 45.6001 93.3335 45.3333 93.3335 45.3333C93.0668 45.3333 92.8002 45.0666 92.5335 45.0666C92.0002 44.7998 92.0002 44.7998 91.7335 45.3333C91.4667 45.6001 91.4667 45.8666 91.2002 46.1333C90.9335 46.4001 90.667 46.6666 90.667 46.9333C90.4002 47.2001 90.1337 47.4666 89.867 47.4666C89.6002 47.4666 89.6002 47.4666 89.3337 47.7333C88.8005 47.7333 88.5338 48.0001 88.0005 48.0001C88.5338 47.4668 89.0672 46.9333 89.3337 46.4001C89.067 46.6669 88.5337 46.9333 88.267 47.2001C88.0002 47.4668 87.7338 47.7333 87.2003 48.0001C87.2003 47.7333 87.467 47.4668 87.467 47.2001C87.2003 46.9333 86.9338 46.9333 86.667 46.6669C86.9338 46.4001 87.2003 46.1336 87.467 45.8668C88.267 45.3336 88.5338 44.5336 88.5338 43.4668V43.2001C88.267 43.2001 88.267 43.4668 88.0005 43.4668C87.7338 43.7336 87.2005 44.0001 87.2005 44.5336C87.2005 44.8003 86.9337 45.3336 86.4005 45.3336C86.4005 45.0668 86.4005 44.8003 86.4005 44.8003C86.4005 44.2671 86.4005 43.7336 85.8673 43.4671C85.6005 43.2003 85.6005 43.2003 85.8673 42.9338L86.134 42.6671C86.934 41.8671 87.734 41.3338 88.8008 40.5338C89.0675 40.2671 89.0675 40.2671 89.334 40.0006C89.6007 39.4673 89.6008 39.2006 89.0673 38.9338L88.8005 38.6671C89.0673 38.4003 89.3338 38.4003 89.6005 38.4003C89.8673 38.4003 89.8672 38.6671 90.4005 38.4003L90.1338 38.1336L89.867 37.8668C90.1337 37.6001 90.667 37.3336 90.9337 37.3336C91.2005 37.3336 91.467 37.3336 91.7337 37.0668C91.467 36.8001 91.2005 36.8001 90.9337 36.5336C91.2005 36.2668 91.2005 35.7336 91.467 35.4668C91.7338 35.7336 91.7338 36.0001 92.0003 36.5336C92.5335 36.2668 92.8002 36.0003 92.8002 35.4668C92.8002 34.9333 92.8003 34.6668 93.3335 34.4001C93.3335 34.4001 93.6002 34.1333 93.6002 33.8668V33.6001C93.6002 33.3333 93.867 32.8001 94.1335 32.8001C94.6667 32.8001 95.2002 32.8001 95.7335 32.8001C95.2002 33.3333 94.6668 33.6001 93.8668 33.8668C94.1335 34.1336 94.1335 34.4001 94.4 34.6668C94.4 34.9336 94.6667 35.2001 94.6667 35.4668C94.9335 35.2001 95.2 34.9336 95.2 34.6668C95.4667 34.9336 95.4668 35.2001 95.7333 35.4668C95.7333 34.9336 95.7333 34.4001 95.7333 33.8668C95.7333 33.3336 96 32.8001 96.2665 32.2668C97.0665 32.8001 97.5997 33.3336 98.1332 33.8668V34.1336C97.8665 34.4003 97.6 34.6668 97.8665 35.2003V35.4671C97.8665 35.7338 97.8665 36.2671 97.8665 36.5338C98.1332 36.5338 98.3997 36.2671 98.3997 36.0006C98.3997 35.7341 98.6665 35.4673 98.6665 34.9338C98.6665 34.9338 98.9332 34.6671 98.6665 34.6671C98.3997 34.4003 98.6665 34.1338 98.6665 33.8671C98.3997 33.3338 97.8665 32.8003 97.5997 32.2671C98.133 32.2671 98.6665 32.2671 99.1998 32.5338C99.1998 32.5338 99.4665 32.5338 99.4665 32.8006C99.9997 33.8673 100.533 34.6673 100.267 35.7338C100.267 36.0006 99.9998 36.2671 99.7333 36.2671C99.4665 36.2671 99.2 36.5338 98.9332 36.5338C99.2 36.5338 99.4665 36.8006 100 36.8006C99.2 37.3338 98.4 37.8673 97.8668 38.1338C97.8668 38.6671 98.1335 39.2006 97.6 39.4671C98.1332 39.7338 98.4 40.0003 98.4 40.5338C98.4 40.8006 98.6667 41.3338 98.9332 41.6006C99.4665 41.0673 99.7332 40.8006 99.4665 40.2673V40.0001C99.4665 39.4668 99.4665 39.4668 99.7333 39.2001C100 39.2001 100 39.2001 100.267 38.9333C100.267 39.4666 100.266 39.7333 100.533 40.2666C101.066 40.2666 100.8 39.9998 100.8 39.7333C100.8 38.9333 100.8 38.9333 101.333 38.4001C101.866 38.1333 101.866 38.1333 101.6 37.6001C101.333 37.3333 101.6 37.0668 101.867 36.8001C102.133 36.5333 102.4 36.2668 102.4 36.0001C102.667 35.4668 102.667 35.2001 102.4 34.9333C102.133 34.6666 102.133 34.6666 102.133 34.4001C102.4 34.1333 102.666 33.8668 102.933 33.6001C102.666 33.6001 102.4 33.3333 102.133 33.3333C101.866 33.3333 101.6 33.6001 101.333 33.6001C101.333 33.3333 101.333 33.3333 101.066 33.0668C101.066 32.5336 100.8 32.0001 100.267 31.4668C100.267 31.4668 100.266 31.2001 99.9997 31.2001C100.533 30.9333 101.333 31.2001 101.866 31.2001C102.4 31.2001 102.666 31.4668 102.933 31.7333C102.933 32.0001 102.933 32.5333 102.933 32.8001C102.933 33.0668 102.933 33.3333 102.933 33.6001C102.666 34.4001 102.933 34.9333 103.466 35.4668C103.733 35.7336 103.733 36.0001 103.466 36.2668C103.2 36.5336 103.2 36.8001 103.466 37.0668C103.733 37.3336 103.466 37.6001 103.2 37.6001C102.933 37.8668 102.666 37.8668 102.4 38.1333C102.4 38.1333 102.133 38.4001 102.133 38.6666C102.133 39.4666 102.133 40.2666 102.933 40.7998C102.933 41.0666 102.933 41.0666 102.666 41.3331C103.199 41.3331 103.466 41.0663 103.199 40.7998C102.933 40.2666 103.199 39.9999 103.466 39.7331C102.666 39.1999 102.666 38.1331 103.466 37.5998C103.733 37.8666 103.999 38.1331 104.533 38.3998C105.066 38.6666 105.066 38.9331 104.533 39.1998C104.266 39.1998 104.266 39.4666 104 39.4666C104 39.4666 103.733 39.7333 103.466 39.7333C103.733 40.0001 104 40.0001 104 40.0001C104 40.2668 104 40.2668 104 40.5333C104.267 40.5333 104.533 40.5333 104.533 40.5333C105.333 40.5333 106.133 40.2666 106.933 39.7333C107.466 39.4666 107.466 39.4666 107.733 40.0001C107.733 40.0001 107.733 40.0001 108 40.2668C108.267 40.5336 108.267 40.8001 108 41.0668C107.733 41.6001 107.733 41.8668 108.267 42.4001C108.533 42.1333 108.533 41.8668 108.8 41.6001C109.067 41.3333 109.067 41.0668 109.333 40.8001C109.6 40.5333 109.6 40.5333 109.866 40.8001C110.666 41.0668 111.2 41.0668 112 40.8001C112 40.8001 112 40.8001 112 40.5333C112 40.5333 112 40.5333 111.733 40.5333C111.2 40.2666 111.2 39.7333 111.733 39.4666C112 39.4666 112.266 39.4666 112.533 39.4666C112.8 39.4666 113.066 39.4666 113.333 39.1998C113.866 38.9331 114.4 38.6666 114.933 38.3998C115.2 38.1331 115.466 38.1331 115.733 38.6666L116 38.9333C116.266 38.4001 116.266 38.1333 116.533 37.8666C116.8 38.3998 117.066 38.6666 117.066 38.9333C117.333 38.4001 117.599 37.6001 118.133 37.3333C118.4 37.6001 118.4 37.6001 118.4 37.8666C118.4 38.1331 118.666 38.3998 118.933 38.3998C119.2 38.3998 119.2 38.1331 119.466 38.1331C119.999 38.6663 120.266 39.4663 120.799 39.9998C121.066 39.9998 121.333 39.7331 121.333 39.4666C121.333 38.9333 121.599 38.9333 122.133 39.1998C122.133 39.4666 121.866 39.7331 122.133 40.2666C122.399 39.9998 122.666 39.9998 122.933 39.7333C123.199 39.4668 123.466 39.4666 123.466 39.2001C124.799 42.6668 125.866 46.1333 126.666 49.6001C126.133 50.1333 125.867 50.4001 125.333 50.1333Z" fill="#F3F3F3"/>
<path d="M70.9333 40.5334C70.9333 40.5334 70.9333 40.2669 70.9333 40.5334C70.9333 40.2669 70.9333 40.2669 70.9333 40.5334C70.1333 41.0666 70.1333 41.0666 69.6 40.5334C68.8 40.0001 68 39.4666 67.2 38.9334C66.9333 38.6666 66.4 38.4001 66.1333 38.1334C66.6665 37.8666 67.2 37.6001 67.7333 37.6001C68 37.6001 68.2665 37.6001 68.2665 37.3334C68.2665 37.0666 68.2665 37.0666 67.9998 36.8001C67.733 36.8001 67.733 36.5334 67.4665 36.5334C67.7333 36.0001 67.7333 36.0001 67.4665 35.7334C66.6665 36.0001 66.9333 37.0666 66.1333 37.3334C65.8665 37.0666 65.8665 37.0666 65.6 36.8001C65.0668 36.2669 65.0668 36.2669 65.6 35.7334C66.1333 34.9334 66.6668 34.4001 67.2 33.8666L67.4668 33.5999C67.2 33.3331 66.6668 33.5999 66.4 33.5999C66.4 33.3331 66.1333 33.0666 66.1333 32.7999C65.6 33.0666 65.6 33.0666 65.0665 32.7999C64.7998 31.9999 65.5998 31.9999 65.8665 31.4666C65.3333 31.1999 65.0665 31.1999 64.5333 30.9334C64.8 30.1334 65.6 29.8666 65.6 29.0666C65.0668 29.0666 64.8 29.5999 64.5333 29.5999C64.8 28.7999 65.0665 27.9999 65.8665 27.4666C66.1333 27.4666 66.1333 27.1999 66.1333 26.9334C65.8665 26.6666 65.8665 26.4001 65.6 26.1334C65.3333 25.8666 65.3333 25.8666 65.0668 26.1334C64.8 26.4001 64.8 26.4001 64.5335 26.6666V25.3334C64.8003 25.3334 65.3335 25.6001 65.6003 25.3334C65.6003 25.0666 65.3335 24.8001 65.067 24.5334C65.3338 24.5334 65.867 24.8001 66.1338 24.8001C66.4005 24.2669 66.4005 24.0001 65.867 23.7334C65.6003 23.4666 65.6003 23.4666 65.6003 22.9334V22.6666C65.6003 22.3999 65.6003 22.1334 65.3335 21.8666L65.0668 21.5999C64.5335 21.3331 64.5335 21.0666 64.5335 20.5331V20.2664C64.5335 19.9996 64.5335 19.7331 64.2668 19.4664C64.2668 19.1996 64 18.9331 64 18.6664H64.2668C64.5335 19.1996 64.8 18.9331 65.0668 18.9331C65.0668 18.3999 64.8 18.1331 64.5335 17.8664C63.7335 18.3996 63.7335 18.3996 63.2003 17.5996V17.3329C63.467 17.0661 63.467 16.7996 64.0003 16.7996C64.267 16.7996 64.5335 16.7996 65.067 16.7996C65.3338 16.7996 65.3338 17.3329 65.867 17.0664C65.6003 16.7996 65.3338 16.5331 65.3338 16.5331C64.5338 16.7999 64.5338 16.7999 64.267 16.5331C64.0003 16.2664 63.7338 16.2664 63.467 16.2664C63.2003 16.2664 63.2003 16.2664 62.9338 15.9996C62.4005 15.4664 61.867 14.9329 61.6005 14.1329C61.3338 13.8661 61.3338 13.5996 61.6005 13.5996C61.3338 13.3329 61.6005 13.0664 62.1338 12.5329C62.9338 11.9996 63.467 11.9996 63.7338 12.7996V13.0664C63.7338 13.3331 64.0005 13.3331 64.0005 13.5996C64.2673 13.8664 64.8005 13.8664 64.8005 13.3329C64.8005 13.3329 64.8005 13.0661 65.0673 13.0661C65.334 13.3329 65.6005 13.5994 65.8673 14.1329C66.134 14.3996 66.134 14.6661 66.4005 14.9329C66.4005 15.1996 66.4005 15.4661 66.6673 15.7329C66.934 16.2661 66.934 16.2661 67.4673 15.9996C66.4005 14.6664 65.8673 13.0664 66.4005 11.1996C66.9338 11.4664 67.4673 11.7329 67.7338 12.5329C68.0005 13.0661 68.267 13.5996 69.067 13.5996C68.8003 13.3329 68.8003 13.3329 68.5338 13.0664C68.267 13.3331 68.0005 13.3331 68.0005 13.0664C67.7338 12.7996 68.0005 12.2664 68.2673 12.2664C68.8005 12.2664 69.6005 12.2664 70.134 12.5331C70.6675 12.7999 70.934 13.0664 71.4673 13.3331C71.734 13.3331 71.734 13.5999 72.0005 13.3331C71.4673 12.2664 70.1338 11.4664 69.0673 11.7331C68.8005 11.7331 68.534 11.7331 68.2673 11.7331C67.734 11.4664 67.2005 11.1999 66.6673 10.9331C66.134 10.6664 66.134 10.1331 66.4005 9.86635C66.6673 9.5996 67.2005 9.3331 67.4673 9.06635C67.734 9.06635 67.734 9.3331 68.0005 9.3331C67.7338 8.79985 67.7338 8.26635 68.0005 7.7331C68.2673 7.7331 68.2673 7.99985 68.5338 7.99985C68.8005 8.5331 69.3338 8.5331 69.867 8.2666C70.4003 7.99985 70.9338 8.2666 71.467 8.53335C72.0003 8.8001 72.5338 9.0666 73.3338 9.0666L73.067 8.79985C72.5338 8.5331 72.0003 8.2666 71.7338 7.99985C71.2005 7.7331 70.9338 7.7331 70.4005 7.7331C70.1338 7.7331 69.8673 7.7331 69.8673 7.7331C69.334 7.7331 68.8005 7.46635 68.534 6.9331C69.0673 6.66635 69.6008 6.1331 70.4008 6.1331C70.934 6.1331 71.734 6.1331 72.0008 5.59985H73.334C73.8673 5.8666 73.8673 6.1331 73.6008 6.6666C73.8675 6.6666 73.8675 6.6666 74.134 6.39985C74.134 6.39985 74.134 6.6666 74.4008 6.6666C74.6675 6.6666 74.6675 6.6666 74.934 6.39985C75.4673 6.9331 74.6673 7.19985 74.4008 7.4666C74.6675 7.4666 74.934 7.4666 75.4675 7.73335C74.6675 8.53335 74.6675 8.53335 74.6675 8.53335L74.9343 8.8001C74.9343 9.06685 74.6675 9.06685 74.6675 9.33335C75.2008 9.33335 75.4675 8.8001 76.0008 8.53335C76.2675 8.2666 76.534 7.73335 77.0675 7.4666C77.0675 7.73335 77.0675 7.99985 76.8008 7.99985C77.0675 7.99985 77.334 7.99985 77.6008 7.99985C77.6008 8.2666 77.6008 8.5331 77.6008 8.79985C76.534 9.0666 76.2675 9.0666 76.0008 9.3331C75.4675 9.59985 75.4675 10.3999 75.4675 10.6664C76 10.1334 76 9.6001 76.8 9.33335C77.3333 9.33335 77.8668 9.0666 78.6668 9.0666C77.8668 9.8666 77.3335 10.6666 76.5335 11.1999C77.0668 11.4666 77.3335 10.9331 77.6003 10.9331C77.6003 11.4664 78.1335 11.9999 77.3335 12.2664C77.6003 12.5331 77.6003 12.5331 77.8668 12.5331C78.4 11.9999 78.9335 11.4664 79.4668 10.6664C79.2 10.4001 79.2 10.4001 78.9333 10.4001C79.2 10.1334 79.2 9.86685 79.4665 9.6001L79.7333 9.86685C80 9.6001 80 9.6001 80.2665 9.86685C80.5333 9.86685 80.5333 10.1336 80.5333 10.4001C80.5333 10.9334 80.5333 11.2001 80 11.7334C79.7333 12.0001 79.7333 12.2666 80 12.5334C80.2668 12.2666 80.8 12.0001 80.8 11.4666C80.8 11.1999 80.8 10.9334 81.0668 10.9334C81.0668 10.9334 81.0668 10.9334 81.3335 10.9334C81.3335 11.2001 81.3335 11.2001 81.3335 11.4666C81.6003 11.1999 81.8668 10.9334 82.1335 10.6666C82.6668 11.4666 83.7335 11.7334 84.5335 11.9999C84.2668 12.2666 84.2668 12.5331 84.2668 12.7999C84.2668 13.0666 84 13.0666 84 13.3331C84.2668 13.0664 84.5333 12.7999 84.8 12.5331C85.3333 12.2664 85.3333 12.7999 85.8668 13.0664V13.3331C85.6 13.5999 85.0668 13.8664 85.3335 14.3999V14.6666C85.3335 14.6666 85.3335 14.9334 85.3335 15.1999C85.6003 15.1999 85.8668 14.9331 86.1335 14.9331C86.6668 15.4664 87.2003 15.9999 87.7335 16.5331C87.7335 16.7999 88.0003 17.0664 88.2668 17.0664C88.5335 17.0664 88.8 17.0664 88.8 17.3331C88.8 17.5999 88.8 17.8664 89.0668 18.1331C88.5335 18.6664 88 18.6664 87.7335 18.6664C87.2003 18.6664 86.9335 18.3996 86.4003 18.6664L86.667 18.9331C86.667 18.9331 86.9338 18.9331 86.9338 19.1999C86.667 19.4666 86.667 19.7331 86.4005 19.9999C86.6673 20.2666 86.9338 20.5331 86.9338 20.5331C87.467 21.0664 88.0005 21.0664 88.5338 21.3331C88.8005 21.3331 89.067 21.3331 89.3338 21.8664C89.3338 21.8664 89.6005 22.1331 89.867 22.1331C90.1338 22.3999 90.667 22.3999 90.9338 22.6664C91.2005 22.9331 91.2005 23.1996 90.9338 23.4664C90.667 23.7331 90.667 23.7331 90.4005 23.9996C90.1338 24.2664 90.1338 24.5329 89.8673 24.7996C89.8673 25.0664 89.8673 25.0664 90.134 25.5996C89.8673 25.5996 89.8673 25.5996 89.6008 25.3329C89.334 25.3329 89.334 25.0661 89.0675 25.0661C88.8008 24.7994 88.5343 25.0661 88.2675 25.3329C88.8008 25.3329 89.0675 25.3329 89.3343 25.3329C89.601 25.5996 89.8675 25.8661 90.1343 25.8661H90.401H90.6678C90.6678 26.1329 90.6678 26.1329 90.6678 26.1329C90.401 26.3996 90.1345 26.9329 89.8678 27.4661L89.601 27.7329C89.3343 27.9996 88.801 28.2661 88.5343 28.2661C88.001 28.2661 87.4675 28.2661 86.9343 27.7329C86.6675 27.4661 86.401 27.4661 86.1343 27.7329C85.3343 27.9996 84.801 28.5329 84.2675 29.0661C84.2675 29.0661 84.0008 29.3329 84.0008 29.5994C84.0008 30.3994 83.734 31.1994 83.4675 31.9994C83.4675 32.2661 83.2008 32.5326 83.2008 33.0661C82.934 33.3329 82.6675 33.5994 82.4008 34.1329C82.6675 34.6661 82.6675 34.6661 82.6675 34.9329C83.2008 35.4661 83.2008 35.4661 82.9343 35.9996C82.401 35.7329 81.8675 35.4664 81.3343 35.4664C81.3343 36.2664 80.801 36.7996 81.0675 37.5996C81.3343 37.5996 81.3343 37.5996 81.8675 37.3329C82.4008 37.0661 82.4008 37.0661 82.6675 37.5996C82.4008 37.8664 82.1343 37.8664 81.8675 38.1329C82.1343 38.1329 82.4008 38.1329 82.6675 38.3996C82.6675 38.9329 82.1343 39.4664 81.8675 39.9996C81.6008 39.7329 81.3343 39.4664 81.3343 39.1996V38.9329V38.6661C80.5343 38.6661 80.5343 38.9329 80.801 39.4661C80.801 39.7329 81.0678 39.7329 81.0678 39.9994C81.0678 40.5326 81.3345 40.7994 81.601 41.0661C82.1343 41.5994 82.401 42.1329 82.1343 42.9329C82.1343 43.1996 81.8675 43.4661 81.8675 43.7329C81.6008 44.5329 81.0675 45.0661 80.5343 45.3329C80.5343 45.3329 80.2675 45.3329 80.2675 45.5996C80.5343 45.5996 80.5343 45.8664 80.8008 45.8664C81.334 46.1331 81.6008 46.1331 81.0675 46.9331C80.8008 47.1999 80.8008 47.1999 80.5343 47.4664C80.2675 47.7331 80.001 48.2664 79.7343 48.5331C79.201 49.0664 79.201 49.0664 79.7343 49.8664C79.4675 49.8664 79.4675 49.8664 79.201 49.8664C78.6678 49.8664 78.401 50.1331 78.1343 50.3996C78.1343 50.6664 77.8675 50.9329 77.601 50.9329C77.601 50.3996 77.3343 50.1329 77.3343 49.5996C77.0675 48.5329 76.801 47.7329 76.001 46.9329C75.7343 46.6661 75.7343 46.3996 75.7343 45.8661C75.7343 45.3326 75.7343 45.0661 75.201 44.5329C74.9343 44.2661 74.6678 43.9996 74.401 43.7329C74.1343 43.4661 73.8678 43.1996 73.601 43.4661C73.3343 43.1994 73.0678 43.1994 72.801 42.9329C72.5343 42.6661 72.2678 42.1329 71.7343 41.8661C70.9333 41.3334 70.6668 40.8001 70.9333 40.5334Z" fill="#F3F3F3"/>
<path d="M47.7332 66.9334L45.0665 64.5334H43.4665L44.8 90.4002L52.5332 86.9334C52.8 86.6669 49.8667 69.3334 47.7332 66.9334Z" fill="#344A5E"/>
<path d="M48.2668 96.267C50.7704 96.267 52.8 93.4017 52.8 89.867C52.8 86.3324 50.7704 83.467 48.2668 83.467C45.7631 83.467 43.7335 86.3324 43.7335 89.867C43.7335 93.4017 45.7631 96.267 48.2668 96.267Z" fill="#344A5E"/>
<path d="M9.86676 128L16 109.067L41.8668 106.4C41.8668 106.4 44.2668 114.133 47.2 128H9.86676Z" fill="#66C6B9"/>
<path d="M48.8 124C49.0667 125.067 49.0667 126.4 49.3332 128H45.8665C44.5332 122.4 43.4665 116.8 42.6665 114.933C41.3332 111.2 38.6665 92.8002 38.6665 92.8002C38.6665 92.8002 39.4665 71.7334 38.1332 67.2002C37.0665 62.6669 36.8 61.8669 36.8 61.8669L38.4 62.1337C38.4 62.1337 44.8 63.7337 45.8667 65.0669C46.9332 66.4002 49.6 72.0002 49.6 76.8002C49.3332 81.6002 47.2 89.8669 46.9332 97.8669C46.1332 105.867 48 118.667 48.8 124Z" fill="#344A5E"/>
<path d="M48.8 94.6668C48.8 94.6668 49.8668 93.6001 50.1333 92.0001C50.4 90.4001 49.8665 88.0001 48.2665 86.6668C46.9333 85.0668 45.3333 85.3336 45.3333 85.3336L42.6665 86.1336L48.8 94.6668Z" fill="#E8EAE9"/>
<path d="M18.6668 43.9999L19.7335 52.5331L33.6003 63.4664V52.2664C33.6003 52.2664 37.6003 49.3331 37.3335 41.0664C37.3335 41.0664 37.8668 36.2664 36.8003 33.0664C35.7338 29.8664 34.9335 26.6664 32.0003 25.5996C29.3335 24.5329 21.3335 26.6664 19.467 28.2664C17.8668 29.5999 16 40.2666 18.6668 43.9999Z" fill="#FFD15C"/>
<path d="M19.2 40.2665L18.6668 40.7998L16 38.933C16 38.933 14.9333 34.133 16.5333 30.133C18.1333 26.133 22.6665 22.933 25.3333 22.3998C28 21.8665 29.8665 21.8665 31.7333 23.1998C33.6 24.533 35.7333 26.6665 36.2665 28.7998C37.0665 30.933 38.1333 35.4665 37.8665 37.5998C37.5998 39.733 37.3333 41.0665 37.3333 41.0665H36.8C36.8 41.0665 37.3333 37.8665 36.8 36.2665C36.2668 34.3998 36 34.3998 35.7333 32.5333C35.7333 30.9333 34.9333 28.8 33.3333 28C31.7333 27.2 26.9333 27.2 24.5333 28C23.7333 28.2668 22.9333 28.5333 22.4 28.8C21.3333 29.3333 20.5333 30.6668 20.8 32.2668C20.8 32.8 20.8 33.6 20.5333 33.8668C19.4668 35.4665 18.6668 38.3998 19.2 40.2665Z" fill="#415A6B"/>
<path d="M15.7726 42.6522C16.4274 44.7623 17.6425 46.2605 18.4864 45.9986C19.3304 45.7367 19.4838 43.8138 18.8289 41.7037C18.1741 39.5936 16.9591 38.0954 16.1151 38.3573C15.2711 38.6192 15.1178 40.5421 15.7726 42.6522Z" fill="#FFD15C"/>
<path d="M33.6 51.9998V60.5331C24.2667 56.7998 20.2667 47.4663 20.2667 47.4663C25.6 54.3998 33.6 51.9998 33.6 51.9998Z" fill="#F7B64C"/>
<path d="M33.6 57.0667L32 58.1332H30.9333L23.7333 59.1999L33.6 81.8667L39.4668 95.4667L38.9333 66.9332L33.6 57.0667Z" fill="#66C6B9"/>
<path d="M32 62.4001C32 62.4001 29.8667 68.5334 30.4 72.8001C30.6667 77.0669 37.3332 90.1334 37.3332 90.1334L40.8 79.4666L38.9332 66.6666L35.4665 62.1334L32.5332 60.2666L32 62.4001Z" fill="#344A5E"/>
<path d="M28.8 58.9332C28.8 58.9332 30.6667 60.5332 32 62.4C32 62.4 33.6 61.3332 35.2 62.4C35.2 62.4 34.4 58.9332 33.8667 58.4C33.3335 57.6 32 58.4 32 58.4H30.9332L28.8 58.9332Z" fill="#344A5E"/>
<path d="M19.4668 51.7331C19.4668 51.7331 21.3335 53.3331 24 54.3998C26.6665 55.4666 30.9333 58.1331 30.9333 58.1331C30.9333 58.1331 26.6665 62.1331 26.4 64.7998C26.1333 67.4666 26.1333 67.4666 26.1333 67.4666L17.3333 55.4666C18.4 54.3998 19.2 51.1998 19.4668 51.7331Z" fill="#E8EAE9"/>
<path d="M4.8 128C6.4 115.2 8.26675 97.8668 8 96.0001C7.46675 93.0668 2.93325 82.4001 0.799997 73.8668C-1.33325 65.3336 1.86675 63.2001 1.86675 63.2001C4.5335 59.7333 8.5335 60.5333 10.6667 60.0001C12.8 59.4668 15.2 57.6001 15.2 57.6001L22.1332 58.4001C22.1332 58.4001 30.9332 69.3333 33.3332 74.9333C35.7332 80.5333 40.2665 99.2001 40.2665 99.2001C40.2665 99.2001 40.5332 103.2 41.0665 109.6C41.3332 113.067 41.3332 120.8 39.9997 127.733H4.8V128Z" fill="#344A5E"/>
<path d="M38.1333 102.4C38.1333 102.4 30.1333 102.667 30.4 98.6668C30.6668 94.6667 35.7333 94.6667 35.7333 94.6667L40.8 97.8668L38.1333 102.4Z" fill="#FFD15C"/>
<path d="M36.2667 96.8C36.2667 96.8 37.0667 101.333 36.2667 103.2L46.1335 104L45.0667 96L36.2667 96.8Z" fill="#E8EAE9"/>
<path d="M38.9333 105.867C38.9333 105.867 39.4665 105.867 40.5333 105.867C42.1333 105.867 44.5333 105.6 46.6665 105.6C48.5333 105.6 50.3998 105.333 50.9333 105.333C52.2665 105.333 58.9333 104.267 59.4665 103.467C60.2665 102.667 61.8665 99.4665 61.8665 96.2665C61.8665 93.0665 59.1998 88.7998 59.1998 88.7998C59.1998 88.7998 56.533 84.533 55.733 83.4665C54.933 82.3998 54.133 81.8665 53.333 80.7998C52.533 79.9998 52.533 78.6665 52.533 78.6665C52.533 78.6665 53.0663 77.0665 51.9998 75.1998C50.933 73.0665 50.133 71.4665 50.133 71.4665C50.133 71.4665 49.5998 67.7333 47.733 65.8665C45.8663 64.2665 45.0663 63.9998 45.0663 63.9998C45.333 64.2665 45.333 64.2665 45.5995 64.533C46.6663 65.8663 49.3328 71.4663 49.0663 76.2663C49.0663 78.6663 48.533 81.5995 47.733 85.0663C47.733 85.0663 50.133 90.133 50.3998 90.6663C50.6665 91.4663 50.6665 92.2663 49.333 92.533C49.0663 92.533 47.9998 92.7998 46.6663 93.0663C43.9995 93.5995 40.2663 93.8663 38.6663 94.133C38.133 94.133 37.8663 94.133 37.8663 94.133C40.5333 98.6668 38.9333 105.867 38.9333 105.867Z" fill="#2E4454"/>
<path d="M38.9332 95.7333C36.8 89.6 32.2665 77.8665 30.1332 73.8665C27.2 68.2668 21.6 64 21.6 64L22.9332 62.4L20 62.1333C20 62.1333 15.4667 58.4 14.9332 58.1333C14.9332 58.1333 15.4665 57.0665 16.2665 56.5333C17.0665 56 17.5997 54.6665 18.1332 54.6665C18.1332 54.6665 24.5332 58.9333 27.7332 63.4665C30.6665 67.9998 34.1332 74.1333 36.2665 81.0665C37.6 85.6 38.9332 92 39.7332 96H38.9332V95.7333Z" fill="#415A6B"/>
<path d="M33.6 54.6667C33.6 54.6667 33.0668 57.0667 32 58.1335C32 58.1335 33.8668 58.1335 34.4 60.2667C34.9333 62.4 34.9333 62.4 34.9333 62.4C34.9333 62.4 34.9333 60.2667 34.4 58.9332C34.1333 57.8667 34.6667 55.2 33.6 54.6667Z" fill="#E8EAE9"/>
<path d="M39.4667 95.9999C38.6667 91.9999 37.3335 85.8667 37.6 84.2667C37.6 81.8667 37.6 71.4667 37.0667 68.5334C36.5335 65.8667 34.6667 58.4001 34.6667 58.4001C34.6667 58.4001 36 60.5334 38.4 61.8669L37.6 62.4001C37.6 62.4001 40 63.2002 40.8 65.3334C41.6 67.7334 41.8667 77.0667 41.8667 79.7334C41.8667 81.6002 41.0667 90.6667 40.5335 95.7334H39.4667V95.9999Z" fill="#415A6B"/>
<path d="M0.800004 73.8665C1.86675 78.3997 3.73325 83.4665 5.33325 87.7332C9.8665 93.3332 19.4665 98.6665 21.0665 99.4664C22.6665 100.266 23.1998 100.533 24.2665 100.8C25.3333 101.066 27.4665 100.8 28.5333 101.066C29.6 101.333 30.4 101.066 31.7333 100.8C32.2665 100.8 36.2665 99.7329 40.2665 98.9329C45.0665 97.8662 49.8665 96.7997 49.8665 96.7997C48.5333 92.7997 43.4665 85.8665 43.4665 85.8665C43.4665 85.8665 39.7333 86.1332 36.7998 86.3997C35.4665 86.3997 34.133 86.3997 33.5998 86.3997C31.9998 86.133 27.733 85.8665 27.4665 85.5997C26.9333 85.333 25.0665 86.133 24.2665 86.6665C23.4665 86.9332 22.9333 86.9332 22.6665 85.3332C22.1333 83.7332 21.0665 82.9332 20.5333 81.0665C20 79.4665 19.2 73.8665 15.2 67.7332C13.0668 64.5332 10.4 62.9332 8 62.1332C5.86675 61.3332 3.46675 61.8665 1.86675 63.7332C1.6 63.1997 -1.33325 65.333 0.800004 73.8665Z" fill="#415A6B"/>
</g>
<defs>
<clipPath id="clip0">
<rect width="128" height="128" fill="white"/>
</clipPath>
</defs>
</svg>
