<svg width="128" height="128" viewBox="0 0 128 128" fill="none" xmlns="http://www.w3.org/2000/svg">
<g clip-path="url(#clip0)">
<path d="M90.5977 47.9475L92.4657 48.748C92.4657 48.748 93.7998 50.0822 94.3337 51.9501C94.8673 53.8181 98.3363 64.2249 99.1368 66.6265C99.9373 69.0281 103.139 81.8365 103.94 83.7045C104.74 85.3055 105.007 87.974 104.474 90.1087C103.94 92.2433 103.139 97.5803 102.606 100.249C102.072 102.917 99.9371 112.79 99.6704 114.925C99.4035 116.793 97.8024 122.93 97.8024 122.93C97.8024 122.93 95.1339 118.127 90.3308 116.793L92.1988 110.656C92.1988 110.656 90.0641 101.049 90.0641 99.1814C90.0641 97.3134 90.8646 97.0467 91.1315 95.1788C91.3985 93.3108 91.3985 92.2436 91.3985 91.1761C91.1316 90.1087 90.5979 90.1087 90.5979 88.7746C90.5979 87.4404 84.7274 79.1682 84.7274 79.1682L90.5977 47.9475Z" fill="#E8EAE9"/>
<path d="M45.7683 111.189C45.7683 111.189 42.8331 120.795 43.6336 128H95.6678C95.6678 128 97.8024 123.464 95.9347 119.461C94.067 115.459 91.9321 113.591 91.3985 111.99C91.1316 110.388 90.8649 106.919 90.8649 106.919L45.7683 111.189Z" fill="#415A6B"/>
<path d="M73.2531 25.5328C73.2531 25.5328 73.52 28.2013 71.919 31.4034V47.147H55.6416L55.108 35.6727V29.8021C55.108 29.8021 52.4395 22.8643 52.4395 16.9937C52.4395 11.1231 53.5069 2.31733 63.3799 2.05066C73.5198 1.78373 73.2531 14.8591 73.2531 17.7942C73.2531 20.7294 73.2531 25.5328 73.2531 25.5328Z" fill="#FFD15C"/>
<path d="M75.6344 22.0547C75.9416 20.0143 75.3636 18.2357 74.3434 18.0821C73.3232 17.9284 72.2471 19.458 71.9399 21.4984C71.6327 23.5388 72.2106 25.3174 73.2309 25.471C74.2511 25.6246 75.3272 24.0951 75.6344 22.0547Z" fill="#FFD15C"/>
<path d="M50.8818 22.0196C51.189 24.06 52.2651 25.5895 53.2853 25.4359C54.3055 25.2823 54.8835 23.5037 54.5762 21.4633C54.269 19.4229 53.1929 17.8933 52.1727 18.0469C51.1525 18.2006 50.5745 19.9792 50.8818 22.0196Z" fill="#FFD15C"/>
<path d="M31.0919 55.6862C31.0919 55.6862 33.7604 51.15 38.2966 49.282C42.5662 47.414 44.1672 45.5463 47.1024 43.9452C50.0376 42.3442 53.2397 40.4762 53.2397 40.4762L65.2476 43.6783H67.3822L72.719 39.1421C72.719 39.1421 74.587 39.6757 80.1906 41.8106C86.0612 43.9452 88.9964 45.0127 90.3305 46.0801C91.6647 47.1476 92.4652 48.4817 92.4652 48.4817C92.4652 48.4817 89.53 57.8211 88.7295 68.2279C88.7295 68.2279 87.662 78.6348 89.53 90.6426C91.398 102.651 92.4652 108.254 92.4652 108.254C92.4652 108.254 84.193 112.524 78.0557 113.057C71.9185 113.591 70.5841 113.591 62.5788 114.391C54.5736 115.192 45.2342 113.057 43.0993 111.723C40.9646 110.389 37.4956 97.8471 37.4956 97.8471C37.4956 97.8471 42.5657 86.6398 41.4982 78.1009C40.4308 69.5621 31.0919 55.6862 31.0919 55.6862Z" fill="#CED6E0"/>
<path d="M65.2478 43.9447H66.5819L71.3851 43.6777C69.784 46.0793 68.183 48.214 67.9161 50.0819C66.8486 49.5483 65.7814 49.815 64.714 50.6155C64.1804 49.2814 62.846 47.6804 60.9783 46.6129L65.2478 43.9447Z" fill="#415A6B"/>
<path d="M67.9161 49.8153C67.9161 49.8153 68.4497 54.6185 70.8513 64.4917C73.2528 74.3649 73.2528 106.119 73.2528 106.119L67.3822 110.922L62.846 105.585C62.846 105.585 64.9807 69.5618 64.1801 62.8906C63.3796 56.4864 64.7137 50.0822 64.7137 50.0822L65.2473 47.6807L67.9161 49.8153Z" fill="#415A6B"/>
<path d="M89.7971 84.7718L62.0457 110.922C61.2452 111.456 60.1777 111.456 59.6441 110.922L39.3641 89.5752C38.8305 88.7747 38.8305 87.7073 39.3641 87.1737L67.1155 61.0232C67.916 60.4896 68.9835 60.4896 69.5171 61.0232L89.7971 82.3705C90.3307 83.1708 90.3307 84.2382 89.7971 84.7718Z" fill="#66C6B9"/>
<path d="M61.1341 108.461L86.6953 84.2273L67.7859 64.2818L42.2247 88.5151L61.1341 108.461Z" fill="white"/>
<path d="M48.1275 90.4715L53.1622 85.6982L51.5099 83.9554L46.4752 88.7286L48.1275 90.4715Z" fill="#55C0EB"/>
<path d="M51.3574 93.9201L58.5222 87.1274L56.8699 85.3846L49.7051 92.1773L51.3574 93.9201Z" fill="#415A6B"/>
<path d="M54.6827 97.5912L58.7493 93.7358L57.097 91.993L53.0305 95.8483L54.6827 97.5912Z" fill="#FFD15C"/>
<path d="M57.6399 100.837L63.8365 94.9624L62.1843 93.2196L55.9876 99.0943L57.6399 100.837Z" fill="#66C6B9"/>
<path d="M59.2502 102.606L60.9025 104.349L69.2292 96.4545L67.5769 94.7117L59.2502 102.606Z" fill="#F3705A"/>
<path d="M75.1208 81.0359C75.1208 79.1679 74.3203 77.3002 73.2528 75.9658L68.1827 80.769L75.1208 81.0359Z" fill="#415A6B"/>
<path d="M68.4499 74.0979C64.7142 74.0979 61.5121 77.0331 61.2452 80.769C61.2452 84.5047 64.1804 87.7068 67.9163 87.9738L68.1832 81.036L68.4499 74.0979Z" fill="#F3705A"/>
<path d="M76.4551 83.1705L69.5173 82.9036L69.2504 89.8414C73.2531 90.1085 76.4551 86.9064 76.4551 83.1705Z" fill="#55C0EB"/>
<path d="M73.2531 76.2325C71.9189 74.8984 70.3179 74.0979 68.4499 74.0979L68.183 81.0357L73.2531 76.2325Z" fill="#FFD15C"/>
<path d="M53.5066 23.1312H54.3072C54.0402 21.797 53.7736 19.6621 54.0402 18.328C54.3072 16.46 54.5738 15.3928 54.0402 13.2579C53.5066 11.1233 53.7733 7.38733 56.7087 7.12065C59.6442 6.85398 67.1156 7.38758 68.9835 7.12065C70.8515 6.85373 71.9187 10.3228 71.652 11.9238C71.1184 13.7918 72.4526 16.727 72.7195 18.0611C72.7195 19.1285 72.7195 21.2632 72.7195 22.8642H73.7869C73.7869 21.5301 73.7869 19.1285 74.0539 17.7942C74.8544 15.9262 79.1239 4.45215 72.7197 5.25268C72.7197 5.25268 71.6523 -1.15153 59.6444 0.1826C47.6365 1.51673 50.5717 17.5272 51.3722 18.8616C51.9056 20.196 53.24 20.9965 53.5066 23.1312Z" fill="#415A6B"/>
<path d="M63.6468 35.9398C59.6441 35.9398 55.1079 29.8025 55.1079 29.8025V35.6731L55.3748 40.4762C70.3179 38.6083 71.9189 31.4035 71.9189 31.4035C70.8515 33.5382 67.3825 35.9398 63.6468 35.9398Z" fill="#F7B64C"/>
<path d="M71.9187 35.9395C71.9187 35.9395 71.9187 40.209 66.582 43.6778C66.582 43.6778 71.9187 46.3463 74.0536 49.0145C74.0536 49.0145 74.3205 42.8773 73.7867 41.0093C73.2528 39.1413 71.9187 35.9395 71.9187 35.9395Z" fill="#F3F3F3"/>
<path d="M65.2478 43.9448C65.2478 43.9448 60.1777 47.6805 58.0431 50.8826C58.0431 50.8826 52.973 44.4784 52.973 41.8099C52.973 39.1414 55.3746 34.8721 55.3746 34.8721C55.3746 34.8721 55.3746 37.0067 57.2426 38.8747C58.8436 40.476 65.2478 43.9448 65.2478 43.9448Z" fill="#F3F3F3"/>
<path d="M61.5119 93.3107C61.5119 93.3107 62.846 93.3107 63.9134 92.2433C64.714 91.4428 67.6491 90.1086 68.9835 89.5748C69.5171 89.3079 69.784 89.3079 70.3176 89.3079C71.3851 89.3079 73.2528 89.5748 73.7867 89.5748C74.8541 89.5748 75.9213 90.3753 75.9213 90.3753L78.5898 90.6422C78.5898 90.6422 80.1909 94.1113 74.0536 93.3107H72.4525C72.4525 93.3107 73.52 94.1113 74.0536 94.6449C74.5872 95.1785 76.7221 94.9118 77.5226 94.9118C78.3231 94.9118 79.1237 94.9118 79.3906 94.6449C79.6575 94.3779 80.1911 94.1113 80.1911 94.1113C80.1911 94.1113 80.9916 94.6449 80.7247 95.9792C80.4578 97.0467 79.1237 98.3808 78.8567 98.3808C78.8567 98.3808 79.1237 99.4483 78.3231 100.249C77.5226 100.782 76.7221 100.782 76.7221 100.782C76.7221 100.782 76.4552 101.583 74.8541 102.383C74.8541 102.383 74.3205 103.451 73.52 103.984C72.7195 104.518 72.4525 104.785 72.4525 105.052C72.4525 105.319 70.5846 105.586 69.2504 105.319C67.9163 105.052 65.7814 104.518 64.9809 103.718C64.1804 102.917 63.1129 102.384 60.9783 102.384C59.1103 102.117 59.1103 102.117 59.1103 102.117C59.1103 98.3806 59.1103 94.9118 61.5119 93.3107Z" fill="#FFD15C"/>
<path d="M30.5583 56.4867C31.3588 54.6187 33.2268 53.8181 35.0945 54.6187C36.9625 55.6861 39.6307 57.8208 41.4987 62.0903C44.4339 70.0956 43.3667 74.8987 43.3667 77.3003C43.0998 79.9688 38.8305 87.9741 38.8305 87.9741C38.8305 87.9741 39.3641 89.842 38.0299 90.9092C38.0299 90.9092 40.6984 92.5103 42.0326 92.7772C43.3667 93.0441 44.1672 92.7772 45.5016 93.0441C47.1026 93.3111 51.3722 93.8447 52.1727 94.1116C52.9732 94.3785 61.2454 93.578 61.2454 93.578C61.2454 93.578 58.5769 98.6481 61.5123 102.384L54.0407 105.052C54.0407 105.052 51.906 107.987 47.9034 107.187C44.1677 106.386 42.5667 106.119 39.6312 105.586C36.6961 105.052 35.6286 106.653 33.494 105.853C31.3593 105.319 29.7583 104.785 28.1572 103.985C26.5561 103.451 24.4215 102.917 23.8876 100.516C23.354 98.3811 23.0871 95.179 23.354 93.0441C23.8876 90.9095 26.0225 76.2331 26.8231 73.5646C27.6231 71.4297 28.6903 61.5565 30.5583 56.4867Z" fill="#E8EAE9"/>
<path d="M81.525 100.515C80.1909 100.248 79.1234 99.4478 78.056 98.6473L66.0481 86.6394L67.6491 85.0383L79.657 97.0462C80.4578 98.1137 80.9914 99.1809 81.525 100.515Z" fill="#415A6B"/>
<path d="M66.315 84.5051L67.1155 85.3056L66.0481 86.3731L65.2476 85.5726C64.9806 85.3056 64.9806 84.772 65.2476 84.5051C65.7814 84.2382 66.0483 84.2382 66.315 84.5051Z" fill="#344A5E"/>
<path d="M80.7245 95.4451C80.4575 96.5126 79.1234 97.8467 78.8565 97.8467C78.8565 97.8467 79.1234 98.9141 78.3229 99.7147C77.5224 100.248 76.7218 100.248 76.7218 100.248C76.7218 100.248 76.4549 101.049 74.8539 101.582C74.8539 101.582 74.3203 102.65 73.5197 103.183C72.7192 103.717 72.4523 103.984 72.4523 104.251C72.1854 104.518 70.5843 104.784 69.2502 104.518C67.6491 104.251 65.7812 103.717 64.9806 102.917C64.7137 102.65 64.447 102.65 64.1801 102.383L72.1854 92.7769C72.1854 92.7769 73.2528 93.5774 73.7864 94.111C74.32 94.3779 76.4549 94.3779 77.2554 94.3779C78.056 94.3779 78.8565 94.3779 79.1234 94.111C79.657 93.8441 79.9239 93.5774 79.9239 93.5774C79.9239 93.5774 80.9914 94.3777 80.7245 95.4451Z" fill="#FFD15C"/>
</g>
<defs>
<clipPath id="clip0">
<rect width="128" height="128" fill="white"/>
</clipPath>
</defs>
</svg>
