<svg width="136" height="136" viewBox="0 0 136 136" fill="none" xmlns="http://www.w3.org/2000/svg">
<g clip-path="url(#clip0)">
<path d="M63.5659 123.867L54.2013 87.2598L55.6203 86.6924L64.985 123.583L63.5659 123.867Z" fill="#ADB3BA"/>
<path d="M28.3777 123.867L26.9587 123.583L32.6344 84.1384L34.0532 84.422L28.3777 123.867Z" fill="#ADB3BA"/>
<path d="M71.2279 123.867L61.5796 87.2598L62.9984 86.6924L72.6469 123.583L71.2279 123.867Z" fill="#ADB3BA"/>
<path d="M36.0397 123.867L34.6207 123.583L40.0125 84.1384L41.4313 84.422L36.0397 123.867Z" fill="#ADB3BA"/>
<path d="M26.6751 83.0032C26.6751 83.2871 31.7831 87.2598 40.5802 88.9625C49.3774 90.6652 71.2281 87.2598 75.2009 84.422C79.1737 81.5841 75.2009 66.8279 72.0795 64.2739C68.958 61.7199 66.404 62.8551 62.9987 57.4633C59.8772 52.0714 39.4453 48.0986 33.2021 51.504C26.959 54.9093 18.4454 67.3954 26.6751 83.0032Z" fill="#66C6B9"/>
<path d="M38.3098 114.786C38.3098 114.786 38.5937 111.381 38.5937 108.827C38.5937 106.273 45.4044 104.003 45.4044 104.003C45.4044 104.003 45.9718 114.219 46.5395 116.205C47.1073 118.192 47.107 118.192 47.107 118.192C47.107 118.192 40.0125 121.313 38.3098 114.786Z" fill="#E8EAE9"/>
<path d="M38.3099 113.651C38.3099 113.651 38.8773 115.921 41.1477 116.773C43.4178 117.34 45.9718 114.786 46.2557 114.219C46.2557 114.219 46.8232 118.192 48.8097 119.611C50.7962 121.029 53.6338 124.435 53.6338 124.435C53.6338 124.435 51.6473 126.705 48.242 126.421C44.8366 126.137 40.0125 123.016 39.1612 121.597C38.3099 120.178 36.8911 118.759 38.3099 113.651Z" fill="#344A5E"/>
<path d="M66.6876 123.3L66.1201 124.151V125.286L69.5255 126.138V125.57C69.5255 125.57 71.2281 125.286 72.6469 126.422C74.0657 127.557 75.4848 128.692 77.471 128.692C79.1737 128.692 81.4438 128.408 81.7277 127.273C82.2952 126.421 71.5117 123.3 66.6876 123.3Z" fill="#415A6B"/>
<path d="M66.4038 124.151C66.4038 124.151 65.5524 119.894 67.2551 117.908C67.2551 117.908 66.9712 118.759 67.8225 119.043C68.39 119.327 69.8091 118.476 72.0792 117.34C74.3493 116.205 76.3358 117.34 76.3358 117.34C76.3358 117.34 78.606 121.313 79.4573 122.165C80.5925 123.016 85.7005 125.286 87.1193 125.286C88.5381 125.286 87.4031 129.259 83.9978 128.975C80.5925 128.691 75.7684 127.84 73.7819 126.137C71.5117 124.435 66.4038 124.151 66.4038 124.151Z" fill="#344A5E"/>
<path d="M131.672 132.097H84.8491C83.4303 132.097 82.2951 131.529 81.4438 130.394C80.5925 129.543 80.3086 128.124 80.3086 126.705L86.2679 87.5437L113.794 88.1112L135.361 125.002C136.213 126.421 136.213 128.124 135.361 129.543C134.794 131.245 133.375 132.097 131.672 132.097ZM87.4031 88.9628L81.7277 126.989C81.7277 127.84 81.7277 128.975 82.579 129.543C83.1465 130.394 83.9978 130.678 85.133 130.678H131.956C133.091 130.678 134.226 130.11 134.794 128.975C135.361 127.84 135.361 126.705 134.794 125.854L113.511 89.5305L87.4031 88.9628Z" fill="#CED6E0"/>
<path d="M28.9452 56.0446C30.8259 56.0446 32.3506 53.7577 32.3506 50.9366C32.3506 48.1155 30.8259 45.8286 28.9452 45.8286C27.0645 45.8286 25.5399 48.1155 25.5399 50.9366C25.5399 53.7577 27.0645 56.0446 28.9452 56.0446Z" fill="#344A5E"/>
<path d="M27.81 80.4493C27.81 80.4493 32.3505 86.6925 35.1881 87.26C35.1881 87.26 33.4855 91.8005 35.1881 98.0434C36.8908 104.287 38.5935 110.529 38.5935 110.529C38.5935 110.529 40.8636 110.246 42.5662 109.962C44.2689 109.678 47.1068 108.259 47.1068 106.273C47.1068 104.286 47.1068 99.1783 47.1068 95.773C47.1068 92.3677 46.8229 90.3812 47.3906 88.9624C47.9581 87.8272 47.1068 86.6922 49.6607 86.1245C52.2147 85.557 61.0119 85.557 61.0119 85.557L73.498 87.2597C73.498 87.2597 70.944 103.435 70.6601 105.138C70.6601 105.138 71.7953 104.854 73.7816 105.989C75.7678 107.124 78.8896 107.975 78.8896 107.975C78.8896 107.975 83.4301 98.6109 84.2814 95.773C85.1327 92.9351 88.5381 84.1382 89.1055 81.3004C89.9569 78.4625 89.9569 73.6384 84.8489 71.6519C79.7409 69.6654 74.9168 69.6654 74.9168 69.6654L34.0532 67.3955L27.81 80.4493Z" fill="#2A3F4F"/>
<path d="M40.8638 28.8021C40.8638 28.8021 41.7152 31.3561 41.999 32.2074C42.2829 33.0588 43.4178 39.0181 43.4178 39.0181L50.2285 40.4369L52.215 35.8964C52.215 35.8964 53.3502 35.3289 53.6338 32.7749C53.9177 30.2209 53.9177 27.9508 53.9177 25.9643C53.9177 23.9777 53.3502 20.8563 53.3502 20.8563C53.3502 20.8563 52.7825 18.0184 51.9311 16.8835C51.0798 15.7486 40.0125 18.3023 39.445 20.5727C38.8776 22.8431 40.58 27.9508 40.8638 28.8021Z" fill="#FFD15C"/>
<path d="M42.8504 36.4642C42.5665 34.7616 42.2829 33.0589 41.999 32.4914C41.7152 31.924 41.4316 30.5049 41.1477 29.6536C41.4316 30.221 41.4316 30.7888 41.7152 31.6401C41.999 33.0589 42.5665 34.7613 42.8504 36.4642Z" fill="#FFD15C"/>
<path d="M50.2285 40.4371L51.9311 36.4643C51.9311 36.4643 49.9446 37.8831 47.3906 37.0318C44.8366 36.1805 41.9988 32.7751 41.9988 32.7751C41.9988 32.7751 45.1205 38.4506 50.2285 40.4371Z" fill="#F7B64C"/>
<path d="M47.3906 38.1665H48.2419L53.9174 37.5991L62.7146 68.247C62.7146 68.247 56.4714 74.4902 50.7959 74.7738C45.1205 75.0574 35.7559 71.652 34.0532 70.8007C32.6344 69.9494 40.8638 37.3149 40.8638 37.3149L47.3906 38.1665Z" fill="#8AD7F8"/>
<path d="M48.2419 41.5723L49.0933 42.4236C49.0933 42.4236 49.6607 44.4101 49.9446 44.9776C49.9446 45.5451 54.7687 78.4633 54.7687 78.4633L51.9311 82.4361L48.2419 79.3147C48.2419 79.3147 45.4041 50.3694 45.9718 47.8154C46.2557 45.2615 47.107 42.7075 47.107 42.7075L48.2419 41.5723Z" fill="#E8EAE9"/>
<path d="M46.2557 38.7343L47.3909 38.4504H48.2422L50.2287 39.3018C50.2287 39.3018 49.0935 41.5719 49.3774 42.7071C48.5261 42.4232 47.9586 42.4232 47.1073 42.991C47.1073 42.991 46.5398 40.437 45.6885 39.8695C44.553 39.3018 46.2557 38.7343 46.2557 38.7343Z" fill="#E8EAE9"/>
<path d="M40.2964 28.2344C40.2964 28.2344 38.5937 28.5182 36.0397 29.0857C33.4858 29.6532 28.0939 30.2209 28.0939 30.2209C28.0939 30.2209 29.5127 32.491 29.2291 35.8963C29.2291 39.5855 31.2156 42.707 31.2156 44.9771C31.2156 47.2472 27.5264 67.963 25.2563 72.5036C22.9862 77.0441 21.5671 79.0303 21.2833 83.0034C20.7158 86.9762 19.5806 92.9355 21.2833 94.0707C22.9859 95.2059 25.2561 89.814 28.3778 85.2735C31.4992 80.733 40.2964 63.7064 41.1477 58.8823C41.9991 53.7743 40.2964 28.2344 40.2964 28.2344Z" fill="#344A5E"/>
<path d="M33.2019 60.3013L34.9046 61.1526C34.9046 61.1526 36.8911 61.7201 36.0398 54.9094C36.0398 54.9094 34.3371 55.4769 33.7696 56.0446C33.2019 56.6121 33.2019 60.3013 33.2019 60.3013Z" fill="#ADB3BA"/>
<path d="M43.134 39.0179V43.5584C43.134 46.6798 40.8639 58.8823 40.8639 58.8823C40.8639 58.8823 41.1477 52.3555 40.2964 50.369C39.7289 48.3825 36.3236 40.4369 36.3236 40.4369L38.5937 39.0181L36.8911 37.8829L40.0125 28.5183C40.0125 28.5183 40.2964 28.5183 40.2964 28.8022V29.086C40.2964 29.086 41.1477 31.64 41.4316 32.4914C41.9991 33.0588 43.134 37.8829 43.134 39.0179Z" fill="#415A6B"/>
<path d="M43.134 43.2745V43.5584C43.134 46.6798 40.8639 58.8823 40.8639 58.8823C40.8639 58.8823 41.1477 52.3555 40.2964 50.369C39.7289 48.3825 36.3236 40.4369 36.3236 40.4369L38.5937 39.0181L36.8911 37.8829L40.0125 28.5183C40.2964 28.8022 40.58 29.0858 40.58 29.6535C40.8639 30.221 40.8639 30.7887 41.1475 31.64C41.7149 33.3427 41.9988 34.7615 42.2827 36.4641C43.134 38.7343 43.134 41.0044 43.134 43.2745Z" fill="#415A6B"/>
<path d="M34.3371 55.761C34.3371 55.761 36.6072 56.0449 36.6072 55.761C36.6072 55.1935 36.8911 54.9097 37.4585 54.3422C38.026 54.0583 38.5937 54.0583 39.1612 54.0583C40.0125 54.0583 41.7152 54.0583 41.999 54.6258C42.5665 55.1933 41.999 56.0446 41.1477 55.761C40.2964 55.761 39.7289 55.761 39.445 56.0449C39.1612 56.3287 39.1612 56.3287 39.1612 56.3287C39.1612 56.3287 41.1477 56.8962 41.999 56.6126C42.8504 56.3287 44.553 56.3287 45.4044 56.3287C46.2557 56.6126 47.107 56.8962 46.8231 57.4639C46.8231 57.4639 47.3906 57.7478 47.107 58.3153C46.8231 58.8827 45.4044 59.4505 43.7017 59.4505C41.7152 59.4505 38.8776 60.0179 37.1749 59.7343C35.4723 59.7343 32.9183 59.1669 30.6481 58.883C28.378 58.883 28.378 58.883 28.378 58.883L34.3371 55.761Z" fill="#FFD15C"/>
<path d="M41.9991 27.3831C42.5665 28.8019 42.5665 30.221 41.9991 30.5046C41.1477 30.7884 40.2964 29.9371 39.4451 28.5181C38.8776 27.0993 38.8776 25.6802 39.4451 25.3966C40.2964 25.113 41.1477 25.9643 41.9991 27.3831Z" fill="#FFD15C"/>
<path d="M74.6332 53.7741C74.6332 55.7607 74.0657 57.1795 74.0657 57.1795L69.8091 57.7469C69.8091 57.7469 69.5252 52.0715 64.4172 50.9363C64.1334 48.9498 63.8498 47.2471 63.8498 46.1122C63.8498 41.5717 67.5389 32.207 67.5389 32.207C67.5389 32.207 69.2416 33.3422 68.9577 35.3285C68.6739 37.315 70.0929 38.1663 70.0929 39.3013C70.0929 40.4362 69.8091 40.7201 70.0929 41.8553C70.6604 42.7069 74.917 51.7879 74.6332 53.7741Z" fill="#415A6B"/>
<path d="M74.6332 69.6658C74.6332 69.6658 69.5252 70.2333 67.5387 70.5172C65.2686 70.801 64.1334 70.801 63.282 69.9497C62.1468 69.0984 57.3227 59.1663 57.3227 59.1663C57.3227 59.1663 55.6201 51.2204 55.3362 43.8423C55.3362 39.0182 54.201 33.6264 53.6335 30.5049C53.6335 29.6536 53.6335 28.8023 53.6335 27.9509C54.7687 28.2348 57.8902 29.0861 60.1603 29.6536C62.9982 30.5049 67.8223 31.6401 67.8223 31.6401C67.8223 31.6401 64.1331 41.0047 64.1331 45.5453C64.1331 50.0858 66.971 65.6933 68.1059 66.8285C69.5252 68.5307 74.6332 69.6658 74.6332 69.6658Z" fill="#344A5E"/>
<path d="M64.1336 57.1796C64.1336 57.1796 62.1471 56.8957 62.9984 50.6528C62.9984 50.6528 64.1336 50.0853 65.5524 50.9367C66.9712 51.788 68.1064 54.342 67.5389 55.4772C66.9712 56.6121 64.7011 57.1796 64.1336 57.1796Z" fill="#CED6E0"/>
<path d="M60.7283 66.544C60.4444 66.2602 56.7555 61.4361 55.0529 55.1929C53.9177 50.9362 53.0663 41.8555 52.4989 35.8961C52.7827 35.3287 53.0663 34.761 53.3502 33.3422C53.3502 32.207 53.6341 31.3556 53.6341 30.2207L57.6069 37.3152L56.7555 39.0179L59.3095 39.3017C59.3095 39.3017 57.8907 50.6529 58.1743 53.7744C58.4579 56.6119 60.7283 65.9766 60.7283 66.544Z" fill="#415A6B"/>
<path d="M64.1336 50.3691L62.9984 50.6529C62.9984 50.6529 61.5796 50.6529 60.7283 50.3691C59.877 50.0852 58.1743 49.2339 57.323 49.8016C56.4716 50.0855 54.769 53.2069 54.769 53.2069L61.5796 56.8961C61.5796 56.8961 62.431 56.6122 62.7148 56.3286C62.9987 56.0448 64.4175 56.8961 66.404 56.3286C68.6741 56.0448 68.6741 56.0448 68.6741 56.0448C68.6741 56.0448 67.5389 53.2069 66.9715 52.072C66.4037 50.9368 64.9849 50.6529 64.1336 50.3691Z" fill="#FFD15C"/>
<path d="M97.0516 17.7345L99.3218 19.4372V20.0047L94.4976 32.491C94.4976 32.491 93.0788 30.7883 91.9437 30.5045C90.8085 30.2206 88.8222 32.2071 87.4031 31.9233C85.9843 31.6394 85.4166 31.0719 85.133 30.5045C84.8491 29.6532 82.579 29.6532 83.7142 28.518C83.7142 28.518 82.8629 28.8018 82.8629 27.9505C82.8629 27.0992 82.0116 26.8153 82.0116 26.8153C82.0116 26.8153 79.4576 27.3828 79.7414 25.964C80.0253 24.5452 80.5928 22.8425 80.5928 22.8425C80.5928 22.8425 80.3089 22.5586 79.7414 22.275C79.174 21.9912 76.9036 19.1536 77.1874 16.5996C77.4713 14.0456 87.4034 11.2078 91.3762 11.4916C95.0651 12.0591 97.0516 17.7345 97.0516 17.7345Z" fill="#FFD15C"/>
<path d="M86.2682 103.435C86.2682 103.435 89.1061 110.246 91.6601 111.665C94.2141 113.084 95.0654 114.503 95.0654 114.503L83.9981 119.327C83.9981 119.327 83.9981 115.354 82.5793 112.516C81.1605 109.395 77.7552 106.273 77.7552 106.273L86.2682 103.435Z" fill="#E8EAE9"/>
<path d="M84.5655 122.164C84.5655 122.164 81.1602 124.151 78.8901 124.718C76.62 125.286 74.066 126.137 74.066 127.84C74.066 129.543 76.9038 130.394 79.7414 130.394C82.5793 130.394 87.4034 129.543 88.8222 127.84C90.241 126.137 92.5114 124.435 92.5114 124.435L93.6466 125.57C93.6466 125.57 99.322 122.732 99.8898 121.029C100.741 119.327 100.174 119.327 100.174 119.327L98.7548 117.34L84.5655 122.164Z" fill="#344A5E"/>
<path d="M83.4304 117.34C83.4304 117.34 85.133 115.638 88.2545 115.638C91.3759 115.638 94.2138 113.367 94.2138 113.367C94.2138 113.367 96.4839 113.935 98.7543 117.057C98.7543 117.057 95.0651 118.759 92.795 120.462C90.5249 122.448 89.3897 123.3 87.4031 123.867C85.133 124.719 75.4845 125.002 74.0657 127.84C74.0657 127.84 73.7819 126.705 76.3359 125.57C78.8898 124.151 81.7277 123.3 82.2952 121.881C83.1465 119.894 83.4304 117.34 83.4304 117.34Z" fill="#415A6B"/>
<path d="M75.4845 76.1926C75.4845 76.1926 64.1334 77.6114 61.8632 79.3141C59.5931 81.0167 59.3092 84.4221 59.8767 86.4086C60.4442 88.1113 78.8898 109.678 80.5925 110.53C80.5925 110.53 82.0113 108.543 84.2817 107.124C86.5518 105.706 87.1195 103.719 87.1195 103.719C87.1195 103.719 79.4576 94.6383 77.1874 91.5166C74.9173 88.3948 74.066 88.1113 74.066 88.1113L85.4171 82.1519L75.4845 76.1926Z" fill="#344A5E"/>
<path d="M124.862 128.691H81.1602C80.025 128.691 78.8901 128.124 78.0388 127.273C77.1875 126.421 76.9036 125.002 77.1874 123.867L82.5793 87.26L108.403 87.8275L128.551 122.165C129.402 123.583 129.402 125.002 128.551 126.421C127.7 127.84 126.281 128.691 124.862 128.691ZM83.7142 88.6788L78.3224 124.151C78.3224 125.002 78.3224 125.854 78.8898 126.421C79.4573 126.989 80.3086 127.556 81.16 127.556H124.862C125.997 127.556 126.848 126.989 127.416 126.138C127.983 125.286 127.983 124.151 127.416 123.016L107.551 89.2468L83.7142 88.6788Z" fill="#ADB3BA"/>
<path d="M53.9177 109.395C53.9177 109.395 54.4851 111.097 57.8905 111.665C61.0119 112.232 64.985 114.503 64.985 114.503C64.985 114.503 73.2144 98.8948 74.0657 95.7734C74.9171 92.6519 75.4845 88.1114 75.4845 88.1114C75.4845 88.1114 84.8492 86.9762 94.2138 87.544C103.578 88.1114 116.916 82.7198 118.335 79.5981C119.754 76.4767 120.605 69.666 120.605 69.666L91.0923 71.9361C91.0923 71.9361 89.9571 73.9227 87.4031 74.2063C84.5653 74.4901 73.2144 74.7737 70.6604 75.9089C68.1064 76.7603 65.5524 77.0441 64.4172 81.8682C63.2823 86.6926 58.1743 99.4626 53.9177 109.395Z" fill="#415A6B"/>
<path d="M99.3218 20.0051C99.3218 20.0051 94.2138 24.8292 93.0786 32.4912L97.6191 36.1804L103.011 23.9779L99.3218 20.0051Z" fill="#CED6E0"/>
<path d="M120.321 63.1388L116.916 79.3141C116.916 79.3141 90.8087 77.6114 89.106 74.49C87.4034 71.3685 89.6735 58.0308 90.5248 54.9094C91.3762 52.0715 94.214 44.9773 95.9167 37.3153C97.6194 29.6533 103.011 23.4102 103.011 23.4102L104.714 23.694C104.714 23.694 109.538 26.248 111.241 27.3832C112.943 28.5184 116.916 33.3425 117.767 35.6126C118.051 38.1666 120.321 63.1388 120.321 63.1388Z" fill="#344A5E"/>
<path d="M101.592 21.4238C101.592 21.4238 99.6056 22.559 97.903 28.5183C95.9164 34.4776 94.4977 41.5722 93.6463 44.1261C92.795 46.6801 90.5249 54.9096 90.5249 54.9096C90.5249 54.9096 94.4977 44.9775 95.6329 41.0044C96.4842 37.0316 98.4707 27.667 104.714 23.694L101.592 21.4238Z" fill="#415A6B"/>
<path d="M79.1737 88.6787C79.1737 88.6787 82.8629 85.5573 85.4169 82.1519C87.9709 78.7466 95.6328 68.8145 102.727 65.9767C109.822 63.1388 129.119 59.166 129.119 59.166C129.119 59.166 125.997 71.6521 125.429 76.7601C124.862 81.8681 121.457 90.6652 111.241 91.5166C101.024 92.084 79.1737 88.6787 79.1737 88.6787Z" fill="#66C6B9"/>
<path d="M99.3217 19.4374C98.4704 20.2887 95.0651 20.8562 94.2138 19.7212C93.3624 18.3024 90.5246 17.4511 89.3896 18.586C88.2544 20.0048 89.1058 21.9914 89.1058 21.9914L87.687 22.5588C87.687 22.5588 87.4031 21.7075 86.8357 21.14C86.2682 20.2887 84.2817 20.0048 84.2817 18.8699C84.2817 17.7347 83.1465 15.7484 81.4438 15.4646C79.7411 15.1807 77.471 16.3159 77.471 16.3159C77.471 16.3159 75.4845 15.7484 76.0522 14.0458C76.6197 12.3431 80.5927 5.81634 85.7007 4.11368C90.8087 2.97849 96.4841 6.66767 97.9032 9.78913C99.0381 12.9103 99.3217 19.4374 99.3217 19.4374Z" fill="#415A6B"/>
<path d="M89.9571 31.0725C90.8085 30.7886 91.3759 30.2211 91.9437 30.505C92.2275 30.505 92.5111 30.7889 92.795 30.7889C93.6463 27.0997 93.0789 22.843 93.0789 22.843C93.0789 26.2481 89.9571 31.0725 89.9571 31.0725Z" fill="#F7B64C"/>
<path d="M62.9984 50.6528C62.9984 50.6528 65.2686 50.369 66.1199 51.5042C66.9712 52.6394 66.9712 56.3283 64.1334 57.1796H70.0927C70.0927 57.1796 70.6602 53.7743 68.9575 52.0716C67.2551 50.369 65.5524 50.0854 62.9984 50.6528Z" fill="#F3F3F3"/>
<path d="M70.6604 44.1262V53.4908C70.0929 53.7747 69.5252 54.0583 69.2416 54.626C68.3903 53.2072 67.2551 51.2207 64.7011 50.6533C64.4172 48.6667 64.1336 47.2479 64.1336 46.1127C64.1336 45.5453 64.1336 44.9776 64.1336 44.4101H70.6604V44.1262Z" fill="#415A6B"/>
<path d="M80.3089 59.7337C80.3089 59.7337 79.1737 59.4498 77.7549 59.4498C76.3361 59.4498 75.2009 60.0173 74.0657 59.4498C73.2144 58.8824 72.9305 58.5985 72.0792 58.8824C71.5117 59.1662 71.2279 59.4498 70.944 59.4498C70.6601 59.4498 70.3765 59.7337 70.3765 59.4498C70.0927 59.166 69.5252 58.8824 69.5252 58.5985C69.5252 58.5985 68.9577 58.031 69.2413 57.7472C69.2413 57.7472 68.9575 57.1797 68.9575 56.8958C68.9575 56.8958 67.8223 56.612 68.39 55.477C68.9575 54.3418 70.3765 53.7744 70.944 53.2069C71.7953 52.6394 72.3628 52.3556 72.9305 52.6394C73.7819 52.9233 76.3358 54.3421 76.9033 54.3421C77.4708 54.626 85.1327 54.626 85.1327 54.626L84.8489 59.734H80.3089V59.7337Z" fill="#FFD15C"/>
<path d="M83.7142 53.7744H80.8764C80.8764 53.7744 79.7412 58.3149 80.3089 61.1525L85.4169 62.0038L83.7142 53.7744Z" fill="#F3F3F3"/>
<path d="M98.1868 44.1262C98.1868 44.1262 96.768 35.8968 98.7543 31.9237C100.741 27.9507 106.7 27.9509 109.254 30.5049C111.808 33.0589 113.795 39.0182 113.511 42.7074C113.227 46.3966 110.957 50.0855 110.957 52.9234C110.957 55.7612 110.105 56.8962 108.97 58.0314C108.119 59.1666 106.416 61.4367 105.281 62.0041C104.146 62.288 82.8626 63.7068 83.1465 63.4229C83.4303 63.1391 82.2952 56.0448 82.579 53.7744C82.579 53.7744 89.6735 53.4906 90.8085 53.4906C91.9436 53.7744 92.5111 53.4906 93.3624 52.9231C94.2138 52.6392 94.2138 52.3556 94.7812 52.6392C95.3487 52.9231 96.4839 52.9231 97.0514 52.6392C97.6188 52.3554 98.1866 51.504 98.1866 51.504C98.1866 51.504 97.3352 47.8149 97.9027 46.9635C98.4704 46.1125 98.1868 44.1262 98.1868 44.1262Z" fill="#415A6B"/>
<path d="M52.7825 38.4502L51.0798 42.7068L48.2419 38.1663C51.3634 37.315 52.7825 35.6123 52.7825 35.6123C52.7825 36.4639 52.7825 37.3152 52.7825 38.4502Z" fill="white"/>
<path d="M47.3906 38.1667C47.3906 38.1667 46.2554 39.0181 45.688 40.1533C45.1205 41.2885 44.5528 42.1398 44.5528 42.1398L43.134 39.3019C42.8501 36.7479 42.5665 34.4778 41.9988 31.9238C41.999 32.491 44.8366 37.3154 47.3906 38.1667Z" fill="white"/>
<path d="M40.58 28.2345H41.1474C41.1474 28.2345 40.0122 26.5318 40.58 25.3966C41.1477 24.2614 39.4448 20.8561 41.4313 21.4239C43.4178 21.9913 48.2419 20.2887 49.6607 18.8699C51.0795 17.4511 51.6472 17.4511 52.2147 18.0185C52.7822 18.586 53.3499 20.8564 53.3499 20.8564C53.3499 20.8564 52.7824 18.5863 52.2147 17.1672C51.6472 15.7484 52.7822 14.3294 47.9581 12.9106C43.1339 11.4918 38.8773 13.478 37.4582 17.1672C36.0392 20.8564 37.7421 24.5453 38.877 25.6805C39.7286 26.5318 40.58 28.2345 40.58 28.2345Z" fill="#415A6B"/>
<path d="M30.6479 54.6255L35.7559 54.9094C35.7559 54.9094 34.0532 55.7607 34.0532 58.3147C34.0532 60.8687 34.6207 60.8687 34.6207 60.8687L26.1074 59.4499C26.3913 59.7335 30.0804 54.6255 30.6479 54.6255Z" fill="#F3F3F3"/>
<path d="M34.3371 54.6254C31.2156 56.0442 30.0804 57.1794 29.513 60.5847L15.0403 59.7334C15.0403 59.7334 15.3242 53.7741 15.6078 52.0714C15.8914 50.3688 17.0266 47.5309 18.7293 45.8282C20.1481 44.1256 23.2698 39.8689 23.5534 39.0176C23.8372 38.1663 24.6886 37.3149 24.9722 36.7475C25.256 36.18 25.8235 34.1935 26.1074 32.4908C26.3912 30.5043 28.0939 30.2207 28.0939 30.2207C28.0939 30.2207 29.5127 32.4908 29.2291 35.8961C29.2291 39.5853 31.2156 42.7068 31.2156 44.9769C31.2156 45.5444 30.9318 46.6796 30.9318 48.3822L28.6616 53.4902L29.513 53.7741L34.3371 54.6254Z" fill="#415A6B"/>
<path d="M44.553 64.2742H40.0125V122.165H44.553V64.2742Z" fill="#F3705A"/>
<path d="M82.8629 63.7067H1.98653C0.85133 63.7067 0 62.8554 0 61.7202C0 60.585 0.85133 59.7336 1.98653 59.7336H82.8629C83.9981 59.7336 84.8494 60.585 84.8494 61.7202C84.8492 62.8554 83.9978 63.7067 82.8629 63.7067Z" fill="#F3705A"/>
<path d="M82.8629 63.7068C56.4717 65.6933 29.513 65.4095 1.98654 63.7068H82.8629Z" fill="#F05540"/>
<path d="M66.1199 125.853H18.4454C18.4454 123.867 20.1481 122.164 22.1346 122.164H62.431C64.4172 122.165 66.1199 123.867 66.1199 125.853Z" fill="#F3705A"/>
<path d="M61.5797 123.016L55.9042 125.002L51.9314 119.894C51.9314 119.894 54.2016 117.624 55.3367 115.354C55.9042 114.219 56.7555 112.8 57.3233 111.665H57.6071C60.1611 112.232 63.2826 113.651 64.1339 114.503C63.2823 115.921 61.2958 120.178 61.5797 123.016Z" fill="#E8EAE9"/>
<path d="M38.5937 126.989H36.6072C36.6072 126.989 35.7559 128.124 36.0397 128.407C36.3236 128.691 42.2829 130.961 46.2557 131.813C49.9449 132.664 55.0529 131.245 55.9042 130.394V131.813H61.5796C62.431 131.813 62.9984 131.245 62.9984 130.394V128.407L61.0119 126.989H38.5937Z" fill="#344A5E"/>
<path d="M52.215 119.327C52.215 119.327 53.6338 119.327 54.4851 120.746C55.3365 122.164 56.7553 123.016 57.8905 123.3C59.0257 123.584 61.5797 122.448 61.8633 121.597C61.8633 121.597 62.9984 126.421 62.7146 128.408C62.7146 128.408 58.1741 128.408 55.0526 129.826C51.6473 130.962 50.5121 131.813 46.8232 130.962C43.134 130.11 37.1747 127.84 36.6072 126.989C36.6072 126.989 39.1612 126.705 41.7152 126.421C44.2692 126.138 46.8232 123.3 48.5258 121.881C50.2285 120.178 52.215 119.327 52.215 119.327Z" fill="#415A6B"/>
<path d="M62.7146 44.1262H35.7559C34.9045 44.1262 34.3371 44.6937 34.3371 45.545L36.3236 59.7338H61.8635L63.8498 45.545C64.1336 44.9776 63.2823 44.1262 62.7146 44.1262Z" fill="#CED6E0"/>
<path d="M49.3771 52.9231C50.1607 52.9231 50.7959 52.542 50.7959 52.0718C50.7959 51.6016 50.1607 51.2205 49.3771 51.2205C48.5936 51.2205 47.9583 51.6016 47.9583 52.0718C47.9583 52.542 48.5936 52.9231 49.3771 52.9231Z" fill="#ADB3BA"/>
</g>
<defs>
<clipPath id="clip0">
<rect width="136" height="136" fill="white"/>
</clipPath>
</defs>
</svg>
