<svg width="32" height="32" viewBox="0 0 32 32" fill="none" xmlns="http://www.w3.org/2000/svg">
<path d="M27.2964 20.7036C24.7132 20.7036 22.5927 18.5831 22.5927 16C22.5927 13.4169 24.7132 11.2964 27.2964 11.2964C29.8795 11.2964 32 13.4169 32 16C32 18.5831 29.8795 20.7036 27.2964 20.7036ZM27.2964 13.6096C25.9856 13.6096 24.906 14.6892 24.906 16C24.906 17.3108 25.9856 18.3904 27.2964 18.3904C28.6072 18.3904 29.6867 17.3108 29.6867 16C29.6867 14.6892 28.6072 13.6096 27.2964 13.6096Z" fill="#1185E0"/>
<path d="M16 20.7036C13.4168 20.7036 11.2963 18.5831 11.2963 16C11.2963 13.4169 13.4168 11.2964 16 11.2964C18.5831 11.2964 20.7036 13.4169 20.7036 16C20.7036 18.5831 18.5831 20.7036 16 20.7036ZM16 13.6096C14.6891 13.6096 13.6096 14.6892 13.6096 16C13.6096 17.3108 14.6891 18.3904 16 18.3904C17.3108 18.3904 18.3903 17.3108 18.3903 16C18.3903 14.6892 17.3109 13.6096 16 13.6096Z" fill="#4DCFE0"/>
<path d="M4.70363 20.7036C2.1205 20.7036 0 18.5831 0 16C0 13.4169 2.1205 11.2964 4.70363 11.2964C7.28675 11.2964 9.40725 13.4169 9.40725 16C9.40725 18.5831 7.28675 20.7036 4.70363 20.7036ZM4.70363 13.6096C3.3928 13.6096 2.31326 14.6892 2.31326 16C2.31326 17.3108 3.3928 18.3904 4.70363 18.3904C6.01445 18.3904 7.094 17.3108 7.094 16C7.094 14.6892 6.01445 13.6096 4.70363 13.6096Z" fill="#1185E0"/>
</svg>
