<svg width="25" height="25" viewBox="0 0 25 25" fill="none" xmlns="http://www.w3.org/2000/svg">
<g clip-path="url(#clip0)">
<path d="M18.2399 1.91406H15.9753V3.57686C15.9753 3.9942 15.6371 4.33291 15.2192 4.33291H4.86691C4.44906 4.33291 4.11086 3.9942 4.11086 3.57686V1.91406H1.67336C1.34573 1.91406 1.0791 2.1807 1.0791 2.50832V24.4055C1.0791 24.7331 1.34573 24.9997 1.67336 24.9997H18.2399C18.5675 24.9997 18.8341 24.7331 18.8341 24.4055V2.50832C18.8341 2.1807 18.5675 1.91406 18.2399 1.91406ZM3.52769 6.09299H8.35935C8.77669 6.09299 9.1154 6.4312 9.1154 6.84904C9.1154 7.26638 8.77669 7.60509 8.35935 7.60509H3.52769C3.10985 7.60509 2.77164 7.26638 2.77164 6.84904C2.77164 6.4312 3.10985 6.09299 3.52769 6.09299ZM3.52769 10.7079H8.35935C8.77669 10.7079 9.1154 11.0466 9.1154 11.464C9.1154 11.8818 8.77669 12.22 8.35935 12.22H3.52769C3.10985 12.22 2.77164 11.8818 2.77164 11.464C2.77164 11.0466 3.10985 10.7079 3.52769 10.7079ZM3.52769 15.3233H8.35935C8.77669 15.3233 9.1154 15.6615 9.1154 16.0794C9.1154 16.4967 8.77669 16.8354 8.35935 16.8354H3.52769C3.10985 16.8354 2.77164 16.4967 2.77164 16.0794C2.77164 15.6615 3.10985 15.3233 3.52769 15.3233ZM3.52769 19.4932H10.0428C10.4607 19.4932 10.7989 19.8314 10.7989 20.2492C10.7989 20.6666 10.4607 21.0053 10.0428 21.0053H3.52769C3.10985 21.0053 2.77164 20.6666 2.77164 20.2492C2.77164 19.8314 3.10985 19.4932 3.52769 19.4932ZM14.5262 23.5098H3.52769C3.10985 23.5098 2.77164 23.1711 2.77164 22.7538C2.77164 22.3364 3.10985 21.9977 3.52769 21.9977H14.5262C14.944 21.9977 15.2822 22.3364 15.2822 22.7538C15.2822 23.1711 14.944 23.5098 14.5262 23.5098ZM16.9203 15.4362L14.565 17.7916C14.2713 18.0852 13.7923 18.0879 13.4959 17.7916L12.132 16.4282C11.8372 16.1328 11.8372 15.654 12.132 15.3586C12.4274 15.0638 12.9062 15.0638 13.2016 15.3586C13.5918 15.7488 13.4084 15.5654 14.0302 16.1878C15.1537 15.065 14.7279 15.4906 15.8513 14.3672C16.1466 14.0718 16.625 14.0718 16.9203 14.3672C17.2157 14.662 17.2157 15.1409 16.9203 15.4362ZM16.9203 10.8208L14.565 13.1762C14.2709 13.4713 13.7909 13.4721 13.4959 13.1762L12.132 11.8128C11.8372 11.5174 11.8372 11.0386 12.132 10.7437C12.4274 10.4483 12.9062 10.4483 13.2016 10.7437L14.0302 11.5723C15.1527 10.4498 14.7283 10.8742 15.8513 9.75176C16.1466 9.4564 16.625 9.4564 16.9203 9.75176C17.2157 10.0471 17.2157 10.526 16.9203 10.8208ZM16.9203 6.2059L14.565 8.56124C14.2707 8.85549 13.7915 8.85675 13.4959 8.56124L12.132 7.19733C11.8372 6.90247 11.8372 6.42364 12.132 6.12828C12.4274 5.83291 12.9062 5.83291 13.2016 6.12828C13.5918 6.5185 13.4084 6.33503 14.0302 6.95741C15.1537 5.83463 14.7279 6.26023 15.8513 5.13684C16.1466 4.84148 16.625 4.84148 16.9203 5.13684C17.2157 5.4317 17.2157 5.91053 16.9203 6.2059Z" fill="#303030"/>
<path d="M14.2112 0H5.87506C5.7359 0 5.62305 0.112853 5.62305 0.252016V2.56905C5.62305 2.70822 5.7359 2.82107 5.87506 2.82107H14.2112C14.3504 2.82107 14.4633 2.70822 14.4633 2.56905V0.252016C14.4633 0.112853 14.3504 0 14.2112 0Z" fill="#303030"/>
<path d="M22.33 20.5997C22.4005 20.8416 22.7438 20.8416 22.8138 20.5997L23.7004 17.5508H21.4434L22.33 20.5997Z" fill="#303030"/>
<path d="M23.9202 8.27246H21.2236V16.0381H23.9202V8.27246Z" fill="#303030"/>
<path d="M22.5719 4.4707C21.8693 4.4707 21.2236 5.02332 21.2236 5.84772V6.76052H23.9202V5.81899C23.9202 5.06818 23.3084 4.4707 22.5719 4.4707Z" fill="#303030"/>
</g>
<defs>
<clipPath id="clip0">
<rect width="25" height="25" fill="white"/>
</clipPath>
</defs>
</svg>
