<svg width="25" height="25" viewBox="0 0 25 25" fill="none" xmlns="http://www.w3.org/2000/svg">
<path d="M14.8438 0H2.86458C1.28125 0 0 1.28125 0 2.86458V19.0104C0 20.5938 1.28125 21.875 2.86458 21.875H9.72917C9.16667 20.6875 8.85417 19.3646 8.85417 17.9688C8.85417 16.7708 9.08333 15.625 9.51042 14.5729C9.46875 14.5833 9.42708 14.5833 9.375 14.5833H4.16667C3.59375 14.5833 3.125 14.1146 3.125 13.5417C3.125 12.9687 3.59375 12.5 4.16667 12.5H9.375C9.77083 12.5 10.125 12.7292 10.2917 13.0625C10.9688 12.0104 11.8438 11.1146 12.875 10.4167H4.16667C3.59375 10.4167 3.125 9.94792 3.125 9.375C3.125 8.80208 3.59375 8.33333 4.16667 8.33333H13.5417C14.1146 8.33333 14.5833 8.80208 14.5833 9.375C14.5833 9.42708 14.5833 9.46875 14.5729 9.51042C15.5417 9.11458 16.6042 8.88542 17.7083 8.86458V2.86458C17.7083 1.28125 16.4271 0 14.8438 0V0ZM8.33333 6.25H4.16667C3.59375 6.25 3.125 5.78125 3.125 5.20833C3.125 4.63542 3.59375 4.16667 4.16667 4.16667H8.33333C8.90625 4.16667 9.375 4.63542 9.375 5.20833C9.375 5.78125 8.90625 6.25 8.33333 6.25Z" fill="#BFBFBF"/>
<path d="M17.9687 10.9375C14.0917 10.9375 10.9375 14.0917 10.9375 17.9687C10.9375 21.8458 14.0917 25 17.9687 25C21.8458 25 25 21.8458 25 17.9687C25 14.0917 21.8458 10.9375 17.9687 10.9375ZM20.8333 19.0104H19.0104V20.8333C19.0104 21.4083 18.5437 21.875 17.9687 21.875C17.3937 21.875 16.9271 21.4083 16.9271 20.8333V19.0104H15.1042C14.5292 19.0104 14.0625 18.5437 14.0625 17.9687C14.0625 17.3937 14.5292 16.9271 15.1042 16.9271H16.9271V15.1042C16.9271 14.5292 17.3937 14.0625 17.9687 14.0625C18.5437 14.0625 19.0104 14.5292 19.0104 15.1042V16.9271H20.8333C21.4083 16.9271 21.875 17.3937 21.875 17.9687C21.875 18.5437 21.4083 19.0104 20.8333 19.0104Z" fill="#BFBFBF"/>
</svg>
