<svg width="25" height="25" viewBox="0 0 25 25" fill="none" xmlns="http://www.w3.org/2000/svg">
<path d="M2.19727 1.51367C0.98374 1.51367 0 2.49741 0 3.71094C0 4.92446 0.98374 5.9082 2.19727 5.9082H22.0703V1.51367H2.19727Z" fill="#BFBFBF"/>
<path d="M19.873 13.2324C18.6614 13.2324 17.6758 14.2181 17.6758 15.4297C17.6758 16.6413 18.6614 17.627 19.873 17.627H25V13.2324H19.873ZM20.6055 16.1621H19.1406V14.6973H20.6055V16.1621Z" fill="#BFBFBF"/>
<path d="M19.873 11.7677H25V7.37319C24.7811 7.37319 2.19727 7.37319 2.19727 7.37319C1.36973 7.37319 0.613965 7.08682 0 6.62207C0 6.95635 0 19.3141 0 19.8244C0 21.8468 1.63955 23.4865 3.66211 23.4865H25V19.0919H19.873C17.8539 19.0919 16.2109 17.449 16.2109 15.4298C16.2109 13.4106 17.8539 11.7677 19.873 11.7677Z" fill="#BFBFBF"/>
</svg>
