<svg width="21" height="21" viewBox="0 0 21 21" fill="none" xmlns="http://www.w3.org/2000/svg">
<g clip-path="url(#clip0)">
<path d="M10.0788 10.6696C9.31613 10.6696 8.55329 10.3815 7.97278 9.80553C6.81144 8.65364 6.81144 6.77922 7.97278 5.62718C8.53522 5.06909 9.28319 4.76178 10.0788 4.76178C10.8744 4.76178 11.6223 5.06924 12.1848 5.62718C13.3462 6.77922 13.3462 8.65364 12.1848 9.80553C11.6042 10.3815 10.8415 10.6696 10.0788 10.6696ZM10.0788 5.9313C9.6178 5.9313 9.15679 6.10532 8.80579 6.45352C8.10377 7.14991 8.10377 8.28295 8.80579 8.97934C9.14576 9.31659 9.59788 9.50232 10.0788 9.50232C10.5597 9.50232 11.0119 9.31659 11.3518 8.97934C12.0539 8.28295 12.0539 7.14991 11.3518 6.45352C11.0008 6.10532 10.5398 5.9313 10.0788 5.9313Z" fill="#C4C4C4"/>
<path d="M10.0857 20.7745L9.63022 20.2438C9.36363 19.933 3.09854 12.5769 3.09854 7.77804C3.09854 3.95989 6.22986 0.853638 10.0788 0.853638C13.9278 0.853638 17.0591 3.95989 17.0591 7.77804C17.0591 12.3409 10.7995 19.9167 10.5331 20.2369L10.0857 20.7745ZM10.0788 2.02224C6.87947 2.02224 4.27658 4.6043 4.27658 7.77804C4.27658 9.56172 5.34875 12.143 7.37726 15.243C8.42997 16.8518 9.49003 18.2142 10.0724 18.9352C10.6557 18.1944 11.7258 16.7872 12.7851 15.1479C14.8106 12.0138 15.8811 9.46521 15.8811 7.77804C15.8811 4.6043 13.2782 2.02224 10.0788 2.02224Z" fill="#C4C4C4"/>
</g>
<defs>
<clipPath id="clip0">
<rect width="20.0816" height="19.9209" fill="white" transform="translate(0 0.853638)"/>
</clipPath>
</defs>
</svg>
