<svg width="68" height="11" viewBox="0 0 68 11" fill="none" xmlns="http://www.w3.org/2000/svg">
<g clip-path="url(#clip0)">
<path d="M10.7081 3.93464L7.32653 3.4181L5.81082 0.189602C5.69761 -0.0514818 5.30207 -0.0514818 5.18886 0.189602L3.67361 3.4181L0.292027 3.93464C0.0142767 3.97727 -0.09664 4.31506 0.0981517 4.51444L2.55482 7.03252L1.97411 10.5924C1.92782 10.8752 2.22986 11.0874 2.47965 10.9485L5.50007 9.27927L8.52048 10.949C8.76798 11.0865 9.07278 10.8784 9.02603 10.5929L8.44532 7.03298L10.902 4.51489C11.0968 4.31506 10.9854 3.97727 10.7081 3.93464Z" fill="#FFC107"/>
</g>
<g clip-path="url(#clip1)">
<path d="M24.7081 3.93464L21.3265 3.4181L19.8108 0.189602C19.6976 -0.0514818 19.3021 -0.0514818 19.1889 0.189602L17.6736 3.4181L14.292 3.93464C14.0143 3.97727 13.9034 4.31506 14.0982 4.51444L16.5548 7.03252L15.9741 10.5924C15.9278 10.8752 16.2299 11.0874 16.4797 10.9485L19.5001 9.27927L22.5205 10.949C22.768 11.0865 23.0728 10.8784 23.026 10.5929L22.4453 7.03298L24.902 4.51489C25.0968 4.31506 24.9854 3.97727 24.7081 3.93464Z" fill="#FFC107"/>
</g>
<g clip-path="url(#clip2)">
<path d="M38.7081 3.93464L35.3265 3.4181L33.8108 0.189602C33.6976 -0.0514818 33.3021 -0.0514818 33.1889 0.189602L31.6736 3.4181L28.292 3.93464C28.0143 3.97727 27.9034 4.31506 28.0982 4.51444L30.5548 7.03252L29.9741 10.5924C29.9278 10.8752 30.2299 11.0874 30.4797 10.9485L33.5001 9.27927L36.5205 10.949C36.768 11.0865 37.0728 10.8784 37.026 10.5929L36.4453 7.03298L38.902 4.51489C39.0968 4.31506 38.9854 3.97727 38.7081 3.93464Z" fill="#FFC107"/>
</g>
<g clip-path="url(#clip3)">
<path d="M52.7081 3.93464L49.3265 3.4181L47.8108 0.189602C47.6976 -0.0514818 47.3021 -0.0514818 47.1889 0.189602L45.6736 3.4181L42.292 3.93464C42.0143 3.97727 41.9034 4.31506 42.0982 4.51444L44.5548 7.03252L43.9741 10.5924C43.9278 10.8752 44.2299 11.0874 44.4797 10.9485L47.5001 9.27927L50.5205 10.949C50.768 11.0865 51.0728 10.8784 51.026 10.5929L50.4453 7.03298L52.902 4.51489C53.0968 4.31506 52.9854 3.97727 52.7081 3.93464Z" fill="#FFC107"/>
</g>
<g clip-path="url(#clip4)">
<path d="M66.7081 3.93464L63.3265 3.4181L61.8108 0.189602C61.6976 -0.0514818 61.3021 -0.0514818 61.1889 0.189602L59.6736 3.4181L56.292 3.93464C56.0143 3.97727 55.9034 4.31506 56.0982 4.51444L58.5548 7.03252L57.9741 10.5924C57.9278 10.8752 58.2299 11.0874 58.4797 10.9485L61.5001 9.27927L64.5205 10.949C64.768 11.0865 65.0728 10.8784 65.026 10.5929L64.4453 7.03298L66.902 4.51489C67.0968 4.31506 66.9854 3.97727 66.7081 3.93464Z" fill="#FFC107"/>
</g>
<defs>
<clipPath id="clip0">
<rect width="11" height="11" fill="white"/>
</clipPath>
<clipPath id="clip1">
<rect width="11" height="11" fill="white" transform="translate(14)"/>
</clipPath>
<clipPath id="clip2">
<rect width="11" height="11" fill="white" transform="translate(28)"/>
</clipPath>
<clipPath id="clip3">
<rect width="11" height="11" fill="white" transform="translate(42)"/>
</clipPath>
<clipPath id="clip4">
<rect width="11" height="11" fill="white" transform="translate(56)"/>
</clipPath>
</defs>
</svg>
