<svg width="20" height="20" viewBox="0 0 20 20" fill="none" xmlns="http://www.w3.org/2000/svg">
<g clip-path="url(#clip0)">
<path d="M11.3628 6.36374H13.1809C13.4322 6.36374 13.6355 6.16043 13.6355 5.90918V1.36374C13.6355 1.11249 13.4322 0.90918 13.1809 0.90918H11.3628C11.1115 0.90918 10.9082 1.11249 10.9082 1.36374V5.90918C10.9082 6.16043 11.1115 6.36374 11.3628 6.36374Z" fill="white"/>
<path d="M19.8668 3.76915L16.2304 0.132789C16.1008 0.00273289 15.9046 -0.0363435 15.735 0.0342241C15.5655 0.104366 15.4545 0.270387 15.4545 0.454136V6.3632C15.4545 7.36593 14.6386 8.18138 13.6363 8.18138H5.45456C4.45225 8.18138 3.63637 7.36597 3.63637 6.3632V0.454178C3.63637 0.20293 3.43306 -0.000377883 3.18181 -0.000377883H1.81819C0.815876 -0.000377883 0 0.815028 0 1.8178V18.1813C0 19.184 0.815876 19.9995 1.81819 19.9995H18.1817C19.184 19.9995 19.9999 19.1841 19.9999 18.1813V4.0905C20 3.96978 19.952 3.85438 19.8668 3.76915ZM17.2727 18.6359C17.2727 18.8871 17.0694 19.0904 16.8181 19.0904H3.18186C2.93061 19.0904 2.7273 18.8871 2.7273 18.6359V10.4541C2.7273 10.2029 2.93061 9.99956 3.18186 9.99956H16.8181C17.0694 9.99956 17.2727 10.2029 17.2727 10.4541V18.6359Z" fill="white"/>
</g>
<defs>
<clipPath id="clip0">
<rect width="20" height="20" fill="white"/>
</clipPath>
</defs>
</svg>
