<svg width="130" height="100" viewBox="0 0 130 100" fill="none" xmlns="http://www.w3.org/2000/svg">
<path d="M95.8613 70.6906V58.6226H65.1389V70.6906L80.5001 84.4829L95.8613 70.6906Z" fill="#E6AF78"/>
<path d="M119.613 76.336L98.493 71.3163C98.174 71.2405 97.8807 71.1118 97.6061 70.9558L80.4999 81.0352L64.0608 70.4683C63.6352 70.8729 63.1069 71.1737 62.5069 71.3165L41.3866 76.3362C38.3026 77.0692 36.123 79.8489 36.123 83.049V96.5517C36.123 98.4562 37.6513 99.9997 39.5366 99.9997H121.463C123.348 99.9997 124.876 98.456 124.876 96.5517V83.049C124.877 79.8487 122.697 77.0688 119.613 76.336Z" fill="#EFF2FA"/>
<path d="M65.1389 58.6228V71.3557C84.4899 78.398 95.8613 60.7727 95.8613 60.7727V58.6226H65.1389V58.6228Z" fill="#D29B6E"/>
<path d="M58.3116 18.9702L59.799 52.0224C59.9378 55.11 61.4367 57.9735 63.8846 59.828L70.9418 65.1744C72.7145 66.5172 74.8705 67.2434 77.0863 67.2434H83.9136C86.1295 67.2434 88.2855 66.5174 90.0582 65.1744L97.1154 59.828C99.5633 57.9733 101.062 55.1102 101.201 52.0224L102.688 18.9702C102.688 18.9702 58.3116 18.9702 58.3116 18.9702Z" fill="#F0C087"/>
<path d="M75.3798 25.866C82.2071 25.866 92.4477 24.142 94.8767 18.9697H58.3116L59.799 52.0219C59.9378 55.1096 61.4367 57.9728 63.8848 59.8275L70.942 65.1739C72.7147 66.5167 74.8707 67.2429 77.0865 67.2429H80.5001C77.0865 67.2429 70.2593 60.3466 70.2593 51.7266C70.2593 47.5106 70.2593 36.2102 70.2593 31.038C70.2593 29.314 71.966 25.866 75.3798 25.866Z" fill="#E6AF78"/>
<path d="M48.6536 88.8109L37.5937 78.7754C36.6669 79.9607 36.1236 81.4523 36.1236 83.0492V96.5519C36.1236 98.4563 37.6519 99.9999 39.5371 99.9999H51.4847V95.2237C51.4846 92.7771 50.4553 90.4456 48.6536 88.8109Z" fill="#E4EAF6"/>
<path d="M112.347 88.8109L123.407 78.7754C124.333 79.9607 124.877 81.4523 124.877 83.0492V96.5519C124.877 98.4563 123.348 99.9999 121.463 99.9999H109.516V95.2237C109.516 92.7771 110.545 90.4456 112.347 88.8109Z" fill="#E4EAF6"/>
<path d="M84.7671 99.9994H76.2331L77.2998 84.4829H83.7004L84.7671 99.9994Z" fill="#5B5D6E"/>
<path d="M84.7671 81.0352H76.2331V84.2799C76.2331 85.3445 77.0873 86.2074 78.1413 86.2074H82.8587C83.9127 86.2074 84.7669 85.3445 84.7669 84.2799V81.0352H84.7671Z" fill="#515262"/>
<path d="M64.8994 66.8523L80.5003 81.0349C80.5003 81.0349 76.1312 83.2628 70.7396 87.7532C69.6274 88.6794 67.945 88.3042 67.3485 86.9786L60.0188 70.6908L62.3376 67.1777C62.9146 66.3027 64.1258 66.1492 64.8994 66.8523Z" fill="#E4EAF6"/>
<path d="M96.101 66.8523L80.5001 81.0349C80.5001 81.0349 84.8692 83.2628 90.2608 87.7532C91.373 88.6794 93.0554 88.3042 93.652 86.9786L100.982 70.6908L98.6628 67.1777C98.0857 66.3027 96.8745 66.1492 96.101 66.8523Z" fill="#E4EAF6"/>
<path d="M90.8475 7.54811L92.4475 18.9699C99.7516 20.4455 100.804 32.0239 100.956 35.331C100.983 35.9311 101.173 36.5106 101.495 37.0155L104.282 41.3823C104.282 41.3823 103.328 34.1628 107.696 29.314C107.696 29.314 109.196 0.65186 90.8475 7.54811Z" fill="#785550"/>
<path d="M105.994 40.647L104.067 48.4324C103.839 49.3552 103.018 50.0023 102.077 50.0023C101.042 50.0023 100.169 49.2239 100.04 48.1867L99.0548 40.2238C98.791 38.0924 100.436 36.21 102.563 36.21H102.564C104.864 36.2102 106.552 38.3932 105.994 40.647Z" fill="#F0C087"/>
<path d="M59.9475 4.45898L62.472 6.20096C51.0578 14.7134 53.1911 29.3139 53.1911 29.3139C56.6047 32.7619 56.6047 41.3822 56.6047 41.3822L60.0182 37.9342C60.0182 37.9342 58.7009 27.9737 65.1386 24.1419C71.1124 20.586 76.3394 22.4179 81.6732 22.4179C95.9676 22.4179 99.968 16.9763 99.2746 10.3496C98.9157 6.92068 93.7256 -0.221855 80.4999 0.0052921C75.1624 0.0968931 65.1389 1.72931 59.9475 4.45898Z" fill="#694B4B"/>
<path d="M58.9517 20.9093C58.9517 20.9093 57.1382 13.6898 62.472 6.20117C51.0578 14.7136 53.1911 29.3141 53.1911 29.3141C56.6047 32.7621 56.6047 41.3824 56.6047 41.3824L60.0182 37.9344C60.0182 37.9344 58.7009 27.9739 65.1386 24.1421C71.1124 20.5862 76.3394 22.4181 81.6732 22.4181C83.998 22.4181 86.0238 22.2608 87.8282 21.9913C76.8199 22.364 70.3306 13.9412 58.9517 20.9093Z" fill="#5A4146"/>
<path d="M55.006 40.647L56.9328 48.4324C57.1612 49.3552 57.9818 50.0023 58.9236 50.0023C59.9587 50.0023 60.8315 49.2239 60.9599 48.1867L61.9455 40.2238C62.2092 38.0924 60.5641 36.21 58.4375 36.21H58.436C56.1358 36.2102 54.4482 38.3932 55.006 40.647Z" fill="#E6AF78"/>
<path d="M102.689 96.5513H90.7409C89.7983 96.5513 89.0341 97.3231 89.0341 98.2753V99.9993H104.395V98.2753C104.395 97.3233 103.631 96.5513 102.689 96.5513Z" fill="#E4EAF6"/>
<path d="M42 100C65.196 100 84 81.196 84 58C84 34.804 65.196 16 42 16C18.804 16 0 34.804 0 58C0 81.196 18.804 100 42 100Z" fill="#AFB9D2"/>
<path d="M42 95.6555C62.7964 95.6555 79.6552 78.7967 79.6552 58.0003C79.6552 37.204 62.7964 20.3452 42 20.3452C21.2037 20.3452 4.34488 37.204 4.34488 58.0003C4.34488 78.7967 21.2037 95.6555 42 95.6555Z" fill="#8F96AC"/>
<path d="M42 92.7584C61.1967 92.7584 76.7586 77.1965 76.7586 57.9998C76.7586 38.8032 61.1967 23.2412 42 23.2412C22.8034 23.2412 7.24139 38.8032 7.24139 57.9998C7.24139 77.1965 22.8034 92.7584 42 92.7584Z" fill="white"/>
<path d="M26.069 75.3793C25.6984 75.3793 25.3278 75.2379 25.0451 74.9551C24.4794 74.3897 24.4794 73.4726 25.0451 72.9071L44.5968 53.3554C45.1625 52.7897 46.0791 52.7897 46.6448 53.3554C47.2104 53.9208 47.2104 54.8379 46.6448 55.4034L27.0931 74.9551C26.8101 75.2379 26.4395 75.3793 26.069 75.3793Z" fill="#AFB9D2"/>
<path d="M42 33.3796C41.2002 33.3796 40.5516 32.731 40.5516 31.9312V27.5865C40.5516 26.7867 41.2002 26.1382 42 26.1382C42.7998 26.1382 43.4483 26.7867 43.4483 27.5865V31.9314C43.4483 32.731 42.7998 33.3796 42 33.3796Z" fill="#5B5D6E"/>
<path d="M42 89.8622C41.2002 89.8622 40.5516 89.2136 40.5516 88.4138V84.0689C40.5516 83.2691 41.2002 82.6206 42 82.6206C42.7998 82.6206 43.4483 83.2691 43.4483 84.0689V88.4138C43.4483 89.2136 42.7998 89.8622 42 89.8622Z" fill="#5B5D6E"/>
<path d="M66.6207 58.0001C66.6207 57.2003 67.2692 56.5518 68.069 56.5518H72.4139C73.2137 56.5518 73.8622 57.2003 73.8622 58.0001C73.8622 58.7999 73.2137 59.4484 72.4139 59.4484H68.069C67.2692 59.4484 66.6207 58.7999 66.6207 58.0001Z" fill="#5B5D6E"/>
<path d="M10.1379 58.0001C10.1379 57.2003 10.7864 56.5518 11.5863 56.5518H15.9311C16.7309 56.5518 17.3795 57.2003 17.3795 58.0001C17.3795 58.7999 16.7309 59.4484 15.9311 59.4484H11.5863C10.7864 59.4484 10.1379 58.7999 10.1379 58.0001Z" fill="#5B5D6E"/>
<path d="M69.5933 73.931C69.1934 74.6237 68.3076 74.8609 67.6151 74.4611L66.3608 73.7369C65.6681 73.3369 65.4309 72.4512 65.8307 71.7585C66.2307 71.0658 67.1165 70.8286 67.809 71.2284L69.0633 71.9526C69.7561 72.3526 69.9933 73.2385 69.5933 73.931Z" fill="#8F96AC"/>
<path d="M18.1692 44.2414C17.7693 44.9341 16.8835 45.1713 16.191 44.7715L14.9367 44.0473C14.244 43.6473 14.0068 42.7615 14.4066 42.069C14.8066 41.3764 15.6924 41.1391 16.3849 41.539L17.6392 42.2631C18.3318 42.6629 18.5692 43.5487 18.1692 44.2414Z" fill="#8F96AC"/>
<path d="M14.4066 73.931C14.8066 74.6237 15.6924 74.8609 16.3849 74.4611L17.6392 73.7369C18.3318 73.3369 18.5691 72.4512 18.1693 71.7585C17.7693 71.0658 16.8835 70.8286 16.191 71.2284L14.9367 71.9526C14.2439 72.3526 14.0067 73.2385 14.4066 73.931Z" fill="#8F96AC"/>
<path d="M65.8307 44.2414C66.2307 44.9341 67.1165 45.1713 67.809 44.7715L69.0632 44.0473C69.7559 43.6473 69.9931 42.7615 69.5933 42.069C69.1933 41.3764 68.3076 41.1391 67.6151 41.539L66.3608 42.2631C65.6681 42.6629 65.4307 43.5487 65.8307 44.2414Z" fill="#8F96AC"/>
<path d="M26.069 85.5931C25.3763 85.1931 25.1391 84.3073 25.5389 83.6148L26.2631 82.3605C26.6631 81.6679 27.5489 81.4306 28.2414 81.8305C28.934 82.2304 29.1713 83.1162 28.7715 83.8087L28.0473 85.063C27.6475 85.7558 26.7615 85.9931 26.069 85.5931Z" fill="#8F96AC"/>
<path d="M55.7586 34.1692C55.0659 33.7693 54.8287 32.8835 55.2285 32.191L55.9527 30.9367C56.3527 30.244 57.2384 30.0068 57.9311 30.4066C58.6238 30.8066 58.861 31.6924 58.4612 32.3849L57.737 33.6392C57.337 34.3318 56.4513 34.5692 55.7586 34.1692Z" fill="#8F96AC"/>
<path d="M26.069 30.4067C25.3763 30.8067 25.1391 31.6925 25.5389 32.385L26.2631 33.6393C26.6631 34.3319 27.5489 34.5692 28.2414 34.1693C28.934 33.7694 29.1713 32.8836 28.7715 32.1911L28.0473 30.9368C27.6475 30.244 26.7615 30.0068 26.069 30.4067Z" fill="#8F96AC"/>
<path d="M55.7586 81.8305C55.0659 82.2305 54.8287 83.1163 55.2285 83.8088L55.9527 85.0631C56.3527 85.7557 57.2384 85.993 57.9311 85.5931C58.6238 85.1932 58.861 84.3074 58.4612 83.6149L57.737 82.3606C57.337 81.6679 56.4513 81.4305 55.7586 81.8305Z" fill="#8F96AC"/>
<path d="M62.2758 56.5512H43.4483V40.6202C43.4483 39.8204 42.7998 39.1719 42 39.1719C41.2002 39.1719 40.5517 39.8204 40.5517 40.6202V56.5512H37.6551C36.8553 56.5512 36.2068 57.1997 36.2068 57.9995C36.2068 58.7993 36.8553 59.4479 37.6551 59.4479H40.5517V62.3444C40.5517 63.1442 41.2002 63.7927 42 63.7927C42.7998 63.7927 43.4483 63.1442 43.4483 62.3444V59.4479H62.276C63.0758 59.4479 63.7243 58.7993 63.7243 57.9995C63.7243 57.1997 63.0756 56.5512 62.2758 56.5512Z" fill="#5B5D6E"/>
<path d="M42 60.8961C43.5997 60.8961 44.8965 59.5993 44.8965 57.9995C44.8965 56.3998 43.5997 55.103 42 55.103C40.4003 55.103 39.1035 56.3998 39.1035 57.9995C39.1035 59.5993 40.4003 60.8961 42 60.8961Z" fill="#C7CFE2"/>
</svg>
