<svg width="99" height="100" viewBox="0 0 99 100" fill="none" xmlns="http://www.w3.org/2000/svg">
<path d="M63.4219 94.875L60.3281 90.1875L88.1719 71.4375L95.9062 82.375V94.875H63.4219Z" fill="#A8B0BC"/>
<path d="M63.4219 94.875H81.1645C82.5413 92.0078 83.3348 88.8016 83.3348 85.4016C83.3348 82.0687 82.5722 78.925 81.2481 76.1016L60.3281 90.1875L63.4219 94.875Z" fill="#C1C8D1"/>
<path d="M91.4203 76.0312L63.4219 94.875L60.3281 90.1875L88.1719 71.4375L91.4203 76.0312Z" fill="#758190"/>
<path d="M71.1562 4.25C71.1562 2.52344 69.7718 1.125 68.0625 1.125H6.1875C4.4782 1.125 3.09375 2.52344 3.09375 4.25V76.125C3.09375 77.8516 4.4782 79.25 6.1875 79.25H68.0625C69.7718 79.25 71.1562 77.8516 71.1562 76.125V4.25Z" fill="#758190"/>
<path d="M66.5156 7.375C66.5156 6.5125 65.8226 5.8125 64.9688 5.8125H9.28125C8.42738 5.8125 7.73438 6.5125 7.73438 7.375V73C7.73438 73.8625 8.42738 74.5625 9.28125 74.5625H64.9688C65.8226 74.5625 66.5156 73.8625 66.5156 73V7.375Z" fill="#EBF7FE"/>
<path d="M23.2016 52.6855H13.9219C13.0665 52.6855 12.375 51.9871 12.375 51.123V41.748C12.375 40.884 13.0665 40.1855 13.9219 40.1855H23.2016C24.057 40.1855 24.7485 40.884 24.7485 41.748V51.123C24.7485 51.9871 24.057 52.6855 23.2016 52.6855ZM15.4688 49.5605H21.6547V43.3105H15.4688V49.5605Z" fill="#758190"/>
<path d="M23.2016 69.873H13.9219C13.0665 69.873 12.375 69.1746 12.375 68.3105V58.9355C12.375 58.0715 13.0665 57.373 13.9219 57.373H23.2016C24.057 57.373 24.7485 58.0715 24.7485 58.9355V68.3105C24.7485 69.1746 24.057 69.873 23.2016 69.873ZM15.4688 66.748H21.6547V60.498H15.4688V66.748Z" fill="#758190"/>
<path d="M18.5625 49.5624C18.4604 49.5624 18.3568 49.5515 18.2562 49.5311C17.7891 49.4358 17.3915 49.128 17.1796 48.6983L15.6327 45.5733L18.3985 44.1765L19.0606 45.5108L28.3836 37.439L30.3976 39.8108L19.5695 49.1858C19.2864 49.4296 18.9276 49.5624 18.5625 49.5624Z" fill="#96CC7F"/>
<path d="M18.5625 66.7499C18.4604 66.7499 18.3568 66.739 18.2562 66.7186C17.7891 66.6233 17.3915 66.3155 17.1796 65.8858L15.6327 62.7608L18.3985 61.364L19.0606 62.6983L28.3836 54.6265L30.3976 56.9983L19.5695 66.3733C19.2864 66.6171 18.9276 66.7499 18.5625 66.7499Z" fill="#96CC7F"/>
<path d="M30.9375 43.3125H46.4047V46.4375H30.9375V43.3125Z" fill="#C1C8D1"/>
<path d="M30.9375 49.5625H40.2172V52.6875H30.9375V49.5625Z" fill="#C1C8D1"/>
<path d="M43.3125 49.5625H46.4047V52.6875H43.3125V49.5625Z" fill="#C1C8D1"/>
<path d="M30.9375 60.5H46.4047V63.625H30.9375V60.5Z" fill="#C1C8D1"/>
<path d="M30.9375 66.75H40.2188V69.875H30.9375V66.75Z" fill="#C1C8D1"/>
<path d="M43.3125 66.75H46.4047V69.875H43.3125V66.75Z" fill="#C1C8D1"/>
<path d="M12.375 13.625V14.2469C12.375 22.6812 16.4077 30.5969 23.2031 35.5C29.9985 30.5969 34.0312 22.6812 34.0312 14.2469V13.625L23.2031 10.5L12.375 13.625Z" fill="#F2C351"/>
<path d="M61.8719 26.1234H56.7502C55.5019 26.1234 54.3819 25.4234 53.8235 24.2969C53.8142 24.2781 53.7848 24.2156 53.6936 24.2016C53.6054 24.1906 53.5544 24.2344 53.5389 24.2516L53.016 24.7797C52.1699 25.6344 50.9974 26.1234 49.8016 26.1234C48.0691 26.1234 46.5114 25.1516 45.738 23.5859L44.5098 21.1062C44.1354 20.3469 43.3806 19.875 42.5406 19.875H42.5391C41.696 19.875 40.9396 20.3469 40.5637 21.1062L38.5064 25.2609L35.7405 23.8625L37.7979 19.7094C38.7013 17.8844 40.5157 16.75 42.5375 16.75H42.5391C44.5593 16.75 46.3738 17.8828 47.2771 19.7094L48.5054 22.1891C48.9246 23.0344 50.1713 23.2391 50.8288 22.5703L51.3516 22.0422C52.0926 21.2922 53.1661 20.9516 54.1886 21.1156C55.225 21.2844 56.1222 21.9516 56.5924 22.9C56.6234 22.9609 56.6852 22.9984 56.7517 22.9984H61.8734V26.1234H61.8719Z" fill="#C1C8D1"/>
<path d="M35.5766 27.6875H55.6844V30.8125H35.5766V27.6875Z" fill="#A8B0BC"/>
<path d="M58.7797 27.6875H61.8719V30.8125H58.7797V27.6875Z" fill="#A8B0BC"/>
<path d="M57.2344 69.875C59.7973 69.875 61.875 67.7763 61.875 65.1875C61.875 62.5987 59.7973 60.5 57.2344 60.5C54.6714 60.5 52.5938 62.5987 52.5938 65.1875C52.5938 67.7763 54.6714 69.875 57.2344 69.875Z" fill="#C66B60"/>
<path d="M86.4316 72.6094L83.5312 66.75V46.4375C83.5312 41.2594 79.3763 37.0625 74.25 37.0625H61.875C59.3118 37.0625 57.2344 39.1609 57.2344 41.75C57.2344 44.3391 59.3118 46.4375 61.875 46.4375H71.1562V76.125C71.1562 77.8516 69.7718 79.25 68.0625 79.25H47.9531L54.1406 85.5H60.3281L62.0684 89.0156" fill="#FADFB2"/>
<path d="M12.375 13.625V14.2469C12.375 20.3531 14.4973 26.1812 18.2438 30.7984C24.0152 27.1547 27.8654 20.6984 27.8654 13.3172C27.8654 12.8125 27.8267 12.3187 27.7912 11.825L23.2031 10.5L12.375 13.625Z" fill="#F7D881"/>
<path d="M52.5938 65.1875C52.5938 66.5406 53.1692 67.75 54.0772 68.6062C56.7146 67.1828 58.5121 64.3766 58.5121 61.1437C58.5121 60.9922 58.4982 60.8453 58.4904 60.6953C58.0882 60.5812 57.6721 60.5 57.2344 60.5C54.6712 60.5 52.5938 62.5984 52.5938 65.1875Z" fill="#E47C6E"/>
<path d="M63.4219 94.8751L83.0007 81.697C82.665 79.7267 82.0694 77.8517 81.2481 76.1001L60.3281 90.1876L63.4219 94.8751Z" fill="#8892A0"/>
</svg>
