<svg width="113" height="100" viewBox="0 0 113 100" fill="none" xmlns="http://www.w3.org/2000/svg">
<path d="M82.2758 8.62061C81.3331 8.62061 80.5688 9.39268 80.5688 10.3448V29.3103H83.9825V10.3448C83.9827 9.39248 83.2184 8.62061 82.2758 8.62061Z" fill="#AFB9D2"/>
<path d="M89.1035 15.5171C88.1609 15.5171 87.3965 16.2892 87.3965 17.2413V36.2067H90.8103V17.2413C90.8103 16.2892 90.0461 15.5171 89.1035 15.5171Z" fill="#AFB9D2"/>
<path d="M77.1552 25.8623H99.3449C100.288 25.8623 101.052 26.6344 101.052 27.5865V98.2762H77.1552V25.8623Z" fill="#C7CFE2"/>
<path d="M101.052 91.3794H77.1552V98.2759H101.052V91.3794Z" fill="#AFB9D2"/>
<path d="M101.052 84.4829H75.4482V87.9312H101.052V84.4829Z" fill="#AFB9D2"/>
<path d="M97.6379 84.4829H94.2242V87.9312H97.6379V84.4829Z" fill="#8F96AC"/>
<path d="M83.9827 84.4829H80.569V87.9312H83.9827V84.4829Z" fill="#8F96AC"/>
<path d="M90.8102 84.4829H87.3965V87.9312H90.8102V84.4829Z" fill="#8F96AC"/>
<path d="M101.052 77.5859H75.4482V81.0342H101.052V77.5859Z" fill="#AFB9D2"/>
<path d="M97.6379 77.5859H94.2242V81.0342H97.6379V77.5859Z" fill="#8F96AC"/>
<path d="M83.9827 77.5859H80.569V81.0342H83.9827V77.5859Z" fill="#8F96AC"/>
<path d="M90.8102 77.5859H87.3965V81.0342H90.8102V77.5859Z" fill="#8F96AC"/>
<path d="M101.052 70.6895H75.4482V74.1377H101.052V70.6895Z" fill="#AFB9D2"/>
<path d="M97.6379 70.6895H94.2242V74.1377H97.6379V70.6895Z" fill="#8F96AC"/>
<path d="M83.9827 70.6895H80.569V74.1377H83.9827V70.6895Z" fill="#8F96AC"/>
<path d="M90.8102 70.6895H87.3965V74.1377H90.8102V70.6895Z" fill="#8F96AC"/>
<path d="M101.052 63.793H75.4482V67.2412H101.052V63.793Z" fill="#AFB9D2"/>
<path d="M97.6379 63.793H94.2242V67.2412H97.6379V63.793Z" fill="#8F96AC"/>
<path d="M83.9827 63.793H80.569V67.2412H83.9827V63.793Z" fill="#8F96AC"/>
<path d="M90.8102 63.793H87.3965V67.2412H90.8102V63.793Z" fill="#8F96AC"/>
<path d="M101.052 56.8965H75.4482V60.3447H101.052V56.8965Z" fill="#AFB9D2"/>
<path d="M97.6379 56.8965H94.2242V60.3447H97.6379V56.8965Z" fill="#8F96AC"/>
<path d="M83.9827 56.8965H80.569V60.3447H83.9827V56.8965Z" fill="#8F96AC"/>
<path d="M90.8102 56.8965H87.3965V60.3447H90.8102V56.8965Z" fill="#8F96AC"/>
<path d="M101.052 50H75.4482V53.4482H101.052V50Z" fill="#AFB9D2"/>
<path d="M97.6379 50H94.2242V53.4482H97.6379V50Z" fill="#8F96AC"/>
<path d="M83.9827 50H80.569V53.4482H83.9827V50Z" fill="#8F96AC"/>
<path d="M90.8102 50H87.3965V53.4482H90.8102V50Z" fill="#8F96AC"/>
<path d="M101.052 43.1035H75.4482V46.5518H101.052V43.1035Z" fill="#AFB9D2"/>
<path d="M97.6379 43.1035H94.2242V46.5518H97.6379V43.1035Z" fill="#8F96AC"/>
<path d="M83.9827 43.1035H80.569V46.5518H83.9827V43.1035Z" fill="#8F96AC"/>
<path d="M90.8102 43.1035H87.3965V46.5518H90.8102V43.1035Z" fill="#8F96AC"/>
<path d="M101.052 36.2065H75.4482V39.6548H101.052V36.2065Z" fill="#AFB9D2"/>
<path d="M97.6379 36.2065H94.2242V39.6548H97.6379V36.2065Z" fill="#8F96AC"/>
<path d="M83.9827 36.2065H80.569V39.6548H83.9827V36.2065Z" fill="#8F96AC"/>
<path d="M90.8102 36.2065H87.3965V39.6548H90.8102V36.2065Z" fill="#8F96AC"/>
<path d="M101.052 29.3105H75.4482V32.7588H101.052V29.3105Z" fill="#AFB9D2"/>
<path d="M97.6379 29.3105H94.2242V32.7588H97.6379V29.3105Z" fill="#8F96AC"/>
<path d="M83.9827 29.3105H80.569V32.7588H83.9827V29.3105Z" fill="#8F96AC"/>
<path d="M90.8102 29.3105H87.3965V32.7588H90.8102V29.3105Z" fill="#8F96AC"/>
<path d="M77.1552 98.2758H25.9482V1.72422C25.9482 0.77207 26.7126 0 27.6552 0H75.4482C76.3909 0 77.1552 0.77207 77.1552 1.72422V98.2758Z" fill="#AFB9D2"/>
<path d="M31.069 81.0345C30.1263 81.0345 29.362 80.2624 29.362 79.3102V10.3448C29.362 9.39268 30.1263 8.62061 31.069 8.62061C32.0116 8.62061 32.776 9.39268 32.776 10.3448V79.3102C32.7758 80.2624 32.0116 81.0345 31.069 81.0345Z" fill="#8F96AC"/>
<path d="M77.1552 84.4829H25.9482V98.2761H77.1552V84.4829Z" fill="#9FA7BF"/>
<path d="M32.7758 96.5519V89.6554C32.7758 88.7032 32.0114 87.9312 31.0688 87.9312C30.1262 87.9312 29.3618 88.7032 29.3618 89.6554V96.5519H32.7758Z" fill="#707487"/>
<path d="M37.8965 81.0345C36.9539 81.0345 36.1895 80.2624 36.1895 79.3102V10.3448C36.1895 9.39268 36.9539 8.62061 37.8965 8.62061C38.8391 8.62061 39.6035 9.39268 39.6035 10.3448V79.3102C39.6035 80.2624 38.8391 81.0345 37.8965 81.0345Z" fill="#8F96AC"/>
<path d="M39.6035 96.5519V89.6554C39.6035 88.7032 38.8391 87.9312 37.8965 87.9312C36.9539 87.9312 36.1895 88.7032 36.1895 89.6554V96.5519H39.6035Z" fill="#707487"/>
<path d="M44.7242 81.0345C43.7816 81.0345 43.0172 80.2624 43.0172 79.3102V10.3448C43.0172 9.39268 43.7816 8.62061 44.7242 8.62061C45.6668 8.62061 46.4312 9.39268 46.4312 10.3448V79.3102C46.431 80.2624 45.6668 81.0345 44.7242 81.0345Z" fill="#8F96AC"/>
<path d="M46.431 96.5519V89.6554C46.431 88.7032 45.6666 87.9312 44.724 87.9312C43.7814 87.9312 43.017 88.7032 43.017 89.6554V96.5519H46.431Z" fill="#707487"/>
<path d="M51.5518 81.0345C50.6091 81.0345 49.8448 80.2624 49.8448 79.3102V10.3448C49.8448 9.39268 50.6091 8.62061 51.5518 8.62061C52.4944 8.62061 53.2587 9.39268 53.2587 10.3448V79.3102C53.2585 80.2624 52.4944 81.0345 51.5518 81.0345Z" fill="#8F96AC"/>
<path d="M53.2586 96.5519V89.6554C53.2586 88.7032 52.4942 87.9312 51.5516 87.9312C50.609 87.9312 49.8446 88.7032 49.8446 89.6554V96.5519H53.2586Z" fill="#707487"/>
<path d="M58.3793 81.0345C57.4367 81.0345 56.6723 80.2624 56.6723 79.3102V10.3448C56.6723 9.39268 57.4367 8.62061 58.3793 8.62061C59.3219 8.62061 60.0863 9.39268 60.0863 10.3448V79.3102C60.0863 80.2624 59.3219 81.0345 58.3793 81.0345Z" fill="#8F96AC"/>
<path d="M60.0863 96.5519V89.6554C60.0863 88.7032 59.3219 87.9312 58.3793 87.9312C57.4367 87.9312 56.6723 88.7032 56.6723 89.6554V96.5519H60.0863Z" fill="#707487"/>
<path d="M65.207 81.0345C64.2644 81.0345 63.5 80.2624 63.5 79.3102V10.3448C63.5 9.39268 64.2644 8.62061 65.207 8.62061C66.1496 8.62061 66.914 9.39268 66.914 10.3448V79.3102C66.9138 80.2624 66.1496 81.0345 65.207 81.0345Z" fill="#8F96AC"/>
<path d="M66.9138 96.5519V89.6554C66.9138 88.7032 66.1494 87.9312 65.2068 87.9312C64.2642 87.9312 63.5 88.703 63.5 89.6552V96.5517H66.9138V96.5519Z" fill="#707487"/>
<path d="M72.0345 81.0345C71.0919 81.0345 70.3275 80.2624 70.3275 79.3102V10.3448C70.3275 9.39268 71.0919 8.62061 72.0345 8.62061C72.9771 8.62061 73.7415 9.39268 73.7415 10.3448V79.3102C73.7415 80.2624 72.9771 81.0345 72.0345 81.0345Z" fill="#8F96AC"/>
<path d="M73.7415 96.5519V89.6554C73.7415 88.7032 72.9771 87.9312 72.0345 87.9312C71.0919 87.9312 70.3275 88.7032 70.3275 89.6554V96.5519H73.7415Z" fill="#707487"/>
<path d="M32.7758 74.1377H29.362V77.5859H32.7758V74.1377Z" fill="#707487"/>
<path d="M39.6035 74.1377H36.1897V77.5859H39.6035V74.1377Z" fill="#707487"/>
<path d="M46.431 74.1377H43.0172V77.5859H46.431V74.1377Z" fill="#707487"/>
<path d="M53.2585 74.1377H49.8448V77.5859H53.2585V74.1377Z" fill="#707487"/>
<path d="M60.0862 74.1377H56.6725V77.5859H60.0862V74.1377Z" fill="#707487"/>
<path d="M66.9138 74.1377H63.5V77.5859H66.9138V74.1377Z" fill="#707487"/>
<path d="M73.7413 74.1377H70.3275V77.5859H73.7413V74.1377Z" fill="#707487"/>
<path d="M32.7758 63.793H29.362V67.2412H32.7758V63.793Z" fill="#707487"/>
<path d="M39.6035 63.793H36.1897V67.2412H39.6035V63.793Z" fill="#707487"/>
<path d="M46.431 63.793H43.0172V67.2412H46.431V63.793Z" fill="#707487"/>
<path d="M53.2585 63.793H49.8448V67.2412H53.2585V63.793Z" fill="#707487"/>
<path d="M60.0862 63.793H56.6725V67.2412H60.0862V63.793Z" fill="#707487"/>
<path d="M66.9138 63.793H63.5V67.2412H66.9138V63.793Z" fill="#707487"/>
<path d="M73.7413 63.793H70.3275V67.2412H73.7413V63.793Z" fill="#707487"/>
<path d="M32.7758 53.4482H29.362V56.8965H32.7758V53.4482Z" fill="#707487"/>
<path d="M39.6035 53.4482H36.1897V56.8965H39.6035V53.4482Z" fill="#707487"/>
<path d="M46.431 53.4482H43.0172V56.8965H46.431V53.4482Z" fill="#707487"/>
<path d="M53.2585 53.4482H49.8448V56.8965H53.2585V53.4482Z" fill="#707487"/>
<path d="M60.0862 53.4482H56.6725V56.8965H60.0862V53.4482Z" fill="#707487"/>
<path d="M66.9138 53.4482H63.5V56.8965H66.9138V53.4482Z" fill="#707487"/>
<path d="M73.7413 53.4482H70.3275V56.8965H73.7413V53.4482Z" fill="#707487"/>
<path d="M32.7758 43.1035H29.362V46.5518H32.7758V43.1035Z" fill="#707487"/>
<path d="M39.6035 43.1035H36.1897V46.5518H39.6035V43.1035Z" fill="#707487"/>
<path d="M46.431 43.1035H43.0172V46.5518H46.431V43.1035Z" fill="#707487"/>
<path d="M53.2585 43.1035H49.8448V46.5518H53.2585V43.1035Z" fill="#707487"/>
<path d="M60.0862 43.1035H56.6725V46.5518H60.0862V43.1035Z" fill="#707487"/>
<path d="M66.9138 43.1035H63.5V46.5518H66.9138V43.1035Z" fill="#707487"/>
<path d="M73.7413 43.1035H70.3275V46.5518H73.7413V43.1035Z" fill="#707487"/>
<path d="M32.7758 32.7583H29.362V36.2065H32.7758V32.7583Z" fill="#707487"/>
<path d="M39.6035 32.7583H36.1897V36.2065H39.6035V32.7583Z" fill="#707487"/>
<path d="M46.431 32.7583H43.0172V36.2065H46.431V32.7583Z" fill="#707487"/>
<path d="M53.2585 32.7583H49.8448V36.2065H53.2585V32.7583Z" fill="#707487"/>
<path d="M60.0862 32.7583H56.6725V36.2065H60.0862V32.7583Z" fill="#707487"/>
<path d="M66.9138 32.7583H63.5V36.2065H66.9138V32.7583Z" fill="#707487"/>
<path d="M73.7413 32.7583H70.3275V36.2065H73.7413V32.7583Z" fill="#707487"/>
<path d="M32.7758 22.4141H29.362V25.8623H32.7758V22.4141Z" fill="#707487"/>
<path d="M39.6035 22.4141H36.1897V25.8623H39.6035V22.4141Z" fill="#707487"/>
<path d="M46.431 22.4141H43.0172V25.8623H46.431V22.4141Z" fill="#707487"/>
<path d="M53.2585 22.4141H49.8448V25.8623H53.2585V22.4141Z" fill="#707487"/>
<path d="M60.0862 22.4141H56.6725V25.8623H60.0862V22.4141Z" fill="#707487"/>
<path d="M66.9138 22.4141H63.5V25.8623H66.9138V22.4141Z" fill="#707487"/>
<path d="M73.7413 22.4141H70.3275V25.8623H73.7413V22.4141Z" fill="#707487"/>
<path d="M32.7758 12.0688H29.362V15.5171H32.7758V12.0688Z" fill="#707487"/>
<path d="M39.6035 12.0688H36.1897V15.5171H39.6035V12.0688Z" fill="#707487"/>
<path d="M46.431 12.0688H43.0172V15.5171H46.431V12.0688Z" fill="#707487"/>
<path d="M53.2585 12.0688H49.8448V15.5171H53.2585V12.0688Z" fill="#707487"/>
<path d="M60.0862 12.0688H56.6725V15.5171H60.0862V12.0688Z" fill="#707487"/>
<path d="M66.9138 12.0688H63.5V15.5171H66.9138V12.0688Z" fill="#707487"/>
<path d="M73.7413 12.0688H70.3275V15.5171H73.7413V12.0688Z" fill="#707487"/>
<path d="M77.1552 5.17246H25.9482V1.72422C25.9482 0.77207 26.7126 0 27.6552 0H75.4482C76.3909 0 77.1552 0.77207 77.1552 1.72422V5.17246Z" fill="#8F96AC"/>
<path d="M102.759 100H24.2415C23.2988 100 22.5345 99.2281 22.5345 98.276C22.5345 97.3238 23.2988 96.5518 24.2415 96.5518H102.759C103.701 96.5518 104.466 97.3238 104.466 98.276C104.465 99.2281 103.701 100 102.759 100Z" fill="#8F96AC"/>
<path d="M48.5517 26.8623H2.20699C0.98812 26.8623 0.00012207 28.0047 0.00012207 29.414V80.4483C0.00012207 81.8576 0.98812 83 2.20699 83H48.5518C49.7707 83 50.7587 81.8576 50.7587 80.4483V29.414C50.7587 28.0047 49.7704 26.8623 48.5517 26.8623Z" fill="#EFF2FA"/>
<path d="M50.7587 29.414C50.7587 28.0047 49.7706 26.8623 48.5518 26.8623H47.1807L26.5164 50.7554L24.5658 55.7175L23.2239 59.1307C23.013 59.6674 23.4904 60.2193 23.9545 59.9754L26.0585 58.8696L31.1977 56.1684L50.7587 33.5512V29.414Z" fill="#D7DEED"/>
<path d="M14.3449 37.0694H5.51726C4.90788 37.0694 4.41376 36.4981 4.41376 35.7935C4.41376 35.0889 4.90788 34.5176 5.51726 34.5176H14.3449C14.9542 34.5176 15.4484 35.0889 15.4484 35.7935C15.4484 36.4981 14.9542 37.0694 14.3449 37.0694Z" fill="#D7DEED"/>
<path d="M45.2414 37.0694H41.9311C41.3217 37.0694 40.8276 36.4981 40.8276 35.7935C40.8276 35.0889 41.3217 34.5176 41.9311 34.5176H45.2414C45.8508 34.5176 46.3449 35.0889 46.3449 35.7935C46.3448 36.4981 45.8508 37.0694 45.2414 37.0694Z" fill="#D7DEED"/>
<path d="M37.5172 37.0689H18.7587C18.1493 37.0689 17.6552 36.4976 17.6552 35.793C17.6552 35.0884 18.1493 34.5171 18.7587 34.5171H37.5173C38.1267 34.5171 38.6208 35.0884 38.6208 35.793C38.6207 36.4976 38.1267 37.0689 37.5172 37.0689Z" fill="#C7CFE2"/>
<path d="M18.7587 49.8277H5.51726C4.90788 49.8277 4.41376 49.2564 4.41376 48.5518C4.41376 47.8472 4.90788 47.2759 5.51726 47.2759H18.7587C19.3681 47.2759 19.8622 47.8472 19.8622 48.5518C19.8621 49.2564 19.3681 49.8277 18.7587 49.8277Z" fill="#D7DEED"/>
<path d="M13.2415 56.2071H5.51726C4.90788 56.2071 4.41376 55.6358 4.41376 54.9312C4.41376 54.2266 4.90788 53.6553 5.51726 53.6553H13.2414C13.8507 53.6553 14.3449 54.2266 14.3449 54.9312C14.3449 55.6358 13.8509 56.2071 13.2415 56.2071Z" fill="#D7DEED"/>
<path d="M45.2414 56.2071H27.5862C26.9769 56.2071 26.4827 55.6358 26.4827 54.9312C26.4827 54.2266 26.9769 53.6553 27.5862 53.6553H45.2413C45.8507 53.6553 46.3448 54.2266 46.3448 54.9312C46.3448 55.6358 45.8508 56.2071 45.2414 56.2071Z" fill="#D7DEED"/>
<path d="M45.2414 49.8277H36.4138C35.8044 49.8277 35.3103 49.2564 35.3103 48.5518C35.3103 47.8472 35.8044 47.2759 36.4138 47.2759H45.2414C45.8508 47.2759 46.3449 47.8472 46.3449 48.5518C46.3448 49.2564 45.8508 49.8277 45.2414 49.8277Z" fill="#D7DEED"/>
<path d="M32.0001 49.8272H23.1725C22.5631 49.8272 22.069 49.2559 22.069 48.5513C22.069 47.8467 22.5631 47.2754 23.1725 47.2754H32.0001C32.6094 47.2754 33.1036 47.8467 33.1036 48.5513C33.1034 49.256 32.6094 49.8272 32.0001 49.8272Z" fill="#C7CFE2"/>
<path d="M22.069 43.4483H5.51726C4.90788 43.4483 4.41376 42.877 4.41376 42.1724C4.41376 41.4678 4.90788 40.8965 5.51726 40.8965H22.069C22.6784 40.8965 23.1725 41.4678 23.1725 42.1724C23.1725 42.877 22.6784 43.4483 22.069 43.4483Z" fill="#C7CFE2"/>
<path d="M20.9656 56.2071H17.6553C17.0459 56.2071 16.5518 55.6358 16.5518 54.9312C16.5518 54.2266 17.0459 53.6553 17.6553 53.6553H20.9656C21.575 53.6553 22.0691 54.2266 22.0691 54.9312C22.069 55.6358 21.575 56.2071 20.9656 56.2071Z" fill="#C7CFE2"/>
<path d="M9.93112 62.5865H5.51738C4.908 62.5865 4.41388 62.0152 4.41388 61.3106C4.41388 60.606 4.908 60.0347 5.51738 60.0347H9.93112C10.5405 60.0347 11.0346 60.606 11.0346 61.3106C11.0345 62.0152 10.5405 62.5865 9.93112 62.5865Z" fill="#D7DEED"/>
<path d="M30.8966 68.9659H26.4828C25.8735 68.9659 25.3793 68.3946 25.3793 67.69C25.3793 66.9854 25.8735 66.4141 26.4828 66.4141H30.8966C31.5059 66.4141 32.0001 66.9854 32.0001 67.69C32.0001 68.3946 31.5059 68.9659 30.8966 68.9659Z" fill="#D7DEED"/>
<path d="M45.2414 68.9659H35.3105C34.7011 68.9659 34.207 68.3946 34.207 67.69C34.207 66.9854 34.7011 66.4141 35.3105 66.4141H45.2414C45.8508 66.4141 46.3449 66.9854 46.3449 67.69C46.3448 68.3946 45.8508 68.9659 45.2414 68.9659Z" fill="#D7DEED"/>
<path d="M45.2414 62.5865H40.8277C40.2183 62.5865 39.7242 62.0152 39.7242 61.3106C39.7242 60.606 40.2183 60.0347 40.8277 60.0347H45.2414C45.8508 60.0347 46.3449 60.606 46.3449 61.3106C46.3448 62.0152 45.8508 62.5865 45.2414 62.5865Z" fill="#D7DEED"/>
<path d="M36.4138 62.5865H14.3448C13.7355 62.5865 13.2413 62.0152 13.2413 61.3106C13.2413 60.606 13.7355 60.0347 14.3448 60.0347H36.4138C37.0232 60.0347 37.5173 60.606 37.5173 61.3106C37.5172 62.0152 37.0232 62.5865 36.4138 62.5865Z" fill="#C7CFE2"/>
<path d="M18.7587 75.3448H5.51726C4.90788 75.3448 4.41376 74.7735 4.41376 74.0689C4.41376 73.3643 4.90788 72.793 5.51726 72.793H18.7587C19.3681 72.793 19.8622 73.3643 19.8622 74.0689C19.8621 74.7735 19.3681 75.3448 18.7587 75.3448Z" fill="#D7DEED"/>
<path d="M45.2414 75.3448H37.5173C36.9079 75.3448 36.4138 74.7735 36.4138 74.0689C36.4138 73.3643 36.9079 72.793 37.5173 72.793H45.2414C45.8508 72.793 46.3449 73.3643 46.3449 74.0689C46.3448 74.7735 45.8508 75.3448 45.2414 75.3448Z" fill="#D7DEED"/>
<path d="M33.1034 75.3448H23.1725C22.5631 75.3448 22.069 74.7735 22.069 74.0689C22.069 73.3643 22.5631 72.793 23.1725 72.793H33.1034C33.7128 72.793 34.2069 73.3643 34.2069 74.0689C34.2069 74.7735 33.7128 75.3448 33.1034 75.3448Z" fill="#C7CFE2"/>
<path d="M22.069 68.9654H5.51726C4.90788 68.9654 4.41376 68.3941 4.41376 67.6895C4.41376 66.9849 4.90788 66.4136 5.51726 66.4136H22.069C22.6784 66.4136 23.1725 66.9849 23.1725 67.6895C23.1725 68.3941 22.6784 68.9654 22.069 68.9654Z" fill="#C7CFE2"/>
<path d="M45.2414 43.4483H26.4828C25.8735 43.4483 25.3793 42.877 25.3793 42.1724C25.3793 41.4678 25.8735 40.8965 26.4828 40.8965H45.2414C45.8508 40.8965 46.3449 41.4678 46.3449 42.1724C46.3448 42.877 45.8508 43.4483 45.2414 43.4483Z" fill="#D7DEED"/>
<path d="M26.2253 47.2642L28.5661 49.9707L59.7757 13.8846L57.4349 11.1781L26.2253 47.2642Z" fill="#FFC36E"/>
<path d="M28.5659 49.9707L30.9067 52.6772L62.1163 16.5912L59.7755 13.8847L28.5659 49.9707Z" fill="#FFD782"/>
<path d="M62.1163 16.5909L57.4348 11.178L58.9953 9.37365C59.4261 8.87545 60.1249 8.87545 60.5558 9.37365L63.6768 12.9823C64.1076 13.4805 64.1076 14.2884 63.6768 14.7866L62.1163 16.5909Z" fill="#EFF2FA"/>
<path d="M59.7753 13.8845L57.4346 11.178L58.9951 9.37365C59.4259 8.87545 60.1247 8.87545 60.5556 9.37365L62.1161 11.178L59.7753 13.8845Z" fill="#D7DEED"/>
<path d="M24.8276 54.2928L28.5654 49.971L26.2245 47.2646L23.8884 53.2069L24.8276 54.2928Z" fill="#D7DEED"/>
<path d="M25.7668 55.3794L30.9061 52.6783L28.5654 49.9717L24.8276 54.2934L25.7668 55.3794Z" fill="white"/>
<path d="M23.6627 56.4851L26.6147 54.9337L24.2738 52.2271L22.9321 55.6403C22.7211 56.1769 23.1984 56.729 23.6627 56.4851Z" fill="#707487"/>
</svg>
