<svg width="23" height="12" viewBox="0 0 23 12" fill="none" xmlns="http://www.w3.org/2000/svg">
<path d="M22.7365 5.31498C22.7362 5.31469 22.736 5.31435 22.7357 5.31406L18.0412 0.281803C17.6895 -0.0951806 17.1206 -0.0937777 16.7705 0.285093C16.4205 0.663916 16.4219 1.27664 16.7736 1.65367L19.9254 5.03226H0.898437C0.40223 5.03226 0 5.46552 0 6C0 6.53448 0.40223 6.96774 0.898437 6.96774H19.9254L16.7736 10.3463C16.4219 10.7234 16.4206 11.3361 16.7706 11.7149C17.1207 12.0938 17.6896 12.0951 18.0412 11.7182L22.7357 6.68594C22.736 6.68565 22.7362 6.68531 22.7365 6.68502C23.0884 6.30673 23.0873 5.69202 22.7365 5.31498Z" fill="#525252"/>
</svg>
