<svg width="24" height="23" viewBox="0 0 24 23" fill="none" xmlns="http://www.w3.org/2000/svg">
<path d="M23.6254 4.14502C23.3159 3.72998 22.8552 3.49219 22.3621 3.49219H4.75373L4.59649 2.27266C4.48513 1.40908 3.79353 0.757812 2.98772 0.757812H1.60718C1.2085 0.757812 0.885254 1.10757 0.885254 1.53906C0.885254 1.97056 1.2085 2.32031 1.60718 2.32031H2.98772C3.07724 2.32031 3.15413 2.39268 3.16645 2.48862L3.40964 4.3748C3.40991 4.377 3.40987 4.37915 3.41014 4.38135L4.8206 15.3188C4.82074 15.3198 4.82096 15.3207 4.8211 15.3216L5.11515 17.6023C5.22655 18.4659 5.91815 19.1172 6.72395 19.1172H7.50675C7.42661 19.3617 7.38258 19.6246 7.38258 19.8984C7.38258 21.1908 8.35415 22.2422 9.54835 22.2422C10.7425 22.2422 11.7141 21.1908 11.7141 19.8984C11.7141 19.6246 11.6701 19.3617 11.59 19.1172H15.4479C15.3678 19.3617 15.3237 19.6246 15.3237 19.8984C15.3237 21.1908 16.2953 22.2422 17.4895 22.2422C18.6837 22.2422 19.6553 21.1908 19.6553 19.8984C19.6553 19.6246 19.6113 19.3617 19.5311 19.1172H21.0991C21.4978 19.1172 21.8211 18.7674 21.8211 18.3359C21.8211 17.9045 21.4978 17.5547 21.0991 17.5547H6.72395C6.63444 17.5547 6.55755 17.4823 6.54523 17.3864L6.36543 15.9922H20.583C21.3437 15.9922 22.0115 15.4077 22.1717 14.6025L23.9503 5.61865C24.0536 5.09668 23.9354 4.56006 23.6254 4.14502ZM22.529 5.98911L21.0851 13.8016C21.0165 14.173 20.715 14.4298 20.378 14.4298C20.331 14.4298 20.2834 14.4248 20.2356 14.4145C19.8447 14.3299 19.5911 13.9183 19.6693 13.4952L21.1131 5.68271C21.1913 5.25957 21.5717 4.98511 21.9626 5.06982C22.3536 5.15449 22.6072 5.56602 22.529 5.98911Z" fill="#30A6EA"/>
</svg>
