<svg width="39" height="17" viewBox="0 0 39 17" fill="none" xmlns="http://www.w3.org/2000/svg">
<path d="M26.9688 0L28.9844 2.01562H37C37.5312 2.01562 37.9844 2.21875 38.3594 2.625C38.7656 3.03125 38.9688 3.5 38.9688 4.03125V14.0156C38.9688 14.5469 38.7656 15.0156 38.3594 15.4219C37.9844 15.8281 37.5312 16.0312 37 16.0312H20.9688C20.4375 16.0312 19.9688 15.8281 19.5625 15.4219C19.1875 15.0156 19 14.5469 19 14.0156V2.01562C19 1.48438 19.1875 1.01562 19.5625 0.609375C19.9688 0.203125 20.4375 0 20.9688 0H26.9688Z" fill="#666666"/>
<path d="M7.78292 1.64078V7.28815L13.4303 7.28815V8.71185L7.78292 8.71185V14.3592L6.35922 14.3592L6.35922 8.71185L0.711853 8.71185V7.28815L6.35922 7.28815L6.35922 1.64078L7.78292 1.64078Z" fill="#666666"/>
</svg>
