<svg width="12" height="12" viewBox="0 0 12 12" fill="none" xmlns="http://www.w3.org/2000/svg">
<path fill-rule="evenodd" clip-rule="evenodd" d="M11.6549 1.49372C11.9869 1.15201 11.9869 0.597991 11.6549 0.256281C11.3229 -0.0854272 10.7845 -0.0854272 10.4524 0.256281L5.95198 4.88757L1.45153 0.256281C1.11947 -0.0854272 0.581098 -0.0854272 0.249042 0.256281C-0.083014 0.597991 -0.083014 1.15201 0.249042 1.49372L5.35073 6.74372C5.6828 7.08543 6.22116 7.08543 6.55322 6.74372L11.6549 1.49372Z" fill="#303030"/>
<path fill-rule="evenodd" clip-rule="evenodd" d="M0.249389 10.5063C-0.0826463 10.848 -0.0826463 11.402 0.249389 11.7437C0.581425 12.0854 1.11982 12.0854 1.45186 11.7437L5.95232 7.11243L10.4528 11.7437C10.7848 12.0854 11.3232 12.0854 11.6553 11.7437C11.9873 11.402 11.9873 10.848 11.6553 10.5063L6.55356 5.25628C6.2215 4.91457 5.68314 4.91457 5.35108 5.25628L0.249389 10.5063Z" fill="#303030"/>
</svg>
