<svg width="25" height="25" viewBox="0 0 25 25" fill="none" xmlns="http://www.w3.org/2000/svg">
<path d="M10.9467 9.72275C10.9982 10.0836 11.3073 10.3516 11.6717 10.3516H13.3309C13.6954 10.3516 14.0045 10.0836 14.056 9.72275L14.8233 4.35166C14.8863 3.9104 14.544 3.51562 14.0983 3.51562H10.9044C10.4587 3.51562 10.1163 3.9104 10.1794 4.35161L10.9467 9.72275Z" fill="#30A6EA"/>
<path d="M7.25049 17.6758C5.58257 17.6758 4.21104 18.969 4.08594 20.6055H10.415C10.2899 18.9691 8.91841 17.6758 7.25049 17.6758Z" fill="#30A6EA"/>
<path d="M22.3145 7.91016H15.7933L15.5048 9.92988C15.3512 11.0054 14.416 11.8164 13.3296 11.8164H11.6704C10.584 11.8164 9.64888 11.0054 9.49522 9.92983L9.20669 7.91016H2.68555C1.20474 7.91016 0 9.11489 0 10.5957V22.3145C0 23.7953 1.20474 25 2.68555 25H22.3145C23.7953 25 25 23.7953 25 22.3145V10.5957C25 9.11489 23.7953 7.91016 22.3145 7.91016ZM11.8896 21.3379C11.8896 21.7424 11.5617 22.0703 11.1572 22.0703H3.34473C2.94023 22.0703 2.6123 21.7424 2.6123 21.3379V20.8496C2.6123 19.0655 3.62485 17.5138 5.10532 16.738C4.61929 16.2149 4.32129 15.5148 4.32129 14.7461C4.32129 13.1307 5.63555 11.8164 7.25098 11.8164C8.86641 11.8164 10.1807 13.1307 10.1807 14.7461C10.1807 15.5148 9.88267 16.2149 9.39663 16.738C10.8771 17.5138 11.8896 19.0656 11.8896 20.8496V21.3379ZM21.167 13.7695C21.5715 13.7695 21.8994 14.0975 21.8994 14.502C21.8994 14.9064 21.5715 15.2344 21.167 15.2344C20.7625 15.2344 20.4346 14.9064 20.4346 14.502C20.4346 14.0975 20.7625 13.7695 21.167 13.7695ZM18.2373 13.7695C18.6418 13.7695 18.9697 14.0975 18.9697 14.502C18.9697 14.9064 18.6418 15.2344 18.2373 15.2344C17.8328 15.2344 17.5049 14.9064 17.5049 14.502C17.5049 14.0975 17.8328 13.7695 18.2373 13.7695ZM15.3076 13.7695C15.7121 13.7695 16.04 14.0975 16.04 14.502C16.04 14.9064 15.7121 15.2344 15.3076 15.2344C14.9031 15.2344 14.5752 14.9064 14.5752 14.502C14.5752 14.0975 14.9031 13.7695 15.3076 13.7695ZM21.6553 21.0938H14.8193C14.4148 21.0938 14.0869 20.7658 14.0869 20.3613C14.0869 19.9568 14.4148 19.6289 14.8193 19.6289H21.6553C22.0598 19.6289 22.3877 19.9568 22.3877 20.3613C22.3877 20.7658 22.0598 21.0938 21.6553 21.0938ZM21.6553 18.1641H14.8193C14.4148 18.1641 14.0869 17.8361 14.0869 17.4316C14.0869 17.0271 14.4148 16.6992 14.8193 16.6992H21.6553C22.0598 16.6992 22.3877 17.0271 22.3877 17.4316C22.3877 17.8361 22.0598 18.1641 21.6553 18.1641Z" fill="#30A6EA"/>
<path d="M7.25 16.2109C8.05901 16.2109 8.71484 15.5551 8.71484 14.7461C8.71484 13.9371 8.05901 13.2812 7.25 13.2812C6.44099 13.2812 5.78516 13.9371 5.78516 14.7461C5.78516 15.5551 6.44099 16.2109 7.25 16.2109Z" fill="#30A6EA"/>
<path d="M8.9262 5.9468L8.70457 4.39529C5.90447 3.71116 3.36917 2.28455 1.29915 0.214526C1.01316 -0.0715088 0.54939 -0.0715088 0.263354 0.214526C-0.0226807 0.500513 -0.0226807 0.964282 0.263354 1.25032C2.66482 3.65183 5.64002 5.26018 8.9262 5.9468Z" fill="#30A6EA"/>
<path d="M24.7371 0.214526C24.4511 -0.0715088 23.9873 -0.0715088 23.7013 0.214526C21.6312 2.28459 19.0959 3.71116 16.2958 4.39529L16.0742 5.9468C19.3604 5.26023 22.3356 3.65183 24.7371 1.25032C25.0231 0.964282 25.0231 0.500513 24.7371 0.214526Z" fill="#30A6EA"/>
</svg>
