<svg width="25" height="25" viewBox="0 0 25 25" fill="none" xmlns="http://www.w3.org/2000/svg">
<g clip-path="url(#clip0)">
<path d="M17.627 19.9763V17.0466H16.1621V15.5817H17.627V12.6521H25V8.25752C17.1564 8.25752 6.80547 8.25752 1.46484 8.25752C0.928857 8.25752 0.432617 8.10239 0 7.8501V22.1735C0 23.3852 0.985645 24.3708 2.19727 24.3708H25V19.9763H17.627Z" fill="#30A6EA"/>
<path d="M25 14.1167H19.0918V15.5815H20.5566V17.0464H19.0918V18.5112H25V14.1167Z" fill="#30A6EA"/>
<path d="M13.1881 2.78306L11.0349 0.629883L8.88281 2.78198C9.29609 5.13535 12.7676 5.17222 13.1881 2.78306Z" fill="#30A6EA"/>
<path d="M14.3385 3.93262C13.6874 5.33842 12.3701 6.06005 11.0357 6.06005C9.69814 6.06005 8.37891 5.33691 7.72969 3.93584L4.87305 6.79247H17.1983L14.3385 3.93262Z" fill="#30A6EA"/>
<path d="M2.80112 6.79247L5.73081 3.86279H1.46484C0.65581 3.86279 0 4.5186 0 5.32763C0 6.13666 0.65581 6.79247 1.46484 6.79247H2.80112Z" fill="#30A6EA"/>
<path d="M19.8246 3.86279H16.3398L19.2695 6.79247H22.0218V6.06005C22.0218 4.84658 21.0381 3.86279 19.8246 3.86279Z" fill="#30A6EA"/>
</g>
<defs>
<clipPath id="clip0">
<rect width="25" height="25" fill="white"/>
</clipPath>
</defs>
</svg>
