<?xml version="1.0" encoding="utf-8"?>
<!-- Generator: Adobe Illustrator 23.1.0, SVG Export Plug-In . SVG Version: 6.00 Build 0)  -->
<!DOCTYPE svg PUBLIC "-//W3C//DTD SVG 1.1//EN" "http://www.w3.org/Graphics/SVG/1.1/DTD/svg11.dtd" [
	<!ENTITY ns_extend "http://ns.adobe.com/Extensibility/1.0/">
	<!ENTITY ns_ai "http://ns.adobe.com/AdobeIllustrator/10.0/">
	<!ENTITY ns_graphs "http://ns.adobe.com/Graphs/1.0/">
	<!ENTITY ns_vars "http://ns.adobe.com/Variables/1.0/">
	<!ENTITY ns_imrep "http://ns.adobe.com/ImageReplacement/1.0/">
	<!ENTITY ns_sfw "http://ns.adobe.com/SaveForWeb/1.0/">
	<!ENTITY ns_custom "http://ns.adobe.com/GenericCustomNamespace/1.0/">
	<!ENTITY ns_adobe_xpath "http://ns.adobe.com/XPath/1.0/">
]>
<svg version="1.1" id="Слой_1" xmlns:x="&ns_extend;" xmlns:i="&ns_ai;" xmlns:graph="&ns_graphs;"
	 xmlns="http://www.w3.org/2000/svg" xmlns:xlink="http://www.w3.org/1999/xlink" x="0px" y="0px" viewBox="0 0 141 121.4"
	 style="enable-background:new 0 0 141 121.4;" xml:space="preserve">
<metadata>
	<sfw  xmlns="&ns_sfw;">
		<slices></slices>
		<sliceSourceBounds  bottomLeftOrigin="true" height="146.6" width="140" x="0.1" y="0"></sliceSourceBounds>
	</sfw>
</metadata>
<g>
	<defs>
		<rect id="SVGID_1_" x="0.1" y="-3.3" width="140" height="128"/>
	</defs>
	<clipPath id="SVGID_2_">
		<use xlink:href="#SVGID_1_"  style="overflow:visible;"/>
	</clipPath>
	<g style="clip-path:url(#SVGID_2_);">
		<path style="fill:#AFB6BB;" d="M96.1,114.8h-52c-0.5,0-0.8-0.7-0.3-1l4.4-2.8c4.7-3,6.9-8.6,5.6-13.9h32.8v0
			c-1.4,5.3,0.9,10.9,5.6,13.9l4.4,2.8C96.8,114.1,96.6,114.8,96.1,114.8z"/>
		<path style="fill:#E7ECED;" d="M131.6,97.1H8.5c-4.7,0-8.4-3.5-8.4-7.7V7.7C0.1,3.5,3.9,0,8.5,0h123.1c4.7,0,8.4,3.5,8.4,7.7v81.7
			C140.1,93.6,136.3,97.1,131.6,97.1z"/>
		<path style="fill:#38454F;" d="M140.1,77.2H0.1V7.7C0.1,3.5,3.9,0,8.5,0h123.1c4.7,0,8.4,3.5,8.4,7.7V77.2z"/>
		<path style="fill:#E7ECED;" d="M97.8,121.4H42.3c-2,0-3.6-1.5-3.6-3.3c0-1.8,1.6-3.3,3.6-3.3h55.5c2,0,3.6,1.5,3.6,3.3
			C101.5,119.9,99.8,121.4,97.8,121.4z"/>
		<g>
			<defs>
				<rect id="SVGID_3_" x="24.2" y="6" width="93.6" height="93.7"/>
			</defs>
			<clipPath id="SVGID_4_">
				<use xlink:href="#SVGID_3_"  style="overflow:visible;"/>
			</clipPath>
			<g style="clip-path:url(#SVGID_4_);">
				<path style="fill:#EAB14D;" d="M67,63.7c23.6,0,42.8-19.2,42.8-42.8c0-23.6-19.2-42.8-42.8-42.8c-23.6,0-42.8,19.2-42.8,42.8
					C24.2,44.6,43.3,63.7,67,63.7z"/>
				<path style="fill:#F6F9F9;" d="M102.3,20.9c0,0.9,0,1.8-0.1,2.7c-0.1,0.9-0.2,1.8-0.3,2.7C99.2,43.3,84.6,56.2,67,56.2
					c-17.6,0-32.3-13-34.9-29.9c0.1-0.4,0.2-1.4,0.2-1.4s-0.4-1-0.5-1.4c-0.1-0.9-0.1-1.8-0.1-2.7c0-19.5,15.8-35.3,35.3-35.3
					C86.5-14.4,102.3,1.4,102.3,20.9z"/>
				<path style="fill:#E7ECF1;" d="M67-14.4c-2,0-3.9,0.2-5.8,0.5c16.7,2.8,29.4,17.3,29.4,34.8c0,17.5-12.7,32-29.4,34.8
					c1.9,0.3,3.9,0.5,5.8,0.5c19.5,0,35.3-15.8,35.3-35.3C102.3,1.4,86.5-14.4,67-14.4z"/>
				<path style="fill:#FC8086;" d="M67,22.3c-0.4,0-0.7-0.1-1-0.4s-0.4-0.6-0.4-1V-2.3c0-0.8,0.6-1.4,1.4-1.4c0.8,0,1.4,0.6,1.4,1.4
					v21.8l13.5,0h0c0.8,0,1.4,0.6,1.4,1.4c0,0.8-0.6,1.4-1.4,1.4L67,22.3C67,22.3,67,22.3,67,22.3z"/>
				<path style="fill:#F6E266;" d="M67,24.9c2.2,0,3.9-1.8,3.9-3.9c0-2.2-1.8-3.9-3.9-3.9c-2.2,0-3.9,1.8-3.9,3.9
					C63,23.1,64.8,24.9,67,24.9z"/>
				<path style="fill:#C2D0DA;" d="M43.7,42.2L41,44.9c0.6,0.7,1.3,1.4,2,2l2.7-2.7c0.6-0.6,0.6-1.4,0-2
					C45.2,41.6,44.3,41.6,43.7,42.2z"/>
				<path style="fill:#78D0B1;" d="M104.8,69.1V36.8c0-1.5-1.2-2.8-2.8-2.8H55.4c-1.5,0-2.8,1.2-2.8,2.8v32.3c0,1.5,1.2,2.8,2.8,2.8
					h46.6C103.6,71.8,104.8,70.6,104.8,69.1z"/>
				<path style="fill:#66B49D;" d="M113.4,34h-11.6c1.5,0,2.8,1.2,2.8,2.8v32.3c0,1.5-1.2,2.8-2.8,2.8h11.6c1.5,0,2.8-1.2,2.8-2.8
					V36.8C116.2,35.3,114.9,34,113.4,34z"/>
				<path style="fill:#B9F6D3;" d="M106.2,39c0.5,0,0.9,0.2,1.2,0.6c0.8,1.3,1.9,2.4,3.2,3.2c0.4,0.3,0.6,0.7,0.6,1.2v17.8
					c0,0.5-0.2,0.9-0.6,1.2c-1.3,0.8-2.4,1.9-3.2,3.2c-0.2,0.4-0.7,0.6-1.2,0.6H62.7c-0.5,0-0.9-0.2-1.2-0.6c-0.8-1.3-2-2.4-3.3-3.3
					c-0.4-0.2-0.6-0.7-0.6-1.2V44c0-0.5,0.2-0.9,0.6-1.2c1.3-0.8,2.4-1.9,3.3-3.2c0.2-0.4,0.7-0.6,1.2-0.6H106.2z"/>
				<path style="fill:#C2D0DA;" d="M36.5,23.6h-4.7c0.1,0.9,0.2,1.8,0.3,2.7h4.4c0.8,0,1.4-0.6,1.4-1.4
					C37.9,24.2,37.3,23.6,36.5,23.6z"/>
				<path style="fill:#C2D0DA;" d="M97.6,23.6c-0.8,0-1.4,0.6-1.4,1.4c0,0.8,0.6,1.4,1.4,1.4h4.2c0.1-0.9,0.2-1.8,0.3-2.7H97.6z"/>
				<path style="fill:#A2F4C1;" d="M110.5,42.8c-1.3-0.8-2.4-1.9-3.2-3.2c-0.3-0.4-0.7-0.6-1.2-0.6h-1.6v27.8h1.6
					c0.5,0,0.9-0.2,1.2-0.6c0.8-1.3,1.9-2.4,3.2-3.2c0.4-0.2,0.6-0.7,0.6-1.2V44C111.2,43.5,110.9,43.1,110.5,42.8z"/>
				<path style="fill:#66B49D;" d="M86.6,58.9h-3.9v3.2h-2.2v-3.2H78V57h2.4v-1.6H78v-1.8h2.4V45h6.3c1.8,0,3.3,0.5,4.3,1.4
					c1.1,0.9,1.6,2.2,1.6,3.8c0,1.7-0.5,2.9-1.5,3.9c-1,0.9-2.5,1.4-4.4,1.4h-4.1V57h3.9V58.9z M82.6,53.6h4.1
					c1.2,0,2.1-0.3,2.8-0.9c0.6-0.6,0.9-1.4,0.9-2.5c0-1-0.3-1.8-1-2.4c-0.7-0.6-1.5-0.9-2.7-0.9h-4.1V53.6z"/>
			</g>
		</g>
	</g>
</g>
</svg>
