<?xml version="1.0" encoding="utf-8"?>
<!-- Generator: Adobe Illustrator 23.1.0, SVG Export Plug-In . SVG Version: 6.00 Build 0)  -->
<!DOCTYPE svg PUBLIC "-//W3C//DTD SVG 1.1//EN" "http://www.w3.org/Graphics/SVG/1.1/DTD/svg11.dtd" [
	<!ENTITY ns_extend "http://ns.adobe.com/Extensibility/1.0/">
	<!ENTITY ns_ai "http://ns.adobe.com/AdobeIllustrator/10.0/">
	<!ENTITY ns_graphs "http://ns.adobe.com/Graphs/1.0/">
	<!ENTITY ns_vars "http://ns.adobe.com/Variables/1.0/">
	<!ENTITY ns_imrep "http://ns.adobe.com/ImageReplacement/1.0/">
	<!ENTITY ns_sfw "http://ns.adobe.com/SaveForWeb/1.0/">
	<!ENTITY ns_custom "http://ns.adobe.com/GenericCustomNamespace/1.0/">
	<!ENTITY ns_adobe_xpath "http://ns.adobe.com/XPath/1.0/">
]>
<svg version="1.1" id="Слой_1" xmlns:x="&ns_extend;" xmlns:i="&ns_ai;" xmlns:graph="&ns_graphs;"
	 xmlns="http://www.w3.org/2000/svg" xmlns:xlink="http://www.w3.org/1999/xlink" x="0px" y="0px" viewBox="0 0 140 121.4"
	 style="enable-background:new 0 0 140 121.4;" xml:space="preserve">
<metadata>
	<sfw  xmlns="&ns_sfw;">
		<slices></slices>
		<sliceSourceBounds  bottomLeftOrigin="true" height="142.4" width="140" x="0" y="3.6"></sliceSourceBounds>
	</sfw>
</metadata>
<path style="fill:#AFB6BB;" d="M96,114.8H44c-0.5,0-0.8-0.7-0.3-1l4.4-2.8c4.7-3,6.9-8.6,5.6-13.9h32.8v0C85,102.4,87.3,108,92,111
	l4.4,2.8C96.8,114.1,96.5,114.8,96,114.8z"/>
<path style="fill:#E7ECED;" d="M131.6,97.1H8.4c-4.7,0-8.4-3.5-8.4-7.7V7.7C0,3.5,3.8,0,8.4,0h123.1c4.7,0,8.4,3.5,8.4,7.7v81.7
	C140,93.6,136.2,97.1,131.6,97.1z"/>
<path style="fill:#38454F;" d="M140,77.2H0V7.7C0,3.5,3.8,0,8.4,0h123.1c4.7,0,8.4,3.5,8.4,7.7V77.2z"/>
<path style="fill:#E7ECED;" d="M97.8,121.4H42.2c-2,0-3.6-1.5-3.6-3.3c0-1.8,1.6-3.3,3.6-3.3h55.5c2,0,3.6,1.5,3.6,3.3
	C101.4,119.9,99.8,121.4,97.8,121.4z"/>
<g>
	<defs>
		<rect id="SVGID_1_" x="24.1" y="6" width="93.6" height="93.7"/>
	</defs>
	<clipPath id="SVGID_2_">
		<use xlink:href="#SVGID_1_"  style="overflow:visible;"/>
	</clipPath>
	<g style="clip-path:url(#SVGID_2_);">
		<g>
			<defs>
				<rect id="SVGID_3_" x="13.1" y="-21" width="112" height="99"/>
			</defs>
			<clipPath id="SVGID_4_">
				<use xlink:href="#SVGID_3_"  style="overflow:visible;"/>
			</clipPath>
			<g style="clip-path:url(#SVGID_4_);">
				<path style="fill:#DDEAFB;" d="M122.3,40H29c-1.6,0-2.9-0.7-2.9-1.5S27.4,37,29,37h93.3c1.6,0,2.9,0.7,2.9,1.5
					S123.8,40,122.3,40z"/>
				<path style="fill:#DDEAFB;" d="M122.3,22H29c-1.6,0-2.9-0.7-2.9-1.5c0-0.8,1.3-1.5,2.9-1.5h93.3c1.6,0,2.9,0.7,2.9,1.5
					C125.1,21.3,123.8,22,122.3,22z"/>
				<path style="fill:#DDEAFB;" d="M122.3,49H29c-1.6,0-2.9-0.7-2.9-1.5S27.4,46,29,46h93.3c1.6,0,2.9,0.7,2.9,1.5
					S123.8,49,122.3,49z"/>
				<path style="fill:#DDEAFB;" d="M122.3,31H29c-1.6,0-2.9-0.7-2.9-1.5S27.4,28,29,28h93.3c1.6,0,2.9,0.7,2.9,1.5
					S123.8,31,122.3,31z"/>
				<path style="fill:#8C9BA6;" d="M118,45c-0.3,0-0.5-0.1-0.7-0.3c-0.5-0.4-0.6-1.2-0.2-1.7l5.5-7.3c0.2-0.3,0.2-0.8-0.1-1
					l-5.6-4.7c-0.5-0.4-0.6-1.2-0.2-1.7c0.4-0.5,1.1-0.6,1.7-0.2l5.6,4.7c1.3,1.1,1.5,3.1,0.5,4.5l-5.5,7.3
					C118.7,44.8,118.3,45,118,45z"/>
				<path style="fill:#C2D0DA;" d="M95.9,59.7l-3.5-2.9c-1.6,2.2-3.2,3-5,3.1c-0.1,0-0.3,0.1-0.3,0.3L86.4,68c0,0.4,0.3,0.7,0.6,0.5
					l7-2.6c0.1,0,0.2-0.2,0.2-0.3C93.9,63.8,94.3,61.9,95.9,59.7z"/>
				<path style="fill:#7C8B96;" d="M118.6,31.4l-3.6-2.9l-2.1,0.2l-10.2,11.6c-2.3,2.7-4.4,5.5-6.2,8.6l-4.3,7.2
					c-0.4,0.6-0.2,1.4,0.3,1.8l3,2.5c0.5,0.4,1.3,0.4,1.8-0.1l5.9-5.9c2.5-2.5,4.8-5.2,6.8-8.2l8.8-12.7L118.6,31.4z"/>
				<path style="fill:#7C8B96;" d="M122.3,22.2c-1.3-1.2-3.2-1-4.3,0.4l-2.4,3.1l-0.1,1.8l3.6,3.3l1.6-0.4l2.1-3.4
					C123.9,25.5,123.6,23.4,122.3,22.2z"/>
				<path style="fill:#C2D0DA;" d="M112.5,29l6,5l2.7-4l-5.6-4.7L112.5,29z"/>
				<path style="fill:#7C8B96;" d="M91.7,63.5c0.4-0.5,0.3-1.3-0.2-1.8c-0.5-0.4-1.2-0.3-1.6,0.2l-3.3,4.5l-0.1,1.5
					c0,0.4,0.3,0.7,0.7,0.6l1.3-0.5L91.7,63.5z"/>
				<path style="fill:#DDEAFB;" d="M76.4,69.3c-1.5,0-3.4-0.3-4.7-1.2c-1-0.7-1.1-0.7-1.9-0.3c-1,0.4-2.4,1-5.5,0.8
					c-1.1-0.1-2-0.4-2.8-1c-1.4,0.7-2.5,1.1-2.6,1.1c-0.6,0.2-1.3-0.1-1.6-0.7c-0.2-0.6,0.1-1.3,0.7-1.5c0,0,0.8-0.3,1.9-0.8
					c-0.1-0.3-0.2-0.5-0.3-0.8c-0.8-2.4-0.2-5.1,1.5-6.4c0.8-0.6,2.5-1.5,5-0.1c1.9,1.1,2.3,2.4,2.2,3.2c-0.1,1.5-1.5,3-4.1,4.6
					c0.1,0,0.2,0,0.3,0c2.5,0.2,3.5-0.3,4.4-0.6c1.3-0.5,2.3-0.8,4.2,0.6c1.3,0.9,3.8,0.9,4.8,0.6c0.7-0.1,1.3,0.3,1.4,0.9
					c0.1,0.6-0.3,1.3-0.9,1.4C77.9,69.2,77.2,69.3,76.4,69.3z M63.4,59.9c-0.3,0-0.6,0.1-0.9,0.3c-0.8,0.7-1.1,2.4-0.7,3.8
					c0,0.2,0.1,0.3,0.2,0.5c0,0,0,0,0,0c2.7-1.4,3.7-2.6,3.7-3.1c0-0.4-0.7-0.8-1-1C64.3,60.1,63.9,59.9,63.4,59.9z"/>
			</g>
		</g>
	</g>
</g>
<path style="fill:#EAB14D;" d="M110.9,103.9l-1.9-2.9c-0.2-0.3-0.5-0.4-0.9-0.3l-3.3,0.9c-0.6,0.2-1.2-0.4-0.9-1.1l6.3-16.6l8.5,3.2
	l-6.3,16.6C112.1,104.4,111.3,104.5,110.9,103.9z"/>
<path style="fill:#E7A52E;" d="M120.8,103.9l1.9-2.9c0.2-0.3,0.5-0.4,0.9-0.3l3.3,0.9c0.6,0.2,1.2-0.4,0.9-1.1l-6.3-16.6l-8.5,3.2
	l6.3,16.6C119.7,104.4,120.5,104.5,120.8,103.9z"/>
<path style="fill:#FC8086;" d="M118.3,65.1c0.6,1.5,2.4,2,3.8,1.2c2-1.2,4.4,0.6,3.9,2.8c-0.4,1.5,0.7,3.1,2.3,3.2
	c2.3,0.2,3.3,3,1.5,4.5c-1.2,1-1.2,2.9,0,3.9c1.8,1.5,0.8,4.4-1.5,4.5c-1.6,0.1-2.7,1.6-2.3,3.2c0.5,2.2-1.9,4-3.9,2.8
	c-1.4-0.8-3.2-0.3-3.8,1.2c-0.9,2.1-3.9,2.1-4.8,0c-0.6-1.5-2.4-2-3.8-1.2c-2,1.2-4.4-0.6-3.9-2.8c0.4-1.5-0.7-3.1-2.3-3.2
	c-2.3-0.2-3.3-3-1.5-4.5c1.2-1,1.2-2.9,0-3.9c-1.8-1.5-0.8-4.4,1.5-4.5c1.6-0.1,2.7-1.6,2.3-3.2c-0.5-2.2,1.9-4,3.9-2.8
	c1.4,0.8,3.2,0.3,3.8-1.2C114.4,62.9,117.4,62.9,118.3,65.1z"/>
<path style="fill:#FB636F;" d="M129.8,80.7c-1.2-1-1.2-2.9,0-3.9c1.8-1.5,0.8-4.4-1.5-4.5c-1.6-0.1-2.7-1.6-2.3-3.2
	c0.5-2.2-1.9-4-3.9-2.8c-1.4,0.8-3.1,0.3-3.8-1.2c-0.9-2.1-3.9-2.1-4.8,0c-0.3,0.7-0.8,1.1-1.4,1.4c3.8,2.8,6.3,7.3,6.3,12.3
	c0,5.1-2.5,9.5-6.3,12.3c0.6,0.3,1.1,0.7,1.4,1.4c0.9,2.1,3.9,2.1,4.8,0c0.6-1.5,2.4-2,3.8-1.2c2,1.2,4.4-0.6,3.9-2.8
	c-0.4-1.5,0.7-3.1,2.3-3.2C130.6,85.1,131.6,82.2,129.8,80.7z"/>
<path style="fill:#FDF3C4;" d="M115.9,86.7c4.1,0,7.4-3.3,7.4-7.4c0-4.1-3.3-7.4-7.4-7.4s-7.4,3.3-7.4,7.4
	C108.5,83.3,111.8,86.7,115.9,86.7z"/>
</svg>
