<svg width="25" height="25" viewBox="0 0 25 25" fill="none" xmlns="http://www.w3.org/2000/svg">
<path d="M6.58889 13.315H9.3293V24.5968C9.3293 24.8195 9.50978 25 9.73252 25H14.379C14.6017 25 14.7822 24.8195 14.7822 24.5968V13.3681H17.9325C18.1374 13.3681 18.3097 13.2144 18.3331 13.011L18.8116 8.85758C18.8247 8.74331 18.7885 8.62887 18.712 8.54315C18.6355 8.45734 18.526 8.40823 18.4111 8.40823H14.7824V5.80468C14.7824 5.01984 15.2049 4.62185 16.0385 4.62185C16.1573 4.62185 18.4111 4.62185 18.4111 4.62185C18.6338 4.62185 18.8143 4.44129 18.8143 4.21863V0.40621C18.8143 0.183468 18.6338 0.00298387 18.4111 0.00298387H15.1413C15.1183 0.00185484 15.067 0 14.9916 0C14.4242 0 12.4522 0.111371 10.8945 1.54444C9.16849 3.1325 9.40841 5.03395 9.46575 5.36363V8.40814H6.58889C6.36615 8.40814 6.18567 8.58863 6.18567 8.81137V12.9117C6.18567 13.1344 6.36615 13.315 6.58889 13.315Z" fill="#656D78"/>
</svg>
