<svg width="20" height="25" viewBox="0 0 20 25" fill="none" xmlns="http://www.w3.org/2000/svg">
<path d="M16.5625 11.7188V5.23438L14.0625 3.00195L11.5625 5.23438V11.7188H12.8125V7.8125H15.3125V11.7188H16.5625ZM15 6.64063H13.125V5.07813H15V6.64063Z" fill="#6D6E6F"/>
<path d="M5.93756 13.6719H7.81256V16.0156H5.93756V13.6719Z" fill="#6D6E6F"/>
<path d="M2.8125 23.8281H3.4375V19.1406H7.1875V23.8281H10.9375V16.7969H2.8125V23.8281ZM8.125 17.9687H10V20.3125H8.125V17.9687Z" fill="#6D6E6F"/>
<path d="M10.9375 8.98438H8.63721L10.9375 11.5402V8.98438Z" fill="#6D6E6F"/>
<path d="M4.0625 19.9219H6.5625V23.8281H4.0625V19.9219Z" fill="#6D6E6F"/>
<path d="M12.2922 15.1359C12.4166 15.2742 12.6238 15.2586 12.7335 15.1039C12.7897 15.0246 12.8169 14.927 12.8119 14.8207C12.8072 14.7164 12.7704 14.6215 12.7082 14.5523L7.08317 8.30234C7.02535 8.23828 6.9516 8.20312 6.87504 8.20312C6.79848 8.20312 6.72504 8.23828 6.66754 8.30195L1.04254 14.552C0.98004 14.6215 0.942853 14.7168 0.938165 14.8207C0.933165 14.9254 0.960978 15.0254 1.01629 15.1031C1.12692 15.2586 1.33285 15.2746 1.45785 15.1359L6.87504 9.1168L12.2922 15.1359Z" fill="#6D6E6F"/>
<path d="M11.5625 23.8281H18.4375V19.1406H11.5625V23.8281ZM15.625 20.3125H17.5V22.6562H15.625V20.3125ZM12.5 20.3125H14.375V22.6562H12.5V20.3125Z" fill="#6D6E6F"/>
<path d="M2.8125 14.6758V16.0156H5.3125V12.8906H8.4375V16.0156H10.9375V14.6758L6.875 10.1621L2.8125 14.6758Z" fill="#6D6E6F"/>
<path d="M11.5625 17.5781H19.0625V18.3594H11.5625V17.5781Z" fill="#6D6E6F"/>
<path d="M17.8688 8.98438H17.1875V12.5H11.8013L13.1231 13.9688C13.31 14.1758 13.4212 14.4625 13.4359 14.775C13.4506 15.0875 13.3672 15.3887 13.2009 15.6227C12.8703 16.0867 12.2491 16.1332 11.8772 15.7195L11.5625 15.3703V16.7969H19.0625V16.4449L17.8688 8.98438Z" fill="#6D6E6F"/>
<path d="M13.4376 8.59375H14.6876V11.7188H13.4376V8.59375Z" fill="#6D6E6F"/>
<path d="M9.8691 5.78648L14.0625 2.04272L18.2553 5.78648C18.3922 5.90874 18.5953 5.86499 18.6919 5.69585C18.7403 5.61108 18.7594 5.50796 18.7457 5.40483C18.7319 5.30171 18.6869 5.21226 18.6194 5.15249L14.2441 1.24468C14.1378 1.15054 13.9882 1.14976 13.8813 1.24507L9.50629 5.15093C9.43691 5.21265 9.39347 5.30015 9.37941 5.40444C9.36566 5.50757 9.38472 5.61108 9.43347 5.69624C9.52941 5.86421 9.73347 5.90718 9.8691 5.78648Z" fill="#6D6E6F"/>
</svg>
