<svg width="25" height="25" viewBox="0 0 25 25" fill="none" xmlns="http://www.w3.org/2000/svg">
<g clip-path="url(#clip0)">
<path d="M19.7916 20.3123V15.104C19.7916 13.3811 21.1937 11.979 22.9166 11.979C23.4916 11.979 23.9583 12.4457 23.9583 13.0207C23.9583 13.5998 23.4854 14.0696 22.9041 14.0623C22.3333 14.055 21.875 14.5332 21.875 15.104V18.229C21.875 19.38 20.9427 20.3123 19.7916 20.3123Z" fill="#30A6EA"/>
<path d="M5.20829 20.3123V15.104C5.20829 13.3811 3.80621 11.979 2.08329 11.979C1.50829 11.979 1.04163 12.4457 1.04163 13.0207C1.04163 13.5998 1.51454 14.0696 2.09579 14.0623C2.66663 14.055 3.12496 14.5332 3.12496 15.104V18.229C3.12496 19.38 4.05725 20.3123 5.20829 20.3123Z" fill="#30A6EA"/>
<path d="M16.9271 24.9998H8.07292C7.49792 24.9998 7.03125 24.5332 7.03125 23.9582C7.03125 23.3832 7.49792 22.9165 8.07292 22.9165H16.9271C17.5021 22.9165 17.9688 23.3832 17.9688 23.9582C17.9688 24.5332 17.5021 24.9998 16.9271 24.9998Z" fill="#30A6EA"/>
<path d="M12.5 25.0002C11.925 25.0002 11.4584 24.5335 11.4584 23.9585V19.5314C11.4584 18.9564 11.925 18.4897 12.5 18.4897C13.075 18.4897 13.5417 18.9564 13.5417 19.5314V23.9585C13.5417 24.5335 13.075 25.0002 12.5 25.0002Z" fill="#30A6EA"/>
<path d="M17.7722 13.5417H7.2284C6.68882 13.5417 6.18049 13.3042 5.83361 12.8917C5.48569 12.4792 5.33986 11.9375 5.43257 11.4063L7.1534 1.51042C7.30549 0.635417 8.06069 0 8.94924 0H16.0503C16.9399 0 17.6951 0.635417 17.8461 1.51146L19.5669 11.4073C19.6597 11.9385 19.5138 12.4802 19.1659 12.8927C18.8201 13.3042 18.3117 13.5417 17.7722 13.5417Z" fill="#30A6EA"/>
<path d="M20.052 20.3127H4.94788C4.51663 20.3127 4.16663 19.9627 4.16663 19.5314V17.4481C4.16663 15.8679 5.451 14.5835 7.03121 14.5835H17.9687C19.5489 14.5835 20.8333 15.8679 20.8333 17.4481V19.5314C20.8333 19.9627 20.4833 20.3127 20.052 20.3127Z" fill="#30A6EA"/>
</g>
<defs>
<clipPath id="clip0">
<rect width="25" height="25" fill="white"/>
</clipPath>
</defs>
</svg>
