<svg width="25" height="25" viewBox="0 0 25 25" fill="none" xmlns="http://www.w3.org/2000/svg">
<path d="M20.336 15.8891C18.8887 15.8891 17.612 16.5786 16.7779 17.6346L9.04157 13.6782C9.14286 13.3005 9.21565 12.9102 9.21565 12.4994C9.21565 12.0523 9.12919 11.6313 9.00855 11.2216L16.7108 7.28348C17.5403 8.38723 18.8499 9.10864 20.3371 9.10864C22.8564 9.10864 24.8943 7.07074 24.8943 4.55377C24.8943 2.03906 22.8564 0 20.3372 0C17.8236 0 15.7835 2.03906 15.7835 4.55371C15.7835 4.96564 15.8563 5.35704 15.9587 5.73595L8.22347 9.69232C7.38828 8.63526 6.1093 7.94344 4.65967 7.94344C2.14269 7.94344 0.105957 9.9836 0.105957 12.4994C0.105957 15.0152 2.14275 17.0543 4.65967 17.0543C6.14912 17.0543 7.4577 16.3306 8.29057 15.2258L15.9894 19.1639C15.8687 19.5724 15.7811 19.9968 15.7811 20.4451C15.7811 22.9609 17.8213 25 20.3349 25C22.8541 25 24.892 22.9609 24.892 20.4451C24.8932 17.927 22.8553 15.8891 20.336 15.8891Z" fill="#30A6EA"/>
</svg>
