<svg width="22" height="22" viewBox="0 0 22 22" fill="none" xmlns="http://www.w3.org/2000/svg">
<g clip-path="url(#clip0)">
<path d="M16.0517 1.68457H14.0588V3.14784C14.0588 3.51509 13.7612 3.81316 13.3935 3.81316H4.28346C3.91576 3.81316 3.61814 3.51509 3.61814 3.14784V1.68457H1.47314C1.18483 1.68457 0.950195 1.91921 0.950195 2.20751V21.477C0.950195 21.7653 1.18483 22 1.47314 22H16.0517C16.34 22 16.5746 21.7653 16.5746 21.477V2.20751C16.5746 1.91921 16.34 1.68457 16.0517 1.68457ZM3.10495 5.36203H7.35681C7.72407 5.36203 8.02213 5.65965 8.02213 6.02735C8.02213 6.39461 7.72407 6.69268 7.35681 6.69268H3.10495C2.73725 6.69268 2.43963 6.39461 2.43963 6.02735C2.43963 5.65965 2.73725 5.36203 3.10495 5.36203ZM3.10495 9.42316H7.35681C7.72407 9.42316 8.02213 9.72122 8.02213 10.0885C8.02213 10.4562 7.72407 10.7538 7.35681 10.7538H3.10495C2.73725 10.7538 2.43963 10.4562 2.43963 10.0885C2.43963 9.72122 2.73725 9.42316 3.10495 9.42316ZM3.10495 13.4847H7.35681C7.72407 13.4847 8.02213 13.7824 8.02213 14.1501C8.02213 14.5173 7.72407 14.8154 7.35681 14.8154H3.10495C2.73725 14.8154 2.43963 14.5173 2.43963 14.1501C2.43963 13.7824 2.73725 13.4847 3.10495 13.4847ZM3.10495 17.1542H8.83826C9.20596 17.1542 9.50359 17.4518 9.50359 17.8195C9.50359 18.1868 9.20596 18.4849 8.83826 18.4849H3.10495C2.73725 18.4849 2.43963 18.1868 2.43963 17.8195C2.43963 17.4518 2.73725 17.1542 3.10495 17.1542ZM12.7836 20.6888H3.10495C2.73725 20.6888 2.43963 20.3908 2.43963 20.0235C2.43963 19.6563 2.73725 19.3582 3.10495 19.3582H12.7836C13.1513 19.3582 13.4489 19.6563 13.4489 20.0235C13.4489 20.3908 13.1513 20.6888 12.7836 20.6888ZM14.8905 13.5841L12.8178 15.6568C12.5593 15.9152 12.1378 15.9175 11.877 15.6568L10.6768 14.457C10.4173 14.1971 10.4173 13.7757 10.6768 13.5158C10.9367 13.2563 11.3581 13.2563 11.618 13.5158C11.9614 13.8592 11.8 13.6977 12.3472 14.2454C13.3358 13.2574 12.9612 13.6319 13.9497 12.6433C14.2096 12.3834 14.6306 12.3834 14.8905 12.6433C15.1504 12.9028 15.1504 13.3242 14.8905 13.5841ZM14.8905 9.52251L12.8178 11.5952C12.559 11.855 12.1365 11.8557 11.877 11.5952L10.6768 10.3954C10.4173 10.1355 10.4173 9.71413 10.6768 9.45465C10.9367 9.19473 11.3581 9.19473 11.618 9.45465L12.3472 10.1838C13.335 9.19606 12.9614 9.56949 13.9497 8.58175C14.2096 8.32183 14.6306 8.32183 14.8905 8.58175C15.1504 8.84167 15.1504 9.26304 14.8905 9.52251ZM14.8905 5.46138L12.8178 7.53409C12.5588 7.79303 12.1371 7.79414 11.877 7.53409L10.6768 6.33384C10.4173 6.07437 10.4173 5.653 10.6768 5.39308C10.9367 5.13316 11.3581 5.13316 11.618 5.39308C11.9614 5.73647 11.8 5.57502 12.3472 6.12271C13.3358 5.13467 12.9612 5.5092 13.9497 4.52062C14.2096 4.2607 14.6306 4.2607 14.8905 4.52062C15.1504 4.78009 15.1504 5.20147 14.8905 5.46138Z" fill="#30A6EA"/>
<path d="M12.5068 0H5.17099C5.04853 0 4.94922 0.0993105 4.94922 0.221774V2.26077C4.94922 2.38323 5.04853 2.48254 5.17099 2.48254H12.5068C12.6293 2.48254 12.7286 2.38323 12.7286 2.26077V0.221774C12.7286 0.0993105 12.6293 0 12.5068 0Z" fill="#30A6EA"/>
<path d="M19.6503 18.1274C19.7124 18.3403 20.0145 18.3403 20.0761 18.1274L20.8563 15.4443H18.8701L19.6503 18.1274Z" fill="#30A6EA"/>
<path d="M21.0497 7.28027H18.6768V14.114H21.0497V7.28027Z" fill="#30A6EA"/>
<path d="M19.8632 3.93457C19.2449 3.93457 18.6768 4.42088 18.6768 5.14634V5.94961H21.0497V5.12106C21.0497 4.46035 20.5113 3.93457 19.8632 3.93457Z" fill="#30A6EA"/>
</g>
<defs>
<clipPath id="clip0">
<rect width="22" height="22" fill="white"/>
</clipPath>
</defs>
</svg>
