<svg width="25" height="25" viewBox="0 0 25 25" fill="none" xmlns="http://www.w3.org/2000/svg">
<g clip-path="url(#clip0)">
<path d="M13.5729 1.94805L2.125 0.208466C1.59375 0.125132 1.05208 0.270965 0.645833 0.614715C0.239583 0.968881 0 1.4793 0 2.01055V23.9584C0 24.5314 0.46875 25.0001 1.04167 25.0001H4.42708V19.5314C4.42708 18.5209 5.23958 17.7084 6.25 17.7084H8.85417C9.86458 17.7084 10.6771 18.5209 10.6771 19.5314V25.0001H15.1042V3.75013C15.1042 2.8543 14.4583 2.09388 13.5729 1.94805ZM5.72917 15.3647H4.16667C3.73542 15.3647 3.38542 15.0147 3.38542 14.5835C3.38542 14.1522 3.73542 13.8022 4.16667 13.8022H5.72917C6.16042 13.8022 6.51042 14.1522 6.51042 14.5835C6.51042 15.0147 6.16042 15.3647 5.72917 15.3647ZM5.72917 12.2397H4.16667C3.73542 12.2397 3.38542 11.8897 3.38542 11.4585C3.38542 11.0272 3.73542 10.6772 4.16667 10.6772H5.72917C6.16042 10.6772 6.51042 11.0272 6.51042 11.4585C6.51042 11.8897 6.16042 12.2397 5.72917 12.2397ZM5.72917 9.11471H4.16667C3.73542 9.11471 3.38542 8.76471 3.38542 8.33346C3.38542 7.90221 3.73542 7.55221 4.16667 7.55221H5.72917C6.16042 7.55221 6.51042 7.90221 6.51042 8.33346C6.51042 8.76471 6.16042 9.11471 5.72917 9.11471ZM5.72917 5.98971H4.16667C3.73542 5.98971 3.38542 5.63971 3.38542 5.20846C3.38542 4.77721 3.73542 4.42721 4.16667 4.42721H5.72917C6.16042 4.42721 6.51042 4.77721 6.51042 5.20846C6.51042 5.63971 6.16042 5.98971 5.72917 5.98971ZM10.9375 15.3647H9.375C8.94375 15.3647 8.59375 15.0147 8.59375 14.5835C8.59375 14.1522 8.94375 13.8022 9.375 13.8022H10.9375C11.3688 13.8022 11.7188 14.1522 11.7188 14.5835C11.7188 15.0147 11.3688 15.3647 10.9375 15.3647ZM10.9375 12.2397H9.375C8.94375 12.2397 8.59375 11.8897 8.59375 11.4585C8.59375 11.0272 8.94375 10.6772 9.375 10.6772H10.9375C11.3688 10.6772 11.7188 11.0272 11.7188 11.4585C11.7188 11.8897 11.3688 12.2397 10.9375 12.2397ZM10.9375 9.11471H9.375C8.94375 9.11471 8.59375 8.76471 8.59375 8.33346C8.59375 7.90221 8.94375 7.55221 9.375 7.55221H10.9375C11.3688 7.55221 11.7188 7.90221 11.7188 8.33346C11.7188 8.76471 11.3688 9.11471 10.9375 9.11471ZM10.9375 5.98971H9.375C8.94375 5.98971 8.59375 5.63971 8.59375 5.20846C8.59375 4.77721 8.94375 4.42721 9.375 4.42721H10.9375C11.3688 4.42721 11.7188 4.77721 11.7188 5.20846C11.7188 5.63971 11.3688 5.98971 10.9375 5.98971Z" fill="#30A6EA"/>
<path d="M23.5622 11.2938L16.1455 9.74072V25.0001H23.1767C24.1819 25.0001 24.9996 24.1824 24.9996 23.1772V13.0751C24.9996 12.2147 24.4132 11.4824 23.5622 11.2938ZM21.0934 21.8751H19.5309C19.0997 21.8751 18.7497 21.5251 18.7497 21.0938C18.7497 20.6626 19.0997 20.3126 19.5309 20.3126H21.0934C21.5247 20.3126 21.8747 20.6626 21.8747 21.0938C21.8747 21.5251 21.5247 21.8751 21.0934 21.8751ZM21.0934 18.7501H19.5309C19.0997 18.7501 18.7497 18.4001 18.7497 17.9688C18.7497 17.5376 19.0997 17.1876 19.5309 17.1876H21.0934C21.5247 17.1876 21.8747 17.5376 21.8747 17.9688C21.8747 18.4001 21.5247 18.7501 21.0934 18.7501ZM21.0934 15.6251H19.5309C19.0997 15.6251 18.7497 15.2751 18.7497 14.8438C18.7497 14.4126 19.0997 14.0626 19.5309 14.0626H21.0934C21.5247 14.0626 21.8747 14.4126 21.8747 14.8438C21.8747 15.2751 21.5247 15.6251 21.0934 15.6251Z" fill="#30A6EA"/>
</g>
<defs>
<clipPath id="clip0">
<rect width="25" height="25" fill="white"/>
</clipPath>
</defs>
</svg>
