<svg width="128" height="128" viewBox="0 0 128 128" fill="none" xmlns="http://www.w3.org/2000/svg">
<g clip-path="url(#clip0)">
<path d="M42.1428 53.6625L45.6066 82.9711L3.5088 85.9021L0.0449641 56.8598C-0.221562 55.5277 0.844291 54.1953 2.17642 54.1953L39.4783 51.5308C40.8106 51.2645 41.8765 52.3304 42.1428 53.6625Z" fill="#415A6B"/>
<path d="M5.64025 83.2378L2.70947 56.86L39.4785 53.9292L42.6758 80.307L5.64025 83.2378Z" fill="#55C0EB"/>
<path d="M33.3502 72.8465C33.0836 70.4485 34.6823 68.3171 37.0803 68.0505C39.4783 67.784 41.6097 69.6492 41.8762 72.0472C42.1428 74.4452 40.5441 76.5766 38.1461 76.8431C35.7481 77.1097 33.6167 75.511 33.3502 72.8465Z" fill="#E8EAE9"/>
<path d="M23.492 79.5079L32.5508 75.5113L41.61 72.314L42.6758 80.3072L5.64025 83.238L4.84092 74.9782L16.298 77.1099L23.492 79.5079Z" fill="#E8EAE9"/>
<path d="M28.8207 74.7119C28.5542 72.8467 29.8866 71.2481 31.7515 70.9818C33.6167 70.7153 35.2153 72.3139 35.4816 74.1791C35.7481 76.0443 34.4158 77.6429 32.5508 77.9092C30.6859 77.9092 29.0873 76.5768 28.8207 74.7119Z" fill="#E8EAE9"/>
<path d="M26.4228 76.843C26.1562 75.5108 27.2221 74.1785 28.5542 74.1785C29.8863 74.1785 31.2187 75.2443 31.2187 76.5764C31.4852 77.9086 30.4194 79.241 29.0873 79.241C27.7549 79.241 26.6893 78.1751 26.4228 76.843Z" fill="#E8EAE9"/>
<path d="M24.5576 79.241C24.291 77.9089 25.3569 76.843 26.4228 76.843C27.7549 76.843 28.8207 77.6423 28.8207 78.9745C28.8207 80.3066 28.0214 81.3725 26.9556 81.3725C25.89 81.639 24.8241 80.5731 24.5576 79.241Z" fill="#E8EAE9"/>
<path d="M36.5475 76.8433C36.5475 76.8433 36.5475 76.8433 36.281 76.8433C36.281 76.8433 36.281 76.8433 36.0144 76.8433C36.0144 76.8433 36.0144 76.8433 35.7479 76.8433C35.7479 76.8433 35.7479 76.8433 35.4814 76.8433H35.2149H34.9483C34.9483 76.8433 34.6818 76.8433 34.6818 76.5767C34.4153 76.5767 34.4153 76.3102 34.149 76.3102C33.8825 76.0437 33.8825 76.0437 33.6162 75.7774C33.3497 75.5109 33.3497 75.5109 33.3497 75.2446C33.3497 74.9783 33.0831 74.7118 33.0831 74.7118C33.0831 74.4453 33.0831 74.179 32.8166 74.179C32.8166 73.9125 32.8166 73.6462 32.8166 73.6462V73.3797V73.1131V72.8466V72.5801C32.8166 72.5801 32.8166 72.5801 32.8166 72.3136C32.8166 72.3136 32.8166 72.3136 32.8166 72.047C32.8166 71.7805 32.8166 71.7805 32.8166 71.7805C32.8166 71.7805 32.8166 71.7805 32.8166 72.047C32.8166 72.047 32.8166 72.047 32.8166 72.3136C32.8166 72.3136 32.8166 72.3136 32.8166 72.5801C32.8166 72.5801 32.8166 72.8466 32.8166 73.1129V73.3794V73.6459V73.9125V74.179C32.8166 74.4455 32.8166 74.4455 33.0831 74.7118C33.0831 74.9783 33.3497 74.9783 33.3497 75.2446C33.3497 75.5109 33.6162 75.5111 33.6162 75.7774C33.6162 76.0439 33.8827 76.0439 33.8827 76.3102L34.1493 76.5767C34.1493 76.5767 34.1493 76.5767 34.4158 76.8433C34.4158 76.8433 34.4158 76.8433 34.6823 77.1098C34.6823 77.1098 34.6823 77.1098 34.9488 77.3763L35.2154 77.6428C35.2154 77.6428 35.2154 77.6428 35.4819 77.6428C36.0147 76.5767 36.0147 76.5767 36.5475 76.8433C36.2812 76.8433 36.5475 76.8433 36.5475 76.8433Z" fill="#CED6E0"/>
<path d="M32.018 77.6425C32.018 77.6425 31.7515 77.6425 32.018 77.6425C31.7515 77.6425 31.7515 77.6425 31.7515 77.6425C31.7515 77.6425 31.7515 77.6425 31.485 77.6425H31.2185C31.2185 77.6425 31.2185 77.6425 30.9519 77.6425C30.9519 77.6425 30.9519 77.6425 30.6854 77.6425C30.4189 77.6425 30.4189 77.376 30.1526 77.376C29.8863 77.376 29.8861 77.1094 29.6198 77.1094C29.3535 77.1094 29.3533 76.8429 29.3533 76.8429C29.3533 76.5764 29.0868 76.5764 29.0868 76.3101C29.0868 76.0436 28.8202 76.0436 28.8202 75.7773C28.8202 75.5108 28.8202 75.5108 28.5537 75.2445V74.978V74.7114V74.4449C28.5537 74.4449 28.5537 74.4449 28.5537 74.1784C28.5537 73.9119 28.5537 73.9119 28.5537 73.9119C28.5537 73.9119 28.5537 73.9119 28.5537 74.1784C28.5537 74.1784 28.5537 74.1784 28.5537 74.4449V74.7114C28.5537 74.7114 28.5537 74.7114 28.5537 74.978C28.5537 74.978 28.5537 74.978 28.5537 75.2445C28.5537 75.2445 28.5537 75.511 28.8202 75.511L29.0868 75.7775L29.3533 76.0441L29.6198 76.3106L29.8863 76.5771L30.1529 76.8437C30.1529 76.8437 30.1529 76.8437 30.4194 76.8437C30.4194 76.8437 30.4194 76.8437 30.6859 76.8437C30.6859 76.8437 30.9524 76.8437 30.9524 77.1102C31.7515 77.6425 31.7515 77.6425 32.018 77.6425C31.7515 77.6425 32.018 77.6425 32.018 77.6425Z" fill="#CED6E0"/>
<path d="M13.1007 74.4451C12.8342 72.0471 10.7027 70.182 8.30476 70.4485C5.90678 70.715 4.30812 72.8465 4.57465 75.2444C4.84117 77.6424 6.97263 79.5076 9.37061 79.2411C11.7683 78.9745 13.367 76.8431 13.1007 74.4451Z" fill="#E8EAE9"/>
<path d="M17.8967 75.5111C17.6302 73.646 16.0315 72.0473 14.1666 72.3138C12.3014 72.3138 11.2358 74.179 11.2358 76.0439C11.5023 77.9091 13.101 79.2412 14.9659 79.2412C16.8308 78.9747 17.8967 77.3761 17.8967 75.5111Z" fill="#E8EAE9"/>
<path d="M20.5609 77.3758C20.2944 76.0436 19.2288 74.9778 17.8964 74.9778C16.5641 74.9778 15.4985 76.3099 15.765 77.6423C16.0315 78.9744 17.0971 80.0403 18.4295 80.0403C19.7619 80.0403 20.8275 78.7081 20.5609 77.3758Z" fill="#E8EAE9"/>
<path d="M23.2254 79.5078C22.9589 78.1757 21.8933 77.1098 20.8275 77.3763C19.7616 77.6429 18.4295 78.4422 18.696 79.7743C18.9625 81.1064 20.0281 82.1723 21.094 81.9058C22.4261 81.9058 23.2254 80.8399 23.2254 79.5078Z" fill="#E8EAE9"/>
<path d="M10.969 78.7082C11.2355 78.4417 11.2355 78.4417 11.2355 78.4417L11.5021 78.1751C11.5021 78.1751 11.5021 78.1751 11.7686 77.9086C11.7686 77.9086 11.7686 77.9086 12.0351 77.6421C12.0351 77.6421 12.0351 77.3756 12.3016 77.3756C12.3016 77.3756 12.3016 77.109 12.5682 77.109C12.5682 76.8425 12.8347 76.8425 12.8347 76.5762C12.8347 76.3097 13.1012 76.3097 13.1012 76.0434C13.1012 75.7769 13.1012 75.7769 13.1012 75.5106C13.1012 75.2443 13.1012 75.2441 13.1012 74.9778V74.7113V74.4448V74.1783V73.9117C13.1012 73.6452 13.1012 73.6452 13.1012 73.3789C13.1012 73.3789 13.1012 73.3789 13.1012 73.1124C13.1012 73.1124 13.1012 73.1124 13.1012 72.8459C13.1012 72.5793 13.1012 72.5793 13.1012 72.5793C13.1012 72.5793 13.1012 72.5793 13.3677 72.8459C13.3677 72.8459 13.3677 72.8459 13.3677 73.1124C13.3677 73.1124 13.3677 73.1124 13.3677 73.3789C13.3677 73.3789 13.3677 73.3789 13.3677 73.6454V73.912V74.1785V74.445C13.3677 74.7115 13.3677 74.7115 13.3677 74.9778C13.3677 75.2444 13.3677 75.5106 13.3677 75.5106C13.3677 75.7772 13.3677 76.0434 13.3677 76.0434C13.3677 76.31 13.1012 76.5762 13.1012 76.5762C13.1012 76.8428 12.8347 76.8428 12.8347 77.109C12.8347 77.3753 12.5682 77.3756 12.5682 77.6418C12.5682 77.6418 12.5682 77.6418 12.3016 77.9084C12.3016 77.9084 12.0351 77.9084 12.0351 78.1749C12.0351 78.1749 12.0351 78.1749 11.7686 78.1749C11.7686 78.1749 11.7686 78.1749 11.5021 78.1749C11.5021 78.1749 11.5021 78.1749 11.2355 78.1749C11.2355 78.1749 11.2355 78.1749 10.969 78.1749C10.969 78.7082 10.969 78.7082 10.969 78.7082Z" fill="#CED6E0"/>
<path d="M15.4987 78.9744C15.7652 78.9744 15.7652 78.7078 15.7652 78.7078C15.7652 78.7078 16.0318 78.7078 16.0318 78.4413C16.0318 78.4413 16.0318 78.4413 16.2983 78.4413C16.2983 78.4413 16.2983 78.4413 16.5648 78.4413L16.8313 78.1748L17.0979 77.9083L17.3644 77.6417C17.3644 77.3752 17.3644 77.3752 17.6309 77.1089C17.6309 76.8424 17.6309 76.8424 17.8974 76.5761C17.8974 76.3096 17.8974 76.3096 17.8974 76.0433C17.8974 76.0433 17.8974 76.0433 17.8974 75.7768C17.8974 75.7768 17.8974 75.7768 17.8974 75.5103V75.2437C17.8974 75.2437 17.8974 75.2437 17.8974 74.9772C17.8974 74.7107 17.8974 74.7107 17.8974 74.7107C17.8974 74.7107 17.8974 74.7107 17.8974 74.9772C17.8974 74.9772 17.8974 74.9772 17.8974 75.2437V75.5103V75.7768V76.0433C17.8974 76.3098 17.8974 76.3098 17.8974 76.5761C17.8974 76.8426 17.8974 76.8427 17.8974 77.1089C17.8974 77.3752 17.8974 77.3755 17.6309 77.6417C17.6309 77.9083 17.3644 77.9083 17.3644 78.1745C17.3644 78.4411 17.0979 78.4411 17.0979 78.4411L16.8313 78.7076C16.8313 78.7076 16.8313 78.7076 16.5648 78.7076C16.5648 78.7076 16.5648 78.7076 16.2983 78.7076H16.0315C16.0315 78.7076 16.0315 78.7076 15.765 78.7076C15.765 78.9744 15.765 78.9744 15.4987 78.9744Z" fill="#CED6E0"/>
<path d="M23.492 57.9258L19.2288 58.1921L21.6268 79.5076L26.1562 79.2411L23.492 57.9258Z" fill="#E8EAE9"/>
<path d="M22.4261 58.1921H20.2947L22.9589 79.5077L24.8241 79.2412L22.4261 58.1921Z" fill="#CED6E0"/>
<path d="M14.4329 62.455C14.4329 62.7215 14.4329 62.7215 14.4329 62.9878L14.6994 63.2543C15.2322 63.5209 15.2322 64.3202 15.2322 64.853C15.2322 65.1195 14.9657 65.1195 14.9657 65.3858C14.9657 65.6521 14.6991 65.9186 14.6991 66.1851C14.6991 66.4517 14.6991 66.7179 14.9657 66.9845C14.6991 66.9845 14.6991 66.9845 14.4329 66.7179C14.1666 66.4514 14.1663 66.4514 14.1663 66.1851C14.1663 65.6523 14.1663 65.1193 14.1663 64.853C13.8998 65.1195 13.8998 65.6523 13.8998 66.1851C13.8998 66.4517 13.8998 66.7179 13.8998 66.7179C13.8998 66.9845 14.1663 66.9845 14.1663 67.2507C14.4329 67.7835 14.4329 68.3166 14.1663 68.8494C14.1663 69.1159 13.8998 69.1159 13.8998 69.3822C13.8998 69.6485 13.6333 69.6487 13.6333 69.915C13.3667 69.3822 13.1005 68.8491 13.1005 68.3163C13.1005 67.7835 13.1005 67.517 13.1005 66.9842C13.1005 66.4514 12.8339 66.1849 12.5677 65.9184C12.3011 65.6518 12.3011 65.119 12.3011 64.8525C12.0346 65.3853 12.0346 66.1846 12.5677 66.7177C12.3011 66.7177 11.7683 66.4512 11.5018 66.1849C11.5018 65.9184 11.2353 65.9183 11.2353 65.6521C11.2353 65.1193 10.9688 64.5862 11.2353 64.0534C11.2353 63.7869 11.5018 63.5206 11.7681 63.2541C12.8339 62.7213 13.1002 62.1882 13.3667 61.3889C13.6333 61.6554 13.8996 61.9217 14.1661 62.1882" fill="#FFD15C"/>
<path d="M31.2187 61.3893C31.2187 61.6559 31.2187 61.6559 31.2187 61.9221L31.4852 62.1887C32.018 62.4552 32.018 63.2545 32.018 63.7873C32.018 64.0539 31.7515 64.0539 31.7515 64.3201C31.7515 64.5864 31.485 64.8529 31.485 65.1195C31.485 65.386 31.485 65.6523 31.7515 65.9188C31.485 65.9188 31.485 65.9188 31.2187 65.6523C31.2187 65.3857 30.9522 65.3857 30.9522 65.1195C30.9522 64.5867 30.9522 64.0536 30.9522 63.7873C30.6857 64.0539 30.6857 64.5867 30.6857 65.1195C30.6857 65.386 30.6857 65.6523 30.6857 65.6523C30.6857 65.9188 30.9522 65.9188 30.9522 66.1851C31.2187 66.7179 31.2187 67.2509 30.9522 67.7837C30.9522 68.0502 30.6857 68.0502 30.6857 68.3165C30.6857 68.5828 30.4191 68.583 30.4191 68.8493C30.1526 68.3165 29.8863 67.7835 29.8863 67.2507C29.8863 66.7179 29.8863 66.4513 29.8863 65.9185C29.8863 65.3857 29.6198 65.1192 29.3535 64.8527C29.087 64.5862 29.087 64.0534 29.087 63.7868C28.8205 64.3196 28.8205 65.119 29.3535 65.652C29.087 65.652 28.5542 65.3855 28.2877 65.1192C28.2877 64.8527 28.0212 64.8527 28.0212 64.5864C28.0212 64.0536 27.7546 63.5205 28.0212 62.9877C28.0212 62.7212 28.2877 62.4549 28.554 62.1884C29.0868 61.6556 29.3533 61.1226 29.3533 60.3232C29.6198 60.5898 29.8861 60.856 30.1526 61.1226" fill="#FFD15C"/>
<path d="M18.9623 50.7317L12.8342 56.8598L13.1007 60.0571L20.0281 59.5243L18.9623 50.7317Z" fill="#ADB3BA"/>
<path d="M10.969 59.5246L11.5018 63.2547L15.4985 62.9882L14.9657 59.258C14.6991 57.3929 13.8998 55.5279 12.3011 54.1956C11.2355 55.5279 10.7027 57.3929 10.969 59.5246Z" fill="#E8EAE9"/>
<path d="M11.2355 61.9223L11.5021 63.2544L15.4987 62.9879V61.6558L11.2355 61.9223Z" fill="#F3705A"/>
<path d="M22.1596 50.4651L29.6201 55.5276L29.8866 58.7249L23.2254 59.2577L22.1596 50.4651Z" fill="#ADB3BA"/>
<path d="M31.7515 57.9258L32.2843 61.6559L28.2877 61.9224L27.7549 58.1923C27.4884 56.3271 28.0214 54.4622 29.087 52.8635C30.6859 54.1954 31.7515 56.0606 31.7515 57.9258Z" fill="#E8EAE9"/>
<path d="M32.2846 60.5901V61.6559L28.2879 61.9225L28.0214 60.8566L32.2846 60.5901Z" fill="#F3705A"/>
<path d="M15.2322 43.804C15.2322 44.8698 15.2322 45.9354 15.2322 47.0013L16.8308 60.5898L26.4228 59.7905L24.8241 46.2019C24.8241 45.1361 24.5576 44.0705 24.2913 43.0046L15.2322 43.804Z" fill="#E8EAE9"/>
<path d="M27.7549 61.656L26.4228 59.7908L16.8308 60.5901L16.0315 62.4553L27.7549 61.656Z" fill="#F3705A"/>
<path d="M15.2322 42.4719C15.2322 43.0047 15.2322 43.5378 14.9657 44.3371L24.2911 43.5378C24.0245 43.005 24.0245 42.4719 23.7583 41.6726L15.2322 42.4719Z" fill="#415A6B"/>
<path d="M24.0248 42.2054C22.9589 39.2746 21.094 36.3436 18.696 34.2122C16.8308 36.6101 15.4987 39.5409 15.2322 42.7382L24.0248 42.2054Z" fill="#F3705A"/>
<path d="M23.492 48.8664C23.7585 50.7315 22.4261 52.3302 20.8275 52.3302C19.2288 52.3302 17.6302 50.9981 17.3636 49.3994C17.0971 47.8008 18.4295 45.9356 20.0281 45.9356C21.6268 45.6691 23.2254 47.0012 23.492 48.8664Z" fill="#415A6B"/>
<path d="M22.4261 48.8666C22.6926 50.1987 21.6268 51.2645 20.5609 51.2645C19.2288 51.2645 18.163 50.4652 18.163 49.1331C17.8964 47.801 18.9623 46.7351 20.0281 46.7351C21.3603 46.7351 22.4261 47.5344 22.4261 48.8666Z" fill="#55C0EB"/>
<path d="M25.0906 79.5077C25.0906 80.307 24.5578 80.8398 24.0248 81.1063C23.492 81.3728 22.6926 80.5735 22.4261 79.7742C22.4261 78.9749 22.9589 78.4421 23.492 78.1755C24.5576 78.1753 25.0906 78.7083 25.0906 79.5077Z" fill="#E8EAE9"/>
<path d="M48.8039 104.287L41.61 104.553C41.61 104.553 40.2778 101.622 39.4785 100.823C38.6792 100.024 39.4785 90.1652 40.8106 89.0996C42.9421 90.1655 44.5408 91.4976 45.6066 93.8956L48.8039 104.287Z" fill="#344A5E"/>
<path d="M43.7414 91.7639L37.8796 89.0994L19.2286 89.8987C19.2286 89.8987 24.8239 91.4973 27.4884 92.5632C29.8863 93.6291 34.1495 94.6947 36.5475 96.027C38.6789 97.3592 42.6756 99.2243 43.7414 99.4909V91.7639Z" fill="#FFD15C"/>
<path d="M40.8106 99.7571C40.8106 99.7571 44.5408 93.629 40.0113 89.8987L49.3367 91.7639L47.7381 102.688L40.8106 99.7571Z" fill="#F3F3F3"/>
<path d="M40.5441 89.3657C40.5441 89.3657 44.008 90.9644 43.4749 98.1583C42.9421 105.352 41.3434 104.819 41.3434 104.819C41.3434 104.819 41.3434 105.086 44.0079 105.352C46.9387 105.619 48.8039 105.885 50.9354 106.418C52.8005 106.951 65.5898 107.75 65.5898 107.75L70.3857 91.2309C70.3857 91.2309 64.7905 92.563 62.659 92.563C60.5275 92.563 53.0671 92.0302 50.1363 91.4972C47.2053 90.9644 41.61 89.3657 40.5441 89.3657Z" fill="#415A6B"/>
<path d="M104.224 27.8176C104.224 27.8176 104.757 35.278 105.823 38.2088C106.889 41.1396 106.889 41.1396 106.889 41.1396L86.6388 55.5275L85.8395 41.4061C85.8395 41.4061 81.0435 41.4061 78.9121 35.278C76.7806 29.15 75.4482 26.752 75.9813 23.5547C75.9813 23.5547 75.9813 22.4888 75.7148 21.956C75.4482 21.4232 74.9154 15.8279 76.5141 11.8313C76.5141 11.8313 76.7806 7.83465 78.3793 5.43667C79.9779 3.03869 96.231 3.57149 99.9611 5.43667C103.691 7.30185 104.757 24.0875 104.224 27.8176Z" fill="#FFD15C"/>
<path d="M76.2476 11.8312C76.2476 11.8312 77.0469 7.83457 78.6455 8.36737C80.2442 8.90018 82.1094 8.90017 83.9743 8.10085C85.8392 7.30152 95.4314 7.03499 95.4314 11.0316C95.4314 15.0283 98.0959 21.9557 97.8294 24.0874H98.8952C98.8952 24.0874 98.8952 20.3573 99.9611 18.7586C101.027 17.16 103.958 21.1566 104.491 27.8177C104.491 27.8177 105.556 20.6238 106.089 18.4923C106.622 16.3609 107.954 6.76897 101.027 2.77233C93.8327 -1.2243 82.3756 -0.6915 78.1127 3.03886C74.3824 6.50244 76.2476 11.8312 76.2476 11.8312Z" fill="#415A6B"/>
<path d="M101.56 27.0185C103.031 27.0185 104.224 24.752 104.224 21.956C104.224 19.1601 103.031 16.8936 101.56 16.8936C100.088 16.8936 98.895 19.1601 98.895 21.956C98.895 24.752 100.088 27.0185 101.56 27.0185Z" fill="#FFD15C"/>
<path d="M99.6943 29.6826C95.6977 36.3438 91.1682 40.8732 85.573 41.406L86.1058 50.4651C98.0957 42.4719 99.6943 29.6826 99.6943 29.6826Z" fill="#F7B64C"/>
<path d="M88.7703 47.0015L96.2307 47.5345L92.5004 63.2545L71.9844 86.7015L79.4449 56.0606L88.7703 47.0015Z" fill="#CED6E0"/>
<path d="M85.3064 51.2645L86.3723 52.0639C86.3723 52.0639 84.7736 62.1886 83.7078 65.1196C82.9085 68.0504 73.8493 78.4417 73.8493 78.4417C73.8493 78.4417 77.846 58.725 82.9084 51.5311C83.7078 50.4652 85.3064 51.2645 85.3064 51.2645Z" fill="#F3705A"/>
<path d="M86.1058 47.0014C86.3723 46.7349 87.7044 46.7349 88.7703 47.0014C89.8361 47.5342 90.1024 47.0014 90.1024 47.0014L91.9676 48.0673C91.9676 48.0673 89.3031 51.5311 86.6388 51.7974C86.6388 51.7974 84.2408 51.2646 83.175 51.2646L86.1058 47.0014Z" fill="#F05540"/>
<path d="M88.7703 47.0014L94.6321 54.4618L108.487 43.2713L105.823 36.8766C105.823 36.6101 105.29 36.6101 105.29 36.6101C104.224 37.4094 101.293 39.2746 98.0959 40.6067C94.099 42.2054 88.7703 47.0014 88.7703 47.0014Z" fill="#F3F3F3"/>
<path d="M69.5864 96.0269C69.5864 96.0269 73.8496 75.511 77.0469 66.1853C80.2442 56.8597 86.106 47.0015 86.106 47.0015C86.106 47.0015 82.9087 49.666 79.4449 54.1954C75.981 58.7248 72.2509 69.1161 70.6523 73.6458C69.3199 77.9089 66.6556 92.0303 69.5864 96.0269Z" fill="#415A6B"/>
<path d="M109.286 43.5381L110.086 44.0709C110.086 44.0709 120.743 50.732 124.473 57.6595C127.937 64.5869 128.47 69.9159 127.671 73.646C126.871 77.3761 118.878 100.024 118.079 112.813V128H62.659C62.659 128 63.1918 108.816 66.1228 98.4252C69.0536 88.0339 73.5833 73.3795 81.8428 66.9849C90.1024 60.5902 109.286 43.5381 109.286 43.5381Z" fill="#344A5E"/>
<path d="M107.688 40.6069C107.688 40.6069 95.6977 50.1989 90.9017 54.1955C86.1058 58.1921 76.7804 69.9155 74.1159 74.1787C71.4514 78.4418 66.6554 94.1618 66.1226 98.1585C66.1226 98.1585 70.3857 84.0371 76.7804 76.5767C83.175 69.1162 105.556 50.4654 105.556 50.4654L103.957 50.7319C105.823 48.6005 107.688 46.7353 109.819 45.6694C110.619 45.4029 110.619 44.3373 110.086 43.8042C109.02 42.4721 107.954 40.8735 107.688 40.6069Z" fill="#415A6B"/>
<path d="M61.8597 88.833L21.3605 90.9645C21.094 90.9645 20.8277 90.9645 20.5612 90.9645L3.24252 86.1685L45.6068 82.9712L61.8599 87.7672C62.659 87.7672 62.659 88.833 61.8597 88.833Z" fill="#CED6E0"/>
<path d="M3.5088 86.1685L20.8275 90.9644C21.094 90.9644 21.3603 90.9644 21.6268 90.9644L62.126 88.5664V90.6979L21.3603 93.3624C21.0937 93.3624 20.8275 93.3624 20.5609 93.3624L4.30787 87.7671C3.77507 87.2343 3.5088 86.7015 3.5088 86.1685Z" fill="#E8EAE9"/>
<path d="M74.6489 83.2375L74.1161 81.6388C74.1161 81.6388 72.784 81.6388 71.4516 80.8395C70.1195 80.0402 67.9878 76.3101 67.1884 75.2442C66.3891 73.9121 64.5239 71.2476 63.9911 69.9154C63.4583 68.8496 62.9253 66.9847 62.9253 66.9847L63.1918 64.0539C63.1918 64.0539 58.9286 62.7218 60.5273 70.4485C60.5273 70.4485 61.8594 72.8465 61.8594 73.6458C61.8594 74.4451 61.5929 75.511 61.0601 75.511C60.5273 75.7775 55.9976 76.5768 54.932 77.1096C53.8662 77.6424 51.2019 80.5735 53.5999 81.6391C53.5999 81.6391 51.7347 84.5698 54.1327 85.9022C54.1327 85.9022 53.5999 88.3002 55.1985 88.5667C55.1985 88.5667 53.8664 89.6326 54.6657 90.9647C55.4651 92.2968 57.5965 90.9647 58.1296 91.2312C58.6624 91.2312 63.9914 91.764 65.3235 91.2312C66.6556 90.9647 70.9188 91.764 70.9188 91.764L74.6489 83.2375Z" fill="#FFD15C"/>
<path d="M99.6943 77.3759C99.6943 77.3759 98.895 68.0505 102.892 60.8565C106.888 53.6626 111.684 51.2646 116.747 52.3304C121.809 53.3963 125.806 63.521 126.871 67.5177C127.937 71.5143 124.473 85.6357 123.408 89.6323C122.608 93.6289 119.411 104.553 115.947 109.615C112.483 114.678 110.618 115.744 106.089 114.145C101.826 112.546 84.7734 106.684 79.9774 104.02C75.448 101.356 67.1882 96.8262 67.1882 96.8262C67.1882 96.8262 70.3855 81.3725 73.05 80.0404C73.05 80.0404 82.3754 85.3691 85.5727 86.7015C88.77 88.0336 90.1021 88.0336 92.5001 89.366C95.1646 90.6981 100.493 92.0305 100.493 92.0305C100.493 92.0305 99.1613 90.1653 99.6941 88.5667C100.227 86.968 100.493 85.1028 100.493 83.7707C100.494 82.4383 99.6943 77.3759 99.6943 77.3759Z" fill="#415A6B"/>
<path d="M63.1918 67.2511C61.3266 66.9846 63.4583 64.3203 63.4583 64.3203L63.1918 67.2511Z" fill="#E8EAE9"/>
</g>
<defs>
<clipPath id="clip0">
<rect width="128" height="128" fill="white"/>
</clipPath>
</defs>
</svg>
