<svg width="128" height="128" viewBox="0 0 128 128" fill="none" xmlns="http://www.w3.org/2000/svg">
<path d="M99.4737 113.854H86.1438C84.5442 113.854 83.4777 112.788 83.4777 111.188V17.0784C83.4777 15.4788 84.5442 14.4124 86.1438 14.4124H99.4737V19.7443H88.8096V108.522H99.4737V113.854Z" fill="#415A6B"/>
<path d="M98.1408 61.334H79.2123V66.6659H98.1408V61.334Z" fill="#415A6B"/>
<path d="M19.7605 113.587L14.9617 114.92L11.4959 109.055L16.2946 107.456L19.7605 113.587Z" fill="#FFD15C"/>
<path d="M70.4145 111.721L66.4155 116.786L63.4828 109.055L69.0813 105.856L70.4145 111.721Z" fill="#FFD15C"/>
<path d="M65.8821 46.9378L68.0149 44.2717C68.0149 44.2717 72.547 49.0705 74.1466 54.4024C75.7462 59.7343 76.546 65.5996 77.8789 68.7988C79.2118 71.998 82.9443 79.4629 81.6112 83.995C80.5447 88.5271 74.6797 103.457 74.1463 105.056C73.3465 106.923 73.3465 106.923 73.3465 106.923L69.3475 113.588C69.3475 113.588 67.4812 109.855 62.1493 108.256L64.5487 102.124C64.5487 102.124 65.8816 99.7247 66.1483 97.3254C66.415 94.926 66.1483 93.593 66.6814 90.927C67.2146 88.5276 67.7479 85.0617 68.0144 83.9955C68.281 82.6626 69.3473 81.063 68.5475 79.4634C67.7477 77.8638 61.8824 65.6001 61.8824 65.6001L65.8821 46.9378Z" fill="#E8EAE9"/>
<path d="M16.2946 47.2044L14.1619 44.5383C14.1619 44.5383 9.62982 49.3371 8.03022 54.669C6.43062 60.0009 5.63082 66.1329 4.03123 69.3321C2.43163 72.5313 -1.03425 79.9961 0.298919 84.5282C1.3654 89.0604 7.23042 103.99 7.76379 105.59C8.29715 107.189 8.56359 107.456 8.56359 107.456L12.5626 114.121C12.5626 114.121 14.4289 110.389 19.7608 108.789L17.3614 102.657C17.3614 102.657 16.0285 100.258 15.7618 97.8586C15.4951 95.4592 15.7618 94.1263 15.2287 91.4603C14.6955 89.0609 14.1622 85.595 13.8957 84.5287C13.3626 83.1958 12.2961 81.5962 13.0959 79.9966C13.8957 78.397 19.761 66.1334 19.761 66.1334L16.2946 47.2044Z" fill="#E8EAE9"/>
<path d="M49.3531 23.2102C49.3531 23.2102 49.0864 28.8088 48.2866 30.6751V36.8068L42.1549 44.5381L32.824 39.4726V32.0078C32.824 32.0078 31.2244 27.7421 30.9577 23.21C30.691 18.9443 29.8912 14.1455 30.4246 12.0128C30.958 9.8801 40.0222 6.68091 42.9547 6.68091C45.8872 6.68091 49.3531 10.4132 49.6197 12.2795C49.8864 13.6127 50.1529 22.144 49.3531 23.2102Z" fill="#FFD15C"/>
<path d="M51.6947 21.4087C52.1137 19.3905 51.7522 17.6088 50.8873 17.4292C50.0223 17.2496 48.9814 18.7401 48.5623 20.7583C48.1433 22.7765 48.5047 24.5582 49.3697 24.7378C50.2347 24.9174 51.2756 23.4269 51.6947 21.4087Z" fill="#FFD15C"/>
<path d="M28.4429 21.1809C28.8619 23.1991 29.9028 24.6896 30.7678 24.51C31.6328 24.3304 31.9942 22.5487 31.5752 20.5305C31.1561 18.5123 30.1152 17.0218 29.2502 17.2014C28.3853 17.381 28.0238 19.1627 28.4429 21.1809Z" fill="#FFD15C"/>
<path d="M30.691 22.6772H31.2241C31.2241 22.6772 30.4243 19.2113 30.9574 17.8784C31.4906 16.5455 32.0239 15.2123 32.0239 13.8794C32.0239 12.5465 32.0239 10.9469 33.8902 11.2133C35.7565 11.48 44.8207 11.7464 46.9537 11.48C49.0866 11.2135 49.0864 14.6792 49.0864 15.7457C49.0864 16.8121 49.8862 19.2115 49.8862 20.0113C49.8862 21.0778 49.6195 22.4107 49.6195 22.4107H49.8862C49.8862 22.4107 51.7525 17.0788 52.0189 13.6129C52.2853 10.1471 49.8862 2.68245 41.8882 0.549483C33.8902 -1.58348 29.8912 5.08159 30.691 7.48099C30.691 7.48099 26.9587 8.28078 28.0249 13.6127C29.0912 18.9446 30.691 22.6772 30.691 22.6772Z" fill="#415A6B"/>
<path d="M39.4888 36.8068C35.7565 36.5401 32.8237 31.7413 32.8237 31.7413V39.2061L37.0894 41.6055C47.4868 37.6066 48.2866 30.675 48.2866 30.675C47.2204 33.0744 43.2214 37.0734 39.4888 36.8068Z" fill="#F7B64C"/>
<path d="M49.6197 35.4737C49.6197 35.4737 51.486 37.34 54.6852 38.9396C57.8844 40.5392 66.4155 43.2053 68.0151 44.2715C68.0151 44.2715 68.5482 55.7353 62.1498 65.3329C62.1498 65.3329 60.8169 93.0592 62.1498 99.1911C62.1498 99.1911 48.0201 103.19 43.2214 103.19C38.4226 103.19 22.4266 99.1911 20.827 98.1247C18.9607 97.0582 22.9597 83.1952 23.2264 80.7958C23.2264 78.6631 20.5603 65.8663 20.5603 65.8663C20.5603 65.8663 12.829 52.003 14.4286 44.2717C14.4286 44.2717 20.2939 42.139 24.2929 40.0061C28.5586 37.8733 32.0242 34.4075 32.0242 34.4075L39.2224 40.2727L41.6218 40.0061L47.487 38.4065L49.6197 35.4737Z" fill="#CED6E0"/>
<path d="M40.0222 44.8046C41.0886 44.5379 41.6218 44.5379 42.4216 44.8046C42.6882 43.7381 44.0212 42.6719 45.3541 41.8721L40.822 41.0723H39.7555L37.3561 41.8721C38.9557 42.4052 39.7555 43.7383 40.0222 44.8046Z" fill="#415A6B"/>
<path d="M46.4206 86.9274C44.821 88.527 44.0212 89.5935 42.1549 91.1931C41.3551 90.3933 38.689 87.7272 37.8892 86.9274C37.8892 86.9274 38.689 52.2694 38.9557 50.4034C39.2224 48.5371 40.0222 44.8048 40.0222 44.8048L41.8884 43.7383L42.6882 45.0712C42.6882 45.0712 44.0212 49.87 44.0212 52.8025C44.0212 54.9355 45.6208 75.7302 46.4206 86.9274Z" fill="#415A6B"/>
<path d="M48.2866 34.1406C48.2866 34.1406 44.8207 39.2061 41.3551 40.8057C41.3551 40.8057 45.0874 43.4718 45.3541 45.0714C45.3541 45.0714 50.1529 39.2061 50.1529 37.0734C50.1529 34.9404 48.2866 34.1406 48.2866 34.1406Z" fill="#F3F3F3"/>
<path d="M40.2886 40.8057C40.2886 40.8057 38.4223 42.1386 37.0894 45.0714C37.0894 45.0714 32.5573 40.2726 31.2241 37.0734C30.9574 36.2736 30.9574 35.4738 31.7572 34.674L33.0902 33.3411C32.824 33.3411 33.8902 38.1399 40.2886 40.8057Z" fill="#F3F3F3"/>
<path d="M61.8834 98.1249C61.8834 98.1249 63.7497 106.656 65.6157 110.655C67.482 114.654 66.6822 116.52 66.6822 116.52C66.6822 116.52 64.2828 118.387 64.2828 127.984H41.0886L40.822 126.918L40.2889 127.984H17.8945C17.8945 127.984 18.1612 120.519 14.4286 114.121C14.4286 114.121 15.7615 109.055 17.8945 105.056C20.0275 101.057 20.827 97.5916 20.827 97.5916C34.1569 101.057 48.0202 101.324 61.8834 98.1249Z" fill="#415A6B"/>
<path d="M128 5.34826V28.8091C128 31.7416 125.601 34.141 122.668 34.141H99.2072C96.2747 34.141 93.8753 31.7416 93.8753 28.8091V5.34826C93.8753 2.41575 96.2747 0.0163574 99.2072 0.0163574H122.668C125.601 0.0161075 128 2.4155 128 5.34826Z" fill="#F3705A"/>
<path d="M120.002 8.01392H101.873V26.1426H120.002V8.01392Z" fill="#F05540"/>
<path d="M128 52.2696V75.7305C128 78.663 125.601 81.0624 122.668 81.0624H99.2072C96.2747 81.0624 93.8753 78.663 93.8753 75.7305V52.2696C93.8753 49.3371 96.2747 46.9377 99.2072 46.9377H122.668C125.601 46.9377 128 49.3371 128 52.2696Z" fill="#66C6B9"/>
<path d="M120.002 54.9358H101.873V73.0645H120.002V54.9358Z" fill="#4ABAA5"/>
<path d="M128 99.1908V122.652C128 125.584 125.601 127.984 122.668 127.984H99.2072C96.2747 127.984 93.8753 125.584 93.8753 122.652V99.1908C93.8753 96.2583 96.2747 93.8589 99.2072 93.8589H122.668C125.601 93.8589 128 96.2583 128 99.1908Z" fill="#FFD15C"/>
<path d="M120.002 101.857H101.873V119.986H120.002V101.857Z" fill="#F7B64C"/>
</svg>
