<?xml version="1.0" encoding="utf-8"?>
<!-- Generator: Adobe Illustrator 23.1.0, SVG Export Plug-In . SVG Version: 6.00 Build 0)  -->
<!DOCTYPE svg PUBLIC "-//W3C//DTD SVG 1.1//EN" "http://www.w3.org/Graphics/SVG/1.1/DTD/svg11.dtd" [
	<!ENTITY ns_extend "http://ns.adobe.com/Extensibility/1.0/">
	<!ENTITY ns_ai "http://ns.adobe.com/AdobeIllustrator/10.0/">
	<!ENTITY ns_graphs "http://ns.adobe.com/Graphs/1.0/">
	<!ENTITY ns_vars "http://ns.adobe.com/Variables/1.0/">
	<!ENTITY ns_imrep "http://ns.adobe.com/ImageReplacement/1.0/">
	<!ENTITY ns_sfw "http://ns.adobe.com/SaveForWeb/1.0/">
	<!ENTITY ns_custom "http://ns.adobe.com/GenericCustomNamespace/1.0/">
	<!ENTITY ns_adobe_xpath "http://ns.adobe.com/XPath/1.0/">
]>
<svg version="1.1" id="Слой_1" xmlns:x="&ns_extend;" xmlns:i="&ns_ai;" xmlns:graph="&ns_graphs;"
	 xmlns="http://www.w3.org/2000/svg" xmlns:xlink="http://www.w3.org/1999/xlink" x="0px" y="0px" viewBox="0 0 128 77.3"
	 style="enable-background:new 0 0 128 77.3;" xml:space="preserve">
<metadata>
	<sfw  xmlns="&ns_sfw;">
		<slices></slices>
		<sliceSourceBounds  bottomLeftOrigin="true" height="128" width="128" x="0" y="0"></sliceSourceBounds>
	</sfw>
</metadata>
<g>
	<defs>
		<rect id="SVGID_1_" y="-25.5" width="128" height="128"/>
	</defs>
	<clipPath id="SVGID_2_">
		<use xlink:href="#SVGID_1_"  style="overflow:visible;"/>
	</clipPath>
	<g style="clip-path:url(#SVGID_2_);">
		<path style="fill:#FFD15C;" d="M61.9,44c-0.5,0.5-1.3,1.3-2.4,1.9L55,41.3l5.6-1.1L61.9,44z"/>
		<path style="fill:#344A5E;" d="M60.8,77c-0.5-0.8-1.3-1.3-2.4-2.1c-7.2-4-25.3-8-25.3-8H17.4V77H60.8z"/>
		<path style="fill:#415A6B;" d="M46.2,77c-0.5-0.5-1.9-1.3-4.3-2.4c-4.3-1.6-19.2-6.9-19.5-6.9l-5.3-1.1v10.1h29.1V77z"/>
		<path style="fill:#344A5E;" d="M84.3,77l5.6-10.9c0,0-10.7,3.5-13.3,4.5c-2.7,1.1-8.8,2.4-10.1,6.1c0,0.3,0,0.3,0,0.5h17.9
			L84.3,77L84.3,77z"/>
		<path style="fill:#FFD15C;" d="M28.6,5.6l-0.3,1.6c0,0,1.3,3.2,1.3,4.3s-0.5,1.6-0.5,1.6s1.1,1.6,1.3,2.7c0.3,1.1-0.3,1.3-0.5,1.3
			c-0.3,0-0.8,0.3-0.8,0.3s-0.3,1.1,0,1.6c0.3,0.3-0.3,0.8-0.5,0.5c0,0,0.8,0.5,0.3,1.3c-0.5,0.8,0.5,3.2-1.9,3.7
			c-2.4,0.5-2.7,0.8-2.7,0.8l-0.8,5.1l-10.4-9.3l-0.5-1.3l3.5-13.1l7.2-3.5L28.6,5.6z"/>
		<path style="fill:#CED6E0;" d="M21.7,27.7l1.6-0.5l0.5-0.3l4,2.7L31,52.5l0.5,6.1h-8.3"/>
		<path style="fill:#415A6B;" d="M12.6,19.5c0,0,2.7-0.8,2.9-4.8c0.3-4,1.6-4.8,2.7-4.5c1.1,0.3,1.9,2.1,1.9,2.1h1.3
			c0,0-0.3-1.9,0.3-2.4c0.8-0.5,1.6-0.5,1.6-1.6c0-0.3,0-0.5,0-0.8c0-1.6,1.6-2.7,2.9-2.1c0,0,0.3,0,0.3,0.3C27.5,6.4,28,6.9,28,6.9
			s2.7-0.5,1.3-3.2C28,1.1,20.6-0.8,16.3,1.9c-4.3,2.7-5.9,8.8-5.3,12.5C11.8,18.1,12.6,19.5,12.6,19.5z"/>
		<path style="fill:#FFD15C;" d="M19.3,12.6c-0.1-1.6-1.1-2.8-2.1-2.8c-1,0.1-1.7,1.5-1.6,3.1c0.1,1.6,1.1,2.8,2.1,2.8
			C18.7,15.6,19.4,14.3,19.3,12.6z"/>
		<path style="fill:#2B4151;" d="M24.9,29.1l4,8.8l4.8,16.3c0,0,0.8,1.3,4.8,2.4c3.7,0.8,10.1,2.7,10.1,2.7s-1.3-1.6-0.8-3.7
			c0.5-2.4,2.1-3.7,3.7-3.7c0,0-2.9-0.8-3.5-1.1c-0.8-0.3-1.6-0.5-2.4-1.1c-0.8-0.5-2.1-0.8-3.2-1.6c-1.1-0.8-2.4-1.6-2.4-1.6
			s-5.6-8-6.4-9.6S32.3,33.6,32,32c-0.3-1.6-2.7-4.3-5.1-4.5C24.6,27.2,24.9,29.1,24.9,29.1z"/>
		<path style="fill:#344A5E;" d="M24.6,26.1c0,0,1.3,1.1,2.4,1.6c1.1,0.5,2.9,2.4,3.7,4c0.8,1.6,2.1,21.3,2.7,22.9
			c0.3,1.6,6.4,13.3,6.7,14.7c0.3,1.6,0,3.2,0,3.2l-10.1-4.8c0,0-3.2-35.2-4.3-37.3C24.6,28,24.6,26.1,24.6,26.1z"/>
		<path style="fill:#415A6B;" d="M24.3,26.4l1.6,1.6l-0.3,1.9l1.3,0.3c0,0,3.5,9.1,4.5,16c1.1,6.9,0.8,9.1,0.8,9.1
			s-2.1-8.8-2.9-11.7c-0.8-2.7-5.3-16.5-5.3-16.5L24.3,26.4z"/>
		<path style="fill:#F3F3F3;" d="M12.3,22.1l0.5-2.7c0,0,3.7,1.1,6.4,3.5s4,4.3,4,4.3l-1.6,4.3L12.3,22.1z"/>
		<path style="fill:#344A5E;" d="M0.3,59.4C0.6,60.8,2.7,73.6,3.3,77h17.3c3.7-1.9,6.1-4.5,6.4-8.8c0.5-4.8,0-12.3,0-12.3
			s-1.9-14.4-4.5-21.1c-2.7-6.7-10.4-13.6-10.4-13.6l-0.5,0.3c0,0-2.1,0.3-4,1.3C5.7,24,1.9,29.6,0.6,33.3c-1.1,4-0.5,14.9,0.3,17.3
			C1.7,53.6,0.1,57.8,0.3,59.4z"/>
		<path style="fill:#F7B64C;" d="M61.4,39.2L56,36.5c-0.3-0.3-0.8-0.3-1.1,0c-0.3,0-0.8,0.3-1.1,0.3c-0.8,0.3-1.1,0.3-2.4,0
			c-0.8-0.3-3.2-0.3-5.1-0.5v6.1c1.3,0,3.2,0,3.5,0.3c0.8,0.3,0.8,0.3,1.3,0.8c0.5,0.5,4.3,2.7,4.3,3.2s-0.3,0.5-0.3,0.5
			c0,0.5,0.3,0.5,0.8,0.5c0.5,0,0.8-0.3,0.8-0.3c0.8,0.3,2.1-0.5,2.1-0.5c0.5,0,0.8-0.3,1.3-0.5c0.3-0.5,0.8-1.1,0.5-1.3
			c0-0.3-0.8-1.6-1.1-1.9c0.3,0.3,1.1,0.8,1.1,0.8c0,0.3,0.5,1.3,0.5,1.3c0,2.1,1.3,1.6,1.3,1.6v-0.8c0-0.3,0.3-0.5,0.3-0.5v-1.1
			C63.8,42.9,61.4,39.2,61.4,39.2z"/>
		<path style="fill:#344A5E;" d="M69.4,47.2c0,0-1.3,1.6-2.7,1.3c-1.3-0.3-1.3-8.5,0-9.9l4.5,2.7L69.4,47.2z"/>
		<path style="fill:#ADB3BA;" d="M67.5,41.1l-1.3,5.3c-1.9,0,0-7.5,0-7.5L67.5,41.1z"/>
		<path style="fill:#FFD15C;" d="M67.5,38.9l-5.1,0.3c0,0-0.8-0.5-2.1-1.3c-1.3-0.5-1.6-1.3-2.4-1.3c-0.5-0.3-2.7,0-2.7,0
			s-0.5,0.3-0.5,0.8l-0.8,0.5c0,0,0.8,1.9,2.4,0.5c0,0,0.8-0.3,1.1,0c0,0,2.1,1.3,2.7,1.9c0.5,0.5,2.1,1.6,2.4,2.4
			c0.3,0.8,0.5,1.6,0.5,1.6l7.5,1.9l-0.8-5.1L67.5,38.9z"/>
		<path style="fill:#F3F3F3;" d="M68,38.7h-1.9c0,0,1.3,5.3,0,7.5l4.3-0.3C70.4,45.9,72.6,40.5,68,38.7z"/>
		<path style="fill:#415A6B;" d="M99.7,23.2c0,0-1.6,0.8-2.9,3.2c-1.3,2.1-1.6,2.9-1.6,2.9s-1.3,1.6-1.9,2.4
			c-0.5,0.5-0.8,0.5-1.1,1.1c-0.3,0.5-0.5,0.5-1.1,0.8c-0.5,0.3-0.5,0.3-1.9,1.1c-1.3,0.8-4.5,2.4-6.4,2.4s-5.6,0.8-6.9,1.1
			c-1.3,0.3-9.3,0.5-9.3,0.5s3.5,3.2,2.4,6.4c-1.1,3.2-1.6,3.5-2.4,3.5c0,0,0.8,0.5,2.4,0c1.6-0.5,4.3-0.8,6.4-1.1
			c1.9-0.3,9.6-1.1,11.7-1.6s6.4-2.4,7.5-2.7c1.1-0.3,2.1-0.8,2.1-0.8L99.7,23.2z"/>
		<path style="fill:#415A6B;" d="M112,77l-5.9-12.5l-21.3,5.9l-2.4,2.4c0,0-1.3,2.4-1.3,4.3H112L112,77z"/>
		<path style="fill:#FFD15C;" d="M103.2,2.9c0,0-2.1-0.3-2.9,1.3c-0.8,1.6-2.4,4.3-2.4,4.8s0.3,1.1,0,1.6c-0.3,0.3-1.9,2.4-1.9,2.9
			c0,0.5,0,0.8,0.5,1.1c0.5,0.3,1.1,0.3,1.1,0.3s-0.8,1.6,0.3,1.9c0,0-0.8,0.3-0.3,1.1c0.5,0.5-0.8,3.5,1.3,3.7
			c2.1,0.3,4-0.3,4.5,0.8c0.5,1.1-0.3,5.1-0.3,5.1l11.7-6.7l-0.5-1.9l-0.5-13.6L103.2,2.9z"/>
		<path style="fill:#344A5E;" d="M96.5,45.9l-1.9,9.6c0,0-3.2,8.8-4.5,11.2C88.8,69,88.8,69,88.8,69l9.1-2.9L98.9,36L96.5,45.9z"/>
		<path style="fill:#F3705A;" d="M54.4,77L53.9,64H48L48.8,77H54.4z"/>
		<path style="fill:#F05540;" d="M14.2,64.2c0,1.9,16,2.7,36,1.3c20-1.3,36-3.7,36-5.6v-3.2c0-1.9-16-2.7-36-1.3
			c-20,1.1-36,3.7-36,5.6V64.2z"/>
		<path style="fill:#F3705A;" d="M86.2,56.8c0,1.9-16,4.5-36,5.6c-20,1.1-36,0.5-36-1.3c0-1.9,16-4.5,36-5.6
			C69.9,54.4,86.2,54.9,86.2,56.8z"/>
		<path style="fill:#F3F3F3;" d="M73.6,57.8h2.7c0,0,2.4,0,3.5-1.6H58.2c0,0-4.5,1.6-8.8,1.1l11.5,0.5H73.6z"/>
		<path style="fill:#CED6E0;" d="M50.4,58.4l25.9-0.3c0,0-0.3,0-1.6-0.3l-25.6-0.3L50.4,58.4z"/>
		<path style="fill:#FFD15C;" d="M51.2,52c0,0,0.8,0.3,1.3,0c0.3-0.3,2.1-1.3,2.9-1.6s1.1-0.3,1.9,0.3c0.8,0.5,1.3,1.1,1.3,1.1
			s0.5-0.3,1.3,0.8c0.8,1.1,1.1,1.9,1.1,1.9s-4,0.8-4.3,0.8c-0.3,0,0-1.3,0-1.3s-0.8,0-1.1-0.5L55,53.8c0,0,1.1,0,1.3,0.5
			c0.3,0.5,0.3,1.3-0.3,1.3c-0.5,0-1.3,0.5-2.1-0.3c0,0-0.8,1.1-2.1,1.1s-4-0.5-4-0.5s0-1.6,0.5-2.4C49.1,53,51.2,52,51.2,52z"/>
		<path style="fill:#E8EAE9;" d="M55,54.9l10.7-1.6c0,0-5.3,2.7-7.5,3.5c-2.1,0.8-5.9,1.9-8,1.6l-1.3-0.8c0,0,1.9,0,3.5-0.3
			C54.2,57,55,55.4,55,54.9z"/>
		<path style="fill:#4ABAA5;" d="M103.7,25.1l7.2-0.8l-6.4,38.9L96,64.8l1.3-29.9l5.1-11.2C102.1,24,103.7,25.1,103.7,25.1z"/>
		<path style="fill:#FFD15C;" d="M95.5,64c0,0-0.8,0.5-1.6,0.8C93.1,65,93.1,65,92.8,65c-0.3,0-2.4-0.3-4,0.5
			c-1.6,0.8-2.7,0.5-2.7,1.6c0,1.1-0.5,1.3-0.5,1.3S84,69,83.5,69.6C83,69.8,83,70.9,83,70.9l-0.5,1.3c0,0,0.3,0.5,0.8,0.5
			c0.5-0.3,0.8-1.1,1.1-1.1c0.3,0,1.3-0.5,1.6-0.8c0,0,2.1-0.3,3.7,0c1.6,0,5.3,0,6.4-0.8c0.8-0.8,1.3-1.3,1.6-1.6
			c0.5-0.3,2.7-1.6,2.7-1.6L95.5,64z"/>
		<path style="fill:#F3F3F3;" d="M96.8,62.9L95.2,64c0,0,1.3,1.1,2.1,1.9s2.7,2.9,2.7,3.2s-0.3,0.3-0.3,0.3s0.3,0.3,0.5,0.3
			c0.5,0,2.9-2.1,2.9-2.1L96.8,62.9z"/>
		<path style="fill:#415A6B;" d="M104.3,12.3l1.6,0.3c0,0,0-1.9,2.4-2.1c2.4-0.3,2.4,2.9,2.9,4.3c0.5,1.3,3.5,4,3.5,4s0.5-2.9,1.3-4
			c0.8-1.1,2.1-4.8,1.1-8.3c-1.1-3.5-2.7-5.6-7.2-6.4c-4.5-0.8-8.5,0.5-9.3,1.3c-0.8,0.8,0.3,2.7,0.3,2.7s2.1-1.1,3.5-0.8
			c1.1,0.3,1.1,0.5,1.1,0.5s-2.4,1.9-1.3,4C104.8,10.4,104.3,12.3,104.3,12.3z"/>
		<path style="fill:#F3F3F3;" d="M114.9,20.3c0,0-4.3,4-5.9,5.3c-1.9,1.3-3.5,3.7-3.5,3.7l-1.9-4.3l2.9-2.7c0.8-0.8,1.6-1.3,2.4-1.6
			c2.1-1.1,5.3-2.1,5.3-2.1L114.9,20.3z"/>
		<path style="fill:#344A5E;" d="M103.7,23.7c-0.3,0.5-0.5,0.8-0.8,1.3c-0.3,0.3-0.5,0.8-0.5,1.1c-0.5,0.8-1.1,1.6-1.3,2.4
			c-0.8,1.6-1.3,3.2-1.9,5.1c-0.5,1.6-1.1,3.5-1.6,5.1c-0.5,1.9-0.8,4-1.1,5.9c0,0.5,0.3,0.8,0.8,0.8c0,0.3,0,0.3,0,0.5L95.2,52
			c0.3-1.6,0.3-14.9,0.3-17.9c0-3.2,2.1-9.3,2.9-10.4c0.8-1.1,1.1-1.1,2.4-1.6c0.5-0.3,1.6-0.3,2.4-0.5l0.3,0.3
			C103.7,22.4,103.7,22.9,103.7,23.7z"/>
		<path style="fill:#415A6B;" d="M103.7,23.5c-0.5,1.1-1.6,2.7-2.4,5.3c-1.1,4-2.9,11.7-4,17.3s-2.7,9.6-2.7,9.6
			c0.5-1.6,0.8-7.5,0.8-11.5s3.5-16,4.8-18.4c0.8-1.6,2.7-2.7,3.5-2.9C103.7,22.9,103.7,23.2,103.7,23.5z"/>
		<path style="fill:#344A5E;" d="M107.5,74.4c0.3,1.3,0.8,2.1,1.6,2.7H128c0,0-0.3-6.4-0.5-9.3c-0.3-2.9-3.2-17.3-2.9-19.2
			c0.3-1.9,1.1-8,1.6-10.9c0.5-2.9,0-10.4-2.1-12.8c-2.1-2.4-8.3-3.5-8.3-3.5l-1.1-0.3c-5.1,3.2-12.8,17.1-14.1,21.1
			c-1.3,4-1.3,7.5-0.8,9.9C100.3,54.4,106.7,71.7,107.5,74.4z"/>
		<path style="fill:#415A6B;" d="M114.4,18.7c0,0-2.1,2.1-3.5,3.2c-1.1,1.1-2.7,4.3-4,6.4c-1.3,2.1-5.6,10.1-7.2,14.7
			c-1.6,4.5-0.3,9.3-0.3,9.3s-0.5-4.8,0-6.7c0.5-1.9,4.5-11.2,10.1-18.1l-0.3-0.3l1.6-1.3c0,0,2.7-3.5,4.8-4.5
			C116,21.6,115.5,19.5,114.4,18.7z"/>
		<path style="fill:#415A6B;" d="M113.9,38.7c0,0-2.1-2.7-1.3-6.4c0,0,1.9-8,8.3-8.5c1.6-0.3,3.2,0.8,4,2.1c0.8,1.3,1.3,3.2,1.1,6.1
			c-0.3,5.9-1.1,9.3-2.4,13.3c-1.3,4-3.2,8-5.3,10.9c-2.1,2.9-13.9,14.1-13.9,14.1s-4.8-4.3-6.1-5.6c-1.3-1.3-1.9-1.6-1.9-1.6
			s5.1-4,6.1-5.6c1.3-1.6,0.8-1.9,1.9-2.4c1.1-0.3,3.7-4.3,4.8-5.3c1.1-1.3,1.6-2.4,1.9-3.5c0.3-0.8,1.9-5.9,1.9-5.9
			C113.1,40.3,113.9,38.7,113.9,38.7z"/>
		<path style="fill:#F3F3F3;" d="M103.7,22.7c0.3,0.5,0.3,1.3,0.3,2.4c0,0-1.6,0.5-1.6,1.9C102.1,26.7,103.2,23.2,103.7,22.7z"/>
		<path style="fill:#FFD15C;" d="M55.2,47.7c0,0-0.8,0-1.1-1.3c0,0-0.5,0.3-1.1,0c-0.5-0.3-0.3-0.8-0.3-0.8s-0.5,0.3-0.8-0.3
			c-0.3-0.3-0.5-0.5-0.5-1.1c0,0-0.5,0.3-1.1,0c-0.5-0.3-0.3-1.3,0-1.6c0.3-0.3,1.3,0.5,1.3,1.1c0,0,0.8-0.5,1.6-0.5
			s0.8,0.8,0.8,0.8s0.3-0.5,1.1-0.3c0.8,0.3,0.3,1.3,0.3,1.3s0.5,0.3,0.5,0.8C56,46.4,55.2,47.2,55.2,47.7z"/>
		<path style="fill:#F3F3F3;" d="M66.2,46.4c1.9,0,1.3-5.1,1.3-5.1L66.2,46.4z"/>
		<path style="fill:#F3F3F3;" d="M48.6,36.5c0,0,0,6.1-0.3,6.9h-6.7l0.8-7.2L48.6,36.5z"/>
		<path style="fill:#415A6B;" d="M12.6,19.7c0,0,8,7.7,9.3,10.1c1.6,2.4,4.5,14.1,4.8,18.1c0.3,4.3,0.3,8.3,0.3,8.3
			s-1.6-6.7-2.4-10.9c-0.8-4-4.3-13.6-6.1-17.1c-1.9-3.5-6.9-6.9-6.9-6.9L12.6,19.7z"/>
		<path style="fill:#415A6B;" d="M7,40c0,0-3.7-1.6-4.3-6.1C2.2,29.3,3,25.1,7,23.5c4-1.6,9.3,2.9,10.7,5.3c1.3,2.4,0.8,2.9,0.8,2.9
			s5.3,3.2,6.4,3.5c1.1,0.3,1.9,0.5,2.1,0.3c0.3-0.3,7.5,0.3,10.4,0.3c2.9,0,8.3,0.5,8.3,0.5s0,8-0.5,8.8c0,0-14.7-0.3-17.3-0.3
			c-2.7,0-4.8,0.3-6.9-0.3C18.7,44.3,7,40,7,40z"/>
		<path style="fill:#F3F3F3;" d="M23.8,26.9l1.1,3.2c0,0,0.8-1.3,0.5-2.7c-0.3-1.3-0.8-2.7-0.8-2.7S24.1,26.7,23.8,26.9z"/>
		<path style="fill:#E8EAE9;" d="M46.7,57.6l2.4,0.5c0,0-0.8-2.4-0.3-4c0.5-1.6,2.9-2.1,2.9-2.1l-2.7-0.5l-4.8,1.9L46.7,57.6z"/>
		<path style="fill:#2B4151;" d="M47.2,55.2c-0.5,2.4,0.8,3.7,0.8,3.7s-6.1-1.9-10.1-2.7c-1.3-0.3-2.1-0.5-2.9-1.1v-5.1
			c0,0,12,0.3,12.3,0.3c0.8,0.3,3.5,1.1,3.5,1.1C49.4,51.4,48,52.8,47.2,55.2z"/>
		<path style="fill:#FFD15C;" d="M56.3,54.4C56,53.8,55,53.8,55,53.8l0.3-0.3h-2.1v2.9c0.5-0.3,1.1-0.8,1.1-0.8
			c0.8,0.5,1.3,0.3,2.1,0.3C56.6,55.7,56.6,54.9,56.3,54.4z"/>
	</g>
</g>
</svg>
