<svg width="128" height="128" viewBox="0 0 128 128" fill="none" xmlns="http://www.w3.org/2000/svg">
<path d="M65.277 127.734L63.1481 116.025L39.1981 124.008L40.5285 127.734H65.277Z" fill="#415A6B"/>
<path d="M70.067 80.0998L72.462 77.9709C72.462 77.9709 80.9775 85.4222 77.7842 88.0831C74.857 91.0102 69.8008 82.4948 70.067 80.0998Z" fill="#344A5E"/>
<path d="M71.1315 80.0999C71.1315 80.0999 72.462 79.3016 72.462 78.7694C72.462 78.2373 73.2603 77.1727 74.0587 75.8423C75.1232 74.5118 76.7199 73.4473 77.252 72.9151C77.7842 72.383 79.647 68.9234 80.4454 68.3913C80.9775 67.8592 81.7758 68.3913 82.042 68.3913C82.3082 68.6575 82.042 69.4558 81.7758 70.2542C81.5096 71.0525 79.1146 73.9796 78.8487 74.512C78.5825 75.0442 79.1149 75.3104 79.9132 75.5766C80.7116 75.5766 84.1711 75.8428 85.2354 75.0444C86.2999 74.5123 86.5659 74.5123 87.3642 74.5123C87.8963 74.2461 91.0897 72.3835 91.888 74.5123L90.2913 75.5768C90.2913 75.5768 88.4285 76.6413 87.3642 77.1735C86.2997 77.4397 84.703 78.238 84.703 78.238C84.703 78.238 84.703 79.0364 84.9692 79.5685C85.2354 80.1006 84.703 81.1652 84.1708 81.4314C84.1708 81.4314 84.1708 82.4959 83.6387 83.2942C83.1066 84.0926 83.1066 84.0926 82.8404 84.6247C82.5742 85.1569 81.5099 85.6892 80.7116 85.6892C79.9132 85.6892 77.5182 86.7538 76.1877 87.0197C74.8572 87.5519 68.4706 88.0843 68.4706 88.0843C68.4706 88.0843 66.0753 82.2287 71.1315 80.0999Z" fill="#F7B64C"/>
<path d="M72.462 77.9707C72.462 77.9707 69.8008 80.0995 72.462 84.8895C75.1232 89.6796 77.7841 88.3491 77.7841 88.3491C77.7841 88.3491 69.5346 95.2679 65.8091 96.5986C62.0836 97.9291 59.9545 97.9291 59.9545 97.9291L58.0917 85.1557C58.0917 85.1557 63.1479 83.0269 64.7446 82.7607C66.3412 82.4945 66.3412 81.164 67.4058 80.8979C68.7365 80.6319 72.462 77.9707 72.462 77.9707Z" fill="#415A6B"/>
<path d="M59.1565 100.324L60.7531 108.307C60.7531 108.307 62.0836 120.549 63.6803 122.411C64.4786 123.476 64.7448 125.871 65.0108 127.733H68.4703C68.2041 126.403 67.672 124.806 66.8736 123.21C65.0108 119.75 63.6803 114.162 63.4141 111.235C63.1479 108.307 61.5512 81.9624 60.7529 78.2366C59.9545 74.5111 58.89 72.9145 58.3579 69.7211C57.8257 66.5278 57.5595 59.8749 56.2291 58.5444C54.8986 57.4799 49.5762 56.9478 49.5762 56.9478C49.5762 56.9478 51.439 64.399 52.7695 67.0599C53.834 69.7214 58.8903 95.2681 59.1565 100.324Z" fill="#344A5E"/>
<path d="M53.3019 69.4553C53.3019 69.7215 53.3019 69.7215 53.5681 69.9875C53.3019 69.9875 53.3019 69.7215 53.3019 69.4553Z" fill="#344A5E"/>
<path d="M54.3664 33.2639L58.0919 37.5218C58.0919 37.5218 58.3581 40.7151 58.8903 41.7797C59.1565 42.8442 57.2936 44.1747 57.0274 44.7068C56.7612 45.239 58.0919 48.6985 58.0919 50.029C58.0919 51.3594 56.4953 51.3594 55.6969 51.3594C55.6969 51.3594 55.6969 54.0206 54.3664 53.4883C54.3664 53.4883 55.431 54.5528 54.3664 55.3511C53.3019 56.1495 54.6326 59.609 51.4393 59.3428C48.2459 59.0766 45.3188 59.0766 45.3188 59.0766L45.585 70.5195L33.8756 67.0602L30.4161 53.4885C30.4161 53.4885 32.0128 50.8273 32.8111 49.4968C33.3433 48.1663 39.1978 36.7235 39.1978 36.7235L54.3664 33.2639Z" fill="#FFD15C"/>
<path d="M45.3186 59.0767C45.3186 59.0767 46.9152 59.3429 49.044 59.3429C48.5119 59.0767 42.6573 54.8191 40.5285 50.0291C40.5285 50.0291 41.5931 57.4803 45.3186 62.2703V59.0767Z" fill="#F7B64C"/>
<path d="M62.3498 118.686C60.7532 121.879 55.9631 125.871 39.7302 124.541L28.5535 67.0604L37.3352 63.6009L39.9964 64.6654C39.9964 64.6654 41.5931 65.9959 42.1252 67.0604C42.6574 68.1249 43.7219 68.3909 43.7219 68.3909C43.7219 68.3909 45.3186 64.6654 45.3186 62.8025C45.3186 61.2059 51.1731 64.3992 51.1731 64.3992C51.1731 64.3992 51.7052 65.4637 52.5036 67.3264C52.7698 67.5926 53.0357 68.3909 53.3019 69.7214C53.3019 69.9876 53.3019 69.9876 53.5681 70.2535C53.8343 70.7856 53.8343 71.318 54.1003 72.1164C54.1003 72.3826 54.1003 72.3826 54.1003 72.6485V72.9147V73.1809C54.1003 73.4471 54.1003 73.713 54.3665 73.9792V74.2454V74.5116C54.3665 74.7778 54.3665 74.7778 54.3665 75.0438C54.3665 75.3097 54.3665 75.5759 54.6326 75.8421C54.6326 76.1083 54.6326 76.1083 54.6326 76.3743V76.6405V76.9066C54.6326 77.1728 54.6326 77.1728 54.6326 77.4388C54.8988 78.2371 54.8988 79.0355 55.1648 79.8338V80.1C55.431 81.4305 55.6969 83.0271 55.9631 84.6238C55.9631 84.89 55.9631 84.89 55.9631 85.156C56.2293 85.9543 56.2293 86.7526 56.4953 87.2848C56.4953 87.551 56.4953 87.8169 56.4953 88.0831C56.4953 88.3493 56.4953 88.6152 56.4953 88.8814C56.4953 89.1476 56.4953 89.4136 56.7615 89.6798C56.7615 89.946 56.7615 89.946 56.7615 90.2119C56.7615 90.4781 56.7615 90.7441 57.0277 91.0103C57.0277 91.2764 57.0277 91.2764 57.0277 91.5424C57.0277 91.8086 57.0277 92.0745 57.2939 92.3407V92.6069C57.2939 92.8731 57.2939 93.1391 57.5601 93.4053C57.5601 93.9374 57.8262 94.4698 57.8262 94.7357C57.8262 95.0017 57.8262 95.2679 57.8262 95.2679C57.8262 95.5341 57.8262 95.8 57.8262 96.0662C57.8262 96.5984 57.8262 96.8646 58.0924 97.3967V97.6629C58.0924 97.9291 58.0924 98.195 58.0924 98.4612C58.0924 98.7274 58.0924 98.9934 58.0924 99.2596V99.5258V99.7922C58.0924 100.058 58.0924 100.324 58.0924 100.591L59.6891 108.574C60.7531 108.308 61.2853 114.162 62.3498 118.686Z" fill="#CED6E0"/>
<path d="M51.9714 124.274C52.5036 122.944 53.3019 121.613 53.3019 120.549C53.5681 118.686 52.5036 113.098 50.9069 109.106C49.3102 105.114 46.3831 95.0022 45.8507 91.8088C45.3185 88.6155 45.3185 84.6238 44.254 80.6321C43.1895 76.6404 43.1895 72.3826 43.1895 72.3826C43.1895 73.9792 43.4557 79.0355 43.9878 80.6321C44.52 82.2288 45.5845 91.8088 45.5845 91.8088C46.1166 95.8005 49.31 105.647 50.9067 109.372C52.5033 113.098 53.0355 119.218 53.0355 120.549C53.0357 121.081 52.5036 122.944 51.9714 124.274Z" fill="#ADB3BA"/>
<path d="M42.3914 127.734C43.1897 124.274 43.9881 118.42 43.9881 114.694C43.9881 108.84 41.0609 101.655 41.0609 101.655L25.0942 57.48C25.0942 57.48 15.7804 60.9395 11.2563 62.8021C6.73222 64.6648 5.66794 67.06 5.66794 67.06L11.7884 127.734H42.3914Z" fill="#344A5E"/>
<path d="M29.0856 54.0205C29.0856 54.0205 24.2956 56.9477 23.4973 58.5443C22.6989 60.141 22.6989 63.0681 22.6989 63.0681L25.8923 64.931L23.4973 67.0598C23.4973 67.0598 43.9878 105.114 44.5202 114.428C44.5202 114.428 41.859 98.7273 39.9964 90.4778C38.1335 82.2285 29.0856 56.9479 29.0856 54.0205Z" fill="#415A6B"/>
<path d="M39.9964 106.445H47.9798C47.9798 106.445 48.5119 106.711 49.3102 107.243C49.8424 107.509 51.9714 108.84 52.7698 108.84C53.5681 109.106 53.8343 109.372 53.8343 109.372L55.9631 109.638C55.9631 109.638 57.0277 113.098 51.4393 111.501L48.246 110.171C48.246 110.171 50.641 111.501 50.9072 112.033C51.4393 112.566 53.5684 113.63 54.1005 113.896C54.3667 114.162 55.6972 114.695 55.9634 114.961C56.2296 115.227 58.6246 114.961 58.8905 116.291C59.1567 117.356 57.5601 117.356 57.5601 117.356H54.3667C54.3667 117.356 53.8346 119.219 53.0362 118.953C51.9717 118.686 51.9717 118.686 51.9717 118.686C51.9717 118.686 52.2379 119.485 51.9717 120.017C51.7055 120.549 50.9072 120.815 50.1088 120.549C49.3105 120.283 49.3105 120.283 49.3105 120.283C49.3105 120.283 49.5767 121.879 47.4476 121.347C45.3188 121.081 45.3188 120.549 44.5205 120.283C43.9883 120.283 43.4559 120.017 42.9238 119.484C42.1255 118.952 38.6659 116.823 38.6659 116.823C38.6659 116.823 39.1981 107.775 39.9964 106.445Z" fill="#FFD15C"/>
<path d="M60.7531 108.307C60.4869 107.775 55.9631 94.4696 55.6969 89.4136C55.1648 84.0914 51.9714 71.584 49.044 65.9957C47.1812 62.5361 47.9795 60.6735 48.7778 59.3428C49.31 59.3428 50.1083 59.609 50.9067 59.609L52.2371 61.7378H53.5676C53.5676 61.7378 57.2931 73.979 58.8898 83.0267C60.2207 91.8086 60.2207 105.114 60.7531 108.307Z" fill="#415A6B"/>
<path d="M78.3165 107.775C78.3165 107.775 71.9298 107.243 70.5994 105.913C69.2689 104.582 69.2689 97.3971 70.8656 96.5988C72.462 95.8004 78.3165 107.775 78.3165 107.775Z" fill="#ADB3BA"/>
<path d="M66.6075 95.5341C66.6075 95.5341 62.882 94.4695 64.2125 91.8086L68.7363 92.6069C68.7363 92.6069 72.4618 93.4053 74.5908 94.7357C76.7196 96.0662 74.5908 104.582 74.5908 104.582C74.5908 104.582 74.0587 105.114 72.1958 105.114C70.333 105.114 68.4703 104.848 67.4058 104.316C66.0753 103.784 63.1479 102.985 61.8174 101.655C60.487 100.59 55.9631 95.8003 55.9631 95.8003C55.9631 95.8003 56.4953 94.4698 59.1565 95.8003C59.1565 95.8003 61.2853 96.5986 61.5515 96.8648L64.2127 97.3969C64.2127 97.3969 67.406 97.3969 67.9382 97.3969C68.4703 97.1307 69.0027 96.5986 69.0027 96.5986C69.0027 96.5986 67.4058 96.0665 66.6075 95.5341Z" fill="#F7B64C"/>
<path d="M73.5265 98.1953C73.5265 98.1953 75.6553 107.775 70.8653 105.912L85.5016 115.226L89.2271 104.05L73.5265 98.1953Z" fill="#344A5E"/>
<path d="M69.2687 94.7357C69.2687 94.7357 69.0025 94.2036 67.672 93.9374C66.3415 93.6712 63.9465 92.6069 63.1482 92.3407C62.3498 92.0745 62.3498 92.0745 61.5515 91.2762C60.7531 90.4779 57.2936 86.4862 57.2936 86.4862C57.2936 86.4862 58.0919 85.6878 58.6241 86.22L57.2936 85.1555C57.2936 85.1555 59.1565 83.825 61.0191 85.6876C61.0191 85.6876 63.4141 86.4859 64.2124 87.8164L66.6074 88.8809L71.1313 89.4131L72.9941 88.6147C72.9941 88.6147 71.1313 87.8164 71.1313 86.2197C71.1313 84.6231 72.9941 84.8893 74.0584 85.4214C75.123 86.2197 74.8568 86.4859 76.1872 86.7519C77.5177 87.0181 78.5822 87.5502 78.8484 88.0824C79.1146 88.6145 79.1146 88.6145 79.1146 88.6145C79.1146 88.6145 76.7196 95.0012 73.7925 95.0012C71.1315 94.7357 69.2687 94.7357 69.2687 94.7357Z" fill="#FFD15C"/>
<path d="M58.6241 85.9539C58.6241 85.9539 58.6241 85.9539 58.8903 86.2201C59.1565 86.4863 59.4224 86.7522 59.6886 87.0184C59.9548 87.2846 60.487 87.8167 60.7531 88.0829C61.2853 88.6151 61.5515 88.8813 62.0836 89.4134C62.6158 89.9455 63.1482 90.2117 63.4141 90.7439L63.6803 91.0101L63.9465 91.2763C64.2127 91.2763 64.4786 91.5425 64.7448 91.5425C65.277 91.8087 65.5432 92.0746 65.8094 92.0746L66.0756 92.3408C66.0756 92.3408 65.8094 92.3408 65.8094 92.0746C65.8094 92.0746 65.5432 91.8084 65.2772 91.8084C65.011 91.8084 65.011 91.5422 64.7451 91.5422C64.4789 91.5422 64.2129 91.276 63.9467 91.276C63.9467 91.276 63.6805 91.276 63.6805 91.0098C63.4144 91.0098 63.4144 90.7436 63.4144 90.7436C62.8822 90.4774 62.3498 89.9453 61.8177 89.4131C61.2855 88.881 60.7531 88.6148 60.4872 88.0827C60.221 87.8165 60.221 87.5505 59.9551 87.5505C59.6889 87.2843 59.6889 87.0184 59.4229 87.0184C59.1567 86.7522 58.8908 86.4863 58.6246 86.2201C58.8903 86.2201 58.6241 85.9539 58.6241 85.9539Z" fill="#F7B64C"/>
<path d="M60.2208 85.9539C60.2208 85.9539 60.2208 85.9539 60.487 86.2201C60.7532 86.4863 61.0191 86.7522 61.2853 87.2846C61.5515 87.5508 61.8174 88.0829 62.3498 88.6151C62.882 88.8813 63.4144 89.4134 63.9465 89.9455C64.2127 90.2117 64.4786 90.4777 64.7448 90.4777C65.011 90.7439 65.277 90.7439 65.5432 91.0098C66.0753 91.276 66.6077 91.542 67.1398 91.542C67.672 91.8082 67.9382 91.8082 68.2044 91.8082C68.4706 91.8082 68.7365 92.0744 68.7365 92.0744C68.7365 92.0744 68.4703 92.0744 68.2044 92.0744C67.9384 92.0744 67.406 91.8082 67.1398 91.8082C66.8736 91.8082 66.6077 91.542 66.3415 91.542C66.0753 91.542 65.8094 91.2758 65.5432 91.2758C65.011 91.0096 64.4786 90.4774 63.9465 90.2112C63.6803 89.945 63.4144 89.6791 63.1482 89.6791C62.882 89.4129 62.616 89.147 62.3498 89.147C62.0836 88.8808 61.8177 88.6148 61.8177 88.3486C61.5515 88.0824 61.5515 87.8165 61.2855 87.8165C61.0194 87.2843 60.7534 87.0181 60.7534 86.7519C60.2208 85.9539 60.2208 85.9539 60.2208 85.9539Z" fill="#F7B64C"/>
<path d="M105.992 45.239L98.5409 44.4407C98.5409 44.4407 95.6137 50.8274 95.6137 52.1578C95.6137 52.1578 96.1459 53.4883 95.6137 54.5528C95.0816 55.6174 92.6866 57.7462 92.4204 58.8107C92.1542 59.8753 92.6866 60.4074 93.2187 60.9395C93.7509 61.2057 94.2833 61.4717 94.2833 61.4717C94.2833 61.4717 92.6866 63.8667 94.2833 64.3988C94.2833 64.3988 93.2187 64.665 93.7511 65.9955C94.2835 67.326 91.6223 70.5193 95.8799 71.3177C100.138 72.116 101.734 74.511 101.468 76.3739C101.202 78.2367 96.4121 84.6234 96.4121 84.6234C87.8966 96.0663 102 89.9456 104.662 86.4863L118.233 76.3741L116.37 55.8836L105.992 45.239Z" fill="#FFD15C"/>
<path d="M98.5409 84.3576L94.8154 87.8171L97.4766 79.8337C97.4766 79.8337 92.6866 83.8254 90.5578 87.5509C88.429 91.2764 83.639 107.509 84.7032 115.226C85.7678 123.21 85.7678 123.21 85.7678 123.21L106.525 83.5592L109.186 77.4387L98.5409 84.3576Z" fill="#CED6E0"/>
<path d="M96.9442 79.0354C96.9442 79.0354 91.888 86.2204 91.0897 89.9459C90.2913 93.6714 85.2351 105.114 84.9692 111.235C84.703 117.621 84.703 117.621 84.703 117.621C84.703 117.621 83.3725 102.453 86.2997 94.4697C89.2268 86.4864 94.5492 79.3013 94.5492 79.3013L96.9442 79.0354Z" fill="#415A6B"/>
<path d="M117.701 127.734C117.169 126.669 116.636 125.605 116.104 125.073C114.774 123.476 115.838 119.484 115.572 117.089C115.306 114.694 120.894 105.38 122.757 101.122C124.354 96.5986 126.749 82.4945 124.354 77.9707C121.959 73.4469 117.169 73.1807 117.169 73.1807C117.169 73.1807 105.194 82.7607 99.0733 87.8169C92.9528 92.8731 83.6387 104.848 82.042 114.428C80.9775 120.017 80.9775 125.073 80.9775 128L117.701 127.734Z" fill="#344A5E"/>
<path d="M113.177 72.6484L117.435 76.108C117.435 76.108 109.452 80.0997 102.799 85.688C96.1459 91.2764 88.4287 100.058 86.832 103.251C86.832 103.251 92.4204 91.2764 101.734 83.0268C110.782 74.7772 113.177 72.6484 113.177 72.6484Z" fill="#415A6B"/>
<path d="M96.9442 71.5843C99.073 72.3826 100.404 73.4471 100.936 74.5114C106.258 71.5843 108.121 65.7297 108.387 65.7297C102.533 72.6488 96.9442 71.5843 96.9442 71.5843Z" fill="#F7B64C"/>
<path d="M114.242 71.0522L116.105 74.2455C113.71 76.1084 110.782 78.2372 107.323 80.1001L105.992 79.3018C105.992 79.3018 104.662 82.2289 98.5411 84.6239C101.202 80.1001 109.718 72.9151 113.443 71.0522C113.709 70.786 113.975 70.786 114.242 71.0522Z" fill="#F3F3F3"/>
<path d="M98.275 44.4409C98.275 44.4409 99.3395 47.6342 101.735 52.6904C104.13 57.7466 105.726 60.6738 108.92 60.1417C112.113 59.6095 112.379 57.7466 113.71 59.6095C115.04 61.4724 113.177 69.4557 115.572 73.4474C117.967 77.4391 125.152 84.3579 124.088 92.8737C122.757 101.389 122.757 101.389 122.757 101.389C122.757 101.389 127.281 97.3975 127.814 91.0108C128.346 84.6241 126.749 81.4308 126.217 72.1169C125.685 62.8031 125.951 51.094 122.225 46.304C118.5 41.514 104.662 36.4575 98.275 44.4409Z" fill="#F3705A"/>
<path d="M112.889 58.2875C111.52 57.752 109.716 59.0933 108.859 61.2834C108.002 63.4735 108.417 65.6832 109.786 66.2187C111.155 66.7543 112.959 65.413 113.816 63.2229C114.673 61.0327 114.258 58.8231 112.889 58.2875Z" fill="#FFD15C"/>
<path d="M101.202 94.4702C101.202 94.4702 104.129 81.6968 113.709 81.6968C123.289 81.6968 123.289 89.9463 122.757 94.204C122.225 98.1956 119.83 102.187 117.967 104.316C115.838 106.445 101.202 121.347 101.202 121.347C101.202 121.347 98.0088 125.073 94.8154 123.742C91.6221 122.412 82.8404 113.098 82.042 111.235C81.2437 109.373 79.1149 106.711 77.5182 105.381C75.9215 104.316 67.1398 94.7361 67.1398 94.7361C67.1398 94.7361 76.1877 92.3411 78.0503 89.9461C79.9132 87.5511 79.1149 86.7527 79.1149 86.7527C79.1149 86.7527 83.1066 91.5428 84.1711 93.1394C85.2356 94.7361 89.2273 98.1956 90.5578 100.591C91.8883 102.986 92.9528 105.381 93.7511 106.445C94.5495 107.51 96.1461 108.308 96.4123 108.308C96.6785 108.308 96.6785 106.445 96.9445 105.913C96.9442 105.381 101.202 94.4702 101.202 94.4702Z" fill="#415A6B"/>
<path d="M98.275 44.4407C98.275 44.4407 98.275 48.6986 100.404 52.9562C102.533 57.2138 103.331 58.5445 103.331 58.5445C103.331 58.5445 99.6054 48.9645 99.8714 46.8357" fill="#F3705A"/>
<path d="M100.936 74.2451L93.7509 79.8335C93.7509 79.8335 96.1459 84.0913 95.6137 85.954C94.8154 87.8168 94.8154 87.8168 94.8154 87.8168C94.8154 87.8168 101.468 77.4385 101.734 76.3739C102 75.3096 100.936 74.2451 100.936 74.2451Z" fill="#F3F3F3"/>
<path d="M32.5452 49.4967C32.5452 49.4967 34.1419 50.5613 35.4723 47.9001C36.8028 45.2389 36.8028 42.8439 38.9319 42.3117C41.0607 41.7796 42.6574 45.2389 42.9236 48.1663H44.5202C44.5202 48.1663 44.254 44.7067 46.3831 43.11C48.246 41.5134 54.1003 39.6505 55.1648 38.5862C56.2293 37.5219 58.3581 37.5217 58.3581 37.5217C58.3581 37.5217 62.3498 35.3929 59.9548 31.135C57.2936 26.8771 48.246 19.6921 39.4643 24.7483C26.1585 32.1995 34.9402 42.5779 32.5452 49.4967Z" fill="#344A5E"/>
<path d="M30.9485 52.4241C30.9485 52.4241 37.6014 62.8024 39.9964 64.6653C39.9964 64.6653 38.6659 64.3991 36.803 65.1975C34.9402 65.9958 29.618 67.8587 29.618 67.8587C29.618 67.8587 29.3518 58.8108 28.8197 56.9481C28.5535 55.0853 29.0856 53.4886 30.9485 52.4241Z" fill="#F3F3F3"/>
<path d="M44.7864 60.4074C44.5202 59.8752 44.2543 59.3428 44.2543 59.0769C44.5202 59.609 44.7864 59.8752 44.7864 60.4074Z" fill="#F3F3F3"/>
<path d="M50.3748 63.0686C50.641 63.6007 51.9714 65.1974 46.9152 69.7215C45.8507 70.786 43.7219 70.5198 43.1898 72.6486C43.1898 72.6486 43.1898 69.7215 43.456 68.3908C43.7221 67.0603 45.3188 63.8669 44.5205 60.6736C44.5205 60.1414 44.2543 59.609 43.9883 59.3431L46.9155 59.0769C47.7138 59.0769 48.246 59.3431 48.7784 59.609L52.2379 63.0686C52.5036 62.8024 50.3748 62.5364 50.3748 63.0686Z" fill="#F3F3F3"/>
<path d="M3.27294 77.9707C3.27294 77.9707 2.4746 67.0602 7.53082 66.2619C12.853 65.4636 16.3125 80.0998 17.1109 84.3574C17.643 88.6153 17.643 99.2596 17.1109 99.792C16.5787 100.324 18.4413 102.453 18.7075 103.252C18.9737 104.05 22.1668 102.985 23.7635 103.784C25.3602 104.582 26.9568 106.179 27.7552 106.179C28.5535 106.179 40.5286 106.179 40.5286 106.179C40.5286 106.179 38.1335 118.952 38.9319 123.21C38.9319 123.21 24.5618 120.549 21.9006 119.484C19.2394 118.42 8.86104 114.694 5.9339 113.364C3.00675 112.033 0.0793457 109.638 0.0793457 106.977C0.0793457 104.316 3.27294 77.9707 3.27294 77.9707Z" fill="#415A6B"/>
<path d="M79.9132 14.1039C79.9132 22.0872 89.227 28.2077 100.936 28.2077H101.202L115.572 35.9249V24.2163C119.298 21.5551 121.693 18.0958 121.693 14.1041C121.693 6.12074 112.379 0.000244148 100.67 0.000244148C89.4932 -5.33217e-06 79.9132 6.38668 79.9132 14.1039Z" fill="#66C6B9"/>
<path d="M112.113 17.5634C114.023 17.5634 115.572 16.0145 115.572 14.1038C115.572 12.1932 114.023 10.6443 112.113 10.6443C110.202 10.6443 108.653 12.1932 108.653 14.1038C108.653 16.0145 110.202 17.5634 112.113 17.5634Z" fill="white"/>
<path d="M100.936 17.5634C102.847 17.5634 104.395 16.0145 104.395 14.1038C104.395 12.1932 102.847 10.6443 100.936 10.6443C99.0253 10.6443 97.4764 12.1932 97.4764 14.1038C97.4764 16.0145 99.0253 17.5634 100.936 17.5634Z" fill="white"/>
<path d="M90.0254 17.5634C91.936 17.5634 93.4849 16.0145 93.4849 14.1038C93.4849 12.1932 91.936 10.6443 90.0254 10.6443C88.1147 10.6443 86.5659 12.1932 86.5659 14.1038C86.5659 16.0145 88.1147 17.5634 90.0254 17.5634Z" fill="white"/>
<path d="M102.267 25.0147C102.267 32.9981 92.9528 39.1186 81.2437 39.1186H80.9775L66.6074 46.8358V35.1269C62.8819 32.4657 60.4869 29.0064 60.4869 25.0147C60.4869 17.0314 69.8008 10.9109 81.5099 10.9109C92.9525 10.9106 102.267 17.2973 102.267 25.0147Z" fill="#F3705A"/>
<path d="M70.3332 28.4743C72.2438 28.4743 73.7927 26.9254 73.7927 25.0147C73.7927 23.1041 72.2438 21.5552 70.3332 21.5552C68.4225 21.5552 66.8736 23.1041 66.8736 25.0147C66.8736 26.9254 68.4225 28.4743 70.3332 28.4743Z" fill="white"/>
<path d="M81.2437 28.4743C83.1543 28.4743 84.7032 26.9254 84.7032 25.0147C84.7032 23.1041 83.1543 21.5552 81.2437 21.5552C79.333 21.5552 77.7841 23.1041 77.7841 25.0147C77.7841 26.9254 79.333 28.4743 81.2437 28.4743Z" fill="white"/>
<path d="M92.4204 28.4743C94.331 28.4743 95.8799 26.9254 95.8799 25.0147C95.8799 23.1041 94.331 21.5552 92.4204 21.5552C90.5097 21.5552 88.9608 23.1041 88.9608 25.0147C88.9608 26.9254 90.5097 28.4743 92.4204 28.4743Z" fill="white"/>
</svg>
