<svg width="55" height="55" viewBox="0 0 55 55" fill="none" xmlns="http://www.w3.org/2000/svg"><g clip-path="url(#clip0)"><path d="M50.5639 10.6343H49.6767C49.1858 10.6343 48.7894 11.0311 48.7894 11.5215C48.7894 12.0124 49.1858 12.4088 49.6767 12.4088H50.5639C51.0535 12.4088 51.4512 12.8065 51.4512 13.296V23.9429C51.4512 24.4337 51.8476 24.8301 52.3384 24.8301C52.8288 24.8301 53.2256 24.4337 53.2256 23.9429V13.296C53.2256 11.8287 52.0312 10.6343 50.5639 10.6343Z" fill="#AAB2BD"/><path d="M50.5639 10.6343C50.5639 9.16699 49.3695 7.9726 47.9022 7.9726C46.4344 7.9726 45.2405 9.16699 45.2405 10.6343V40.8005H50.5639V10.6343Z" fill="#656D78"/><path d="M37.2553 52.3471V55.0002H1.76572V5.31476H4.4361V52.3385L37.2553 52.3471Z" fill="#E6E9ED"/><path d="M7.08915 49.6768L39.9257 49.6855V52.3472H37.2553L4.4361 52.3385V2.66174H7.08915V49.6768Z" fill="#CCD1D9"/><path d="M42.5788 5.31477H37.2553V0L42.5788 5.31477Z" fill="#F5F7FA"/><path d="M42.5787 5.31477V49.6854H39.9257L7.08914 49.6768V0H37.2553V5.31477H42.5787Z" fill="#E6E9ED"/><path d="M47.9022 45.2367C47.4113 45.2367 47.015 44.8403 47.015 44.3494V43.4622C47.015 42.9718 47.4113 42.575 47.9022 42.575C48.3926 42.575 48.7894 42.9718 48.7894 43.4622V44.3494C48.7894 44.8403 48.3926 45.2367 47.9022 45.2367Z" fill="#5D9CEC"/><path d="M45.2405 18.6195H50.5639V20.394H45.2405V18.6195Z" fill="#545C66"/><path d="M36.3681 23.0613H13.2998C12.809 23.0613 12.4126 22.6645 12.4126 22.1741C12.4126 21.6833 12.809 21.2869 13.2998 21.2869H36.3681C36.8585 21.2869 37.2553 21.6833 37.2553 22.1741C37.2553 22.6645 36.8585 23.0613 36.3681 23.0613Z" fill="#CCD1D9"/><path d="M36.3681 27.4976H13.2998C12.809 27.4976 12.4126 27.1007 12.4126 26.6103C12.4126 26.1195 12.809 25.7231 13.2998 25.7231H36.3681C36.8585 25.7231 37.2553 26.1195 37.2553 26.6103C37.2553 27.1007 36.8585 27.4976 36.3681 27.4976Z" fill="#CCD1D9"/><path d="M36.3681 31.9896H13.2998C12.809 31.9896 12.4126 31.5928 12.4126 31.1024C12.4126 30.6116 12.809 30.2151 13.2998 30.2151H36.3681C36.8585 30.2151 37.2553 30.6116 37.2553 31.1024C37.2553 31.5928 36.8585 31.9896 36.3681 31.9896Z" fill="#CCD1D9"/><path d="M24.8339 36.4259H13.2998C12.809 36.4259 12.4126 36.029 12.4126 35.5386C12.4126 35.0478 12.809 34.6514 13.2998 34.6514H24.8339C25.3244 34.6514 25.7212 35.0478 25.7212 35.5386C25.7212 36.029 25.3244 36.4259 24.8339 36.4259Z" fill="#CCD1D9"/><path d="M36.3681 44.411H30.1574C29.6665 44.411 29.2701 44.0141 29.2701 43.5237C29.2701 43.0329 29.6665 42.6365 30.1574 42.6365H36.3681C36.8585 42.6365 37.2553 43.0329 37.2553 43.5237C37.2553 44.0141 36.8585 44.411 36.3681 44.411Z" fill="#CCD1D9"/><path d="M31.9318 46.1296C31.441 46.1296 31.0446 45.7328 31.0446 45.2424V41.6934C31.0446 41.2026 31.441 40.8062 31.9318 40.8062C32.4223 40.8062 32.8191 41.2026 32.8191 41.6934V45.2424C32.8191 45.7328 32.4223 46.1296 31.9318 46.1296Z" fill="#5D9CEC"/><path d="M31.931 46.1295C31.7456 46.1295 31.5593 46.0715 31.3994 45.9519C31.0074 45.6582 30.9272 45.1019 31.2218 44.7107L33.8835 41.1618C34.1773 40.7689 34.7335 40.6904 35.1251 40.9842C35.5172 41.2779 35.5969 41.8341 35.3023 42.2253L32.6406 45.7743C32.4678 46.0069 32.2013 46.1295 31.931 46.1295Z" fill="#5D9CEC"/><path d="M34.5936 46.1296C34.1028 46.1296 33.7064 45.7328 33.7064 45.2424V41.6934C33.7064 41.2026 34.1028 40.8062 34.5936 40.8062C35.084 40.8062 35.4808 41.2026 35.4808 41.6934V45.2424C35.4808 45.7328 35.084 46.1296 34.5936 46.1296Z" fill="#5D9CEC"/><path d="M16.8488 16.8684C16.3579 16.8684 15.9615 16.4716 15.9615 15.9812V7.99686C15.9615 7.50602 16.3579 7.10962 16.8488 7.10962C17.3392 7.10962 17.736 7.50602 17.736 7.99686V15.9812C17.736 16.4707 17.3392 16.8684 16.8488 16.8684Z" fill="#545C66"/><path d="M20.3978 9.77137H13.2998C12.809 9.77137 12.4126 9.37454 12.4126 8.88413C12.4126 8.39329 12.809 7.99689 13.2998 7.99689H20.3978C20.8882 7.99689 21.285 8.39329 21.285 8.88413C21.285 9.37454 20.8882 9.77137 20.3978 9.77137Z" fill="#656D78"/><path d="M21.285 12.433H19.5105C19.0197 12.433 18.6233 12.0362 18.6233 11.5458C18.6233 11.055 19.0197 10.6586 19.5105 10.6586H21.285C21.7754 10.6586 22.1722 11.055 22.1722 11.5458C22.1722 12.0362 21.7754 12.433 21.285 12.433Z" fill="#656D78"/><path d="M14.1871 12.433H12.4126C11.9218 12.433 11.5254 12.0362 11.5254 11.5458C11.5254 11.055 11.9218 10.6586 12.4126 10.6586H14.1871C14.6775 10.6586 15.0743 11.055 15.0743 11.5458C15.0743 12.0362 14.6775 12.433 14.1871 12.433Z" fill="#656D78"/><path d="M20.3978 16.8684H13.2998C12.809 16.8684 12.4126 16.4716 12.4126 15.9812C12.4126 15.4903 12.809 15.0939 13.2998 15.0939H20.3978C20.8882 15.0939 21.285 15.4903 21.285 15.9812C21.285 16.4716 20.8882 16.8684 20.3978 16.8684Z" fill="#656D78"/><path d="M45.2405 40.8005C45.2405 40.8282 45.2535 40.852 45.2565 40.8789C45.2617 40.9382 45.2743 40.9959 45.292 41.0535C45.3098 41.112 45.331 41.1661 45.3592 41.2194C45.3726 41.2424 45.3743 41.2701 45.3895 41.293L47.1605 43.9496C47.1614 43.9504 47.1614 43.9513 47.1623 43.9522L47.164 43.9548C47.2242 44.0462 47.3013 44.1164 47.3858 44.1757C47.3953 44.1835 47.4001 44.1943 47.4096 44.2004C47.4213 44.2078 47.4326 44.2104 47.4443 44.2173C47.4941 44.2468 47.5452 44.2706 47.6002 44.2901C47.6228 44.2992 47.6449 44.3087 47.6678 44.3161C47.7415 44.3356 47.8169 44.3477 47.8922 44.3486C47.8957 44.3486 47.8987 44.3494 47.9013 44.3494H47.9031C47.9057 44.3494 47.9083 44.3486 47.9117 44.3486C47.9871 44.3477 48.0625 44.3356 48.1361 44.3161C48.1595 44.3087 48.1816 44.2983 48.2037 44.2901C48.2587 44.2715 48.3103 44.2468 48.3601 44.2173C48.3714 44.2104 48.3831 44.2078 48.3943 44.2004C48.4052 44.1935 48.4095 44.1826 48.4186 44.1757C48.5026 44.1164 48.5798 44.0462 48.6404 43.9548L48.6421 43.9522C48.643 43.9513 48.643 43.9504 48.6439 43.9496L50.4149 41.293C50.4309 41.2701 50.4327 41.2432 50.4448 41.2194C50.4734 41.1661 50.4955 41.1128 50.5124 41.0535C50.531 40.995 50.5427 40.9382 50.5479 40.8789C50.5505 40.852 50.5639 40.8282 50.5639 40.8005H45.2405Z" fill="#E6E9ED"/></g><defs><clipPath id="clip0"><rect width="55" height="55" fill="white"/></clipPath></defs></svg>
