<svg width="25" height="25" viewBox="0 0 25 25" fill="none" xmlns="http://www.w3.org/2000/svg">
<g clip-path="url(#clip0)">
<path d="M12.4999 13.2388C15.5955 13.2388 18.1052 10.3014 18.1052 6.67794C18.1052 1.65325 15.5956 0.117188 12.4999 0.117188C9.40404 0.117188 6.89453 1.65325 6.89453 6.67794C6.89459 10.3014 9.4041 13.2388 12.4999 13.2388Z" fill="#2D9CDB"/>
<path d="M24.8778 22.8954L22.0499 16.5249C21.9205 16.2334 21.6933 15.9916 21.4105 15.8444L17.0216 13.5597C16.9248 13.5094 16.8077 13.5192 16.7207 13.5851C15.4793 14.5239 14.0198 15.0202 12.5001 15.0202C10.9801 15.0202 9.52073 14.5239 8.27942 13.5851C8.19217 13.5192 8.07498 13.5094 7.97819 13.5597L3.58967 15.8444C3.30672 15.9916 3.07973 16.2333 2.95026 16.5249L0.122298 22.8954C-0.072673 23.3346 -0.0327135 23.837 0.229223 24.2399C0.491037 24.6427 0.934136 24.883 1.41457 24.883H23.5854C24.0659 24.883 24.5091 24.6425 24.7709 24.2398C25.0327 23.8371 25.0728 23.3344 24.8778 22.8954Z" fill="#2D9CDB"/>
</g>
<defs>
<clipPath id="clip0">
<rect width="25.0001" height="25" fill="white"/>
</clipPath>
</defs>
</svg>
