<svg width="38" height="33" viewBox="0 0 38 33" fill="none" xmlns="http://www.w3.org/2000/svg">
<path d="M37.125 33L0 33L2.88495e-06 -3.24557e-06L22.125 -1.31134e-06C30.4093 -5.87108e-07 37.125 6.71573 37.125 15L37.125 33Z" fill="#30A6EA"/>
<path fill-rule="evenodd" clip-rule="evenodd" d="M26.0923 14.4914C26.5526 14.0215 26.5526 13.2597 26.0923 12.7899C25.6321 12.32 24.8858 12.32 24.4256 12.7899L18.1875 19.1579L11.9495 12.7899C11.4892 12.32 10.743 12.32 10.2827 12.7899C9.82243 13.2597 9.82243 14.0215 10.2827 14.4914L17.3541 21.7101C17.8144 22.18 18.5606 22.18 19.0209 21.7101L26.0923 14.4914Z" fill="white"/>
</svg>
