<svg width="25" height="25" viewBox="0 0 25 25" fill="none" xmlns="http://www.w3.org/2000/svg">
<g clip-path="url(#clip0)">
<path d="M4.16699 7.03125C4.16699 4.30312 6.38678 2.08333 9.1149 2.08333H18.6284C18.2857 0.884375 17.193 0 15.8857 0H3.90657C2.32637 0 1.04199 1.28437 1.04199 2.86458V19.0104C1.04199 20.5906 2.32637 21.875 3.90657 21.875H4.16699V7.03125Z" fill="#BFBFBF"/>
<path d="M21.0938 4.1665H9.11458C7.53438 4.1665 6.25 5.45088 6.25 7.03109V22.1353C6.25 23.7155 7.53438 24.9998 9.11458 24.9998H21.0938C22.674 24.9998 23.9583 23.7155 23.9583 22.1353V7.03109C23.9583 5.45088 22.674 4.1665 21.0938 4.1665ZM19.0104 21.8748H11.1979C10.7667 21.8748 10.4167 21.5248 10.4167 21.0936C10.4167 20.6623 10.7667 20.3123 11.1979 20.3123H19.0104C19.4417 20.3123 19.7917 20.6623 19.7917 21.0936C19.7917 21.5248 19.4417 21.8748 19.0104 21.8748ZM19.0104 17.7082H11.1979C10.7667 17.7082 10.4167 17.3582 10.4167 16.9269C10.4167 16.4957 10.7667 16.1457 11.1979 16.1457H19.0104C19.4417 16.1457 19.7917 16.4957 19.7917 16.9269C19.7917 17.3582 19.4417 17.7082 19.0104 17.7082ZM19.0104 14.0623H11.1979C10.7667 14.0623 10.4167 13.7123 10.4167 13.2811C10.4167 12.8498 10.7667 12.4998 11.1979 12.4998H19.0104C19.4417 12.4998 19.7917 12.8498 19.7917 13.2811C19.7917 13.7123 19.4417 14.0623 19.0104 14.0623ZM19.0104 9.89567H11.1979C10.7667 9.89567 10.4167 9.54567 10.4167 9.11442C10.4167 8.68317 10.7667 8.33317 11.1979 8.33317H19.0104C19.4417 8.33317 19.7917 8.68317 19.7917 9.11442C19.7917 9.54567 19.4417 9.89567 19.0104 9.89567Z" fill="#BFBFBF"/>
</g>
<defs>
<clipPath id="clip0">
<rect width="25" height="25" fill="white"/>
</clipPath>
</defs>
</svg>
