<svg width="24" height="24" viewBox="0 0 24 24" fill="none" xmlns="http://www.w3.org/2000/svg">
<path d="M14.8389 10.5547L15.9614 11.1964L18.2073 9.91304L14.8389 7.9082V10.5547Z" fill="#BFBFBF"/>
<path d="M21.6564 6.46414L22.4585 5.02076C23.0998 3.8975 21.2557 2.61417 20.3731 2.13364C19.4904 1.65204 17.4859 0.60934 16.8442 1.81281L15.7209 3.7378C14.5977 3.49717 13.3143 3.33676 12.0313 3.33676C5.37399 3.3364 0 6.94611 0 11.3575C0 15.7682 5.37399 19.3776 12.0313 19.3776C12.0313 19.3776 12.0313 19.3776 12.1119 19.3776C12.1921 20.3401 11.0692 21.9442 9.46465 22.7459C15.8019 22.7459 18.689 18.0137 18.689 18.0137C21.897 16.57 23.9825 14.1637 23.9825 11.3565C24.1429 9.51239 23.1804 7.82803 21.6564 6.46414ZM5.53405 13.6033C4.89238 13.6033 4.41113 13.1214 4.41113 12.4797C4.41113 11.8381 4.89238 11.3568 5.53405 11.3568C6.17572 11.3568 6.65698 11.8381 6.65698 12.4797C6.65698 13.1214 6.09623 13.6033 5.53405 13.6033ZM8.50178 13.6033C7.86011 13.6033 7.37886 13.1214 7.37886 12.4797C7.37886 11.8381 7.86011 11.3568 8.50178 11.3568C9.14345 11.3568 9.62471 11.8381 9.62471 12.4797C9.62471 13.1214 9.14345 13.6033 8.50178 13.6033ZM11.4699 13.6033C10.8282 13.6033 10.3466 13.1214 10.3466 12.4797C10.3466 11.8381 10.8282 11.3568 11.4699 11.3568C12.1115 11.3568 12.5928 11.8381 12.5928 12.4797C12.5928 13.1214 12.1115 13.6033 11.4699 13.6033ZM18.6088 10.1541L16.2828 11.4374L14.3574 12.4797V10.3145V7.66762L17.5661 2.13329C17.7262 1.81246 18.8494 2.13329 20.0522 2.77495C21.255 3.41661 22.0574 4.21833 21.8168 4.53952L18.6088 10.1541Z" fill="#BFBFBF"/>
</svg>
