<svg width="25" height="25" viewBox="0 0 25 25" fill="none" xmlns="http://www.w3.org/2000/svg">
<g clip-path="url(#clip0)">
<path d="M4.16699 7.03125C4.16699 4.30312 6.38678 2.08333 9.1149 2.08333H18.6284C18.2857 0.884375 17.193 0 15.8857 0H3.90657C2.32637 0 1.04199 1.28437 1.04199 2.86458V19.0104C1.04199 20.5906 2.32637 21.875 3.90657 21.875H4.16699V7.03125Z" fill="#BFBFBF"/>
<path d="M21.0938 4.16699H9.11458C7.53438 4.16699 6.25 5.45137 6.25 7.03158V22.1357C6.25 23.716 7.53438 25.0003 9.11458 25.0003H21.0938C22.674 25.0003 23.9583 23.716 23.9583 22.1357V7.03158C23.9583 5.45137 22.674 4.16699 21.0938 4.16699ZM19.0104 21.8753H11.1979C10.7667 21.8753 10.4167 21.5253 10.4167 21.0941C10.4167 20.6628 10.7667 20.3128 11.1979 20.3128H19.0104C19.4417 20.3128 19.7917 20.6628 19.7917 21.0941C19.7917 21.5253 19.4417 21.8753 19.0104 21.8753ZM19.0104 17.7087H11.1979C10.7667 17.7087 10.4167 17.3587 10.4167 16.9274C10.4167 16.4962 10.7667 16.1462 11.1979 16.1462H19.0104C19.4417 16.1462 19.7917 16.4962 19.7917 16.9274C19.7917 17.3587 19.4417 17.7087 19.0104 17.7087ZM19.0104 14.0628H11.1979C10.7667 14.0628 10.4167 13.7128 10.4167 13.2816C10.4167 12.8503 10.7667 12.5003 11.1979 12.5003H19.0104C19.4417 12.5003 19.7917 12.8503 19.7917 13.2816C19.7917 13.7128 19.4417 14.0628 19.0104 14.0628ZM19.0104 9.89616H11.1979C10.7667 9.89616 10.4167 9.54616 10.4167 9.11491C10.4167 8.68366 10.7667 8.33366 11.1979 8.33366H19.0104C19.4417 8.33366 19.7917 8.68366 19.7917 9.11491C19.7917 9.54616 19.4417 9.89616 19.0104 9.89616Z" fill="#BFBFBF"/>
</g>
<defs>
<clipPath id="clip0">
<rect width="25" height="25" fill="white"/>
</clipPath>
</defs>
</svg>
