<svg width="25" height="25" viewBox="0 0 25 25" fill="none" xmlns="http://www.w3.org/2000/svg">
<g clip-path="url(#clip0)">
<path d="M22.3962 5.229V8.59359C22.3962 10.4582 20.8753 11.979 19.0107 11.979H10.417V13.8123C10.417 15.3957 11.6982 16.6769 13.2816 16.6769H14.5837V19.0207C14.5837 19.3332 14.7712 19.6144 15.0524 19.7394C15.1566 19.7811 15.2607 19.8019 15.3649 19.8019C15.5628 19.8019 15.7503 19.729 15.8962 19.5936L19.0524 16.6769H22.1357C23.7191 16.6769 25.0003 15.3957 25.0003 13.8123V8.08317C25.0003 6.58317 23.8545 5.36442 22.3962 5.229Z" fill="#BFBFBF"/>
<path d="M5.72949 18.229C7.45538 18.229 8.85449 16.8299 8.85449 15.104C8.85449 13.3781 7.45538 11.979 5.72949 11.979C4.0036 11.979 2.60449 13.3781 2.60449 15.104C2.60449 16.8299 4.0036 18.229 5.72949 18.229Z" fill="#BFBFBF"/>
<path d="M8.59375 19.7915H2.86458C1.28438 19.7915 0 21.0759 0 22.6561V24.2186C0 24.6498 0.35 24.9998 0.78125 24.9998H10.6771C11.1083 24.9998 11.4583 24.6498 11.4583 24.2186V22.6561C11.4583 21.0759 10.174 19.7915 8.59375 19.7915Z" fill="#BFBFBF"/>
<path d="M20.8333 3.125V8.59375C20.8333 9.59375 20.0104 10.4167 19.0104 10.4167H8.07292C7.07292 10.4167 6.25 9.59375 6.25 8.59375V3.125C6.25 3.03125 6.26042 2.9375 6.28125 2.84375L13.0104 6.82292C13.3333 7.01042 13.75 7.01042 14.0729 6.82292L20.8021 2.84375C20.8229 2.9375 20.8333 3.03125 20.8333 3.125Z" fill="#BFBFBF"/>
<path d="M20.8021 1.54167L14.0729 5.52083C13.75 5.70833 13.3333 5.70833 13.0104 5.52083L6.28125 1.54167C6.40625 0.666667 7.16667 0 8.07292 0H19.0104C19.9167 0 20.6771 0.666667 20.8021 1.54167Z" fill="#BFBFBF"/>
</g>
<defs>
<clipPath id="clip0">
<rect width="25" height="25" fill="white"/>
</clipPath>
</defs>
</svg>
