<svg width="25" height="25" viewBox="0 0 25 25" fill="none" xmlns="http://www.w3.org/2000/svg">
<g clip-path="url(#clip0)">
<path d="M12.7598 2.08333H11.6139C11.2702 0.885417 10.166 0 8.85352 0C7.54102 0 6.43685 0.885417 6.0931 2.08333H4.94727C4.52018 2.08333 4.16602 2.4375 4.16602 2.86458V4.42708C4.16602 5.42708 4.98893 6.25 5.98893 6.25H11.7181C12.7181 6.25 13.541 5.42708 13.541 4.42708V2.86458C13.541 2.4375 13.1868 2.08333 12.7598 2.08333Z" fill="#30A6EA"/>
<path d="M14.8438 3.125H14.5833V4.42708C14.5833 6.01042 13.3021 7.29167 11.7188 7.29167H5.98958C4.40625 7.29167 3.125 6.01042 3.125 4.42708V3.125H2.86458C1.28125 3.125 0 4.40625 0 5.98958V19.0104C0 20.5938 1.28125 21.875 2.86458 21.875H10.5521L10.7813 20.5938C10.8854 20.0104 11.1563 19.4896 11.5729 19.0625L12.4063 18.2292H3.90625C3.47917 18.2292 3.125 17.875 3.125 17.4479C3.125 17.0208 3.47917 16.6667 3.90625 16.6667H13.8021C13.8542 16.6667 13.8958 16.6667 13.9479 16.6875H13.9583L17.7083 12.9375V5.98958C17.7083 4.40625 16.4271 3.125 14.8438 3.125ZM13.8021 14.8438H3.90625C3.47917 14.8438 3.125 14.4896 3.125 14.0625C3.125 13.6354 3.47917 13.2812 3.90625 13.2812H13.8021C14.2292 13.2812 14.5833 13.6354 14.5833 14.0625C14.5833 14.4896 14.2292 14.8438 13.8021 14.8438ZM13.8021 11.4583H3.90625C3.47917 11.4583 3.125 11.1042 3.125 10.6771C3.125 10.25 3.47917 9.89583 3.90625 9.89583H13.8021C14.2292 9.89583 14.5833 10.25 14.5833 10.6771C14.5833 11.1042 14.2292 11.4583 13.8021 11.4583Z" fill="#30A6EA"/>
<path d="M13.0484 25C12.8432 25 12.6432 24.9187 12.4963 24.7708C12.3161 24.5906 12.2349 24.3344 12.2797 24.0823L12.8318 20.9521C12.8588 20.7948 12.9359 20.649 13.0484 20.5354L20.7828 12.8021C21.7328 11.85 22.6661 12.1073 23.1765 12.6177L24.4651 13.9063C25.1765 14.6167 25.1765 15.7729 24.4651 16.4844L16.7307 24.2187C16.6182 24.3323 16.4724 24.4083 16.314 24.4354L13.1838 24.9875C13.139 24.9958 13.0932 25 13.0484 25ZM16.1786 23.6667H16.189H16.1786Z" fill="#30A6EA"/>
</g>
<defs>
<clipPath id="clip0">
<rect width="25" height="25" fill="white"/>
</clipPath>
</defs>
</svg>
