<svg width="25" height="25" viewBox="0 0 25 25" fill="none" xmlns="http://www.w3.org/2000/svg">
<path d="M13.8298 15.7577C16.6475 15.7577 18.9389 13.4663 18.9389 10.6486C18.9389 7.83099 16.6474 5.53955 13.8298 5.53955C11.0121 5.53955 8.7207 7.83097 8.7207 10.6486C8.7207 13.4663 11.0121 15.7577 13.8298 15.7577Z" fill="#30A6EA"/>
<path d="M9.48703 16.7717C7.51905 16.7717 5.92383 18.3669 5.92383 20.335V24.3148C5.92383 24.6931 6.23081 25 6.60906 25H21.0537C21.432 25 21.739 24.6931 21.739 24.3148V20.4336C21.7993 20.3295 21.8541 20.2171 21.898 20.0992L24.6937 12.6987C24.7869 12.452 24.8362 12.1889 24.8362 11.923V3.61804C24.8362 2.40655 23.855 1.42529 22.6435 1.42529C21.432 1.42529 20.4507 2.40655 20.4507 3.61804V11.5229L18.469 16.7717H9.48703Z" fill="#30A6EA"/>
<path d="M0.844239 4.88159H2.46139C2.80126 4.88159 3.08906 4.63491 3.1384 4.30052C3.23159 3.69203 3.42071 3.24252 3.70029 2.97117C3.96067 2.719 4.31974 2.59566 4.80214 2.59566C5.30099 2.59566 5.68198 2.7327 5.97252 3.01776C6.26305 3.30282 6.39736 3.64543 6.39736 4.10043C6.39736 4.31422 6.34802 4.51157 6.24661 4.70343C6.19453 4.79936 5.9917 5.09538 5.21876 5.75047C4.50064 6.35895 4.01549 6.93181 3.73318 7.49918C3.44538 8.07751 3.30559 8.91898 3.30559 10.0647C3.30559 10.4429 3.61258 10.7499 3.99082 10.7499H5.45174C5.82999 10.7499 6.13697 10.4429 6.13697 10.0647C6.13697 9.17937 6.24387 8.81756 6.30691 8.68052C6.35624 8.57088 6.56181 8.24745 7.37587 7.57318C8.13237 6.94551 8.64218 6.37266 8.93272 5.82447C9.23148 5.26258 9.38223 4.64587 9.38223 3.99353C9.38223 2.82864 8.94091 1.85561 8.06658 1.09911C7.22238 0.370025 6.12052 0 4.79117 0C3.52487 0 2.45316 0.378248 1.6117 1.12104C0.762011 1.87205 0.276867 2.88894 0.16723 4.14154C0.128857 4.53623 0.444064 4.88159 0.844239 4.88159Z" fill="#30A6EA"/>
<path d="M5.44614 14.6255C5.82439 14.6255 6.13137 14.3186 6.13137 13.9403V12.4821C6.13137 12.1038 5.82439 11.7969 5.44614 11.7969H3.98797C3.60972 11.7969 3.30273 12.1038 3.30273 12.4821V13.9403C3.30273 14.3186 3.60972 14.6255 3.98797 14.6255H5.44614Z" fill="#30A6EA"/>
</svg>
