<svg width="25" height="25" viewBox="0 0 25 25" fill="none" xmlns="http://www.w3.org/2000/svg">
<g clip-path="url(#clip0)">
<path d="M12.5 0C5.60759 0 0 5.60759 0 12.5C0 19.3924 5.60759 25 12.5 25C19.3924 25 25 19.3924 25 12.5C25 5.60759 19.3924 0 12.5 0ZM14.0625 20.3125H10.9375V17.1875H14.0625V20.3125ZM15.625 13.147L14.0625 14.7095V15.625H10.9375V14.0625C10.9375 13.6482 11.1023 13.2507 11.3953 12.9578L13.4155 10.9375C13.8267 10.5263 14.0625 9.95639 14.0625 9.37503C14.0625 8.51367 13.3614 7.81254 12.5 7.81254C11.6387 7.81254 10.9375 8.51367 10.9375 9.37503V10.9375H7.81254V9.37503C7.81254 6.79019 9.91517 4.68751 12.5 4.68751C15.0849 4.68751 17.1876 6.79015 17.1876 9.37503C17.1875 10.8002 16.6328 12.1399 15.625 13.147Z" fill="#30A6EA"/>
</g>
<defs>
<clipPath id="clip0">
<rect width="25" height="25" fill="white"/>
</clipPath>
</defs>
</svg>
