<svg width="99" height="109" viewBox="0 0 99 109" fill="none" xmlns="http://www.w3.org/2000/svg">
<g clip-path="url(#clip0)">
<path d="M47.7931 7.49268H88.7585C92.5138 7.49268 95.5861 10.8646 95.5861 14.9855V41.2107C95.5861 45.3318 92.5136 48.7035 88.7585 48.7035H66.5689V55.8085C66.5689 56.643 65.6494 57.0607 65.1121 56.4707L58.0344 48.7037H47.7929C44.0377 48.7037 40.9654 45.3318 40.9654 41.2109V14.9857C40.9656 10.8646 44.0379 7.49268 47.7931 7.49268Z" fill="#C7CFE2"/>
<path d="M86.9934 22.4786H61.4483V18.7321H75.0455C75.9545 18.7321 76.7479 17.9793 76.8068 16.984C76.8712 15.8931 76.0848 14.9857 75.1035 14.9857H61.4483V7.49268H58.0346C58.0346 7.49268 58.0346 32.1484 58.0346 33.7178C58.0346 37.839 54.9621 41.2107 51.2071 41.2107H40.9656C40.9656 42.5798 41.3292 43.8496 41.9199 44.9571H51.2071C56.8541 44.9571 61.4485 39.915 61.4485 33.7176H68.2233C69.0787 33.7176 69.843 33.0517 69.9648 32.1223C70.1162 30.9643 69.303 29.9712 68.276 29.9712H61.4485V26.2248H87.052C88.0333 26.2248 88.8197 25.3176 88.7553 24.2265C88.6961 23.2315 87.9026 22.4786 86.9934 22.4786Z" fill="#AFB9D2"/>
<path d="M87.0516 18.732H81.9309C80.9875 18.732 80.2239 17.8932 80.2239 16.8587C80.2239 15.8242 80.9873 14.9854 81.9309 14.9854H87.0516C87.995 14.9854 88.7586 15.8242 88.7586 16.8587C88.7586 17.8932 87.9952 18.732 87.0516 18.732Z" fill="#959CB3"/>
<path d="M87.0516 33.7178H75.1033C74.1599 33.7178 73.3964 32.879 73.3964 31.8445C73.3964 30.81 74.1597 29.9712 75.1033 29.9712H87.0516C87.995 29.9712 88.7585 30.81 88.7585 31.8445C88.7585 32.879 87.9952 33.7178 87.0516 33.7178Z" fill="#959CB3"/>
<path d="M87.0516 41.211H63.1551C62.2117 41.211 61.4482 40.3722 61.4482 39.3377C61.4482 38.3032 62.2115 37.4644 63.1551 37.4644H87.0516C87.995 37.4644 88.7586 38.3032 88.7586 39.3377C88.7586 40.3722 87.9952 41.211 87.0516 41.211Z" fill="#AFB9D2"/>
<path d="M51.2069 0H10.2414C6.48622 0 3.41394 3.37188 3.41394 7.49284V33.718C3.41394 37.8392 6.48641 41.2108 10.2414 41.2108H32.4311V48.3158C32.4311 49.1504 33.3505 49.568 33.8879 48.9781L40.9656 41.211H51.2071C54.9623 41.211 58.0346 37.8392 58.0346 33.7182V7.49284C58.0344 3.37188 54.9621 0 51.2069 0Z" fill="#E4EAF6"/>
<path d="M17.069 11.2393H11.9484C11.005 11.2393 10.2415 10.4005 10.2415 9.36599C10.2415 8.33151 11.0048 7.49268 11.9484 7.49268H17.0692C18.0126 7.49268 18.7761 8.33151 18.7761 9.36599C18.7761 10.4005 18.0126 11.2393 17.069 11.2393Z" fill="#AFB9D2"/>
<path d="M49.5001 11.2393H23.8967C22.9533 11.2393 22.1897 10.4005 22.1897 9.36599C22.1897 8.33151 22.9531 7.49268 23.8967 7.49268H49.5001C50.4435 7.49268 51.2071 8.33151 51.2071 9.36599C51.2071 10.4005 50.4435 11.2393 49.5001 11.2393Z" fill="#C7CFE2"/>
<path d="M49.5001 18.732H11.9484C11.005 18.732 10.2415 17.8931 10.2415 16.8587C10.2415 15.8242 11.0048 14.9854 11.9484 14.9854H49.5001C50.4435 14.9854 51.2071 15.8242 51.2071 16.8587C51.2069 17.8931 50.4435 18.732 49.5001 18.732Z" fill="#C7CFE2"/>
<path d="M49.5001 26.2251H44.3794C43.436 26.2251 42.6724 25.3863 42.6724 24.3518C42.6724 23.3173 43.4358 22.4785 44.3794 22.4785H49.5001C50.4435 22.4785 51.2071 23.3173 51.2071 24.3518C51.2069 25.3865 50.4435 26.2251 49.5001 26.2251Z" fill="#AFB9D2"/>
<path d="M37.5517 26.2251H11.9484C11.005 26.2251 10.2415 25.3863 10.2415 24.3518C10.2415 23.3173 11.0048 22.4785 11.9484 22.4785H37.5519C38.4953 22.4785 39.2588 23.3173 39.2588 24.3518C39.2587 25.3865 38.4953 26.2251 37.5517 26.2251Z" fill="#C7CFE2"/>
<path d="M49.5001 33.7183H11.9484C11.005 33.7183 10.2415 32.8795 10.2415 31.845C10.2415 30.8105 11.0048 29.9717 11.9484 29.9717H49.5001C50.4435 29.9717 51.2071 30.8105 51.2071 31.845C51.2069 32.8795 50.4435 33.7183 49.5001 33.7183Z" fill="#C7CFE2"/>
<path d="M32.6937 93.9499V87.8979H18.5133V93.9499L25.6034 100.866L32.6937 93.9499Z" fill="#E6AF78"/>
<path d="M43.6566 96.7807L33.9084 94.2636C33.7613 94.2256 33.6257 94.1611 33.4993 94.0828L25.6036 99.137L18.0156 93.8379C17.8192 94.041 17.5756 94.1916 17.2985 94.2631L7.55028 96.7803C6.12677 97.1482 5.12073 98.5422 5.12073 100.147V106.918C5.12073 107.873 5.8261 108.647 6.69641 108.647H44.5107C45.3808 108.647 46.0863 107.873 46.0863 106.918V100.147C46.0861 98.5424 45.0803 97.1482 43.6566 96.7807Z" fill="#EFF2FA"/>
<path d="M18.5133 87.8979V94.2833C27.4452 97.8148 32.6937 88.9762 32.6937 88.9762V87.8979H18.5133Z" fill="#D29B6E"/>
<path d="M15.3622 68.0124L16.0488 84.5873C16.113 86.1357 16.8048 87.5715 17.9346 88.5016L21.192 91.1825C22.0103 91.856 23.0053 92.22 24.028 92.22H27.1791C28.2018 92.22 29.197 91.8558 30.0151 91.1825L33.2724 88.5016C34.4024 87.5715 35.0941 86.1357 35.1583 84.5873L35.8447 68.0122H15.3622V68.0124Z" fill="#F0C087"/>
<path d="M23.24 71.4709C26.3912 71.4709 31.118 70.6064 32.2391 68.0127H15.3622L16.0486 84.5878C16.1128 86.1362 16.8046 87.572 17.9344 88.502L21.1918 91.1832C22.0101 91.8567 23.0051 92.2206 24.0278 92.2206H25.6034C24.0278 92.2206 20.8766 88.7624 20.8766 84.4394C20.8766 82.3253 20.8766 76.6582 20.8766 74.0645C20.8768 73.1997 21.6643 71.4709 23.24 71.4709Z" fill="#E6AF78"/>
<path d="M40.3028 103.036L45.4077 98.0039C45.8354 98.5985 46.0864 99.3463 46.0864 100.147V106.919C46.0864 107.873 45.381 108.648 44.5107 108.648H38.9961V106.253C38.9961 105.025 39.4712 103.856 40.3028 103.036Z" fill="#E4EAF6"/>
<path d="M10.9041 103.036L5.79923 98.0039C5.37152 98.5985 5.12054 99.3463 5.12054 100.147V106.919C5.12054 107.873 5.82592 108.648 6.69623 108.648H12.2108V106.253C12.211 105.025 11.7359 103.856 10.9041 103.036Z" fill="#E4EAF6"/>
<path d="M27.573 108.647H23.6339L24.1264 100.866H27.0807L27.573 108.647Z" fill="#5B5D6E"/>
<path d="M27.573 99.1367H23.6339V99.6362C23.6339 100.793 24.4881 101.73 25.5421 101.73H25.6643C26.7183 101.73 27.5726 100.793 27.5726 99.6362V99.1367H27.573Z" fill="#515262"/>
<path d="M18.4028 92.0248L25.6034 99.1369C25.6034 99.1369 23.5867 100.254 21.0982 102.506C20.5848 102.97 19.8083 102.782 19.5329 102.117L16.1499 93.9493L17.2202 92.1876C17.4866 91.7492 18.0456 91.6721 18.4028 92.0248Z" fill="#E4EAF6"/>
<path d="M32.8043 92.0248L25.6036 99.1369C25.6036 99.1369 27.6204 100.254 30.1089 102.506C30.6223 102.97 31.3988 102.782 31.6741 102.117L35.0572 93.9493L33.9869 92.1876C33.7205 91.7492 33.1615 91.6721 32.8043 92.0248Z" fill="#E4EAF6"/>
<path d="M30.3796 62.2851L31.1182 68.0131C34.4896 68.7531 34.9754 74.5593 35.0454 76.2179C35.0581 76.5188 35.1457 76.8095 35.2944 77.0627L36.5808 79.2524C36.5808 79.2524 36.1404 75.6318 38.1565 73.2004C38.1563 73.2002 38.8483 58.8269 30.3796 62.2851Z" fill="#785550"/>
<path d="M37.3711 78.8821L36.4814 82.7874C36.376 83.25 35.9971 83.5747 35.5624 83.5747C35.0846 83.5747 34.6818 83.1845 34.6225 82.6644L34.1675 78.6699C34.0459 77.6016 34.8048 76.6582 35.7857 76.6582H35.789C36.8498 76.6584 37.6284 77.7525 37.3711 78.8821Z" fill="#F0C087"/>
<path d="M16.1171 60.7358L17.2824 61.6092C12.0142 65.8781 12.9988 73.1999 12.9988 73.1999C14.5744 74.9291 14.5744 79.2519 14.5744 79.2519L16.1501 77.5227C16.1501 77.5227 15.542 72.5276 18.5136 70.6062C21.2709 68.823 23.6836 69.7416 26.1452 69.7416C32.743 69.7416 34.5894 67.0127 34.2694 63.6896C34.1039 61.97 31.7082 58.3884 25.6036 58.5022C23.1399 58.548 18.5134 59.3667 16.1171 60.7358Z" fill="#694B4B"/>
<path d="M15.6576 68.9853C15.6576 68.9853 14.8206 65.3647 17.2824 61.6094C12.0142 65.8782 12.9988 73.2 12.9988 73.2C14.5744 74.9293 14.5744 79.252 14.5744 79.252L16.1501 77.5228C16.1501 77.5228 15.542 72.5278 18.5136 70.6063C21.2709 68.8232 23.6836 69.7418 26.1452 69.7418C27.2182 69.7418 28.1535 69.6629 28.9861 69.5277C23.9048 69.7151 20.9095 65.4912 15.6576 68.9853Z" fill="#5A4146"/>
<path d="M13.836 78.8821L14.7256 82.7874C14.831 83.25 15.21 83.5747 15.6447 83.5747C16.1225 83.5747 16.5252 83.1845 16.5846 82.6644L17.0396 78.6699C17.1612 77.6016 16.4023 76.6582 15.4214 76.6582H15.4181C14.3573 76.6584 13.5786 77.7525 13.836 78.8821Z" fill="#E6AF78"/>
<path d="M35.0571 106.918H31.118C30.2479 106.918 29.5424 107.692 29.5424 108.647H36.6326C36.6326 107.692 35.9273 106.918 35.0571 106.918Z" fill="#E4EAF6"/>
<path d="M69.9828 59.0615C54.0905 59.0615 55.8525 80.2711 55.925 95.6413C55.9277 96.2216 56.2048 96.7451 56.6579 97.0448C58.419 98.21 63.2555 100.934 69.9828 100.934C76.7102 100.934 81.5467 98.21 83.3078 97.0448C83.7608 96.7451 84.0379 96.2216 84.0406 95.6413C84.1131 80.2715 85.8752 59.0615 69.9828 59.0615Z" fill="#694B4B"/>
<path d="M68.9588 59.1055C54.1782 60.015 55.8541 80.6134 55.925 95.6413C55.9277 96.2217 56.2048 96.7452 56.6579 97.0448C58.419 98.21 63.2555 100.934 69.9828 100.934L73.9991 70.0805" fill="#5A4146"/>
<path d="M69.9828 59.0615C60.9464 59.0615 60.3187 71.0445 60.3187 71.0445C65.5272 70.0803 68.7277 72.4907 73.9991 70.0803L69.9828 100.934C76.7104 100.934 81.5466 98.21 83.3078 97.0448C83.7608 96.7451 84.0379 96.2216 84.0406 95.6413C84.1131 80.2715 85.8752 59.0615 69.9828 59.0615Z" fill="#694B4B"/>
<path d="M84.0404 95.6413C84.1027 82.4341 85.4018 64.9276 75.6856 60.2588C75.5162 61.2249 75.2091 63.922 76.0069 65.6729C78.0151 70.0805 80.0232 70.0805 82.0312 73.3862C84.0394 85.5072 78.1944 98.3721 76.2529 100.123C79.6925 99.2256 82.1581 97.8051 83.3074 97.0448C83.7606 96.7452 84.0377 96.2219 84.0404 95.6413Z" fill="#785550"/>
<path d="M85.198 98.9843L76.2388 94.8875C75.4905 94.5454 75.003 93.7429 75.003 92.8531V90.1904H64.9624V92.8531C64.9624 93.7429 64.475 94.5454 63.7267 94.8875L54.7674 98.9843C53.645 99.4976 52.9137 100.701 52.9137 102.036V106.443C52.9137 107.661 53.8128 108.647 54.9219 108.647H85.0434C86.1525 108.647 87.0516 107.661 87.0516 106.443V102.036C87.0516 100.701 86.3205 99.4976 85.198 98.9843Z" fill="#E6AF78"/>
<path d="M85.198 98.9846L76.5356 95.0234L69.9828 98.1271L63.4301 95.0234L54.7676 98.9846C53.6451 99.4979 52.9138 100.701 52.9138 102.036V106.444C52.9138 107.661 53.813 108.648 54.9221 108.648H85.0435C86.1526 108.648 87.0518 107.661 87.0518 106.444V102.036C87.0516 100.701 86.3205 99.4979 85.198 98.9846Z" fill="#B4E1FA"/>
<path d="M75.003 90.1904H64.9624V92.8531C64.9624 93.7429 64.475 94.5455 63.7267 94.8875L62.3275 95.5275C73.0356 98.524 75.003 90.1904 75.003 90.1904Z" fill="#D29B6E"/>
<path d="M57.8078 103.248L53.7776 99.7295C53.2375 100.336 52.9138 101.155 52.9138 102.036V106.444C52.9138 107.661 53.813 108.648 54.9221 108.648H58.9383V105.829C58.9381 104.825 58.5222 103.875 57.8078 103.248Z" fill="#A0D2F0"/>
<path d="M87.0516 106.443V102.036C87.0516 101.161 86.7333 100.347 86.201 99.7427L82.1578 103.247C81.4434 103.874 81.0275 104.824 81.0275 105.828V108.647H85.0437C86.1526 108.647 87.0516 107.661 87.0516 106.443Z" fill="#A0D2F0"/>
<path d="M70.1334 106.444H69.8322C69.3608 106.444 68.9787 106.024 68.9787 105.507V98.1299H70.9869V105.507C70.9867 106.024 70.6047 106.444 70.1334 106.444Z" fill="#A0D2F0"/>
<path d="M69.9828 98.1271L64.2362 93.3972C63.8672 93.0935 63.3417 93.1922 63.0859 93.6132L61.9503 95.4825L65.4735 100.896C65.7413 101.307 66.2691 101.388 66.6288 101.072L69.9828 98.1271Z" fill="#A0D2F0"/>
<path d="M69.9828 98.1271L75.7294 93.3972C76.0984 93.0935 76.6239 93.1922 76.8797 93.6132L78.0153 95.4825L74.4921 100.896C74.2243 101.307 73.6964 101.388 73.3368 101.072L69.9828 98.1271Z" fill="#A0D2F0"/>
<path d="M75.003 68.979C69.9828 74.4884 60.1304 70.081 60.1304 78.896L60.7538 85.3894C60.8741 86.8419 61.6413 88.1351 62.803 88.8434L68.5199 92.3288C69.4296 92.8835 70.5356 92.8835 71.4454 92.3288L77.1622 88.8434C78.3239 88.1351 79.0912 86.8419 79.2114 85.3894L79.9311 77.6776C79.9824 77.1295 79.9932 76.578 79.9764 76.0279C79.6009 73.223 76.0069 71.1827 75.003 68.979Z" fill="#F0C087"/>
<path d="M60.1304 78.8958L60.7538 85.3891C60.8741 86.8417 61.6413 88.1348 62.803 88.8431L68.5199 92.3286C69.1512 92.7135 69.8751 92.813 70.5642 92.6638C70.5642 92.6638 67.682 91.7051 65.9666 86.6091C65.441 85.0479 64.7117 76.7837 65.3391 75.7736C66.5795 73.7772 73.4969 73.5697 75.5409 69.8662C75.44 69.7286 75.3468 69.5909 75.2617 69.453C75.2549 69.442 75.2466 69.4307 75.2397 69.4195C75.1509 69.2728 75.0705 69.126 75.003 68.9785C69.9828 74.4883 60.1304 70.0805 60.1304 78.8958Z" fill="#E6AF78"/>
<path d="M77.3123 106.443H74.7017C73.7591 106.443 72.9948 107.282 72.9948 108.317V108.647H79.0191V108.317C79.0192 107.282 78.2549 106.443 77.3123 106.443Z" fill="#A0D2F0"/>
</g>
<defs>
<clipPath id="clip0">
<rect width="99" height="108.647" fill="white"/>
</clipPath>
</defs>
</svg>
