<svg width="99" height="99" viewBox="0 0 99 99" fill="none" xmlns="http://www.w3.org/2000/svg">
<path d="M94.0222 37.3725L57.8872 63.7777C55.4524 65.5566 52.5149 66.5156 49.5 66.5156C46.4851 66.5156 43.5476 65.5566 41.1128 63.7777L4.97784 37.3725L3.09375 37.125L43.973 5.00569C45.5493 3.76664 47.4953 3.09375 49.5 3.09375C51.5047 3.09375 53.4507 3.76664 55.027 5.00569L95.9062 37.125L94.0222 37.3725Z" fill="#758190"/>
<path d="M80.4375 47.2988V12.375H18.5625V47.2988L41.1128 63.7777C43.5476 65.5566 46.4851 66.5156 49.5 66.5156C52.5149 66.5156 55.4524 65.5566 57.8872 63.7777L80.4375 47.2988Z" fill="#C7E2FC"/>
<path d="M18.5625 47.2988L41.1128 63.7777C43.5476 65.5566 46.4851 66.5156 49.5 66.5156C52.5149 66.5156 55.4524 65.5566 57.8872 63.7777C57.8872 63.7777 62.404 60.4766 66.4135 57.5468C70.8794 50.3601 73.4657 41.8832 73.4657 32.7999C73.4657 25.4786 71.7889 18.5501 68.8019 12.375H18.5625V47.2988Z" fill="#EBF7FE"/>
<path d="M95.173 36.5479L95.9062 37.1249V92.8124C95.9062 94.5217 94.5218 95.9061 92.8125 95.9061H6.1875C4.4782 95.9061 3.09375 94.5217 3.09375 92.8124V37.1249L3.8873 36.5015L4.97784 37.3724L41.1128 63.7775C43.5476 65.5564 46.4851 66.5155 49.5 66.5155C52.5149 66.5155 55.4524 65.5564 57.8872 63.7775L94.0222 37.3724L95.173 36.5479Z" fill="#F7D881"/>
<path d="M3.9863 94.9843L38.6719 61.875H60.3281C60.3281 61.875 95.0137 94.9843 95.0153 94.9859C94.4537 95.5536 93.6741 95.9062 92.8125 95.9062H6.1875C5.33363 95.9062 4.56019 95.5598 4.00022 94.9998L3.9863 94.9843Z" fill="#F2C351"/>
<path d="M34.0312 20.1094H64.9657V23.2031H34.0312V20.1094Z" fill="#8892A0"/>
<path d="M34.0312 26.2969H58.7782V29.3906H34.0312V26.2969Z" fill="#8892A0"/>
<path d="M61.8735 26.2969H64.9657V29.3906H61.8735V26.2969Z" fill="#8892A0"/>
<path d="M65.654 42.024L63.1496 43.6946C61.8843 37.3122 56.2459 32.4844 49.4985 32.4844V35.5781C54.3495 35.5781 58.4641 38.7848 59.8378 43.1888L58.0913 42.024L56.3743 44.5995L61.0149 47.6933C61.2748 47.8665 61.5734 47.9516 61.875 47.9516C62.1735 47.9516 62.4736 47.865 62.7335 47.6933L67.3741 44.5995L65.654 42.024Z" fill="#96CC7F"/>
<path d="M35.7514 49.2402L38.2558 47.5696C39.5211 53.952 45.1595 58.7798 51.9069 58.7798L51.9069 55.686C47.0559 55.686 42.9413 52.4794 41.5676 48.0754L43.314 49.2402L45.0311 46.6647L40.3905 43.5709C40.1306 43.3977 39.832 43.3126 39.5304 43.3126C39.2318 43.3126 38.9318 43.3992 38.6719 43.5709L34.0313 46.6647L35.7514 49.2402Z" fill="#96CC7F"/>
<path d="M9.28125 83.5312H21.6562V89.7188H9.28125V83.5312Z" fill="#976947"/>
<path d="M26.2953 88.1704H35.575V91.2626H26.2953V88.1704Z" fill="#F7D881"/>
<path d="M26.2953 83.5298H32.4813V86.622H26.2953V83.5298Z" fill="#F7D881"/>
</svg>
