<?xml version="1.0" encoding="utf-8"?>
<!-- Generator: Adobe Illustrator 23.1.0, SVG Export Plug-In . SVG Version: 6.00 Build 0)  -->
<!DOCTYPE svg PUBLIC "-//W3C//DTD SVG 1.1//EN" "http://www.w3.org/Graphics/SVG/1.1/DTD/svg11.dtd" [
	<!ENTITY ns_extend "http://ns.adobe.com/Extensibility/1.0/">
	<!ENTITY ns_ai "http://ns.adobe.com/AdobeIllustrator/10.0/">
	<!ENTITY ns_graphs "http://ns.adobe.com/Graphs/1.0/">
	<!ENTITY ns_vars "http://ns.adobe.com/Variables/1.0/">
	<!ENTITY ns_imrep "http://ns.adobe.com/ImageReplacement/1.0/">
	<!ENTITY ns_sfw "http://ns.adobe.com/SaveForWeb/1.0/">
	<!ENTITY ns_custom "http://ns.adobe.com/GenericCustomNamespace/1.0/">
	<!ENTITY ns_adobe_xpath "http://ns.adobe.com/XPath/1.0/">
]>
<svg version="1.1" id="Слой_1" xmlns:x="&ns_extend;" xmlns:i="&ns_ai;" xmlns:graph="&ns_graphs;"
	 xmlns="http://www.w3.org/2000/svg" xmlns:xlink="http://www.w3.org/1999/xlink" x="0px" y="0px" viewBox="0 0 99 85"
	 style="enable-background:new 0 0 99 85;" xml:space="preserve">
<metadata>
	<sfw  xmlns="&ns_sfw;">
		<slices></slices>
		<sliceSourceBounds  bottomLeftOrigin="true" height="108.6" width="99" x="0" y="0.2"></sliceSourceBounds>
	</sfw>
</metadata>
<g>
	<defs>
		<rect id="SVGID_1_" y="-11.6" width="99" height="108.6"/>
	</defs>
	<clipPath id="SVGID_2_">
		<use xlink:href="#SVGID_1_"  style="overflow:visible;"/>
	</clipPath>
	<g style="clip-path:url(#SVGID_2_);">
		<path style="fill:#694B4B;" d="M17.1,22.3C1.2,22.3,2.9,43.5,3,58.9c0,0.6,0.3,1.1,0.7,1.4c1.8,1.2,6.6,3.9,13.3,3.9
			s11.6-2.7,13.3-3.9c0.5-0.3,0.7-0.8,0.7-1.4C31.2,43.5,32.9,22.3,17.1,22.3z"/>
		<path style="fill:#5A4146;" d="M16,22.4C1.3,23.3,2.9,43.8,3,58.9c0,0.6,0.3,1.1,0.7,1.4c1.8,1.2,6.6,3.9,13.3,3.9l4-30.8"/>
		<path style="fill:#694B4B;" d="M17.1,22.3c-9,0-9.7,12-9.7,12c5.2-1,8.4,1.4,13.7-1l-4,30.8c6.7,0,11.6-2.7,13.3-3.9
			c0.5-0.3,0.7-0.8,0.7-1.4C31.2,43.5,32.9,22.3,17.1,22.3z"/>
		<path style="fill:#785550;" d="M31.1,58.9c0.1-13.2,1.4-30.7-8.3-35.4c-0.2,1-0.5,3.7,0.3,5.4c2,4.4,4,4.4,6,7.7
			c2,12.1-3.8,25-5.8,26.7c3.4-0.9,5.9-2.3,7.1-3.1C30.8,60,31.1,59.4,31.1,58.9z"/>
		<path style="fill:#E6AF78;" d="M32.3,62.2l-9-4.1c-0.7-0.3-1.2-1.1-1.2-2v-2.7H12v2.7c0,0.9-0.5,1.7-1.2,2l-9,4.1
			c-1.1,0.5-1.9,1.7-1.9,3v4.4c0,1.2,0.9,2.2,2,2.2h30.1c1.1,0,2-1,2-2.2v-4.4C34.1,63.9,33.4,62.7,32.3,62.2z"/>
		<path style="fill:#EFF2FA;" d="M32.3,62.2l-8.7-4l-6.5,3.1l-6.5-3.1l-8.7,4c-1.1,0.5-1.9,1.7-1.9,3v4.4c0,1.2,0.9,2.2,2,2.2h30.1
			c1.1,0,2-1,2-2.2v-4.4C34.1,63.9,33.4,62.7,32.3,62.2z"/>
		<path style="fill:#D29B6E;" d="M22.1,53.4H12v2.7c0,0.9-0.5,1.7-1.2,2l-1.4,0.6C20.1,61.7,22.1,53.4,22.1,53.4z"/>
		<path style="fill:#E4EAF6;" d="M4.9,66.5l-4-3.5C0.3,63.6,0,64.4,0,65.3v4.4c0,1.2,0.9,2.2,2,2.2h4V69C6,68,5.6,67.1,4.9,66.5z"/>
		<path style="fill:#E4EAF6;" d="M34.1,69.7v-4.4c0-0.9-0.3-1.7-0.9-2.3l-4,3.5c-0.7,0.6-1.1,1.6-1.1,2.6v2.8h4
			C33.2,71.9,34.1,70.9,34.1,69.7z"/>
		<path style="fill:#E4EAF6;" d="M17.2,69.7h-0.3c-0.5,0-0.9-0.4-0.9-0.9v-7.4h2v7.4C18.1,69.2,17.7,69.7,17.2,69.7z"/>
		<path style="fill:#E4EAF6;" d="M17.1,61.4l-5.7-4.7c-0.4-0.3-0.9-0.2-1.1,0.2L9,58.7l3.5,5.4c0.3,0.4,0.8,0.5,1.2,0.2L17.1,61.4z"
			/>
		<path style="fill:#E4EAF6;" d="M17.1,61.4l5.7-4.7c0.4-0.3,0.9-0.2,1.1,0.2l1.1,1.9l-3.5,5.4c-0.3,0.4-0.8,0.5-1.2,0.2L17.1,61.4z
			"/>
		<path style="fill:#F0C087;" d="M22.1,32.2c-5,5.5-14.9,1.1-14.9,9.9l0.6,6.5c0.1,1.5,0.9,2.7,2,3.5l5.7,3.5c0.9,0.6,2,0.6,2.9,0
			l5.7-3.5c1.2-0.7,1.9-2,2-3.5l0.7-7.7c0.1-0.5,0.1-1.1,0-1.6C26.7,36.5,23.1,34.4,22.1,32.2z"/>
		<path style="fill:#E6AF78;" d="M7.2,42.1l0.6,6.5c0.1,1.5,0.9,2.7,2,3.5l5.7,3.5c0.6,0.4,1.4,0.5,2,0.3c0,0-2.9-1-4.6-6.1
			c-0.5-1.6-1.3-9.8-0.6-10.8c1.2-2,8.2-2.2,10.2-5.9c-0.1-0.1-0.2-0.3-0.3-0.4c0,0,0,0,0,0c-0.1-0.1-0.2-0.3-0.2-0.4
			C17.1,37.7,7.2,33.3,7.2,42.1z"/>
		<path style="fill:#E4EAF6;" d="M24.4,69.7h-2.6c-0.9,0-1.7,0.8-1.7,1.9v0.3h6v-0.3C26.1,70.5,25.3,69.7,24.4,69.7z"/>
		<path style="fill:#E6AF78;" d="M85.6,57.1v-6H71.4v6l7.1,6.9L85.6,57.1z"/>
		<path style="fill:#EFF2FA;" d="M96.6,59.9l-9.7-2.5c-0.1,0-0.3-0.1-0.4-0.2l-7.9,5.1L70.9,57c-0.2,0.2-0.4,0.4-0.7,0.4l-9.7,2.5
			c-1.4,0.4-2.4,1.8-2.4,3.4V70c0,1,0.7,1.7,1.6,1.7h37.8c0.9,0,1.6-0.8,1.6-1.7v-6.8C99,61.7,98,60.3,96.6,59.9z"/>
		<path style="fill:#D29B6E;" d="M71.4,51v6.4c8.9,3.5,14.2-5.3,14.2-5.3V51H71.4z"/>
		<path style="fill:#F0C087;" d="M68.3,31.2L69,47.7c0.1,1.5,0.8,3,1.9,3.9l3.3,2.7c0.8,0.7,1.8,1,2.8,1h3.1c1,0,2-0.4,2.8-1
			l3.3-2.7c1.1-0.9,1.8-2.4,1.9-3.9l0.7-16.6H68.3z"/>
		<path style="fill:#E6AF78;" d="M76.2,34.6c3.1,0,7.9-0.9,9-3.5H68.3L69,47.7c0.1,1.5,0.8,3,1.9,3.9l3.3,2.7c0.8,0.7,1.8,1,2.8,1
			h1.6c-1.6,0-4.7-3.5-4.7-7.8c0-2.1,0-7.8,0-10.4C73.8,36.3,74.6,34.6,76.2,34.6z"/>
		<path style="fill:#E4EAF6;" d="M93.2,66.2l5.1-5c0.4,0.6,0.7,1.3,0.7,2.1V70c0,1-0.7,1.7-1.6,1.7h-5.5v-2.4
			C91.9,68.2,92.4,67,93.2,66.2z"/>
		<path style="fill:#5B5D6E;" d="M80.5,71.8h-3.9l0.5-7.8h3L80.5,71.8z"/>
		<path style="fill:#515262;" d="M80.5,62.3h-3.9v0.5c0,1.2,0.9,2.1,1.9,2.1h0.1c1.1,0,1.9-0.9,1.9-2.1L80.5,62.3L80.5,62.3z"/>
		<path style="fill:#E4EAF6;" d="M71.3,55.2l7.2,7.1c0,0-2,1.1-4.5,3.4c-0.5,0.5-1.3,0.3-1.6-0.4l-3.4-8.2l1.1-1.8
			C70.4,54.9,71,54.8,71.3,55.2z"/>
		<path style="fill:#E4EAF6;" d="M85.7,55.2l-7.2,7.1c0,0,2,1.1,4.5,3.4c0.5,0.5,1.3,0.3,1.6-0.4l3.4-8.2l-1.1-1.8
			C86.6,54.9,86.1,54.8,85.7,55.2z"/>
		<path style="fill:#785550;" d="M83.3,25.4l0.7,5.7c3.4,0.7,3.9,6.5,3.9,8.2c0,0.3,0.1,0.6,0.2,0.8l1.3,2.2c0,0-0.4-3.6,1.6-6
			C91.1,36.3,91.8,22,83.3,25.4z"/>
		<path style="fill:#F0C087;" d="M90.3,42l-0.9,3.9c-0.1,0.5-0.5,0.8-0.9,0.8c-0.5,0-0.9-0.4-0.9-0.9l-0.5-4c-0.1-1.1,0.6-2,1.6-2h0
			C89.8,39.8,90.5,40.9,90.3,42z"/>
		<path style="fill:#694B4B;" d="M69,23.9l1.2,0.9c-5.3,4.3-4.3,11.6-4.3,11.6c1.6,1.7,1.6,6,1.6,6l1.6-1.7c0,0-0.6-5,2.4-6.9
			c2.8-1.8,5.2-0.9,7.6-0.9c6.6,0,8.4-2.7,8.1-6c-0.2-1.7-2.6-5.3-8.7-5.2C76.1,21.7,71.4,22.5,69,23.9z"/>
		<path style="fill:#5A4146;" d="M68.6,32.1c0,0-0.8-3.6,1.6-7.4c-5.3,4.3-4.3,11.6-4.3,11.6c1.6,1.7,1.6,6,1.6,6l1.6-1.7
			c0,0-0.6-5,2.4-6.9c2.8-1.8,5.2-0.9,7.6-0.9c1.1,0,2-0.1,2.8-0.2C76.8,32.9,73.8,28.6,68.6,32.1z"/>
		<path style="fill:#E6AF78;" d="M66.8,42l0.9,3.9c0.1,0.5,0.5,0.8,0.9,0.8c0.5,0,0.9-0.4,0.9-0.9l0.5-4c0.1-1.1-0.6-2-1.6-2h0
			C67.3,39.8,66.5,40.9,66.8,42z"/>
		<path style="fill:#E4EAF6;" d="M88,70H84c-0.9,0-1.6,0.8-1.6,1.7h7.1C89.6,70.8,88.8,70,88,70z"/>
		<path style="fill:#694B4B;" d="M49.5,0.6c-27,0-24,36-23.9,62.1c0,1,0.5,1.9,1.2,2.4c3,2,11.2,6.6,22.6,6.6
			c11.4,0,19.6-4.6,22.6-6.6c0.8-0.5,1.2-1.4,1.2-2.4C73.5,36.7,76.5,0.6,49.5,0.6z"/>
		<path style="fill:#5A4146;" d="M47.8,0.7C22.7,2.3,25.5,37.3,25.6,62.8c0,1,0.5,1.9,1.2,2.4c3,2,11.2,6.6,22.6,6.6l6.8-52.4"/>
		<path style="fill:#694B4B;" d="M49.5,0.6C34.2,0.6,33.1,21,33.1,21c8.8-1.6,14.3,2.5,23.2-1.6l-6.8,52.4c11.4,0,19.6-4.6,22.6-6.6
			c0.8-0.5,1.2-1.4,1.2-2.4C73.5,36.7,76.5,0.6,49.5,0.6z"/>
		<path style="fill:#785550;" d="M73.4,62.8c0.1-22.4,2.3-52.2-14.2-60.1c-0.3,1.6-0.8,6.2,0.5,9.2c3.4,7.5,6.8,7.5,10.2,13.1
			c3.4,20.6-6.5,42.5-9.8,45.4c5.8-1.5,10-3.9,12-5.2C72.9,64.7,73.4,63.8,73.4,62.8z"/>
		<path style="fill:#E6AF78;" d="M75.4,68.5l-15.2-7c-1.3-0.6-2.1-1.9-2.1-3.5v-4.5H41V58c0,1.5-0.8,2.9-2.1,3.5l-15.2,7
			c-1.9,0.9-3.1,2.9-3.1,5.2v7.5c0,2.1,1.5,3.7,3.4,3.7h51.2c1.9,0,3.4-1.7,3.4-3.7v-7.5C78.5,71.4,77.3,69.3,75.4,68.5z"/>
		<path style="fill:#B4E1FA;" d="M75.4,68.5l-14.7-6.7L49.5,67l-11.1-5.3l-14.7,6.7c-1.9,0.9-3.1,2.9-3.1,5.2v7.5
			c0,2.1,1.5,3.7,3.4,3.7h51.2c1.9,0,3.4-1.7,3.4-3.7v-7.5C78.5,71.4,77.3,69.3,75.4,68.5z"/>
		<path style="fill:#D29B6E;" d="M58.1,53.5H41V58c0,1.5-0.8,2.9-2.1,3.5l-2.4,1.1C54.7,67.7,58.1,53.5,58.1,53.5z"/>
		<path style="fill:#A0D2F0;" d="M28.8,75.7l-6.8-6c-0.9,1-1.5,2.4-1.5,3.9v7.5c0,2.1,1.5,3.7,3.4,3.7h6.8v-4.8
			C30.8,78.4,30.1,76.8,28.8,75.7z"/>
		<path style="fill:#A0D2F0;" d="M78.5,81.1v-7.5c0-1.5-0.5-2.9-1.4-3.9l-6.9,6c-1.2,1.1-1.9,2.7-1.9,4.4v4.8h6.8
			C77,84.9,78.5,83.2,78.5,81.1z"/>
		<path style="fill:#A0D2F0;" d="M49.5,81.1c-0.9,0-1.7-0.8-1.7-1.9V67h3.4v12.3C51.2,80.3,50.5,81.1,49.5,81.1z"/>
		<path style="fill:#A0D2F0;" d="M49.5,67l-9.8-8c-0.6-0.5-1.5-0.3-2,0.4l-1.9,3.2l6,9.2c0.5,0.7,1.4,0.8,2,0.3L49.5,67z"/>
		<path style="fill:#A0D2F0;" d="M49.5,67l9.8-8c0.6-0.5,1.5-0.3,2,0.4l1.9,3.2l-6,9.2c-0.5,0.7-1.4,0.8-2,0.3L49.5,67z"/>
		<path style="fill:#F0C087;" d="M58.1,17.5c-8.5,9.4-25.3,1.9-25.3,16.8l1.1,11c0.2,2.5,1.5,4.7,3.5,5.9l9.7,5.9
			c1.5,0.9,3.4,0.9,5,0l9.7-5.9c2-1.2,3.3-3.4,3.5-5.9l1.2-13.1c0.1-0.9,0.1-1.9,0.1-2.8C65.9,24.7,59.8,21.2,58.1,17.5z"/>
		<path style="fill:#E6AF78;" d="M32.8,34.3l1.1,11c0.2,2.5,1.5,4.7,3.5,5.9l9.7,5.9c1.1,0.7,2.3,0.8,3.5,0.6c0,0-4.9-1.6-7.8-10.3
			c-0.9-2.7-2.1-16.7-1.1-18.4c2.1-3.4,13.9-3.7,17.3-10c-0.2-0.2-0.3-0.5-0.5-0.7c0,0,0,0,0-0.1c-0.2-0.2-0.3-0.5-0.4-0.7
			C49.5,26.8,32.8,19.4,32.8,34.3z"/>
		<path style="fill:#A0D2F0;" d="M63.2,81.1h-6.8c-0.9,0-1.7,0.8-1.7,1.9v1.9h10.2V83C64.9,82,64.1,81.1,63.2,81.1z"/>
	</g>
</g>
</svg>
